<svg width="170" height="48" viewBox="0 0 170 48" fill="none" xmlns="http://www.w3.org/2000/svg">
<path fill-rule="evenodd" clip-rule="evenodd" d="M22 46C34.1503 46 44 36.1503 44 24C44 11.8497 34.1503 2 22 2C9.84971 2 0 11.8497 0 24C0 36.1503 9.84971 46 22 46ZM28.8632 12.2485C29.1973 11.0619 28.0457 10.3601 26.994 11.1094L12.3124 21.5685C11.1718 22.3811 11.3512 24 12.5819 24H16.448V23.9701H23.9828L17.8433 26.1363L15.1368 35.7515C14.8027 36.9382 15.9542 37.6399 17.006 36.8906L31.6876 26.4315C32.8282 25.619 32.6487 24 31.4181 24H25.5553L28.8632 12.2485Z" fill="#155EEF"/>
<path d="M55.38 33.9091V30.4291H58.14V16.3891H55.38V12.9091H66.18C67.46 12.9091 68.57 13.1291 69.51 13.5691C70.47 13.9891 71.21 14.5991 71.73 15.3991C72.27 16.1791 72.54 17.1191 72.54 18.2191V18.5191C72.54 19.4791 72.36 20.2691 72 20.8891C71.64 21.4891 71.21 21.9591 70.71 22.2991C70.23 22.6191 69.77 22.8491 69.33 22.9891V23.5291C69.77 23.6491 70.25 23.8791 70.77 24.2191C71.29 24.5391 71.73 25.0091 72.09 25.6291C72.47 26.2491 72.66 27.0591 72.66 28.0591V28.3591C72.66 29.5191 72.39 30.5191 71.85 31.3591C71.31 32.1791 70.56 32.8091 69.6 33.2491C68.66 33.6891 67.56 33.9091 66.3 33.9091H55.38ZM62.1 30.3091H65.82C66.68 30.3091 67.37 30.0991 67.89 29.6791C68.43 29.2591 68.7 28.6591 68.7 27.8791V27.5791C68.7 26.7991 68.44 26.1991 67.92 25.7791C67.4 25.3591 66.7 25.1491 65.82 25.1491H62.1V30.3091ZM62.1 21.5491H65.76C66.58 21.5491 67.25 21.3391 67.77 20.9191C68.31 20.4991 68.58 19.9191 68.58 19.1791V18.8791C68.58 18.1191 68.32 17.5391 67.8 17.1391C67.28 16.7191 66.6 16.5091 65.76 16.5091H62.1V21.5491Z" fill="#101828"/>
<path d="M81.6019 34.3291C80.1219 34.3291 78.7919 34.0291 77.6119 33.4291C76.4319 32.8291 75.5019 31.9591 74.8219 30.8191C74.1419 29.6791 73.8019 28.3091 73.8019 26.7091V26.2291C73.8019 24.6291 74.1419 23.2591 74.8219 22.1191C75.5019 20.9791 76.4319 20.1091 77.6119 19.5091C78.7919 18.9091 80.1219 18.6091 81.6019 18.6091C83.0819 18.6091 84.4119 18.9091 85.5919 19.5091C86.7719 20.1091 87.7019 20.9791 88.3819 22.1191C89.0619 23.2591 89.4019 24.6291 89.4019 26.2291V26.7091C89.4019 28.3091 89.0619 29.6791 88.3819 30.8191C87.7019 31.9591 86.7719 32.8291 85.5919 33.4291C84.4119 34.0291 83.0819 34.3291 81.6019 34.3291ZM81.6019 30.9691C82.7619 30.9691 83.7219 30.5991 84.4819 29.8591C85.2419 29.0991 85.6219 28.0191 85.6219 26.6191V26.3191C85.6219 24.9191 85.2419 23.8491 84.4819 23.1091C83.7419 22.3491 82.7819 21.9691 81.6019 21.9691C80.4419 21.9691 79.4819 22.3491 78.7219 23.1091C77.9619 23.8491 77.5819 24.9191 77.5819 26.3191V26.6191C77.5819 28.0191 77.9619 29.0991 78.7219 29.8591C79.4819 30.5991 80.4419 30.9691 81.6019 30.9691Z" fill="#101828"/>
<path d="M91.391 33.9091V12.9091H95.171V33.9091H91.391Z" fill="#101828"/>
<path d="M103.56 33.9091C102.58 33.9091 101.78 33.6091 101.16 33.0091C100.56 32.3891 100.26 31.5691 100.26 30.5491V22.1491H96.5398V19.0291H100.26V14.4091H104.04V19.0291H108.12V22.1491H104.04V29.8891C104.04 30.4891 104.32 30.7891 104.88 30.7891H107.76V33.9091H103.56Z" fill="#101828"/>
<path d="M116.221 34.3291C114.281 34.3291 112.691 33.9091 111.451 33.0691C110.211 32.2291 109.461 31.0291 109.201 29.4691L112.681 28.5691C112.821 29.2691 113.051 29.8191 113.371 30.2191C113.711 30.6191 114.121 30.9091 114.601 31.0891C115.101 31.2491 115.641 31.3291 116.221 31.3291C117.101 31.3291 117.751 31.1791 118.171 30.8791C118.591 30.5591 118.801 30.1691 118.801 29.7091C118.801 29.2491 118.601 28.8991 118.201 28.6591C117.801 28.3991 117.161 28.1891 116.281 28.0291L115.441 27.8791C114.401 27.6791 113.451 27.4091 112.591 27.0691C111.731 26.7091 111.041 26.2191 110.521 25.5991C110.001 24.9791 109.741 24.1791 109.741 23.1991C109.741 21.7191 110.281 20.5891 111.361 19.8091C112.441 19.0091 113.861 18.6091 115.621 18.6091C117.281 18.6091 118.661 18.9791 119.761 19.7191C120.861 20.4591 121.581 21.4291 121.921 22.6291L118.411 23.7091C118.251 22.9491 117.921 22.4091 117.421 22.0891C116.941 21.7691 116.341 21.6091 115.621 21.6091C114.901 21.6091 114.351 21.7391 113.971 21.9991C113.591 22.2391 113.401 22.5791 113.401 23.0191C113.401 23.4991 113.601 23.8591 114.001 24.0991C114.401 24.3191 114.941 24.4891 115.621 24.6091L116.461 24.7591C117.581 24.9591 118.591 25.2291 119.491 25.5691C120.411 25.8891 121.131 26.3591 121.651 26.9791C122.191 27.5791 122.461 28.3991 122.461 29.4391C122.461 30.9991 121.891 32.2091 120.751 33.0691C119.631 33.9091 118.121 34.3291 116.221 34.3291Z" fill="#101828"/>
<path d="M124.274 33.9091V12.9091H128.054V20.8591H128.594C128.754 20.5391 129.004 20.2191 129.344 19.8991C129.684 19.5791 130.134 19.3191 130.694 19.1191C131.274 18.8991 132.004 18.7891 132.884 18.7891C134.044 18.7891 135.054 19.0591 135.914 19.5991C136.794 20.1191 137.474 20.8491 137.954 21.7891C138.434 22.7091 138.674 23.7891 138.674 25.0291V33.9091H134.894V25.3291C134.894 24.2091 134.614 23.3691 134.054 22.8091C133.514 22.2491 132.734 21.9691 131.714 21.9691C130.554 21.9691 129.654 22.3591 129.014 23.1391C128.374 23.8991 128.054 24.9691 128.054 26.3491V33.9091H124.274Z" fill="#101828"/>
<path d="M141.26 33.9091V19.0291H145.04V33.9091H141.26ZM143.15 17.2891C142.47 17.2891 141.89 17.0691 141.41 16.6291C140.95 16.1891 140.72 15.6091 140.72 14.8891C140.72 14.1691 140.95 13.5891 141.41 13.1491C141.89 12.7091 142.47 12.4891 143.15 12.4891C143.85 12.4891 144.43 12.7091 144.89 13.1491C145.35 13.5891 145.58 14.1691 145.58 14.8891C145.58 15.6091 145.35 16.1891 144.89 16.6291C144.43 17.0691 143.85 17.2891 143.15 17.2891Z" fill="#101828"/>
<path d="M150.189 33.9091V22.1491H146.409V19.0291H150.189V16.2691C150.189 15.2491 150.489 14.4391 151.089 13.8391C151.709 13.2191 152.509 12.9091 153.489 12.9091H157.389V16.0291H154.809C154.249 16.0291 153.969 16.3291 153.969 16.9291V19.0291H157.869V22.1491H153.969V33.9091H150.189Z" fill="#101828"/>
<path d="M164.702 33.9091C163.722 33.9091 162.922 33.6091 162.302 33.0091C161.702 32.3891 161.402 31.5691 161.402 30.5491V22.1491H157.682V19.0291H161.402V14.4091H165.182V19.0291H169.262V22.1491H165.182V29.8891C165.182 30.4891 165.462 30.7891 166.022 30.7891H168.902V33.9091H164.702Z" fill="#101828"/>
</svg>
