<svg width="129" height="55" viewBox="0 0 129 55" fill="none" xmlns="http://www.w3.org/2000/svg">
<path d="M123.457 10.9211C123.889 10.2143 124.813 9.99161 125.52 10.4237C126.226 10.8558 126.449 11.7791 126.017 12.4859L123.457 10.9211ZM50.9831 8.18308L50.9169 6.68454L50.9173 6.68452L50.9831 8.18308ZM66.2942 48.4746L65.2573 47.3907L65.2575 47.3905L66.2942 48.4746ZM0.533601 2.03839C0.46954 1.21244 1.08717 0.490947 1.91311 0.426886C2.73906 0.362829 3.46055 0.980464 3.52461 1.80641L0.533601 2.03839ZM128.487 20.6266C128.628 21.443 128.08 22.2188 127.264 22.3593C126.447 22.4998 125.671 21.9519 125.531 21.1355L128.487 20.6266ZM125.295 10.9215L125.231 9.4229C125.985 9.39074 126.645 9.92353 126.773 10.6671L125.295 10.9215ZM115.049 12.6458C114.222 12.5952 113.592 11.8838 113.643 11.0569C113.694 10.23 114.405 9.60077 115.232 9.65143L115.049 12.6458ZM124.737 11.7035C126.017 12.4859 126.017 12.4864 126.016 12.4871C126.016 12.4876 126.015 12.4884 126.015 12.4893C126.014 12.491 126.012 12.4934 126.011 12.4964C126.007 12.5024 126.002 12.5108 125.995 12.5216C125.982 12.5432 125.962 12.5744 125.937 12.6149C125.886 12.696 125.812 12.8141 125.714 12.9666C125.519 13.2717 125.231 13.7145 124.855 14.2737C124.102 15.3917 122.996 16.9761 121.573 18.8542C118.731 22.6069 114.611 27.5509 109.508 32.2959C99.3696 41.7229 84.9983 50.6836 68.9132 47.2578L69.5381 44.3236C84.1325 47.4319 97.517 39.349 107.465 30.0989C112.405 25.5053 116.41 20.7023 119.182 17.0428C120.567 15.2148 121.64 13.6766 122.366 12.5987C122.728 12.0599 123.004 11.6364 123.187 11.3496C123.279 11.2062 123.348 11.097 123.393 11.0247C123.416 10.9886 123.432 10.9616 123.443 10.9443C123.448 10.9356 123.452 10.9293 123.455 10.9254C123.456 10.9235 123.457 10.9222 123.457 10.9214C123.457 10.9211 123.457 10.921 123.458 10.9208C123.458 10.9209 123.457 10.9211 124.737 11.7035ZM68.9132 47.2578C53.0709 43.8838 44.7167 34.2516 42.1657 25.1623C40.8999 20.6523 41.0536 16.2193 42.5282 12.7951C44.0226 9.32479 46.9139 6.86134 50.9169 6.68454L51.0493 9.68162C48.3994 9.79866 46.4098 11.3663 45.2836 13.9816C44.1375 16.643 43.931 20.35 45.0541 24.3517C47.2809 32.2857 54.7007 41.1636 69.5381 44.3236L68.9132 47.2578ZM50.9173 6.68452C54.7041 6.51833 58.7045 8.15346 62.2378 10.7739C65.7914 13.4094 69.0079 17.1372 71.2403 21.405C75.7145 29.958 76.3258 40.9563 67.331 49.5586L65.2575 47.3905C73.0195 39.9672 72.6269 30.5277 68.5821 22.7955C66.5551 18.9206 63.6334 15.5439 60.4507 13.1835C57.2477 10.808 53.9138 9.5559 51.0489 9.68164L50.9173 6.68452ZM67.3311 49.5585C62.7263 53.9635 56.2977 55.3964 49.42 54.6245C42.544 53.8527 35.078 50.8724 28.1201 46.2513C14.2232 37.0217 2.00442 21.0018 0.533601 2.03839L3.52461 1.80641C4.90684 19.6277 16.4452 34.896 29.7799 43.7523C36.4379 48.1742 43.4562 50.9362 49.7546 51.6432C56.0511 52.3499 61.4867 50.9977 65.2573 47.3907L67.3311 49.5585ZM125.531 21.1355L123.817 11.176L126.773 10.6671L128.487 20.6266L125.531 21.1355ZM125.295 10.9215C125.359 12.4202 125.359 12.4202 125.359 12.4202C125.359 12.4202 125.359 12.4202 125.359 12.4202C125.358 12.4202 125.358 12.4202 125.357 12.4202C125.356 12.4203 125.355 12.4204 125.353 12.4204C125.349 12.4206 125.343 12.4209 125.335 12.4212C125.319 12.4219 125.296 12.4228 125.266 12.4241C125.205 12.4267 125.116 12.4304 125.001 12.435C124.773 12.4444 124.445 12.4576 124.045 12.473C123.246 12.5039 122.159 12.5438 121.009 12.5799C118.751 12.6509 116.127 12.7119 115.049 12.6458L115.232 9.65143C116.137 9.7069 118.591 9.65439 120.915 9.5814C122.055 9.54556 123.135 9.50592 123.93 9.47523C124.327 9.45988 124.653 9.44679 124.879 9.43753C124.992 9.4329 125.08 9.42924 125.14 9.42673C125.17 9.42548 125.193 9.42452 125.208 9.42387C125.216 9.42355 125.222 9.4233 125.226 9.42314C125.227 9.42306 125.229 9.423 125.23 9.42296C125.23 9.42294 125.231 9.42292 125.231 9.42291C125.231 9.42291 125.231 9.4229 125.231 9.4229C125.231 9.4229 125.231 9.4229 125.295 10.9215Z" fill="#2970FF"/>
</svg>
