<svg width="103" height="22" viewBox="0 0 103 22" fill="none" xmlns="http://www.w3.org/2000/svg">
<path d="M0 0.5H20.55C20.55 7.49146 20.55 14.5085 20.55 21.5H0V0.5ZM1.51178 3.80366C2.43423 8.05488 3.25418 12.3573 4.12538 16.6341C4.27912 17.1463 4.17662 17.8122 4.68909 18.1707C5.58591 18.3244 6.50836 18.2732 7.40518 18.2219C7.89202 18.2476 8.02014 17.6585 8.09701 17.2744C8.71197 14.2268 9.37818 11.2049 9.99314 8.15732C10.0444 7.87561 10.1213 7.5939 10.2494 7.3378C11.0181 10.6159 11.6587 13.8939 12.3505 17.172C12.453 17.5305 12.4786 17.9402 12.8117 18.1707C13.7854 18.2988 14.7847 18.2988 15.7584 18.1707C16.1171 17.9659 16.1171 17.5305 16.2196 17.172C17.1165 12.7159 17.962 8.23415 18.9101 3.77805C18.0389 3.77805 17.1933 3.77805 16.3221 3.77805C15.6303 7.67073 15.0922 11.5634 14.3235 15.4305C13.4779 12.1524 12.8886 8.79756 12.1455 5.46829C11.9662 4.90488 12.043 4.08537 11.4281 3.77805C10.6594 3.72683 9.91628 3.72683 9.14757 3.77805C8.71197 3.80366 8.60948 4.31585 8.53261 4.64878C7.94327 7.97805 7.22581 11.2561 6.5596 14.5341C6.48273 14.8415 6.38024 15.1232 6.27775 15.4305C5.58591 11.5634 4.94533 7.67073 4.33036 3.80366C3.3823 3.80366 2.45985 3.80366 1.51178 3.80366Z" fill="#344054"/>
<path d="M40.9462 0.5H61.4963C61.4963 7.49146 61.4963 14.5085 61.4963 21.5H40.9462C40.9462 14.5085 40.9462 7.49146 40.9462 0.5ZM45.5841 3.80366C45.5841 8.61829 45.5841 13.4073 45.5841 18.1963C46.5322 18.1963 47.4802 18.1963 48.4283 18.1963C48.4283 16.3268 48.4283 14.4317 48.4283 12.5622C49.9657 12.5622 51.5287 12.5622 53.0661 12.5622C53.6299 12.511 54.2961 12.9207 54.2961 13.5354C54.3729 15.0976 54.5011 16.6341 54.6036 18.1963C55.5004 18.1963 56.4228 18.1963 57.3196 18.1963C57.0634 16.4293 57.3709 14.611 56.884 12.8951C56.6278 11.9988 55.6285 11.7939 54.8598 11.5634C55.4491 11.2561 56.1922 11.2305 56.6022 10.6671C57.2171 9.89878 57.2684 8.87439 57.2684 7.92683C57.2684 6.82561 57.294 5.62195 56.5766 4.7C56.0128 3.93171 54.9623 3.82927 54.0911 3.82927C51.2213 3.80366 48.4027 3.80366 45.5841 3.80366Z" fill="#344054"/>
<path d="M81.9438 0.5H102.75V21.5H81.9438C81.9438 14.5085 81.9438 7.49146 81.9438 0.5ZM86.5816 3.80366C86.5816 8.61829 86.5816 13.4073 86.5816 18.1963C88.9902 18.1963 91.3732 18.1963 93.7562 18.1963C95.2423 18.1707 96.9591 17.889 97.8303 16.5829C98.8809 14.9183 98.7015 12.8951 98.9065 11.0256C98.7271 9.1561 98.8809 7.10732 97.8303 5.44268C97.0104 4.21341 95.4217 3.88049 94.038 3.82927C91.5526 3.77805 89.0671 3.80366 86.5816 3.80366Z" fill="#344054"/>
<path d="M25.7772 3.65C29.0826 3.65 32.388 3.65 35.7191 3.65C35.7191 4.52074 35.7191 5.36586 35.7191 6.23659C34.5404 6.23659 33.3874 6.23659 32.2087 6.23659C32.2087 9.4122 32.2087 12.5878 32.2087 15.7634C33.3874 15.7634 34.5404 15.7634 35.7191 15.7634C35.7191 16.6085 35.7191 17.4793 35.7191 18.35C32.4137 18.35 29.1082 18.35 25.7772 18.35C25.7516 17.4793 25.7516 16.6341 25.7772 15.7634C26.9559 15.7634 28.1089 15.7634 29.2876 15.7634C29.2876 12.5878 29.2876 9.4122 29.2876 6.23659C28.1089 6.23659 26.9559 6.23659 25.7772 6.23659C25.7772 5.36586 25.7772 4.52074 25.7772 3.65Z" fill="#344054"/>
<path d="M65.1604 3.65001C69.2089 3.6244 73.2831 3.6244 77.3316 3.65001C77.3316 5.23781 77.3316 6.82562 77.3316 8.43903C76.4604 8.43903 75.5636 8.43903 74.6924 8.43903C74.6924 7.69635 74.6924 6.97928 74.6924 6.23659C73.1037 6.23659 71.515 6.23659 69.9264 6.23659C69.9264 7.33781 69.9264 8.43903 69.9264 9.54025C71.2076 9.54025 72.4887 9.54025 73.7699 9.54025C73.7699 10.3598 73.7699 11.1793 73.7699 11.9988C72.4887 11.9988 71.2076 11.9988 69.9264 11.9988C69.9264 13.2537 69.9264 14.5085 69.9264 15.7634C71.5663 15.7378 73.1806 15.7634 74.8205 15.7634C74.8205 14.9183 74.8205 14.0988 74.8205 13.2537C75.7173 13.2537 76.6141 13.2537 77.5109 13.2537C77.5109 14.9439 77.5109 16.6598 77.5109 18.35C73.3856 18.35 69.2858 18.35 65.1604 18.35C65.1348 17.4793 65.1604 16.6342 65.1604 15.7634C65.8266 15.7634 66.4672 15.7634 67.1078 15.7634C67.1078 12.5878 67.1078 9.4122 67.1078 6.23659C66.4672 6.23659 65.801 6.23659 65.1604 6.23659C65.1604 5.36586 65.1604 4.52074 65.1604 3.65001Z" fill="#344054"/>
<path d="M48.4284 6.15975C50.2477 6.18536 52.0925 6.10853 53.9118 6.18536C54.6293 6.67195 54.4755 7.69634 54.5011 8.43902C54.4755 9.13048 54.4499 10.2317 53.5275 10.2829C51.8363 10.3598 50.1195 10.2829 48.4028 10.3085C48.4284 8.95121 48.4284 7.54268 48.4284 6.15975Z" fill="#344054"/>
<path d="M89.4259 6.15976C90.9633 6.15976 92.5263 6.15976 94.0637 6.15976C94.7555 6.15976 95.5498 6.49268 95.7548 7.18415C96.2417 8.56707 96.0367 10.078 96.0879 11.5122C96.0367 12.6646 96.1648 13.8683 95.6779 14.9439C95.3448 15.6354 94.4993 15.8146 93.8074 15.8146C92.3469 15.8146 90.8864 15.8146 89.4259 15.8146C89.4259 12.6134 89.4259 9.38658 89.4259 6.15976Z" fill="#344054"/>
</svg>
