<svg width="99" height="15" viewBox="0 0 99 15" fill="none" xmlns="http://www.w3.org/2000/svg">
<path d="M16.2068 13.0413V2.19307C16.2068 1.62871 16.3318 1.20545 16.5975 0.923267C16.8476 0.641089 17.1914 0.5 17.5977 0.5C18.0197 0.5 18.3635 0.641089 18.6136 0.923267C18.8793 1.20545 19.0043 1.62871 19.0043 2.19307V13.0413C19.0043 13.6056 18.8793 14.0446 18.6136 14.3267C18.3479 14.6089 18.0197 14.75 17.5977 14.75C17.1914 14.75 16.8632 14.6089 16.6131 14.3267C16.3475 14.0289 16.2068 13.6056 16.2068 13.0413Z" fill="#344054"/>
<path d="M91.8332 14.7343C87.9261 14.7343 84.7379 11.5363 84.7379 7.61716C84.7379 3.69802 87.9261 0.5 91.8332 0.5C95.7403 0.5 98.9285 3.69802 98.9285 7.61716C98.9285 11.552 95.7559 14.7343 91.8332 14.7343ZM91.8332 3.38449C89.5045 3.38449 87.6135 5.28135 87.6135 7.61716C87.6135 9.95297 89.5045 11.8498 91.8332 11.8498C94.1618 11.8498 96.0529 9.95297 96.0529 7.61716C96.0529 5.29703 94.1618 3.38449 91.8332 3.38449Z" fill="#344054"/>
<path d="M59.9979 14.7343C56.0907 14.7343 52.9025 11.5363 52.9025 7.61716C52.9025 3.69802 56.0907 0.5 59.9979 0.5C63.905 0.5 67.0932 3.69802 67.0932 7.61716C67.0932 11.552 63.905 14.7343 59.9979 14.7343ZM59.9979 3.38449C57.6692 3.38449 55.7782 5.28135 55.7782 7.61716C55.7782 9.95297 57.6692 11.8498 59.9979 11.8498C62.3265 11.8498 64.2176 9.95297 64.2176 7.61716C64.2176 5.29703 62.3265 3.38449 59.9979 3.38449Z" fill="#344054"/>
<path d="M82.4717 7.61716C82.4717 6.04951 81.9559 4.59158 81.0964 3.41584C79.8461 1.7071 77.8456 0.578383 75.5795 0.5C75.5013 0.5 75.4388 0.5 75.3607 0.5H71.7974C71.1879 0.5 70.7503 0.641089 70.4846 0.923267C70.2189 1.20545 70.0782 1.64439 70.0782 2.27145V12.9785C70.0782 13.6056 70.2189 14.0446 70.4846 14.3267C70.7503 14.6089 71.2035 14.75 71.7974 14.75H75.3607C75.4388 14.75 75.5013 14.75 75.5795 14.75C77.8456 14.6873 79.8305 13.5586 81.0964 11.8342C81.9559 10.6427 82.4717 9.18482 82.4717 7.61716ZM75.8764 11.8185C75.5326 11.8342 75.1575 11.8498 74.7668 11.8498H72.907V3.38449H74.7668C75.1575 3.38449 75.5326 3.38449 75.8764 3.41584C77.1111 3.55693 78.1738 4.2467 78.8459 5.21865C79.3147 5.89274 79.596 6.7236 79.596 7.61716C79.596 8.51073 79.3147 9.32591 78.8459 10C78.1738 11.0033 77.1111 11.6774 75.8764 11.8185Z" fill="#344054"/>
<path d="M48.886 0.562669C48.3702 0.405903 47.8076 0.609699 47.5107 1.06432L43.2285 7.60145L38.9462 1.06432C38.6493 0.609699 38.0867 0.405903 37.5709 0.562669C37.0552 0.719435 36.6957 1.22108 36.6957 1.76976V13.3861C36.6957 14.0759 37.2427 14.6559 37.9304 14.6559C38.6024 14.6559 39.165 14.0915 39.165 13.3861V5.90838L42.197 10.5486C42.197 10.5486 42.197 10.5486 42.197 10.5643C42.197 10.5643 42.197 10.58 42.2126 10.58C42.2282 10.6113 42.2439 10.6427 42.2751 10.6584C42.2907 10.6741 42.2907 10.6741 42.3064 10.6897C42.322 10.7054 42.3376 10.7368 42.3533 10.7524C42.3689 10.7681 42.3845 10.7838 42.4001 10.7995C42.4158 10.8151 42.4314 10.8151 42.4314 10.8308C42.4627 10.8465 42.4783 10.8622 42.5095 10.8935L42.5252 10.9092C42.5564 10.9249 42.5877 10.9406 42.6033 10.9562C42.6189 10.9562 42.6189 10.9719 42.6189 10.9719C42.6346 10.9876 42.6658 10.9876 42.6815 11.0033C42.8065 11.066 42.9315 11.0973 43.0722 11.113C43.1034 11.113 43.1191 11.113 43.1503 11.113C43.1659 11.113 43.1816 11.113 43.1972 11.113C43.2128 11.113 43.2285 11.113 43.2441 11.113C43.2753 11.113 43.291 11.113 43.3222 11.113C43.4473 11.0973 43.5879 11.066 43.7129 11.0033C43.7286 10.9876 43.7598 10.9876 43.7754 10.9719L43.7911 10.9562C43.8223 10.9406 43.8536 10.9249 43.8692 10.9092C43.8848 10.9092 43.8848 10.8935 43.8848 10.8935C43.9161 10.8778 43.9317 10.8622 43.963 10.8308C43.9786 10.8151 43.9942 10.8151 43.9942 10.7995C44.0099 10.7838 44.0255 10.7681 44.0411 10.7524C44.0568 10.7368 44.0724 10.7211 44.088 10.6897C44.1036 10.6741 44.1036 10.6741 44.1193 10.6584C44.1349 10.627 44.1662 10.6113 44.1818 10.58L44.1974 10.5643C44.1974 10.5643 44.1974 10.5643 44.1974 10.5486L47.2293 5.90838V13.3861C47.2293 14.0759 47.7763 14.6559 48.464 14.6559C49.136 14.6559 49.6986 14.0915 49.6986 13.3861V1.76976C49.7612 1.22108 49.4017 0.719435 48.886 0.562669Z" fill="#344054"/>
<path d="M32.5073 14.3111H23.3021C22.8176 14.3111 22.2863 14.0132 22.0831 13.5429C21.8799 13.0726 21.8487 12.4299 22.2706 11.9125L29.7879 3.14934H23.5678C22.8958 3.14934 22.3331 2.55363 22.3331 1.83251C22.3331 1.11139 22.8801 0.656766 23.5678 0.656766H31.9447C32.4292 0.656766 32.9293 0.735148 33.3669 1.22112C33.7732 1.66007 33.742 2.61634 33.3044 3.18069L26.0371 11.6774H32.5073C33.195 11.6774 33.6794 12.2731 33.6794 12.9942C33.6794 13.7153 33.195 14.3111 32.5073 14.3111Z" fill="#344054"/>
<path d="M7.04846 14.7343C5.00112 14.7343 3.15696 13.9191 1.82854 12.4455C0.672026 11.1601 0 9.45132 0 7.75825C0 2.47525 4.37598 0.5 7.14223 0.5C9.86159 0.5 11.8464 1.83251 11.9402 1.89521C12.5497 2.31848 12.7216 3.14934 12.2996 3.7764C11.8933 4.40346 11.065 4.56023 10.4555 4.15264C10.4242 4.13696 9.00203 3.21205 7.14223 3.21205C5.40747 3.21205 3.0163 4.35643 3.0163 7.75825C3.0163 9.68647 4.45413 11.9752 7.07972 11.9752C8.56443 11.9752 9.59591 11.5833 10.2054 11.1914V9.18482H8.17371C7.43917 9.18482 6.84529 8.57343 6.84529 7.83663C6.84529 7.08416 7.43917 6.48845 8.17371 6.48845H11.5651C12.2996 6.48845 12.8935 7.09983 12.8935 7.83663V11.8655C12.8935 12.2261 12.7529 12.5866 12.4872 12.8375C11.5964 13.7153 9.62717 14.7343 7.04846 14.7343Z" fill="#344054"/>
</svg>
