<svg width="22" height="22" viewBox="0 0 22 22" fill="none" xmlns="http://www.w3.org/2000/svg">
<path d="M15.8608 0.711267L13.4488 3.12763L18.8705 8.54928L21.2825 6.13725C22.2309 5.18889 22.2309 3.65593 21.2825 2.70758L19.2905 0.711267C18.3422 -0.237089 16.8092 -0.237089 15.8608 0.711267ZM12.3792 4.01536L11.9808 4.13661L5.74072 6.00734C4.87897 6.26716 4.19477 6.92538 3.90896 7.7828L0.0722372 19.2237C-0.0923177 19.713 0.0289333 20.2587 0.388356 20.6267L7.03984 13.9796C6.90993 13.7068 6.83631 13.4036 6.83631 13.0832C6.83631 11.9356 7.76734 11.0046 8.9149 11.0046C10.0625 11.0046 10.9935 11.9356 10.9935 13.0832C10.9935 14.2308 10.0625 15.1618 8.9149 15.1618C8.59445 15.1618 8.29132 15.0882 8.01851 14.9583L1.36702 21.6097C1.73944 21.9692 2.28074 22.0947 2.77007 21.9259L14.2153 18.0891C15.0684 17.8033 15.7309 17.1191 15.9908 16.2574L17.8615 10.0173L17.9827 9.61888L12.3792 4.01536Z" fill="#475467"/>
</svg>
