<svg width="32" height="32" viewBox="0 0 32 32" fill="none" xmlns="http://www.w3.org/2000/svg">
<path d="M30 16C30 17.8385 29.6379 19.659 28.9343 21.3576C28.2308 23.0561 27.1995 24.5995 25.8995 25.8995C24.5995 27.1995 23.0561 28.2307 21.3576 28.9343C19.659 29.6379 17.8385 30 16 30C14.1615 30 12.341 29.6379 10.6424 28.9343C8.94387 28.2307 7.40052 27.1995 6.1005 25.8995C4.80048 24.5995 3.76925 23.0561 3.06569 21.3576C2.36212 19.659 2 17.8385 2 16C2 14.1615 2.36212 12.341 3.06569 10.6424C3.76926 8.94387 4.80049 7.40052 6.10051 6.1005C7.40053 4.80048 8.94388 3.76925 10.6424 3.06568C12.341 2.36212 14.1615 2 16 2C17.8385 2 19.659 2.36212 21.3576 3.06569C23.0561 3.76926 24.5995 4.80049 25.8995 6.10051C27.1995 7.40053 28.2308 8.94388 28.9343 10.6424C29.6379 12.341 30 14.1615 30 16L30 16Z" stroke="#F2F4F7" stroke-width="4" stroke-linecap="round" stroke-linejoin="round"/>
<path d="M16 2C18.3954 2 20.7507 2.61462 22.8407 3.78506C24.9307 4.9555 26.6854 6.64261 27.937 8.68502C29.1886 10.7274 29.8952 13.0568 29.9892 15.4504C30.0833 17.8439 29.5616 20.2216 28.4741 22.3559C27.3866 24.4902 25.7697 26.3098 23.778 27.6406C21.7863 28.9714 19.4864 29.7689 17.0984 29.9568C14.7104 30.1448 12.3141 29.7169 10.1388 28.714C7.96341 27.7112 6.08174 26.1669 4.67376 24.229" stroke="#155EEF" stroke-width="4" stroke-linecap="round" stroke-linejoin="round"/>
</svg>
