<svg width="1056" height="628" viewBox="0 0 1056 628" fill="none" xmlns="http://www.w3.org/2000/svg">
<g opacity="0.5" clip-path="url(#clip0_1011_11587)">
<rect width="1056" height="751" transform="matrix(-1 0 0 -1 1056 690)" fill="white"/>
<g filter="url(#filter0_f_1011_11587)">
<path d="M-24 -12.9338C-24 -324.698 228.735 -577.434 540.5 -577.434C852.265 -577.434 1105 -324.698 1105 -12.9338C1105 129.16 1052.5 291.279 965.839 425.653C862.359 586.107 710.171 707 540.5 707C373.687 707 416.583 424.611 313.241 268.194C223.442 132.275 -24 132.018 -24 -12.9338Z" fill="#6AA6F9"/>
</g>
<g filter="url(#filter1_f_1011_11587)">
<circle cx="-293.75" cy="129.25" r="745.75" transform="rotate(-180 -293.75 129.25)" fill="#EBF9E5"/>
</g>
</g>
<defs>
<filter id="filter0_f_1011_11587" x="-444" y="-997.434" width="1969" height="2124.43" filterUnits="userSpaceOnUse" color-interpolation-filters="sRGB">
<feFlood flood-opacity="0" result="BackgroundImageFix"/>
<feBlend mode="normal" in="SourceGraphic" in2="BackgroundImageFix" result="shape"/>
<feGaussianBlur stdDeviation="210" result="effect1_foregroundBlur_1011_11587"/>
</filter>
<filter id="filter1_f_1011_11587" x="-1659.5" y="-1236.5" width="2731.5" height="2731.5" filterUnits="userSpaceOnUse" color-interpolation-filters="sRGB">
<feFlood flood-opacity="0" result="BackgroundImageFix"/>
<feBlend mode="normal" in="SourceGraphic" in2="BackgroundImageFix" result="shape"/>
<feGaussianBlur stdDeviation="310" result="effect1_foregroundBlur_1011_11587"/>
</filter>
<clipPath id="clip0_1011_11587">
<rect width="1056" height="751" fill="white" transform="matrix(-1 0 0 -1 1056 690)"/>
</clipPath>
</defs>
</svg>
