<svg width="30" height="37" viewBox="0 0 30 37" fill="none" xmlns="http://www.w3.org/2000/svg">
<path d="M18.3334 16.8334H8.33341M11.6667 23.5H8.33341M21.6667 10.1667H8.33341M28.3334 9.83337V27.1667C28.3334 29.967 28.3334 31.3671 27.7884 32.4367C27.3091 33.3775 26.5442 34.1424 25.6034 34.6217C24.5338 35.1667 23.1337 35.1667 20.3334 35.1667H9.66675C6.86649 35.1667 5.46635 35.1667 4.3968 34.6217C3.45599 34.1424 2.69108 33.3775 2.21172 32.4367C1.66675 31.3671 1.66675 29.967 1.66675 27.1667V9.83337C1.66675 7.03311 1.66675 5.63298 2.21172 4.56342C2.69108 3.62261 3.45599 2.85771 4.3968 2.37834C5.46635 1.83337 6.86649 1.83337 9.66675 1.83337H20.3334C23.1337 1.83337 24.5338 1.83337 25.6034 2.37834C26.5442 2.85771 27.3091 3.62261 27.7884 4.56342C28.3334 5.63298 28.3334 7.03311 28.3334 9.83337Z" stroke="#475467" stroke-width="3" stroke-linecap="round" stroke-linejoin="round"/>
</svg>
