<svg width="203" height="48" viewBox="0 0 203 48" fill="none" xmlns="http://www.w3.org/2000/svg">
<path d="M24.4589 26C23.9508 19.8405 18.7907 15 12.5 15C5.87258 15 0.5 20.3726 0.5 27C0.5 33.6274 5.87258 39 12.5 39H30.5V26H24.4589Z" fill="#528BFF"/>
<circle cx="29.5" cy="24" r="15" fill="#7839EE"/>
<path d="M53.396 24.2001C53.396 22.2027 53.7787 20.4574 54.544 18.9641C55.328 17.4521 56.4387 16.2854 57.876 15.4641C59.332 14.6427 61.04 14.2321 63 14.2321C64.5307 14.2321 65.9027 14.5307 67.116 15.1281C68.3293 15.7254 69.3093 16.5654 70.056 17.6481C70.8027 18.7307 71.2507 19.9814 71.4 21.4001H67.2C66.9573 20.2801 66.444 19.4027 65.66 18.7681C64.8947 18.1147 63.9333 17.7881 62.776 17.7881C61.208 17.7881 59.9667 18.3761 59.052 19.5521C58.1373 20.7281 57.68 22.2774 57.68 24.2001C57.68 26.1041 58.1373 27.6534 59.052 28.8481C59.9667 30.0241 61.208 30.6121 62.776 30.6121C63.9333 30.6121 64.8947 30.2947 65.66 29.6601C66.444 29.0067 66.9573 28.1201 67.2 27.0001H71.4C71.2507 28.4187 70.8027 29.6694 70.056 30.7521C69.3093 31.8347 68.3293 32.6747 67.116 33.2721C65.9027 33.8694 64.5307 34.1681 63 34.1681C61.04 34.1681 59.332 33.7574 57.876 32.9361C56.4387 32.1147 55.328 30.9574 54.544 29.4641C53.7787 27.9521 53.396 26.1974 53.396 24.2001Z" fill="#101828"/>
<path d="M72.4122 14.4001H76.3602V34.0001H72.4122V14.4001Z" fill="#101828"/>
<path d="M85.0194 34.1681C83.5074 34.1681 82.1727 33.8694 81.0154 33.2721C79.8767 32.6561 78.99 31.7881 78.3554 30.6681C77.7394 29.5481 77.4314 28.2601 77.4314 26.8041C77.4314 25.3481 77.7394 24.0601 78.3554 22.9401C78.99 21.8201 79.8767 20.9614 81.0154 20.3641C82.1727 19.7481 83.5074 19.4401 85.0194 19.4401C86.5314 19.4401 87.8567 19.7481 88.9954 20.3641C90.1527 20.9614 91.0394 21.8201 91.6554 22.9401C92.29 24.0601 92.6074 25.3481 92.6074 26.8041C92.6074 28.2787 92.29 29.5761 91.6554 30.6961C91.0394 31.7974 90.1527 32.6561 88.9954 33.2721C87.8567 33.8694 86.5314 34.1681 85.0194 34.1681ZM85.0194 30.9481C86.1207 30.9481 86.9887 30.5654 87.6234 29.8001C88.2767 29.0347 88.6034 28.0361 88.6034 26.8041C88.6034 25.5721 88.2767 24.5734 87.6234 23.8081C86.9887 23.0427 86.1207 22.6601 85.0194 22.6601C83.9367 22.6601 83.0687 23.0427 82.4154 23.8081C81.7807 24.5734 81.4634 25.5721 81.4634 26.8041C81.4634 28.0361 81.7807 29.0347 82.4154 29.8001C83.0687 30.5654 83.9367 30.9481 85.0194 30.9481Z" fill="#101828"/>
<path d="M107.212 19.6081V34.0001H103.712L103.348 32.2641C102.844 32.8614 102.256 33.3281 101.584 33.6641C100.912 34.0001 100.091 34.1681 99.1204 34.1681C97.4404 34.1681 96.0684 33.6547 95.0044 32.6281C93.9404 31.5827 93.4084 29.8467 93.4084 27.4201V19.6081H97.3564V26.9441C97.3564 28.2507 97.5804 29.2401 98.0284 29.9121C98.4951 30.5654 99.2044 30.8921 100.156 30.8921C101.146 30.8921 101.911 30.5281 102.452 29.8001C102.994 29.0534 103.264 28.0174 103.264 26.6921V19.6081H107.212Z" fill="#101828"/>
<path d="M123.229 14.4001V34.0001H119.785L119.393 32.0121C118.292 33.4494 116.799 34.1681 114.913 34.1681C113.644 34.1681 112.505 33.8694 111.497 33.2721C110.489 32.6561 109.696 31.7881 109.117 30.6681C108.557 29.5481 108.277 28.2507 108.277 26.7761C108.277 25.3201 108.557 24.0414 109.117 22.9401C109.696 21.8201 110.489 20.9614 111.497 20.3641C112.524 19.7481 113.672 19.4401 114.941 19.4401C116.808 19.4401 118.255 20.0934 119.281 21.4001V14.4001H123.229ZM115.837 30.9481C116.901 30.9481 117.751 30.5747 118.385 29.8281C119.02 29.0627 119.337 28.0641 119.337 26.8321C119.337 25.5814 119.02 24.5734 118.385 23.8081C117.751 23.0427 116.901 22.6601 115.837 22.6601C114.773 22.6601 113.915 23.0427 113.261 23.8081C112.627 24.5734 112.309 25.5721 112.309 26.8041C112.309 28.0361 112.627 29.0347 113.261 29.8001C113.915 30.5654 114.773 30.9481 115.837 30.9481Z" fill="#101828"/>
<path d="M123.742 14.4001L128.082 14.3721L131.694 28.7081L135.53 14.4001H139.31L143.034 28.7081L146.73 14.4001H150.986L145.554 34.0001H140.71L137.322 20.9801L134.018 34.0001H129.174L123.742 14.4001Z" fill="#101828"/>
<path d="M164.16 30.6681V34.0001H162.144C160.333 34.0001 159.446 33.2161 159.484 31.6481C158.961 32.4694 158.317 33.0947 157.552 33.5241C156.787 33.9534 155.863 34.1681 154.78 34.1681C153.175 34.1681 151.877 33.8041 150.888 33.0761C149.917 32.3294 149.432 31.2841 149.432 29.9401C149.432 28.4094 149.992 27.2334 151.112 26.4121C152.25 25.5721 153.893 25.1521 156.04 25.1521H158.896V24.4521C158.896 23.7987 158.653 23.2854 158.168 22.9121C157.683 22.5201 157.029 22.3241 156.208 22.3241C155.48 22.3241 154.882 22.4827 154.416 22.8001C153.949 23.1174 153.669 23.5467 153.576 24.0881H149.768C149.899 22.6134 150.552 21.4747 151.728 20.6721C152.904 19.8507 154.463 19.4401 156.404 19.4401C158.439 19.4401 160.007 19.8881 161.108 20.7841C162.228 21.6801 162.788 22.9774 162.788 24.6761V29.7441C162.788 30.0987 162.863 30.3414 163.012 30.4721C163.161 30.6027 163.395 30.6681 163.712 30.6681H164.16ZM158.896 27.7841H156.012C155.191 27.7841 154.547 27.9521 154.08 28.2881C153.632 28.6054 153.408 29.0627 153.408 29.6601C153.408 30.1641 153.595 30.5654 153.968 30.8641C154.36 31.1627 154.883 31.3121 155.536 31.3121C156.563 31.3121 157.374 31.0227 157.972 30.4441C158.569 29.8467 158.877 29.0534 158.896 28.0641V27.7841Z" fill="#101828"/>
<path d="M165.491 22.9401H163.111V19.6081H165.491V15.5761H169.439V19.6081H172.715V22.9401H169.439V29.2401C169.439 29.7441 169.542 30.1081 169.747 30.3321C169.971 30.5561 170.335 30.6681 170.839 30.6681H172.883V34.0001H169.607C166.863 34.0001 165.491 32.6281 165.491 29.8841V22.9401Z" fill="#101828"/>
<path d="M187.041 28.5401C186.78 30.2947 186.033 31.6761 184.801 32.6841C183.588 33.6734 182.01 34.1681 180.069 34.1681C178.576 34.1681 177.269 33.8694 176.149 33.2721C175.029 32.6561 174.161 31.7881 173.545 30.6681C172.948 29.5481 172.649 28.2601 172.649 26.8041C172.649 25.3294 172.948 24.0414 173.545 22.9401C174.161 21.8201 175.029 20.9614 176.149 20.3641C177.288 19.7481 178.604 19.4401 180.097 19.4401C182.02 19.4401 183.588 19.9347 184.801 20.9241C186.014 21.8947 186.761 23.2481 187.041 24.9841H182.953C182.785 24.2747 182.449 23.7147 181.945 23.3041C181.441 22.8747 180.816 22.6601 180.069 22.6601C179.042 22.6601 178.221 23.0427 177.605 23.8081C176.989 24.5734 176.681 25.5721 176.681 26.8041C176.681 28.0361 176.989 29.0347 177.605 29.8001C178.221 30.5654 179.042 30.9481 180.069 30.9481C180.834 30.9481 181.469 30.7334 181.973 30.3041C182.496 29.8747 182.832 29.2867 182.981 28.5401H187.041Z" fill="#101828"/>
<path d="M196.262 19.4401C197.96 19.4401 199.351 19.9627 200.434 21.0081C201.535 22.0534 202.086 23.7801 202.086 26.1881V34.0001H198.138V26.3561C198.138 25.1614 197.895 24.2561 197.41 23.6401C196.924 23.0054 196.196 22.6881 195.226 22.6881C194.218 22.6881 193.424 23.0334 192.846 23.7241C192.286 24.4147 192.006 25.3761 192.006 26.6081V34.0001H188.058V14.4001H192.006V21.3721C193.07 20.0841 194.488 19.4401 196.262 19.4401Z" fill="#101828"/>
</svg>
