<svg width="66" height="66" viewBox="0 0 66 66" fill="none" xmlns="http://www.w3.org/2000/svg">
<rect x="5" y="5" width="56" height="56" rx="28" fill="#D1E0FF"/>
<path d="M21.3334 27.1667L30.8591 33.8348C31.6305 34.3747 32.0162 34.6447 32.4357 34.7493C32.8063 34.8416 33.1938 34.8416 33.5644 34.7493C33.9839 34.6447 34.3696 34.3747 35.141 33.8348L44.6667 27.1667M26.9334 42.3334H39.0667C41.0269 42.3334 42.007 42.3334 42.7557 41.9519C43.4142 41.6164 43.9497 41.081 44.2852 40.4224C44.6667 39.6737 44.6667 38.6936 44.6667 36.7334V29.2667C44.6667 27.3066 44.6667 26.3265 44.2852 25.5778C43.9497 24.9192 43.4142 24.3838 42.7557 24.0482C42.007 23.6667 41.0269 23.6667 39.0667 23.6667H26.9334C24.9732 23.6667 23.9931 23.6667 23.2444 24.0482C22.5858 24.3838 22.0504 24.9192 21.7149 25.5778C21.3334 26.3265 21.3334 27.3066 21.3334 29.2667V36.7334C21.3334 38.6936 21.3334 39.6737 21.7149 40.4224C22.0504 41.081 22.5858 41.6164 23.2444 41.9519C23.9931 42.3334 24.9732 42.3334 26.9334 42.3334Z" stroke="#155EEF" stroke-width="2" stroke-linecap="round" stroke-linejoin="round"/>
<rect x="5" y="5" width="56" height="56" rx="28" stroke="#EFF4FF" stroke-width="10"/>
</svg>
