<svg width="203" height="48" viewBox="0 0 203 48" fill="none" xmlns="http://www.w3.org/2000/svg">
<path fill-rule="evenodd" clip-rule="evenodd" d="M0.5 24C14.4836 24 22.5 15.9836 22.5 2C22.5 15.9836 30.5164 24 44.5 24C30.5164 24 22.5 32.0164 22.5 46C22.5 32.0164 14.4836 24 0.5 24Z" fill="#101828"/>
<path d="M53.1899 33.9092L60.8699 12.9092H65.1899L72.8699 33.9092H68.7899L67.1099 29.0492H58.9199L57.2099 33.9092H53.1899ZM59.9699 26.0492H66.0599L62.9999 17.3192L59.9699 26.0492Z" fill="#101828"/>
<path d="M80.572 34.2692C79.052 34.2692 77.712 33.9392 76.552 33.2792C75.392 32.6192 74.472 31.6992 73.792 30.5192C73.132 29.3392 72.802 27.9892 72.802 26.4692C72.802 24.9492 73.132 23.5992 73.792 22.4192C74.472 21.2392 75.392 20.3192 76.552 19.6592C77.712 18.9992 79.052 18.6692 80.572 18.6692C82.472 18.6692 84.072 19.1692 85.372 20.1692C86.672 21.1492 87.502 22.5092 87.862 24.2492H83.812C83.612 23.5292 83.212 22.9692 82.612 22.5692C82.032 22.1492 81.342 21.9392 80.542 21.9392C79.482 21.9392 78.582 22.3392 77.842 23.1392C77.102 23.9392 76.732 25.0492 76.732 26.4692C76.732 27.8892 77.102 28.9992 77.842 29.7992C78.582 30.5992 79.482 30.9992 80.542 30.9992C81.342 30.9992 82.032 30.7992 82.612 30.3992C83.212 29.9992 83.612 29.4292 83.812 28.6892H87.862C87.502 30.3692 86.672 31.7192 85.372 32.7392C84.072 33.7592 82.472 34.2692 80.572 34.2692Z" fill="#101828"/>
<path d="M89.7703 33.9092V19.0292H93.1603L93.4903 21.0392C93.9703 20.3192 94.6003 19.7492 95.3803 19.3292C96.1803 18.8892 97.1003 18.6692 98.1403 18.6692C100.44 18.6692 102.07 19.5592 103.03 21.3392C103.57 20.5192 104.29 19.8692 105.19 19.3892C106.11 18.9092 107.11 18.6692 108.19 18.6692C110.13 18.6692 111.62 19.2492 112.66 20.4092C113.7 21.5692 114.22 23.2692 114.22 25.5092V33.9092H110.38V25.8692C110.38 24.5892 110.13 23.6092 109.63 22.9292C109.15 22.2492 108.4 21.9092 107.38 21.9092C106.34 21.9092 105.5 22.2892 104.86 23.0492C104.24 23.8092 103.93 24.8692 103.93 26.2292V33.9092H100.09V25.8692C100.09 24.5892 99.8403 23.6092 99.3403 22.9292C98.8403 22.2492 98.0703 21.9092 97.0303 21.9092C96.0103 21.9092 95.1803 22.2892 94.5403 23.0492C93.9203 23.8092 93.6103 24.8692 93.6103 26.2292V33.9092H89.7703Z" fill="#101828"/>
<path d="M123.596 34.2692C122.096 34.2692 120.766 33.9492 119.606 33.3092C118.446 32.6692 117.536 31.7692 116.876 30.6092C116.216 29.4492 115.886 28.1092 115.886 26.5892C115.886 25.0492 116.206 23.6792 116.846 22.4792C117.506 21.2792 118.406 20.3492 119.546 19.6892C120.706 19.0092 122.066 18.6692 123.626 18.6692C125.086 18.6692 126.376 18.9892 127.496 19.6292C128.616 20.2692 129.486 21.1492 130.106 22.2692C130.746 23.3692 131.066 24.5992 131.066 25.9592C131.066 26.1792 131.056 26.4092 131.036 26.6492C131.036 26.8892 131.026 27.1392 131.006 27.3992H119.696C119.776 28.5592 120.176 29.4692 120.896 30.1292C121.636 30.7892 122.526 31.1192 123.566 31.1192C124.346 31.1192 124.996 30.9492 125.516 30.6092C126.056 30.2492 126.456 29.7892 126.716 29.2292H130.616C130.336 30.1692 129.866 31.0292 129.206 31.8092C128.566 32.5692 127.766 33.1692 126.806 33.6092C125.866 34.0492 124.796 34.2692 123.596 34.2692ZM123.626 21.7892C122.686 21.7892 121.856 22.0592 121.136 22.5992C120.416 23.1192 119.956 23.9192 119.756 24.9992H127.166C127.106 24.0192 126.746 23.2392 126.086 22.6592C125.426 22.0792 124.606 21.7892 123.626 21.7892Z" fill="#101828"/>
<path d="M148.044 34.2692C145.924 34.2692 144.104 33.8192 142.584 32.9192C141.064 31.9992 139.894 30.7292 139.074 29.1092C138.254 27.4692 137.844 25.5792 137.844 23.4392C137.844 21.2992 138.254 19.4092 139.074 17.7692C139.894 16.1292 141.064 14.8492 142.584 13.9292C144.104 13.0092 145.924 12.5492 148.044 12.5492C150.564 12.5492 152.624 13.1792 154.224 14.4392C155.844 15.6792 156.854 17.4292 157.254 19.6892H153.024C152.764 18.5492 152.204 17.6592 151.344 17.0192C150.504 16.3592 149.384 16.0292 147.984 16.0292C146.044 16.0292 144.524 16.6892 143.424 18.0092C142.324 19.3292 141.774 21.1392 141.774 23.4392C141.774 25.7392 142.324 27.5492 143.424 28.8692C144.524 30.1692 146.044 30.8192 147.984 30.8192C149.384 30.8192 150.504 30.5192 151.344 29.9192C152.204 29.2992 152.764 28.4492 153.024 27.3692H157.254C156.854 29.5292 155.844 31.2192 154.224 32.4392C152.624 33.6592 150.564 34.2692 148.044 34.2692Z" fill="#101828"/>
<path d="M166.203 34.2692C164.763 34.2692 163.463 33.9392 162.303 33.2792C161.163 32.6192 160.253 31.7092 159.573 30.5492C158.913 29.3692 158.583 28.0092 158.583 26.4692C158.583 24.9292 158.923 23.5792 159.603 22.4192C160.283 21.2392 161.193 20.3192 162.333 19.6592C163.493 18.9992 164.793 18.6692 166.233 18.6692C167.653 18.6692 168.933 18.9992 170.073 19.6592C171.233 20.3192 172.143 21.2392 172.803 22.4192C173.483 23.5792 173.823 24.9292 173.823 26.4692C173.823 28.0092 173.483 29.3692 172.803 30.5492C172.143 31.7092 171.233 32.6192 170.073 33.2792C168.913 33.9392 167.623 34.2692 166.203 34.2692ZM166.203 30.9392C167.203 30.9392 168.073 30.5692 168.813 29.8292C169.553 29.0692 169.923 27.9492 169.923 26.4692C169.923 24.9892 169.553 23.8792 168.813 23.1392C168.073 22.3792 167.213 21.9992 166.233 21.9992C165.213 21.9992 164.333 22.3792 163.593 23.1392C162.873 23.8792 162.513 24.9892 162.513 26.4692C162.513 27.9492 162.873 29.0692 163.593 29.8292C164.333 30.5692 165.203 30.9392 166.203 30.9392Z" fill="#101828"/>
<path d="M175.757 33.9092V19.0292H179.177L179.537 21.8192C180.077 20.8592 180.807 20.0992 181.727 19.5392C182.667 18.9592 183.767 18.6692 185.027 18.6692V22.7192H183.947C183.107 22.7192 182.357 22.8492 181.697 23.1092C181.037 23.3692 180.517 23.8192 180.137 24.4592C179.777 25.0992 179.597 25.9892 179.597 27.1292V33.9092H175.757Z" fill="#101828"/>
<path d="M186.151 40.5092V19.0292H189.571L189.991 21.1592C190.471 20.4992 191.101 19.9192 191.881 19.4192C192.681 18.9192 193.711 18.6692 194.971 18.6692C196.371 18.6692 197.621 19.0092 198.721 19.6892C199.821 20.3692 200.691 21.2992 201.331 22.4792C201.971 23.6592 202.291 24.9992 202.291 26.4992C202.291 27.9992 201.971 29.3392 201.331 30.5192C200.691 31.6792 199.821 32.5992 198.721 33.2792C197.621 33.9392 196.371 34.2692 194.971 34.2692C193.851 34.2692 192.871 34.0592 192.031 33.6392C191.191 33.2192 190.511 32.6292 189.991 31.8692V40.5092H186.151ZM194.161 30.9092C195.381 30.9092 196.391 30.4992 197.191 29.6792C197.991 28.8592 198.391 27.7992 198.391 26.4992C198.391 25.1992 197.991 24.1292 197.191 23.2892C196.391 22.4492 195.381 22.0292 194.161 22.0292C192.921 22.0292 191.901 22.4492 191.101 23.2892C190.321 24.1092 189.931 25.1692 189.931 26.4692C189.931 27.7692 190.321 28.8392 191.101 29.6792C191.901 30.4992 192.921 30.9092 194.161 30.9092Z" fill="#101828"/>
</svg>
