<svg width="179" height="48" viewBox="0 0 179 48" fill="none" xmlns="http://www.w3.org/2000/svg">
<circle cx="20.5" cy="24" r="17" stroke="#155EEF" stroke-width="6"/>
<path d="M66.6839 20.4132C66.6839 21.4585 66.4319 22.4385 65.9279 23.3532C65.4426 24.2679 64.6679 25.0052 63.6039 25.5652C62.5586 26.1252 61.2332 26.4052 59.6279 26.4052H56.3519V33.9092H52.4319V14.3652H59.6279C61.1399 14.3652 62.4279 14.6265 63.4919 15.1492C64.5559 15.6719 65.3492 16.3905 65.8719 17.3052C66.4132 18.2199 66.6839 19.2559 66.6839 20.4132ZM59.4599 23.2412C60.5426 23.2412 61.3452 22.9985 61.8679 22.5132C62.3906 22.0092 62.6519 21.3092 62.6519 20.4132C62.6519 18.5092 61.5879 17.5572 59.4599 17.5572H56.3519V23.2412H59.4599Z" fill="#101828"/>
<path d="M75.235 34.1612C73.7417 34.1612 72.3977 33.8345 71.203 33.1812C70.0084 32.5092 69.0657 31.5665 68.375 30.3532C67.703 29.1399 67.367 27.7399 67.367 26.1532C67.367 24.5665 67.7124 23.1665 68.403 21.9532C69.1124 20.7399 70.0737 19.8065 71.287 19.1532C72.5004 18.4812 73.8537 18.1452 75.347 18.1452C76.8404 18.1452 78.1937 18.4812 79.407 19.1532C80.6204 19.8065 81.5724 20.7399 82.263 21.9532C82.9724 23.1665 83.327 24.5665 83.327 26.1532C83.327 27.7399 82.963 29.1399 82.235 30.3532C81.5257 31.5665 80.555 32.5092 79.323 33.1812C78.1097 33.8345 76.747 34.1612 75.235 34.1612ZM75.235 30.7452C75.9444 30.7452 76.607 30.5772 77.223 30.2412C77.8577 29.8865 78.3617 29.3639 78.735 28.6732C79.1084 27.9825 79.295 27.1425 79.295 26.1532C79.295 24.6785 78.903 23.5492 78.119 22.7652C77.3537 21.9625 76.411 21.5612 75.291 21.5612C74.171 21.5612 73.2284 21.9625 72.463 22.7652C71.7164 23.5492 71.343 24.6785 71.343 26.1532C71.343 27.6279 71.707 28.7665 72.435 29.5692C73.1817 30.3532 74.115 30.7452 75.235 30.7452Z" fill="#101828"/>
<path d="M89.0025 13.1892V33.9092H85.0825V13.1892H89.0025Z" fill="#101828"/>
<path d="M106.595 18.3972L96.9915 41.2452H92.8195L96.1795 33.5172L89.9635 18.3972H94.3595L98.3635 29.2332L102.423 18.3972H106.595Z" fill="#101828"/>
<path d="M126.853 18.1732C128.757 18.1732 130.287 18.7612 131.445 19.9372C132.621 21.0945 133.209 22.7185 133.209 24.8092V33.9092H129.289V25.3412C129.289 24.1279 128.981 23.2039 128.365 22.5692C127.749 21.9159 126.909 21.5892 125.845 21.5892C124.781 21.5892 123.931 21.9159 123.297 22.5692C122.681 23.2039 122.373 24.1279 122.373 25.3412V33.9092H118.453V25.3412C118.453 24.1279 118.145 23.2039 117.529 22.5692C116.913 21.9159 116.073 21.5892 115.009 21.5892C113.926 21.5892 113.067 21.9159 112.433 22.5692C111.817 23.2039 111.509 24.1279 111.509 25.3412V33.9092H107.589V18.3972H111.509V20.2732C112.013 19.6199 112.657 19.1065 113.441 18.7332C114.243 18.3599 115.121 18.1732 116.073 18.1732C117.286 18.1732 118.369 18.4345 119.321 18.9572C120.273 19.4612 121.01 20.1892 121.533 21.1412C122.037 20.2452 122.765 19.5265 123.717 18.9852C124.687 18.4439 125.733 18.1732 126.853 18.1732Z" fill="#101828"/>
<path d="M134.8 26.0972C134.8 24.5292 135.108 23.1385 135.724 21.9252C136.359 20.7119 137.208 19.7785 138.272 19.1252C139.355 18.4719 140.559 18.1452 141.884 18.1452C143.042 18.1452 144.05 18.3785 144.908 18.8452C145.786 19.3119 146.486 19.8999 147.008 20.6092V18.3972H150.956V33.9092H147.008V31.6412C146.504 32.3692 145.804 32.9759 144.908 33.4612C144.031 33.9279 143.014 34.1612 141.856 34.1612C140.55 34.1612 139.355 33.8252 138.272 33.1532C137.208 32.4812 136.359 31.5385 135.724 30.3252C135.108 29.0932 134.8 27.6839 134.8 26.0972ZM147.008 26.1532C147.008 25.2012 146.822 24.3892 146.448 23.7172C146.075 23.0265 145.571 22.5039 144.936 22.1492C144.302 21.7759 143.62 21.5892 142.892 21.5892C142.164 21.5892 141.492 21.7665 140.876 22.1212C140.26 22.4759 139.756 22.9985 139.364 23.6892C138.991 24.3612 138.804 25.1639 138.804 26.0972C138.804 27.0305 138.991 27.8519 139.364 28.5612C139.756 29.2519 140.26 29.7839 140.876 30.1572C141.511 30.5305 142.183 30.7172 142.892 30.7172C143.62 30.7172 144.302 30.5399 144.936 30.1852C145.571 29.8119 146.075 29.2892 146.448 28.6172C146.822 27.9265 147.008 27.1052 147.008 26.1532Z" fill="#101828"/>
<path d="M158.229 21.6172V29.1212C158.229 29.6439 158.35 30.0265 158.593 30.2692C158.854 30.4932 159.284 30.6052 159.881 30.6052H161.701V33.9092H159.237C155.933 33.9092 154.281 32.3039 154.281 29.0932V21.6172H152.433V18.3972H154.281V14.5612H158.229V18.3972H161.701V21.6172H158.229Z" fill="#101828"/>
<path d="M172.136 18.1732C173.312 18.1732 174.358 18.4345 175.272 18.9572C176.187 19.4612 176.896 20.2172 177.4 21.2252C177.923 22.2145 178.184 23.4092 178.184 24.8092V33.9092H174.264V25.3412C174.264 24.1092 173.956 23.1665 173.34 22.5132C172.724 21.8412 171.884 21.5052 170.82 21.5052C169.738 21.5052 168.879 21.8412 168.244 22.5132C167.628 23.1665 167.32 24.1092 167.32 25.3412V33.9092H163.4V13.1892H167.32V20.3292C167.824 19.6572 168.496 19.1345 169.336 18.7612C170.176 18.3692 171.11 18.1732 172.136 18.1732Z" fill="#101828"/>
</svg>
