<svg width="190" height="48" viewBox="0 0 190 48" fill="none" xmlns="http://www.w3.org/2000/svg">
<path d="M22.08 4C18.44 4 15.5 6.90426 15.5 10.5C15.5 14.0681 18.44 16.9723 22.052 17C21.156 16.9723 20.456 16.2532 20.456 15.3681C20.456 14.483 21.184 13.7362 22.108 13.7362C26.028 13.7362 34.736 13.7362 38.572 13.7362C41.288 13.7362 43.5 11.5511 43.5 8.86812C43.5 6.1851 41.288 4 38.572 4L22.08 4Z" fill="#5720B7"/>
<path d="M14.08 17C10.44 17 7.5 19.9043 7.5 23.5C7.5 27.0681 10.44 29.9723 14.052 30C13.156 29.9723 12.456 29.2532 12.456 28.3681C12.456 27.483 13.184 26.7362 14.108 26.7362C18.028 26.7362 26.736 26.7362 30.572 26.7362C33.288 26.7362 35.5 24.5511 35.5 21.8681C35.5 19.1851 33.288 17 30.572 17L14.08 17Z" fill="#6927DA"/>
<path d="M8.55 30C4.65 30 1.5 33.1277 1.5 37C1.5 40.8426 4.65 43.9702 8.51998 44C7.55999 43.9702 6.81 43.1958 6.81 42.2425C6.81 41.2894 7.59002 40.4851 8.58003 40.4851C12.78 40.4851 22.11 40.4851 26.22 40.4851C29.13 40.4851 31.5 38.1319 31.5 35.2426C31.5 32.3532 29.13 30 26.22 30L8.55 30Z" fill="#7839EE"/>
<path d="M53.48 33.9091V12.9091H66.98V16.5091H57.44V21.5191H66.14V25.1191H57.44V30.3091H67.16V33.9091H53.48Z" fill="#101828"/>
<path d="M68.7113 39.9091V19.0291H72.4313V20.8291H72.9713C73.3113 20.2491 73.8413 19.7391 74.5613 19.2991C75.2813 18.8391 76.3113 18.6091 77.6513 18.6091C78.8513 18.6091 79.9613 18.9091 80.9813 19.5091C82.0013 20.0891 82.8213 20.9491 83.4413 22.0891C84.0613 23.2291 84.3713 24.6091 84.3713 26.2291V26.7091C84.3713 28.3291 84.0613 29.7091 83.4413 30.8491C82.8213 31.9891 82.0013 32.8591 80.9813 33.4591C79.9613 34.0391 78.8513 34.3291 77.6513 34.3291C76.7513 34.3291 75.9913 34.2191 75.3713 33.9991C74.7713 33.7991 74.2813 33.5391 73.9013 33.2191C73.5413 32.8791 73.2513 32.5391 73.0313 32.1991H72.4913V39.9091H68.7113ZM76.5113 31.0291C77.6913 31.0291 78.6613 30.6591 79.4213 29.9191C80.2013 29.1591 80.5913 28.0591 80.5913 26.6191V26.3191C80.5913 24.8791 80.2013 23.7891 79.4213 23.0491C78.6413 22.2891 77.6713 21.9091 76.5113 21.9091C75.3513 21.9091 74.3813 22.2891 73.6013 23.0491C72.8213 23.7891 72.4313 24.8791 72.4313 26.3191V26.6191C72.4313 28.0591 72.8213 29.1591 73.6013 29.9191C74.3813 30.6591 75.3513 31.0291 76.5113 31.0291Z" fill="#101828"/>
<path d="M86.3422 33.9091V19.0291H90.1222V33.9091H86.3422ZM88.2322 17.2891C87.5522 17.2891 86.9722 17.0691 86.4922 16.6291C86.0322 16.1891 85.8022 15.6091 85.8022 14.8891C85.8022 14.1691 86.0322 13.5891 86.4922 13.1491C86.9722 12.7091 87.5522 12.4891 88.2322 12.4891C88.9322 12.4891 89.5122 12.7091 89.9722 13.1491C90.4322 13.5891 90.6622 14.1691 90.6622 14.8891C90.6622 15.6091 90.4322 16.1891 89.9722 16.6291C89.5122 17.0691 88.9322 17.2891 88.2322 17.2891Z" fill="#101828"/>
<path d="M99.8009 34.3291C98.3609 34.3291 97.0509 34.0291 95.8709 33.4291C94.7109 32.8291 93.7909 31.9591 93.1109 30.8191C92.4309 29.6791 92.0909 28.2991 92.0909 26.6791V26.2591C92.0909 24.6391 92.4309 23.2591 93.1109 22.1191C93.7909 20.9791 94.7109 20.1091 95.8709 19.5091C97.0509 18.9091 98.3609 18.6091 99.8009 18.6091C101.221 18.6091 102.441 18.8591 103.461 19.3591C104.481 19.8591 105.301 20.5491 105.921 21.4291C106.561 22.2891 106.981 23.2691 107.181 24.3691L103.521 25.1491C103.441 24.5491 103.261 24.0091 102.981 23.5291C102.701 23.0491 102.301 22.6691 101.781 22.3891C101.281 22.1091 100.651 21.9691 99.8909 21.9691C99.1309 21.9691 98.4409 22.1391 97.8209 22.4791C97.2209 22.7991 96.7409 23.2891 96.3809 23.9491C96.0409 24.5891 95.8709 25.3791 95.8709 26.3191V26.6191C95.8709 27.5591 96.0409 28.3591 96.3809 29.0191C96.7409 29.6591 97.2209 30.1491 97.8209 30.4891C98.4409 30.8091 99.1309 30.9691 99.8909 30.9691C101.031 30.9691 101.891 30.6791 102.471 30.0991C103.071 29.4991 103.451 28.7191 103.611 27.7591L107.271 28.6291C107.011 29.6891 106.561 30.6591 105.921 31.5391C105.301 32.3991 104.481 33.0791 103.461 33.5791C102.441 34.0791 101.221 34.3291 99.8009 34.3291Z" fill="#101828"/>
<path d="M114.559 34.1491C113.399 34.1491 112.379 33.8891 111.499 33.3691C110.639 32.8291 109.969 32.0891 109.489 31.1491C109.009 30.2091 108.769 29.1291 108.769 27.9091V19.0291H112.549V27.6091C112.549 28.7291 112.819 29.5691 113.359 30.1291C113.919 30.6891 114.709 30.9691 115.729 30.9691C116.889 30.9691 117.789 30.5891 118.429 29.8291C119.069 29.0491 119.389 27.9691 119.389 26.5891V19.0291H123.169V33.9091H119.449V31.9591H118.909C118.669 32.4591 118.219 32.9491 117.559 33.4291C116.899 33.9091 115.899 34.1491 114.559 34.1491Z" fill="#101828"/>
<path d="M125.875 33.9091V19.0291H129.595V20.7091H130.135C130.355 20.1091 130.715 19.6691 131.215 19.3891C131.735 19.1091 132.335 18.9691 133.015 18.9691H134.815V22.3291H132.955C131.995 22.3291 131.205 22.5891 130.585 23.1091C129.965 23.6091 129.655 24.3891 129.655 25.4491V33.9091H125.875Z" fill="#101828"/>
<path d="M136.27 33.9091V19.0291H140.05V33.9091H136.27ZM138.16 17.2891C137.48 17.2891 136.9 17.0691 136.42 16.6291C135.96 16.1891 135.73 15.6091 135.73 14.8891C135.73 14.1691 135.96 13.5891 136.42 13.1491C136.9 12.7091 137.48 12.4891 138.16 12.4891C138.86 12.4891 139.44 12.7091 139.9 13.1491C140.36 13.5891 140.59 14.1691 140.59 14.8891C140.59 15.6091 140.36 16.1891 139.9 16.6291C139.44 17.0691 138.86 17.2891 138.16 17.2891Z" fill="#101828"/>
<path d="M149.819 34.3291C148.339 34.3291 147.009 34.0291 145.829 33.4291C144.649 32.8291 143.719 31.9591 143.039 30.8191C142.359 29.6791 142.019 28.3091 142.019 26.7091V26.2291C142.019 24.6291 142.359 23.2591 143.039 22.1191C143.719 20.9791 144.649 20.1091 145.829 19.5091C147.009 18.9091 148.339 18.6091 149.819 18.6091C151.299 18.6091 152.629 18.9091 153.809 19.5091C154.989 20.1091 155.919 20.9791 156.599 22.1191C157.279 23.2591 157.619 24.6291 157.619 26.2291V26.7091C157.619 28.3091 157.279 29.6791 156.599 30.8191C155.919 31.9591 154.989 32.8291 153.809 33.4291C152.629 34.0291 151.299 34.3291 149.819 34.3291ZM149.819 30.9691C150.979 30.9691 151.939 30.5991 152.699 29.8591C153.459 29.0991 153.839 28.0191 153.839 26.6191V26.3191C153.839 24.9191 153.459 23.8491 152.699 23.1091C151.959 22.3491 150.999 21.9691 149.819 21.9691C148.659 21.9691 147.699 22.3491 146.939 23.1091C146.179 23.8491 145.799 24.9191 145.799 26.3191V26.6191C145.799 28.0191 146.179 29.0991 146.939 29.8591C147.699 30.5991 148.659 30.9691 149.819 30.9691Z" fill="#101828"/>
<path d="M165.278 34.1491C164.118 34.1491 163.098 33.8891 162.218 33.3691C161.358 32.8291 160.688 32.0891 160.208 31.1491C159.728 30.2091 159.488 29.1291 159.488 27.9091V19.0291H163.268V27.6091C163.268 28.7291 163.538 29.5691 164.078 30.1291C164.638 30.6891 165.428 30.9691 166.448 30.9691C167.608 30.9691 168.508 30.5891 169.148 29.8291C169.788 29.0491 170.108 27.9691 170.108 26.5891V19.0291H173.888V33.9091H170.168V31.9591H169.628C169.388 32.4591 168.938 32.9491 168.278 33.4291C167.618 33.9091 166.618 34.1491 165.278 34.1491Z" fill="#101828"/>
<path d="M182.774 34.3291C180.834 34.3291 179.244 33.9091 178.004 33.0691C176.764 32.2291 176.014 31.0291 175.754 29.4691L179.234 28.5691C179.374 29.2691 179.604 29.8191 179.924 30.2191C180.264 30.6191 180.674 30.9091 181.154 31.0891C181.654 31.2491 182.194 31.3291 182.774 31.3291C183.654 31.3291 184.304 31.1791 184.724 30.8791C185.144 30.5591 185.354 30.1691 185.354 29.7091C185.354 29.2491 185.154 28.8991 184.754 28.6591C184.354 28.3991 183.714 28.1891 182.834 28.0291L181.994 27.8791C180.954 27.6791 180.004 27.4091 179.144 27.0691C178.284 26.7091 177.594 26.2191 177.074 25.5991C176.554 24.9791 176.294 24.1791 176.294 23.1991C176.294 21.7191 176.834 20.5891 177.914 19.8091C178.994 19.0091 180.414 18.6091 182.174 18.6091C183.834 18.6091 185.214 18.9791 186.314 19.7191C187.414 20.4591 188.134 21.4291 188.474 22.6291L184.964 23.7091C184.804 22.9491 184.474 22.4091 183.974 22.0891C183.494 21.7691 182.894 21.6091 182.174 21.6091C181.454 21.6091 180.904 21.7391 180.524 21.9991C180.144 22.2391 179.954 22.5791 179.954 23.0191C179.954 23.4991 180.154 23.8591 180.554 24.0991C180.954 24.3191 181.494 24.4891 182.174 24.6091L183.014 24.7591C184.134 24.9591 185.144 25.2291 186.044 25.5691C186.964 25.8891 187.684 26.3591 188.204 26.9791C188.744 27.5791 189.014 28.3991 189.014 29.4391C189.014 30.9991 188.444 32.2091 187.304 33.0691C186.184 33.9091 184.674 34.3291 182.774 34.3291Z" fill="#101828"/>
</svg>
