<svg width="202" height="210" viewBox="0 0 202 210" fill="none" xmlns="http://www.w3.org/2000/svg">
<path d="M66.5887 210C88.2671 210 105.841 192.426 105.841 170.748C105.841 149.069 88.2671 131.495 66.5887 131.495C44.9103 131.495 27.3364 149.069 27.3364 170.748C27.3364 192.426 44.9103 210 66.5887 210Z" fill="#E8EBEC"/>
<path d="M168.224 101.888C186.805 101.888 201.868 86.8245 201.868 68.243C201.868 49.6615 186.805 34.5981 168.224 34.5981C149.642 34.5981 134.579 49.6615 134.579 68.243C134.579 86.8245 149.642 101.888 168.224 101.888Z" fill="#E8EBEC"/>
<path d="M56.0747 112.149C87.0438 112.149 112.149 87.044 112.149 56.0747C112.149 25.1055 87.0438 0 56.0747 0C25.1055 0 0 25.1055 0 56.0747C0 87.044 25.1055 112.149 56.0747 112.149Z" fill="#E8EBEC"/>
<path d="M103.738 179.159C145.547 179.159 179.439 145.267 179.439 103.458C179.439 61.6497 145.547 27.7572 103.738 27.7572C61.9297 27.7572 28.0374 61.6497 28.0374 103.458C28.0374 145.267 61.9297 179.159 103.738 179.159Z" fill="white"/>
<path d="M117.252 28.9907C137.803 42.5328 151.373 65.8038 151.373 92.243C151.373 134.047 117.476 167.944 75.6726 167.944C71.0465 167.944 66.5325 167.495 62.1306 166.71C74.0745 174.561 88.3455 179.159 103.71 179.159C145.514 179.159 179.411 145.262 179.411 103.458C179.411 66.2804 152.579 35.3832 117.252 28.9907Z" fill="#BDC3D8"/>
<path d="M103.738 181.262C60.8408 181.262 25.9343 146.355 25.9343 103.458C25.9343 60.561 60.8408 25.6544 103.738 25.6544C146.635 25.6544 181.541 60.561 181.541 103.458C181.541 146.355 146.635 181.262 103.738 181.262ZM103.738 29.86C63.1679 29.86 30.1399 62.8881 30.1399 103.458C30.1399 144.028 63.1679 177.056 103.738 177.056C144.308 177.056 177.336 144.028 177.336 103.458C177.336 62.8881 144.308 29.86 103.738 29.86Z" fill="#21365F"/>
<path d="M92.3831 138.617L68.5514 114.785C50.1589 130.934 26.6916 136.822 26.6916 136.822L14.0188 193.149L70.3458 180.476C70.3458 180.476 76.2336 156.981 92.3831 138.617Z" fill="white"/>
<path d="M92.3832 138.617L68.5515 114.785C66.0001 117.028 63.3366 119.047 60.673 120.925L77.5795 137.832C79.5702 139.822 79.7664 142.991 78.0562 145.205C65.2431 161.635 59.916 180.448 59.2151 183L70.3459 180.505C70.3459 180.505 76.2337 157.009 92.3832 138.645V138.617Z" fill="#BDC3D8"/>
<path d="M14.0187 195.281C13.458 195.281 12.9253 195.056 12.5328 194.664C12.0281 194.159 11.8037 193.43 11.972 192.701L24.6449 136.374C24.8131 135.589 25.4019 135 26.1869 134.804C26.4112 134.748 49.4018 128.832 67.1775 113.243C68.0186 112.514 69.2803 112.542 70.0373 113.327L93.869 137.159C94.6541 137.944 94.6821 139.206 93.9531 140.047C78.3644 157.823 72.4485 180.813 72.3924 181.038C72.1961 181.795 71.5793 182.411 70.8223 182.58L14.4954 195.253C14.3552 195.281 14.1869 195.309 14.0468 195.309L14.0187 195.281ZM28.4579 138.533L16.7944 190.374L68.6634 178.711C70.0933 173.664 76.0933 154.767 89.5232 138.729L68.4672 117.673C52.4299 131.103 33.5327 137.103 28.486 138.533H28.4579Z" fill="#21365F"/>
<path d="M50.1585 166.85C55.5781 166.85 59.9716 162.457 59.9716 157.037C59.9716 151.618 55.5781 147.224 50.1585 147.224C44.7389 147.224 40.3455 151.618 40.3455 157.037C40.3455 162.457 44.7389 166.85 50.1585 166.85Z" fill="white"/>
<path d="M50.1587 147.224C48.6447 147.224 47.2428 147.589 45.9531 148.206C49.2615 149.776 51.5606 153.14 51.5606 157.037C51.5606 160.935 49.2615 164.299 45.9531 165.869C47.2428 166.486 48.6447 166.85 50.1587 166.85C55.5699 166.85 59.9718 162.449 59.9718 157.037C59.9718 151.626 55.5699 147.224 50.1587 147.224Z" fill="#BDC3D8"/>
<path d="M50.159 168.953C43.5983 168.953 38.2432 163.598 38.2432 157.037C38.2432 150.477 43.5983 145.122 50.159 145.122C56.7198 145.122 62.0749 150.477 62.0749 157.037C62.0749 163.598 56.7198 168.953 50.159 168.953ZM50.159 149.327C45.8974 149.327 42.4488 152.776 42.4488 157.037C42.4488 161.299 45.8974 164.748 50.159 164.748C54.4207 164.748 57.8693 161.299 57.8693 157.037C57.8693 152.776 54.4207 149.327 50.159 149.327Z" fill="#21365F"/>
<path d="M14.0184 195.281C13.4857 195.281 12.953 195.084 12.5324 194.664C11.7193 193.851 11.7193 192.505 12.5324 191.692L41.7473 162.477C42.5604 161.664 43.9062 161.664 44.7192 162.477C45.5323 163.29 45.5323 164.636 44.7192 165.449L15.5044 194.664C15.0838 195.084 14.5511 195.281 14.0184 195.281Z" fill="#21365F"/>
<path d="M92.3827 138.617L68.551 114.813L73.9622 95.8596L111.308 133.233L92.3827 138.617Z" fill="white"/>
<path d="M111.309 133.233L73.9633 95.8596L71.468 104.579L93.9259 127.037C95.44 128.551 94.767 131.131 92.7203 131.719L87.0848 133.318L92.3839 138.617L111.337 133.205L111.309 133.233Z" fill="#BDC3D8"/>
<path d="M92.3827 140.72C91.8219 140.72 91.2892 140.495 90.8967 140.103L67.065 116.271C66.5322 115.738 66.3079 114.953 66.5322 114.196L71.9434 95.2429C72.1397 94.514 72.7285 93.9812 73.4294 93.785C74.1584 93.5887 74.9154 93.785 75.4481 94.3457L112.794 131.692C113.327 132.224 113.523 132.981 113.355 133.71C113.158 134.439 112.626 135 111.897 135.196L92.9434 140.607C92.7471 140.663 92.5508 140.692 92.3546 140.692L92.3827 140.72ZM70.9341 114.196L92.9995 136.262L107.298 132.168L74.9995 99.8691L70.9061 114.168L70.9341 114.196Z" fill="#21365F"/>
<path d="M193.457 39.1963V13.7384H167.971L155.999 24.1963L182.971 51.1683L193.457 39.1963Z" fill="white"/>
<path d="M185.047 13.7384V33.2524C185.047 35.2711 184.318 37.2618 182.972 38.7758L177.196 45.3926L183 51.1963L193.458 39.2244V13.7384H185.047Z" fill="#BDC3D8"/>
<path d="M182.971 53.271C182.411 53.271 181.878 53.0467 181.485 52.6541L154.513 25.6822C154.093 25.2616 153.869 24.7009 153.897 24.1121C153.897 23.5233 154.177 22.9906 154.626 22.5981L166.598 12.1401C166.99 11.8037 167.467 11.6074 167.971 11.6074H193.429C193.99 11.6074 194.523 11.8317 194.915 12.2242C195.308 12.6168 195.532 13.1495 195.532 13.7102V39.1682C195.532 39.6728 195.336 40.1775 194.999 40.542L184.541 52.514C184.149 52.9625 183.616 53.2149 183.027 53.2429C183.027 53.2429 182.971 53.2429 182.943 53.2429L182.971 53.271ZM159.084 24.3084L182.887 48.1121L191.354 38.4392V15.8411H168.784L159.112 24.3084H159.084Z" fill="#21365F"/>
<path d="M156 24.1964L73.9624 95.8599L111.308 133.234L182.972 51.1684L156 24.1964Z" fill="#BDC3D8"/>
<path d="M150.028 29.4392L73.9624 95.8878L105.336 127.262L168.336 55.1495C170.271 52.9345 170.158 49.57 168.084 47.4953L150.028 29.4392Z" fill="white"/>
<path d="M111.308 135.336C110.747 135.336 110.214 135.112 109.822 134.72L72.4759 97.3458C72.0553 96.9252 71.831 96.3645 71.859 95.7757C71.859 95.1869 72.1394 94.6542 72.588 94.2617L154.625 22.5981C155.466 21.8692 156.7 21.8972 157.485 22.6822L184.457 49.6542C185.242 50.4392 185.27 51.7009 184.541 52.514L112.878 134.551C112.485 135 111.952 135.252 111.364 135.28C111.364 135.28 111.308 135.28 111.279 135.28L111.308 135.336ZM77.0179 95.9719L111.195 130.149L180.083 51.2804L155.887 27.0841L77.0179 95.9719Z" fill="#21365F"/>
<path d="M137.075 75.729C140.171 75.729 142.682 73.2184 142.682 70.1215C142.682 67.0246 140.171 64.514 137.075 64.514C133.978 64.514 131.467 67.0246 131.467 70.1215C131.467 73.2184 133.978 75.729 137.075 75.729Z" fill="white"/>
<path d="M137.075 77.8317C132.813 77.8317 129.364 74.3831 129.364 70.1214C129.364 65.8597 132.813 62.4111 137.075 62.4111C141.336 62.4111 144.785 65.8597 144.785 70.1214C144.785 74.3831 141.336 77.8317 137.075 77.8317ZM137.075 66.6167C135.14 66.6167 133.57 68.1868 133.57 70.1214C133.57 72.056 135.14 73.6261 137.075 73.6261C139.009 73.6261 140.579 72.056 140.579 70.1214C140.579 68.1868 139.009 66.6167 137.075 66.6167Z" fill="#21365F"/>
<path d="M141.028 68.2431C140.495 68.2431 139.963 68.0468 139.542 67.6263C138.729 66.8132 138.729 65.4674 139.542 64.6543L168 36.1964C168.813 35.3833 170.159 35.3833 170.972 36.1964C171.785 37.0094 171.785 38.3552 170.972 39.1683L142.514 67.6263C142.094 68.0468 141.561 68.2431 141.028 68.2431Z" fill="#21365F"/>
<path d="M109.346 170.748H98.1306C96.5822 170.748 95.3269 172.003 95.3269 173.551V184.766C95.3269 186.315 96.5822 187.57 98.1306 187.57H109.346C110.894 187.57 112.149 186.315 112.149 184.766V173.551C112.149 172.003 110.894 170.748 109.346 170.748Z" fill="#BDC3D8"/>
<path d="M98.1306 170.748H106.542V179.159C106.542 180.701 105.28 181.963 103.738 181.963H95.3269V173.551C95.3269 172.009 96.5886 170.748 98.1306 170.748Z" fill="white"/>
<path d="M109.346 189.673H98.1307C95.4391 189.673 93.2241 187.458 93.2241 184.766V173.551C93.2241 170.86 95.4391 168.645 98.1307 168.645H109.346C112.037 168.645 114.252 170.86 114.252 173.551V184.766C114.252 187.458 112.037 189.673 109.346 189.673ZM98.1307 172.851C97.7381 172.851 97.4297 173.159 97.4297 173.551V184.766C97.4297 185.159 97.7381 185.467 98.1307 185.467H109.346C109.738 185.467 110.047 185.159 110.047 184.766V173.551C110.047 173.159 109.738 172.851 109.346 172.851H98.1307Z" fill="#21365F"/>
<path d="M109.346 19.3177H98.1306C96.5822 19.3177 95.3269 20.573 95.3269 22.1215V33.3364C95.3269 34.8849 96.5822 36.1402 98.1306 36.1402H109.346C110.894 36.1402 112.149 34.8849 112.149 33.3364V22.1215C112.149 20.573 110.894 19.3177 109.346 19.3177Z" fill="#BDC3D8"/>
<path d="M98.1306 19.3177H106.542V27.729C106.542 29.271 105.28 30.5327 103.738 30.5327H95.3269V22.1215C95.3269 20.5794 96.5886 19.3177 98.1306 19.3177Z" fill="white"/>
<path d="M109.346 38.2429H98.1307C95.4391 38.2429 93.2241 36.0279 93.2241 33.3363V22.1214C93.2241 19.4298 95.4391 17.2148 98.1307 17.2148H109.346C112.037 17.2148 114.252 19.4298 114.252 22.1214V33.3363C114.252 36.0279 112.037 38.2429 109.346 38.2429ZM98.1307 21.4204C97.7381 21.4204 97.4297 21.7289 97.4297 22.1214V33.3363C97.4297 33.7289 97.7381 34.0373 98.1307 34.0373H109.346C109.738 34.0373 110.047 33.7289 110.047 33.3363V22.1214C110.047 21.7289 109.738 21.4204 109.346 21.4204H98.1307Z" fill="#21365F"/>
<path d="M30.8409 46.6541H26.9717C25.8222 46.6541 24.8689 45.7008 24.8689 44.5513C24.8689 43.4018 25.8222 42.4485 26.9717 42.4485H30.8409C31.9904 42.4485 32.9437 43.4018 32.9437 44.5513C32.9437 45.7008 31.9904 46.6541 30.8409 46.6541Z" fill="#21365F"/>
<path d="M17.8879 46.6541H14.0188C12.8693 46.6541 11.916 45.7008 11.916 44.5513C11.916 43.4018 12.8693 42.4485 14.0188 42.4485H17.8879C19.0375 42.4485 19.9907 43.4018 19.9907 44.5513C19.9907 45.7008 19.0375 46.6541 17.8879 46.6541Z" fill="#21365F"/>
<path d="M22.4299 55.0654C21.2804 55.0654 20.3271 54.1121 20.3271 52.9626V49.0934C20.3271 47.9439 21.2804 46.9906 22.4299 46.9906C23.5795 46.9906 24.5327 47.9439 24.5327 49.0934V52.9626C24.5327 54.1121 23.5795 55.0654 22.4299 55.0654Z" fill="#21365F"/>
<path d="M22.4299 42.1403C21.2804 42.1403 20.3271 41.187 20.3271 40.0375V36.1684C20.3271 35.0188 21.2804 34.0656 22.4299 34.0656C23.5795 34.0656 24.5327 35.0188 24.5327 36.1684V40.0375C24.5327 41.187 23.5795 42.1403 22.4299 42.1403Z" fill="#21365F"/>
<path d="M67.2893 24.2526H63.4202C62.2707 24.2526 61.3174 23.2993 61.3174 22.1498C61.3174 21.0003 62.2707 20.047 63.4202 20.047H67.2893C68.4389 20.047 69.3921 21.0003 69.3921 22.1498C69.3921 23.2993 68.4389 24.2526 67.2893 24.2526Z" fill="#21365F"/>
<path d="M54.3364 24.2526H50.4673C49.3178 24.2526 48.3645 23.2993 48.3645 22.1498C48.3645 21.0003 49.3178 20.047 50.4673 20.047H54.3364C55.486 20.047 56.4392 21.0003 56.4392 22.1498C56.4392 23.2993 55.486 24.2526 54.3364 24.2526Z" fill="#21365F"/>
<path d="M58.8787 32.6636C57.7291 32.6636 56.7759 31.7104 56.7759 30.5608V26.6917C56.7759 25.5421 57.7291 24.5889 58.8787 24.5889C60.0282 24.5889 60.9815 25.5421 60.9815 26.6917V30.5608C60.9815 31.7104 60.0282 32.6636 58.8787 32.6636Z" fill="#21365F"/>
<path d="M58.8787 19.7105C57.7291 19.7105 56.7759 18.7572 56.7759 17.6077V13.7385C56.7759 12.589 57.7291 11.6357 58.8787 11.6357C60.0282 11.6357 60.9815 12.589 60.9815 13.7385V17.6077C60.9815 18.7572 60.0282 19.7105 58.8787 19.7105Z" fill="#21365F"/>
<path d="M92.5235 63.5048H88.6543C87.5048 63.5048 86.5515 62.5515 86.5515 61.402C86.5515 60.2525 87.5048 59.2992 88.6543 59.2992H92.5235C93.673 59.2992 94.6263 60.2525 94.6263 61.402C94.6263 62.5515 93.673 63.5048 92.5235 63.5048Z" fill="#21365F"/>
<path d="M79.5701 63.5048H75.7009C74.5514 63.5048 73.5981 62.5515 73.5981 61.402C73.5981 60.2525 74.5514 59.2992 75.7009 59.2992H79.5701C80.7196 59.2992 81.6729 60.2525 81.6729 61.402C81.6729 62.5515 80.7196 63.5048 79.5701 63.5048Z" fill="#21365F"/>
<path d="M84.1123 71.9159C82.9628 71.9159 82.0095 70.9627 82.0095 69.8131V65.944C82.0095 64.7945 82.9628 63.8412 84.1123 63.8412C85.2619 63.8412 86.2151 64.7945 86.2151 65.944V69.8131C86.2151 70.9627 85.2619 71.9159 84.1123 71.9159Z" fill="#21365F"/>
<path d="M84.1123 58.9907C82.9628 58.9907 82.0095 58.0374 82.0095 56.8879V53.0187C82.0095 51.8692 82.9628 50.9159 84.1123 50.9159C85.2619 50.9159 86.2151 51.8692 86.2151 53.0187V56.8879C86.2151 58.0374 85.2619 58.9907 84.1123 58.9907Z" fill="#21365F"/>
<path d="M134.579 150.421H130.71C129.56 150.421 128.607 149.467 128.607 148.318C128.607 147.168 129.56 146.215 130.71 146.215H134.579C135.729 146.215 136.682 147.168 136.682 148.318C136.682 149.467 135.729 150.421 134.579 150.421Z" fill="#21365F"/>
<path d="M121.626 150.421H117.757C116.608 150.421 115.654 149.467 115.654 148.318C115.654 147.168 116.608 146.215 117.757 146.215H121.626C122.776 146.215 123.729 147.168 123.729 148.318C123.729 149.467 122.776 150.421 121.626 150.421Z" fill="#21365F"/>
<path d="M126.168 158.832C125.018 158.832 124.065 157.879 124.065 156.729V152.86C124.065 151.71 125.018 150.757 126.168 150.757C127.318 150.757 128.271 151.71 128.271 152.86V156.729C128.271 157.879 127.318 158.832 126.168 158.832Z" fill="#21365F"/>
<path d="M126.168 145.906C125.018 145.906 124.065 144.953 124.065 143.804V139.934C124.065 138.785 125.018 137.832 126.168 137.832C127.318 137.832 128.271 138.785 128.271 139.934V143.804C128.271 144.953 127.318 145.906 126.168 145.906Z" fill="#21365F"/>
<path d="M193.458 175.654H189.588C188.439 175.654 187.486 174.701 187.486 173.551C187.486 172.402 188.439 171.449 189.588 171.449H193.458C194.607 171.449 195.56 172.402 195.56 173.551C195.56 174.701 194.607 175.654 193.458 175.654Z" fill="#21365F"/>
<path d="M180.533 175.654H176.664C175.514 175.654 174.561 174.701 174.561 173.551C174.561 172.402 175.514 171.449 176.664 171.449H180.533C181.682 171.449 182.636 172.402 182.636 173.551C182.636 174.701 181.682 175.654 180.533 175.654Z" fill="#21365F"/>
<path d="M185.046 184.065C183.897 184.065 182.944 183.112 182.944 181.963V178.094C182.944 176.944 183.897 175.991 185.046 175.991C186.196 175.991 187.149 176.944 187.149 178.094V181.963C187.149 183.112 186.196 184.065 185.046 184.065Z" fill="#21365F"/>
<path d="M185.046 171.14C183.897 171.14 182.944 170.187 182.944 169.037V165.168C182.944 164.019 183.897 163.065 185.046 163.065C186.196 163.065 187.149 164.019 187.149 165.168V169.037C187.149 170.187 186.196 171.14 185.046 171.14Z" fill="#21365F"/>
</svg>
