<svg width="195" height="60" viewBox="0 0 195 60" fill="none" xmlns="http://www.w3.org/2000/svg">
<g clip-path="url(#clip0_1735_170191)">
<path d="M15.411 48.4675L13.6114 51.2888C20.2302 49.446 26.5358 46.9249 31.3378 43.4802C31.6642 43.246 31.9923 43.0186 32.3208 42.7957C32.3361 42.7853 32.3509 42.7754 32.3667 42.7651C32.6858 42.5494 33.0067 42.3386 33.3285 42.1323C27.9857 40.7295 22.7418 38.5181 18.636 35.0644C12.9457 30.279 6.50939 28.3786 0.865006 27.7534C0.81107 28.4771 0.783203 29.2083 0.783203 29.9464C0.783203 38.7487 4.68141 46.6399 10.8454 51.9895L12.8828 48.3322L15.411 48.4675Z" fill="#3E4794"/>
<path d="M13.6114 51.2892L12.374 53.2282C15.385 55.5061 18.8522 57.2118 22.6133 58.1881L18.4458 49.793C16.8651 50.3359 15.2479 50.8335 13.6114 51.2892Z" fill="#7A80BE"/>
<path d="M40.0569 38.5399C40.6201 38.2932 41.1832 38.059 41.7451 37.837C42.5878 37.5035 43.4288 37.1969 44.2639 36.9151C44.8208 36.7263 45.3754 36.5497 45.9269 36.3829C46.7539 36.1326 47.5746 35.9061 48.3855 35.7007C48.9262 35.5636 49.4624 35.4364 49.9941 35.3177C50.2597 35.2579 50.524 35.2008 50.7874 35.1465C51.3137 35.0368 51.8347 34.9357 52.3493 34.8426C52.872 34.7478 53.3889 34.6619 53.8982 34.5828H32.3778V32.5989H59.0126C59.0922 31.7247 59.1376 30.8406 59.1376 29.9457C59.1376 13.8324 46.0748 0.77002 29.961 0.77002C14.5852 0.77002 1.98763 12.6633 0.866211 27.7528C6.51104 28.378 12.9469 30.2783 18.6367 35.0638C22.7426 38.5175 27.9865 40.7288 33.3293 42.1316C34.7141 41.243 36.116 40.447 37.5228 39.7342C38.3655 39.3072 39.2114 38.9094 40.0569 38.5399Z" fill="#232A5E"/>
<path d="M32.377 34.5831H53.8973C55.644 34.3143 57.3061 34.1345 58.8518 34.0212C58.9174 33.5506 58.9682 33.0756 59.0114 32.5991H32.377V34.5831Z" fill="white"/>
<path d="M58.7667 34.5835H58.1145L58.4912 36.0546C58.5945 35.5683 58.6876 35.0784 58.7667 34.5835Z" fill="#6A73B6"/>
<path d="M53.8976 34.5835C53.3883 34.6626 52.8715 34.7485 52.3487 34.8433C51.8341 34.9363 51.3132 35.0375 50.7868 35.1471C50.5239 35.2015 50.2592 35.2586 49.9935 35.3184C49.4618 35.437 48.9256 35.5642 48.3849 35.7013C47.5741 35.9067 46.7538 36.1333 45.9263 36.3836C45.3748 36.5504 44.8202 36.727 44.2633 36.9158C43.4282 37.1976 42.5872 37.5041 41.7445 37.8376C41.1827 38.0597 40.6195 38.2943 40.0563 38.5406C39.2109 38.91 38.365 39.3078 37.5209 39.7353C36.114 40.4481 34.7122 41.2441 33.3274 42.1327C33.006 42.339 32.6851 42.5507 32.3655 42.7656C32.3502 42.7759 32.3349 42.7858 32.3197 42.7961C31.9911 43.0182 31.6634 43.2465 31.3367 43.4807C28.2466 45.6974 24.5313 47.5303 20.5122 49.0473L24.5754 58.6267C26.3202 58.9517 28.1194 59.1229 29.9586 59.1229C42.7652 59.1229 53.6405 50.8712 57.5661 39.3946L56.0096 34.5839L53.8976 34.5835Z" fill="#7A80BE"/>
<path d="M58.1142 34.5835H56.0107L57.5672 39.3941C57.9385 38.3091 58.2482 37.194 58.4909 36.0546L58.1142 34.5835Z" fill="white"/>
<path d="M53.8977 34.5833H58.7668C58.7969 34.3972 58.8256 34.2094 58.8522 34.0215C57.3064 34.1347 55.6443 34.3145 53.8977 34.5833Z" fill="white"/>
<path d="M20.381 48.7344L17.8528 48.5991L18.4456 49.7929C19.1432 49.5542 19.8322 49.3039 20.5136 49.0468L20.381 48.7344Z" fill="white"/>
<path d="M18.4456 49.793L22.613 58.1881C23.2593 58.3557 23.9137 58.5023 24.5763 58.6263L20.5131 49.0469C19.8322 49.304 19.1431 49.5539 18.4456 49.793Z" fill="white"/>
<path d="M17.523 12.7677C17.523 12.4576 17.7742 12.2063 18.0848 12.2063C17.7747 12.2063 17.523 11.9542 17.523 11.644C17.523 11.9542 17.2708 12.2063 16.9607 12.2063C17.2713 12.2063 17.523 12.4576 17.523 12.7677Z" fill="white"/>
<path d="M32.4436 8.16064C32.4436 8.47078 32.1915 8.72293 31.8813 8.72293C32.1915 8.72293 32.4436 8.97463 32.4436 9.28431C32.4436 8.97463 32.6949 8.72293 33.0055 8.72293C32.6949 8.72293 32.4436 8.47122 32.4436 8.16064Z" fill="white"/>
<path d="M14.5914 8.16064C14.5914 8.97013 13.9342 9.62725 13.1248 9.62725C13.9342 9.62725 14.5914 10.283 14.5914 11.0925C14.5914 10.283 15.2467 9.62725 16.0566 9.62725C15.2471 9.62725 14.5914 8.97013 14.5914 8.16064Z" fill="white"/>
<path d="M16.8353 14.7646C16.8353 15.5746 16.1781 16.2313 15.3687 16.2313C16.1781 16.2313 16.8353 16.887 16.8353 17.6965C16.8353 16.887 17.491 16.2313 18.3005 16.2313C17.491 16.2308 16.8353 15.5741 16.8353 14.7646Z" fill="white"/>
<path d="M13.1721 12.7686C13.1721 13.2935 12.7464 13.7196 12.2214 13.7196C12.7464 13.7196 13.1721 14.1444 13.1721 14.6689C13.1721 14.1444 13.5972 13.7196 14.1222 13.7196C13.5968 13.7196 13.1721 13.2935 13.1721 12.7686Z" fill="white"/>
<path d="M27.3735 9.28418C27.3735 9.80915 26.9474 10.2352 26.4229 10.2352C26.9474 10.2352 27.3735 10.66 27.3735 11.185C27.3735 10.66 27.7987 10.2352 28.3232 10.2352C27.7987 10.2352 27.3735 9.80915 27.3735 9.28418Z" fill="white"/>
<path d="M38.0425 34.5835L33.8953 50.7764H34.9075L40.146 34.5835H38.0425Z" fill="white"/>
<path d="M39.0405 31.0688V32.5993H56.4645V31.4945H56.8789V31.0688H40.6289H39.0405Z" fill="#A8AFD8"/>
<path d="M46.904 26.1567H46.134V29.9215H46.904V26.1567Z" fill="white"/>
<path d="M51.3234 19.5068L42.5706 20.1963V26.1567H51.2601L51.3234 19.5068Z" fill="white"/>
<path d="M48.609 18.8614L47.8966 18.9189L41.6868 19.4173V26.2488H51.2802L51.3516 18.6411L48.609 18.8614ZM51.0977 26.0649H41.8706V19.5836L48.1802 19.0825L48.4957 19.0573L51.1655 18.8452L51.0977 26.0649Z" fill="white"/>
<path d="M51.0186 27.5674L48.4692 27.6128V29.5841H51.0186V27.5674Z" fill="#6A73B6"/>
<path d="M51.0183 27.5674V29.5841H56.1786V27.6582L51.0183 27.5674Z" fill="#A8AFD8"/>
<path d="M49.7436 29.584H40.6289V31.069H56.8789V29.584H49.7436Z" fill="#6A73B6"/>
<path d="M30.6024 43.2015C30.0545 42.9862 25.8416 42.2751 24.8856 41.711C24.1058 42.3012 23.4622 42.7111 23.4622 42.7111C23.8051 42.236 24.1449 41.6279 24.4362 41.0535C24.331 40.6489 24.3206 40.2503 23.3592 39.9545C23.3592 39.9545 22.9979 36.9858 22.5992 35.3412C21.7124 35.8064 20.9672 36.1471 20.9672 36.1471C21.409 35.7853 22.0962 35.063 22.6752 34.4283C24.1714 32.577 27.3437 28.5583 27.4736 27.583C27.4988 27.1142 28.2027 26.1285 28.5465 25.8179C28.5748 25.2984 28.3973 23.9374 27.7092 23.8039C27.1397 23.6933 21.1079 24.8498 18.5864 25.1954C18.4888 25.2085 17.5157 25.0633 17.2447 25.1105C17.4002 24.9208 18.1711 24.7599 18.1778 24.7806C18.1778 24.7806 17.9185 23.9014 18.0151 23.4578C18.1243 22.9602 17.2236 21.6006 17.1171 21.4208C17.0114 21.2415 16.3624 20.7426 16.2307 20.3111C16.0995 19.8801 15.3682 19.8212 14.7156 20.0954C14.0643 20.3691 14.2225 20.6477 13.7735 21.1067C13.7735 21.1067 13.8692 20.7637 13.5856 20.6527C13.3011 20.5408 13.0143 20.8536 12.5941 21.1206C12.1738 21.388 12.0709 21.8653 11.6817 21.9215C11.2924 21.9777 11.3221 22.1539 11.0201 22.736C10.8138 23.136 10.6268 23.8987 10.58 24.4412C10.5742 24.5069 10.6097 24.568 10.6681 24.599C10.8965 24.7181 11.4543 25.0125 11.4718 25.0485C11.4147 25.0606 10.6088 24.9406 10.4398 25.0372C10.3827 25.07 10.3104 25.0813 10.2367 25.1087C9.78359 25.2772 6.81757 24.0367 5.52132 23.349C5.02151 23.3221 4.53744 23.3356 3.7302 22.9063C3.34321 22.9234 2.65777 23.447 2.57103 24.35C2.48338 25.253 4.80172 28.8541 5.03769 29.117C5.27501 29.3813 5.45165 29.6995 5.43906 30.2789C5.42783 30.8573 6.07641 31.3558 6.34698 31.3702C6.61621 31.3846 6.68453 32.2763 6.73487 32.4152C6.77487 32.5258 7.78437 33.6247 8.36149 34.271C8.63251 34.574 11.5648 34.0832 11.5779 34.1254C11.5383 34.4292 8.97456 34.8437 8.57858 35.263C8.08686 35.7844 7.66661 36.6195 7.78797 37.8596C7.93764 39.3868 8.08327 44.3647 8.08327 44.3647C8.08327 44.3647 7.7592 48.3896 8.8577 49.3704C9.80607 50.2185 19.1293 50.3255 22.014 50.1043C22.014 50.1043 22.0832 50.0787 22.2059 50.036C22.3412 47.951 22.7952 45.6978 22.7952 45.6978C22.6792 46.6039 22.9192 48.3402 23.1561 49.7052C24.469 49.2585 26.6592 48.5532 28.3371 48.2139C30.9008 47.6934 31.5382 45.8726 31.5382 45.8726C31.5382 45.8726 31.8901 43.7053 30.6024 43.2015ZM17.7508 28.8127C17.8421 28.0707 18.1266 27.5709 18.1266 27.5709C19.1006 26.6962 24.0415 27.2436 24.0415 27.2436C22.5898 27.4234 21.147 29.3548 20.2831 29.6173C19.4192 29.8802 17.682 30.096 17.682 30.096C17.682 30.096 17.6596 29.5543 17.7508 28.8127ZM10.2335 28.77C9.13142 28.1961 8.66802 26.7551 7.2594 26.6018C7.2594 26.6018 10.109 26.8247 10.7895 28.0059C11.1432 28.6127 12.7537 29.317 12.7537 29.317C12.7537 29.317 11.3356 29.344 10.2335 28.77ZM20.4009 38.0227L9.22985 38.7243L9.32649 37.7103L20.5033 36.9485L20.4009 38.0227Z" fill="white"/>
<path d="M30.0009 60C13.4583 60 0 46.5421 0 29.9996C0 13.4574 13.4583 0 30.0009 0C46.5435 0 60.0022 13.4574 60.0022 29.9996C60.0018 46.5421 46.5435 60 30.0009 60ZM30.0009 1.64819C14.3676 1.64819 1.64864 14.3667 1.64864 29.9996C1.64864 45.6328 14.3672 58.3514 30.0009 58.3514C45.6346 58.3514 58.3532 45.6328 58.3532 29.9996C58.3532 14.3672 45.6342 1.64819 30.0009 1.64819Z" fill="#232A5E"/>
<path d="M74.3686 14.97C74.1587 14.8024 73.9169 14.6608 73.6441 14.5439C73.3717 14.4266 73.0917 14.3219 72.8036 14.2288C72.4759 14.1273 72.1878 14.0243 71.9388 13.9192C71.6898 13.8144 71.497 13.6823 71.3608 13.5223C71.2246 13.3627 71.1563 13.1465 71.1563 12.8737C71.1563 12.6719 71.2111 12.4926 71.3199 12.3366C71.4286 12.1811 71.5887 12.0606 71.7986 11.9748C72.0085 11.8889 72.2772 11.8503 72.6044 11.8579C72.8926 11.866 73.1532 11.9047 73.387 11.9748C73.6202 12.0449 73.8364 12.1343 74.0351 12.2435C74.2333 12.3523 74.4297 12.4692 74.6252 12.5937V11.332C74.383 11.2152 74.1596 11.1163 73.9533 11.0345C73.747 10.9527 73.529 10.8925 73.2993 10.8538C73.0692 10.8147 72.7991 10.7949 72.4876 10.7949C72.0125 10.7949 71.6057 10.8596 71.2673 10.9877C70.9284 11.1163 70.656 11.2875 70.4493 11.5019C70.243 11.7163 70.0888 11.9559 69.9881 12.2206C69.8874 12.4854 69.8366 12.7461 69.8366 13.0031C69.8366 13.369 69.8946 13.6764 70.0115 13.9259C70.1283 14.1753 70.2843 14.3794 70.4785 14.5385C70.6731 14.6981 70.8915 14.8307 71.1329 14.9358C71.3743 15.0406 71.6197 15.1399 71.8687 15.2338C72.1959 15.3507 72.5033 15.4676 72.7914 15.584C73.0795 15.7004 73.3115 15.8429 73.4867 16.0101C73.662 16.1773 73.7497 16.3975 73.7497 16.6703C73.7497 17.0205 73.6306 17.2951 73.3933 17.4938C73.1555 17.692 72.7955 17.7913 72.3132 17.7913C71.8147 17.7913 71.3491 17.7135 70.9172 17.5576C70.4857 17.4016 70.1171 17.2034 69.8137 16.962V18.2466C70.0708 18.3792 70.3194 18.492 70.5616 18.5851C70.803 18.6785 71.0713 18.7464 71.3675 18.7896C71.6633 18.8323 72.0053 18.8543 72.3954 18.8543C73.026 18.8543 73.538 18.7428 73.9313 18.5212C74.3241 18.2996 74.6127 18.0111 74.7956 17.6569C74.9781 17.3027 75.0698 16.9229 75.0698 16.5184C75.0698 16.1525 75.005 15.8447 74.8769 15.5957C74.7484 15.3458 74.5789 15.1377 74.3686 14.97Z" fill="#6A73B6"/>
<path d="M80.7112 12.0205H83.234V18.7247H84.5186V12.0205H87.0414V10.9346H80.7112V12.0205Z" fill="#6A73B6"/>
<path d="M98.1606 15.6531C98.1606 16.3852 97.9952 16.9277 97.6639 17.2819C97.3331 17.6365 96.8563 17.8136 96.2337 17.8136C95.5951 17.8136 95.1159 17.6365 94.7968 17.2819C94.4777 16.9277 94.3181 16.3852 94.3181 15.6531V10.9346H92.998V15.6643C92.998 16.7313 93.2781 17.535 93.839 18.0761C94.3999 18.6173 95.2094 18.8879 96.2684 18.8879C96.9147 18.8879 97.4716 18.7692 97.9386 18.5314C98.406 18.2946 98.7656 17.9345 99.0186 17.4514C99.2717 16.9691 99.3984 16.3735 99.3984 15.6643V10.9346H98.1602L98.1606 15.6531Z" fill="#6A73B6"/>
<path d="M108.766 10.9346H106.032V18.7247H108.766C110.027 18.7247 110.965 18.3961 111.581 17.7377C112.196 17.0801 112.503 16.1084 112.503 14.8238C112.503 13.5392 112.196 12.5693 111.581 11.9158C110.965 11.2613 110.027 10.9346 108.766 10.9346ZM110.564 16.9668C110.152 17.4145 109.51 17.6383 108.638 17.6383H107.317V12.0092H108.638C109.51 12.0092 110.152 12.2349 110.564 12.6866C110.977 13.1383 111.184 13.8507 111.184 14.8238C111.184 15.805 110.977 16.5192 110.564 16.9668Z" fill="#6A73B6"/>
<path d="M120.13 10.9346H118.834V18.7247H120.13V10.9346Z" fill="#6A73B6"/>
<path d="M133.287 12.5873C133.003 11.9918 132.593 11.5459 132.055 11.2497C131.518 10.9535 130.86 10.8057 130.081 10.8057C128.906 10.8057 128.008 11.1446 127.389 11.8224C126.77 12.5001 126.46 13.5043 126.46 14.8356C126.46 15.739 126.6 16.4865 126.881 17.0779C127.161 17.6694 127.572 18.114 128.114 18.4093C128.654 18.7055 129.311 18.8533 130.081 18.8533C131.265 18.8533 132.166 18.5144 132.786 17.8371C133.405 17.1593 133.714 16.1592 133.714 14.8351C133.714 13.9326 133.571 13.1829 133.287 12.5873ZM132.132 16.5058C131.964 16.9341 131.711 17.2474 131.373 17.4461C131.034 17.6443 130.604 17.7436 130.081 17.7436C129.567 17.7436 129.139 17.6443 128.797 17.4461C128.454 17.2478 128.199 16.9341 128.031 16.5058C127.864 16.0774 127.781 15.521 127.781 14.8356C127.781 14.1501 127.864 13.5955 128.031 13.1716C128.199 12.7469 128.454 12.4332 128.797 12.2309C129.139 12.0287 129.567 11.9275 130.081 11.9275C130.603 11.9275 131.034 12.0269 131.373 12.2251C131.711 12.4233 131.964 12.7352 132.132 13.1595C132.299 13.5838 132.383 14.1389 132.383 14.8234C132.383 15.5165 132.299 16.0774 132.132 16.5058Z" fill="#6A73B6"/>
<path d="M77.206 29.6934L73.2818 24.2271H69.8132V38.2499H73.0719V28.7837L77.0878 34.2555L81.2081 28.7797V38.2499H84.6141V24.2271H81.2292L77.206 29.6934Z" fill="#232A5E"/>
<path d="M87.5989 38.2499H97.2066V35.6214H91.0049V32.5525H96.3868V29.9038H91.0049V26.8551H97.2066V24.2271H87.5989V38.2499Z" fill="#232A5E"/>
<path d="M99.0776 26.8551H103.009V38.2499H106.415V26.8551H110.409V24.2271H99.0776V26.8551Z" fill="#232A5E"/>
<path d="M122.814 32.0374C123.304 31.6104 123.676 31.0985 123.928 30.5025C124.18 29.9074 124.306 29.3011 124.306 28.6844C124.306 27.1845 123.857 26.0672 122.961 25.3309C122.064 24.5952 120.823 24.2271 119.24 24.2271H112.407V38.2499H115.813V33.4146H117.915L120.691 38.2499H125.021L121.437 32.7588C121.971 32.6087 122.432 32.37 122.814 32.0374ZM120.102 30.4292C119.751 30.7515 119.275 30.9128 118.672 30.9128H115.813V26.8551H118.819C119.394 26.8551 119.839 27.0236 120.154 27.3598C120.469 27.6965 120.627 28.1873 120.627 28.8314C120.627 29.5748 120.452 30.107 120.102 30.4292Z" fill="#232A5E"/>
<path d="M136.573 24.7425C135.543 24.217 134.335 23.9541 132.947 23.9541C130.788 23.9541 129.107 24.5708 127.901 25.8041C126.696 27.0374 126.094 28.8524 126.094 31.2489C126.094 32.9025 126.377 34.2693 126.945 35.3485C127.513 36.4281 128.308 37.23 129.332 37.7554C130.354 38.2813 131.56 38.5437 132.948 38.5437C135.12 38.5437 136.806 37.9275 138.004 36.6942C139.202 35.4609 139.802 33.6383 139.802 31.2278C139.802 29.5598 139.522 28.1935 138.961 27.1282C138.399 26.0634 137.604 25.2679 136.573 24.7425ZM135.902 33.8666C135.642 34.5318 135.263 35.0123 134.766 35.3062C134.268 35.6002 133.662 35.7476 132.948 35.7476C132.233 35.7476 131.63 35.6047 131.14 35.3166C130.649 35.0294 130.274 34.5597 130.015 33.9084C129.756 33.2562 129.627 32.3775 129.627 31.2696C129.627 30.1486 129.756 29.2582 130.015 28.5998C130.274 27.9409 130.649 27.4649 131.14 27.17C131.63 26.8756 132.233 26.7286 132.948 26.7286C133.663 26.7286 134.268 26.8725 134.766 27.1597C135.263 27.4469 135.642 27.9197 135.902 28.5786C136.16 29.2376 136.29 30.1208 136.29 31.2278C136.29 32.3218 136.16 33.2014 135.902 33.8666Z" fill="#232A5E"/>
<path d="M147.832 24.2271H142.198V38.2499H147.832C150.215 38.2499 151.967 37.6584 153.088 36.4732C154.21 35.2888 154.77 33.5481 154.77 31.249C154.77 28.9361 154.209 27.1886 153.088 26.0033C151.967 24.8199 150.215 24.2271 147.832 24.2271ZM150.303 34.571C149.651 35.2718 148.695 35.6219 147.433 35.6219H145.604V26.8551H147.433C148.695 26.8551 149.651 27.2021 150.303 27.8956C150.954 28.5896 151.28 29.7074 151.28 31.249C151.28 32.7633 150.954 33.8703 150.303 34.571Z" fill="#232A5E"/>
<path d="M157.146 38.2499H166.753V35.6214H160.552V32.5525H165.934V29.9038H160.552V26.8551H166.753V24.2271H157.146V38.2499Z" fill="#232A5E"/>
<path d="M178.212 31.2487C177.847 30.9404 177.424 30.6846 176.94 30.4815C176.456 30.2783 175.927 30.0927 175.352 29.9242C174.834 29.7561 174.364 29.5983 173.944 29.4513C173.523 29.3043 173.194 29.1187 172.955 28.894C172.717 28.6701 172.598 28.3618 172.598 27.969C172.598 27.6323 172.696 27.3559 172.893 27.1384C173.089 26.9208 173.362 26.7635 173.712 26.6651C174.062 26.5675 174.448 26.5253 174.869 26.5392C175.346 26.5532 175.801 26.6377 176.236 26.7918C176.67 26.9464 177.087 27.1384 177.487 27.3698C177.886 27.6013 178.247 27.8499 178.57 28.116V24.8371C178.149 24.6263 177.736 24.4551 177.329 24.322C176.922 24.189 176.499 24.0879 176.057 24.0168C175.615 23.9472 175.107 23.9121 174.533 23.9121C173.608 23.9121 172.801 24.0348 172.115 24.2798C171.428 24.5252 170.864 24.8578 170.422 25.2785C169.981 25.6992 169.655 26.1756 169.445 26.7082C169.234 27.2413 169.129 27.7946 169.129 28.369C169.129 28.9996 169.22 29.5327 169.402 29.9669C169.584 30.4015 169.829 30.7696 170.138 31.0707C170.446 31.3723 170.797 31.6209 171.189 31.8169C171.582 32.0133 171.981 32.1742 172.388 32.3009C173.033 32.5248 173.614 32.7248 174.133 32.8996C174.651 33.0754 175.068 33.2781 175.384 33.5086C175.699 33.7406 175.857 34.0448 175.857 34.4233C175.857 34.928 175.685 35.3038 175.342 35.5488C174.998 35.7937 174.504 35.9164 173.859 35.9164C173.131 35.9164 172.359 35.7829 171.546 35.5168C170.733 35.2508 170.004 34.8584 169.36 34.3397V37.5772C169.823 37.801 170.299 37.9835 170.79 38.1233C171.28 38.2631 171.813 38.3683 172.388 38.4393C172.963 38.5085 173.607 38.5435 174.322 38.5435C175.401 38.5435 176.313 38.3444 177.055 37.9449C177.798 37.5453 178.366 36.9987 178.758 36.3052C179.15 35.6108 179.347 34.8435 179.347 34.0026C179.347 33.3725 179.248 32.8331 179.053 32.3836C178.856 31.936 178.576 31.5571 178.212 31.2487Z" fill="#232A5E"/>
<path d="M189.901 38.2499H194.169L188.463 30.1519L193.728 24.2271H189.438L185.15 30.0957V24.2271H181.744V38.2499H185.15V33.8798L186.129 32.7781L189.901 38.2499Z" fill="#232A5E"/>
<path d="M72.1469 48.4238C71.6331 48.4238 71.203 48.3272 70.8555 48.1335C70.5086 47.9402 70.2474 47.6507 70.0739 47.2651C69.9004 46.8808 69.8132 46.4012 69.8132 45.8273C69.8132 45.2533 69.9 44.7755 70.0739 44.393C70.2479 44.0105 70.5081 43.7233 70.8555 43.5318C71.203 43.3404 71.6331 43.2446 72.1469 43.2446C72.4233 43.2446 72.6952 43.2729 72.9622 43.3282C73.2287 43.3835 73.4858 43.4694 73.7321 43.5844V44.1507C73.4957 44.0456 73.2489 43.9539 72.9923 43.8761C72.7357 43.7984 72.4741 43.7584 72.2071 43.7584C71.7846 43.7584 71.4358 43.833 71.1612 43.9813C70.8866 44.1296 70.6843 44.3562 70.5535 44.6609C70.4223 44.9656 70.3571 45.3544 70.3571 45.8277C70.3571 46.301 70.4227 46.6907 70.5535 46.9981C70.6843 47.3055 70.887 47.5325 71.1612 47.6813C71.4354 47.8301 71.7841 47.9042 72.2071 47.9042C72.4084 47.9042 72.6049 47.8894 72.7963 47.8584C72.9878 47.8287 73.1761 47.7829 73.3627 47.7231V46.2889H72.1473V45.7594H73.9065V48.0323C73.6296 48.1631 73.3451 48.2616 73.0534 48.3272C72.7604 48.3915 72.4583 48.4238 72.1469 48.4238Z" fill="#6A73B6"/>
<path d="M77.3035 48.3497V43.3135H80.4821V43.8272H77.8469V45.5635H80.1648V46.0921H77.8469V47.8364H80.4821V48.3502L77.3035 48.3497Z" fill="#6A73B6"/>
<path d="M85.0954 48.3492V43.8262H83.3137V43.3125H87.4137V43.8262H85.6393V48.3492H85.0954Z" fill="#6A73B6"/>
<path d="M94.6238 48.3497V43.3135H95.1672V48.3497H94.6238Z" fill="#6A73B6"/>
<path d="M99.8561 48.3492V43.8262H98.0745V43.3125H102.174V43.8262H100.4V48.3492H99.8561Z" fill="#6A73B6"/>
<path d="M109.385 48.3497V43.3135H110.963C111.748 43.3135 112.338 43.5234 112.734 43.9436C113.129 44.3639 113.326 44.9918 113.326 45.8273C113.326 46.6629 113.129 47.2917 112.734 47.7146C112.338 48.1376 111.748 48.3493 110.963 48.3493L109.385 48.3497ZM109.929 47.836H110.925C111.57 47.836 112.038 47.6746 112.33 47.3524C112.622 47.0301 112.768 46.5218 112.768 45.8273C112.768 45.1329 112.622 44.6237 112.33 44.3023C112.038 43.98 111.57 43.8187 110.925 43.8187H109.929V47.836Z" fill="#6A73B6"/>
<path d="M118.604 48.4238C118.106 48.4238 117.689 48.3272 117.354 48.1335C117.019 47.9402 116.768 47.6516 116.599 47.2696C116.431 46.8866 116.346 46.4084 116.346 45.8344C116.346 44.9796 116.536 44.3332 116.917 43.8977C117.296 43.4622 117.859 43.2446 118.604 43.2446C119.107 43.2446 119.526 43.3422 119.861 43.5359C120.196 43.7292 120.447 44.0177 120.616 44.3998C120.785 44.7827 120.869 45.2609 120.869 45.834C120.869 46.6898 120.679 47.3361 120.299 47.7716C119.919 48.2058 119.354 48.4238 118.604 48.4238ZM118.604 47.911C119.001 47.911 119.326 47.8382 119.578 47.6916C119.83 47.546 120.014 47.3195 120.132 47.012C120.251 46.7046 120.31 46.3122 120.31 45.834C120.31 45.3562 120.251 44.9647 120.132 44.6604C120.014 44.3562 119.829 44.1292 119.578 43.9809C119.326 43.8325 119.001 43.7579 118.604 43.7579C118.211 43.7579 117.889 43.8325 117.637 43.9809C117.386 44.1292 117.201 44.3557 117.082 44.6604C116.964 44.9652 116.905 45.3567 116.905 45.834C116.905 46.3122 116.964 46.7051 117.082 47.012C117.201 47.319 117.386 47.546 117.637 47.6916C117.889 47.8382 118.211 47.911 118.604 47.911Z" fill="#6A73B6"/>
<path d="M124.078 48.3497V43.3135H124.698L127.839 47.7448L127.702 47.9565V43.3135H128.246V48.3497H127.635L124.373 43.7517L124.622 43.5175V48.3502L124.078 48.3497Z" fill="#6A73B6"/>
<path d="M131.644 48.3497V43.3135H134.822V43.8272H132.188V45.5635H134.506V46.0921H132.188V47.8364H134.822V48.3502L131.644 48.3497Z" fill="#6A73B6"/>
<path d="M138.061 49.1949L138.62 47.7148H139.239L138.605 49.1949H138.061Z" fill="#6A73B6"/>
<path d="M146.435 48.3497L148.443 43.3135H148.987L150.988 48.3497H150.407L148.663 43.8191L148.776 43.8043L147.024 48.3497H146.435ZM147.318 46.7784L147.553 46.2579H150.022L150.059 46.7784H147.318Z" fill="#6A73B6"/>
<path d="M153.895 48.3497V43.3135H154.514L157.655 47.7448L157.519 47.9565V43.3135H158.063V48.3497H157.451L154.189 43.7517L154.439 43.5175V48.3502L153.895 48.3497Z" fill="#6A73B6"/>
<path d="M162.789 48.3492V46.0385L160.909 43.3129H161.566L163.159 45.6681L162.986 45.6232L164.548 43.3125H165.206L163.242 46.1666L163.333 45.8192V48.3492H162.789Z" fill="#6A73B6"/>
<path d="M169.381 48.3492V43.8262H167.599V43.3125H171.699V43.8262H169.924V48.3492H169.381Z" fill="#6A73B6"/>
<path d="M174.606 48.3497V43.3135H175.149V48.3497H174.606Z" fill="#6A73B6"/>
<path d="M178.547 48.3497V43.3135H179.136L181.001 46.1743L180.631 46.2579L182.601 43.3135H183.19V48.3497H182.646V43.8569H182.888L180.812 46.7712L178.894 43.9171L179.09 43.638V48.3493L178.547 48.3497Z" fill="#6A73B6"/>
<path d="M186.588 48.3497V43.3135H189.767V43.8272H187.132V45.5635H189.45V46.0921H187.132V47.8364H189.767V48.3502L186.588 48.3497Z" fill="#6A73B6"/>
<path d="M193.565 48.3497V47.7448H194.169V48.3497H193.565ZM193.648 47.0804L193.595 43.3135H194.139L194.086 47.0804H193.648Z" fill="#6A73B6"/>
</g>
<defs>
<clipPath id="clip0_1735_170191">
<rect width="194.169" height="60" fill="white"/>
</clipPath>
</defs>
</svg>
