<svg width="32" height="37" viewBox="0 0 32 37" fill="none" xmlns="http://www.w3.org/2000/svg">
<path d="M28.3334 19.3333V9.83331C28.3334 7.03305 28.3334 5.63292 27.7884 4.56336C27.3091 3.62255 26.5442 2.85765 25.6034 2.37828C24.5338 1.83331 23.1337 1.83331 20.3334 1.83331H9.66675C6.86649 1.83331 5.46635 1.83331 4.3968 2.37828C3.45599 2.85765 2.69108 3.62255 2.21172 4.56336C1.66675 5.63292 1.66675 7.03305 1.66675 9.83331V27.1666C1.66675 29.9669 1.66675 31.367 2.21172 32.4366C2.69108 33.3774 3.45599 34.1423 4.3968 34.6217C5.46635 35.1666 6.86649 35.1666 9.66675 35.1666H15.0001M18.3334 16.8333H8.33342M11.6667 23.5H8.33342M21.6667 10.1666H8.33342M19.1667 30.1666L22.5001 33.5L30.0001 26" stroke="#FE66A6" stroke-width="3" stroke-linecap="round" stroke-linejoin="round"/>
</svg>
