<svg width="32" height="37" viewBox="0 0 32 37" fill="none" xmlns="http://www.w3.org/2000/svg">
<path d="M28.3334 19.3333V9.83325C28.3334 7.03299 28.3334 5.63286 27.7884 4.5633C27.3091 3.62249 26.5442 2.85759 25.6034 2.37822C24.5338 1.83325 23.1337 1.83325 20.3334 1.83325H9.66675C6.86649 1.83325 5.46635 1.83325 4.3968 2.37822C3.45599 2.85759 2.69108 3.62249 2.21172 4.5633C1.66675 5.63286 1.66675 7.03299 1.66675 9.83325V27.1666C1.66675 29.9668 1.66675 31.367 2.21172 32.4365C2.69108 33.3774 3.45599 34.1423 4.3968 34.6216C5.46635 35.1666 6.86649 35.1666 9.66675 35.1666H15.0001M18.3334 16.8333H8.33342M11.6667 23.4999H8.33342M21.6667 10.1666H8.33342M19.1667 30.1666L22.5001 33.4999L30.0001 25.9999" stroke="#475467" stroke-width="3" stroke-linecap="round" stroke-linejoin="round"/>
</svg>
