<svg width="24" height="24" viewBox="0 0 24 24" fill="none" xmlns="http://www.w3.org/2000/svg">
<path d="M8.28082 3C8.54894 3 8.77238 3.19594 8.85488 3.45375C9.27769 4.78406 10.5255 5.75 12.0002 5.75C13.4749 5.75 14.7227 4.78406 15.1455 3.45375C15.228 3.19594 15.4514 3 15.7196 3H16.1527C16.9261 3 17.6721 3.27156 18.2668 3.76656L22.6049 7.37937C22.8318 7.56844 22.9727 7.84344 22.9968 8.13906C23.0208 8.43469 22.9246 8.72688 22.7286 8.95031L20.8036 11.1503C20.4118 11.6006 19.7311 11.6522 19.2705 11.2706L17.5002 9.79594V18.4C17.5002 19.6134 16.5136 20.6 15.3002 20.6H8.70019C7.48675 20.6 6.50019 19.6134 6.50019 18.4V9.79594L4.72988 11.2706C4.27269 11.6522 3.59207 11.6006 3.19676 11.1503L1.27176 8.95031C1.07582 8.72688 0.979568 8.43469 1.00363 8.13906C1.02769 7.84344 1.16863 7.56844 1.39551 7.37937L5.73363 3.76656C6.32832 3.27156 7.07425 3 7.84769 3H8.28082Z" fill="#475467"/>
</svg>
