<svg width="218" height="210" viewBox="0 0 218 210" fill="none" xmlns="http://www.w3.org/2000/svg">
<path d="M113.862 210C135.076 210 152.273 192.803 152.273 171.589C152.273 150.375 135.076 133.177 113.862 133.177C92.6482 133.177 75.4509 150.375 75.4509 171.589C75.4509 192.803 92.6482 210 113.862 210Z" fill="#E8EBEC"/>
<path d="M32.9239 119.404C51.1072 119.404 65.8478 104.664 65.8478 86.4803C65.8478 68.2969 51.1072 53.5564 32.9239 53.5564C14.7405 53.5564 0 68.2969 0 86.4803C0 104.664 14.7405 119.404 32.9239 119.404Z" fill="#E8EBEC"/>
<path d="M162.754 109.746C193.06 109.746 217.627 85.1789 217.627 54.8732C217.627 24.5676 193.06 0 162.754 0C132.448 0 107.881 24.5676 107.881 54.8732C107.881 85.1789 132.448 109.746 162.754 109.746Z" fill="#E8EBEC"/>
<path d="M137.183 45.9563H49.3858C34.233 45.9563 21.9492 58.2401 21.9492 73.3929V161.19C21.9492 176.343 34.233 188.627 49.3858 188.627H137.183C152.336 188.627 164.619 176.343 164.619 161.19V73.3929C164.619 58.2401 152.336 45.9563 137.183 45.9563Z" fill="#BDC3D8"/>
<path d="M49.3858 45.9563H128.952C141.079 45.9563 150.901 55.7786 150.901 67.9056V120.035C150.901 150.325 126.318 174.908 96.028 174.908H43.8985C31.7715 174.908 21.9492 165.086 21.9492 152.959V73.3929C21.9492 58.2479 34.2408 45.9563 49.3858 45.9563Z" fill="white"/>
<path d="M137.183 190.685H49.3859C33.116 190.685 19.8916 177.46 19.8916 161.19V73.393C19.8916 57.1231 33.116 43.8987 49.3859 43.8987H137.183C153.453 43.8987 166.677 57.1231 166.677 73.393V161.19C166.677 177.46 153.453 190.685 137.183 190.685ZM49.3859 48.0142C35.3933 48.0142 24.0071 59.4004 24.0071 73.393V161.19C24.0071 175.183 35.3933 186.569 49.3859 186.569H137.183C151.176 186.569 162.562 175.183 162.562 161.19V73.393C162.562 59.4004 151.176 48.0142 137.183 48.0142H49.3859Z" fill="#21365F"/>
<path d="M93.2845 70.6768C67.5216 70.6768 46.6423 91.556 46.6423 117.319C46.6423 125.605 48.8098 133.369 52.596 140.091L46.6423 163.961L70.5122 158.007C77.2616 161.794 85.0261 163.961 93.2845 163.961C119.047 163.961 139.927 143.082 139.927 117.319C139.927 91.556 119.047 70.6768 93.2845 70.6768Z" fill="white"/>
<path d="M133.287 93.4218C134.741 99.8968 134.933 106.838 133.15 114.136C127.882 135.427 108.375 150.847 86.4528 150.216C79.6486 150.024 73.2284 148.35 67.4393 145.551C65.7382 144.728 63.7627 144.591 61.8971 145.057L50.6754 147.856L46.6423 163.961L70.5122 158.008C76.7128 161.492 83.7914 163.605 91.3639 163.934C117.127 165.004 139.79 143.384 139.954 117.621C140.009 108.786 137.567 100.528 133.314 93.4492L133.287 93.4218Z" fill="#BDC3D8"/>
<path d="M46.6428 166.019C46.0941 166.019 45.5727 165.8 45.1886 165.415C44.6673 164.894 44.4752 164.153 44.6398 163.467L50.4016 140.393C46.5879 133.315 44.5576 125.358 44.5576 117.319C44.5576 90.4586 66.3971 68.619 93.2575 68.619C120.118 68.619 141.957 90.4586 141.957 117.319C141.957 144.179 120.118 166.019 93.2575 166.019C85.2186 166.019 77.2621 164.016 70.1834 160.202L47.1092 165.964C46.9446 165.992 46.78 166.019 46.6154 166.019H46.6428ZM70.5127 155.95C70.8693 155.95 71.1986 156.032 71.5278 156.224C78.1675 159.956 85.7125 161.931 93.3125 161.931C117.896 161.931 137.897 141.93 137.897 117.346C137.897 92.7632 117.896 72.7619 93.3125 72.7619C68.7293 72.7619 48.728 92.7632 48.728 117.346C48.728 124.946 50.7033 132.491 54.4347 139.131C54.6816 139.598 54.764 140.119 54.6268 140.64L49.4962 161.163L70.0187 156.032C70.1833 156.005 70.348 155.977 70.5127 155.977V155.95Z" fill="#21365F"/>
<path d="M93.2846 123.492C96.6939 123.492 99.4578 120.728 99.4578 117.319C99.4578 113.91 96.6939 111.146 93.2846 111.146C89.8752 111.146 87.1113 113.91 87.1113 117.319C87.1113 120.728 89.8752 123.492 93.2846 123.492Z" fill="white"/>
<path d="M93.2844 125.55C88.7574 125.55 85.0535 121.846 85.0535 117.319C85.0535 112.792 88.7574 109.088 93.2844 109.088C97.8115 109.088 101.515 112.792 101.515 117.319C101.515 121.846 97.8115 125.55 93.2844 125.55ZM93.2844 113.204C91.0072 113.204 89.169 115.042 89.169 117.319C89.169 119.596 91.0072 121.435 93.2844 121.435C95.5617 121.435 97.3999 119.596 97.3999 117.319C97.3999 115.042 95.5617 113.204 93.2844 113.204Z" fill="#21365F"/>
<path d="M68.5914 123.492C72.0008 123.492 74.7647 120.728 74.7647 117.319C74.7647 113.91 72.0008 111.146 68.5914 111.146C65.1821 111.146 62.4182 113.91 62.4182 117.319C62.4182 120.728 65.1821 123.492 68.5914 123.492Z" fill="white"/>
<path d="M68.5918 125.55C64.0648 125.55 60.3608 121.846 60.3608 117.319C60.3608 112.792 64.0648 109.088 68.5918 109.088C73.1188 109.088 76.8228 112.792 76.8228 117.319C76.8228 121.846 73.1188 125.55 68.5918 125.55ZM68.5918 113.204C66.3146 113.204 64.4763 115.042 64.4763 117.319C64.4763 119.596 66.3146 121.435 68.5918 121.435C70.869 121.435 72.7073 119.596 72.7073 117.319C72.7073 115.042 70.869 113.204 68.5918 113.204Z" fill="#21365F"/>
<path d="M117.977 123.492C121.387 123.492 124.151 120.728 124.151 117.319C124.151 113.91 121.387 111.146 117.977 111.146C114.568 111.146 111.804 113.91 111.804 117.319C111.804 120.728 114.568 123.492 117.977 123.492Z" fill="white"/>
<path d="M117.978 125.55C113.451 125.55 109.747 121.846 109.747 117.319C109.747 112.792 113.451 109.088 117.978 109.088C122.505 109.088 126.209 112.792 126.209 117.319C126.209 121.846 122.505 125.55 117.978 125.55ZM117.978 113.204C115.7 113.204 113.862 115.042 113.862 117.319C113.862 119.596 115.7 121.435 117.978 121.435C120.255 121.435 122.093 119.596 122.093 117.319C122.093 115.042 120.255 113.204 117.978 113.204Z" fill="#21365F"/>
<path d="M164.619 78.8802C182.803 78.8802 197.543 64.1397 197.543 45.9563C197.543 27.7729 182.803 13.0323 164.619 13.0323C146.436 13.0323 131.695 27.7729 131.695 45.9563C131.695 64.1397 146.436 78.8802 164.619 78.8802Z" fill="white"/>
<path d="M183.414 18.931C187.118 24.2537 189.313 30.7288 189.313 37.7251C189.313 55.9156 174.579 70.6491 156.389 70.6491C149.392 70.6491 142.917 68.4542 137.594 64.7502C143.548 73.283 153.425 78.8801 164.62 78.8801C182.81 78.8801 197.543 64.1466 197.543 45.9561C197.543 34.762 191.946 24.8848 183.414 18.931Z" fill="#BDC3D8"/>
<path d="M164.619 80.9381C145.331 80.9381 129.637 65.2444 129.637 45.9564C129.637 26.6685 145.331 10.9747 164.619 10.9747C183.907 10.9747 199.601 26.6685 199.601 45.9564C199.601 65.2444 183.907 80.9381 164.619 80.9381ZM164.619 15.0902C147.608 15.0902 133.753 28.9457 133.753 45.9564C133.753 62.9671 147.608 76.8226 164.619 76.8226C181.63 76.8226 195.485 62.9671 195.485 45.9564C195.485 28.9457 181.63 15.0902 164.619 15.0902Z" fill="#21365F"/>
<path d="M164.619 64.4761C159.324 64.4761 154.742 60.8819 153.48 55.7513C153.205 54.6538 153.891 53.5289 154.989 53.2545C156.086 52.9801 157.211 53.666 157.485 54.7635C158.281 58.0559 161.217 60.3606 164.619 60.3606C168.68 60.3606 171.972 57.0682 171.972 53.0076V38.9051C171.972 34.8445 168.68 31.5521 164.619 31.5521C160.558 31.5521 157.266 34.8445 157.266 38.9051C157.266 40.03 156.333 40.9629 155.208 40.9629C154.083 40.9629 153.151 40.03 153.151 38.9051C153.151 32.5947 158.281 27.4366 164.619 27.4366C170.957 27.4366 176.088 32.5947 176.088 38.9051V53.0076C176.088 59.318 170.957 64.4761 164.619 64.4761Z" fill="#21365F"/>
<path d="M164.619 48.316C169.817 48.316 174.03 44.1025 174.03 38.9051C174.03 33.7077 169.817 29.4944 164.619 29.4944C159.422 29.4944 155.208 33.7077 155.208 38.9051C155.208 44.1025 159.422 48.316 164.619 48.316Z" fill="white"/>
<path d="M171.15 32.1556C171.205 32.5672 171.287 32.9788 171.287 33.4177C171.287 38.6033 167.062 42.8285 161.876 42.8285C159.325 42.8285 157.047 41.8134 155.346 40.1672C155.977 44.7491 159.873 48.3158 164.62 48.3158C169.805 48.3158 174.03 44.0905 174.03 38.905C174.03 36.2437 172.933 33.8567 171.15 32.1556Z" fill="#BDC3D8"/>
<path d="M164.619 50.3737C158.309 50.3737 153.151 45.2156 153.151 38.9051C153.151 32.5947 158.281 27.4366 164.619 27.4366C170.957 27.4366 176.088 32.5947 176.088 38.9051C176.088 45.2156 170.957 50.3737 164.619 50.3737ZM164.619 31.5521C160.558 31.5521 157.266 34.8445 157.266 38.9051C157.266 42.9658 160.558 46.2582 164.619 46.2582C168.68 46.2582 171.972 42.9658 171.972 38.9051C171.972 34.8445 168.68 31.5521 164.619 31.5521Z" fill="#21365F"/>
<path d="M27.4366 40.1124C26.3117 40.1124 25.3789 39.1795 25.3789 38.0546V27.08C25.3789 25.9551 26.3117 25.0222 27.4366 25.0222C28.5615 25.0222 29.4944 25.9551 29.4944 27.08V38.0546C29.4944 39.1795 28.5615 40.1124 27.4366 40.1124Z" fill="#21365F"/>
<path d="M32.924 34.625H21.9493C20.8244 34.625 19.8916 33.6922 19.8916 32.5673C19.8916 31.4424 20.8244 30.5095 21.9493 30.5095H32.924C34.0489 30.5095 34.9817 31.4424 34.9817 32.5673C34.9817 33.6922 34.0489 34.625 32.924 34.625Z" fill="#21365F"/>
<path d="M43.8986 34.625C45.035 34.625 45.9563 33.7037 45.9563 32.5673C45.9563 31.4308 45.035 30.5095 43.8986 30.5095C42.7621 30.5095 41.8408 31.4308 41.8408 32.5673C41.8408 33.7037 42.7621 34.625 43.8986 34.625Z" fill="#21365F"/>
<path d="M52.1298 34.625C53.2662 34.625 54.1875 33.7037 54.1875 32.5673C54.1875 31.4308 53.2662 30.5095 52.1298 30.5095C50.9933 30.5095 50.072 31.4308 50.072 32.5673C50.072 33.7037 50.9933 34.625 52.1298 34.625Z" fill="#21365F"/>
<path d="M65.8478 34.625C66.9842 34.625 67.9055 33.7037 67.9055 32.5673C67.9055 31.4308 66.9842 30.5095 65.8478 30.5095C64.7113 30.5095 63.79 31.4308 63.79 32.5673C63.79 33.7037 64.7113 34.625 65.8478 34.625Z" fill="#21365F"/>
<path d="M82.3097 34.625C83.4462 34.625 84.3674 33.7037 84.3674 32.5673C84.3674 31.4308 83.4462 30.5095 82.3097 30.5095C81.1732 30.5095 80.252 31.4308 80.252 32.5673C80.252 33.7037 81.1732 34.625 82.3097 34.625Z" fill="#21365F"/>
<path d="M120.035 26.3941C118.91 26.3941 117.978 25.4613 117.978 24.3364V13.3617C117.978 12.2368 118.91 11.304 120.035 11.304C121.16 11.304 122.093 12.2368 122.093 13.3617V24.3364C122.093 25.4613 121.16 26.3941 120.035 26.3941Z" fill="#21365F"/>
<path d="M125.523 20.9068H114.548C113.423 20.9068 112.49 19.9739 112.49 18.849C112.49 17.7241 113.423 16.7913 114.548 16.7913H125.523C126.648 16.7913 127.58 17.7241 127.58 18.849C127.58 19.9739 126.648 20.9068 125.523 20.9068Z" fill="#21365F"/>
<path d="M103.573 20.9068C104.71 20.9068 105.631 19.9855 105.631 18.849C105.631 17.7125 104.71 16.7913 103.573 16.7913C102.437 16.7913 101.515 17.7125 101.515 18.849C101.515 19.9855 102.437 20.9068 103.573 20.9068Z" fill="#21365F"/>
<path d="M92.5985 20.9068C93.735 20.9068 94.6563 19.9855 94.6563 18.849C94.6563 17.7125 93.735 16.7913 92.5985 16.7913C91.4621 16.7913 90.5408 17.7125 90.5408 18.849C90.5408 19.9855 91.4621 20.9068 92.5985 20.9068Z" fill="#21365F"/>
<path d="M78.8805 20.9068C80.017 20.9068 80.9382 19.9855 80.9382 18.849C80.9382 17.7125 80.017 16.7913 78.8805 16.7913C77.744 16.7913 76.8228 17.7125 76.8228 18.849C76.8228 19.9855 77.744 20.9068 78.8805 20.9068Z" fill="#21365F"/>
<path d="M59.6744 20.9068C60.8109 20.9068 61.7322 19.9855 61.7322 18.849C61.7322 17.7125 60.8109 16.7913 59.6744 16.7913C58.538 16.7913 57.6167 17.7125 57.6167 18.849C57.6167 19.9855 58.538 20.9068 59.6744 20.9068Z" fill="#21365F"/>
<path d="M197.543 93.3394H186.569C185.444 93.3394 184.511 92.4065 184.511 91.2816C184.511 90.1567 185.444 89.2239 186.569 89.2239H197.543C198.668 89.2239 199.601 90.1567 199.601 91.2816C199.601 92.4065 198.668 93.3394 197.543 93.3394Z" fill="#21365F"/>
<path d="M192.056 98.8267C190.931 98.8267 189.998 97.8939 189.998 96.769V85.7943C189.998 84.6694 190.931 83.7366 192.056 83.7366C193.181 83.7366 194.114 84.6694 194.114 85.7943V96.769C194.114 97.8939 193.181 98.8267 192.056 98.8267Z" fill="#21365F"/>
<path d="M186.569 118.032H175.594C174.469 118.032 173.536 117.1 173.536 115.975C173.536 114.85 174.469 113.917 175.594 113.917H186.569C187.693 113.917 188.626 114.85 188.626 115.975C188.626 117.1 187.693 118.032 186.569 118.032Z" fill="#21365F"/>
<path d="M181.081 123.52C179.956 123.52 179.023 122.587 179.023 121.462V110.487C179.023 109.362 179.956 108.43 181.081 108.43C182.206 108.43 183.139 109.362 183.139 110.487V121.462C183.139 122.587 182.206 123.52 181.081 123.52Z" fill="#21365F"/>
<path d="M197.543 164.675H186.569C185.444 164.675 184.511 163.742 184.511 162.617C184.511 161.492 185.444 160.559 186.569 160.559H197.543C198.668 160.559 199.601 161.492 199.601 162.617C199.601 163.742 198.668 164.675 197.543 164.675Z" fill="#21365F"/>
<path d="M192.056 170.162C190.931 170.162 189.998 169.229 189.998 168.104V157.13C189.998 156.005 190.931 155.072 192.056 155.072C193.181 155.072 194.114 156.005 194.114 157.13V168.104C194.114 169.229 193.181 170.162 192.056 170.162Z" fill="#21365F"/>
</svg>
