<svg width="37" height="37" viewBox="0 0 37 37" fill="none" xmlns="http://www.w3.org/2000/svg">
<path d="M10.6666 35.1666V16.8333M2.33325 20.1666V31.8333C2.33325 33.6743 3.82564 35.1666 5.66659 35.1666H28.0437C30.5115 35.1666 32.6103 33.3661 32.9855 30.9269L34.7804 19.2603C35.2464 16.2315 32.903 13.5 29.8385 13.5H23.9999C23.0794 13.5 22.3333 12.7538 22.3333 11.8333V5.94305C22.3333 3.6733 20.4933 1.83331 18.2235 1.83331C17.6821 1.83331 17.1916 2.15214 16.9717 2.64685L11.1065 15.8435C10.839 16.4454 10.2421 16.8333 9.58346 16.8333H5.66659C3.82564 16.8333 2.33325 18.3257 2.33325 20.1666Z" stroke="#475467" stroke-width="3" stroke-linecap="round" stroke-linejoin="round"/>
</svg>
