<svg width="37" height="37" viewBox="0 0 37 37" fill="none" xmlns="http://www.w3.org/2000/svg">
<path d="M10.6666 35.1666V16.8333M2.33325 20.1666V31.8333C2.33325 33.6742 3.82564 35.1666 5.66659 35.1666H28.0437C30.5115 35.1666 32.6103 33.366 32.9855 30.9269L34.7804 19.2602C35.2464 16.2314 32.903 13.4999 29.8385 13.4999H23.9999C23.0794 13.4999 22.3333 12.7537 22.3333 11.8333V5.94298C22.3333 3.67324 20.4933 1.83325 18.2235 1.83325C17.6821 1.83325 17.1916 2.15208 16.9717 2.64679L11.1065 15.8435C10.839 16.4454 10.2421 16.8333 9.58346 16.8333H5.66659C3.82564 16.8333 2.33325 18.3256 2.33325 20.1666Z" stroke="#35DDD8" stroke-width="3" stroke-linecap="round" stroke-linejoin="round"/>
</svg>
