<svg width="1280" height="786" viewBox="0 0 1280 786" fill="none" xmlns="http://www.w3.org/2000/svg">
<g opacity="0.5" clip-path="url(#clip0_1210_120886)">
<rect width="1440" height="1024" transform="matrix(-1 0 0 -1 1360 905)" fill="white"/>
<g filter="url(#filter0_f_1210_120886)">
<circle cx="618.37" cy="195.689" r="415.5" transform="rotate(-146.091 618.37 195.689)" fill="#F7D481"/>
</g>
<g filter="url(#filter1_f_1210_120886)">
<circle cx="456.68" cy="-169.646" r="415.5" transform="rotate(-146.091 456.68 -169.646)" fill="#FFE9E9"/>
</g>
<g filter="url(#filter2_f_1210_120886)">
<ellipse cx="37.8142" cy="646.657" rx="493.5" ry="184.5" transform="rotate(-160.349 37.8142 646.657)" fill="#FBA87F"/>
</g>
<g filter="url(#filter3_f_1210_120886)">
<path d="M425.708 629.295C309.637 628.991 -267.973 430.692 -516.368 619.176C-764.762 807.66 -595.815 -237.442 -274.572 -215.556C44.0125 -193.851 541.779 629.599 425.708 629.295Z" fill="#2153F2" fill-opacity="0.75"/>
</g>
</g>
<defs>
<filter id="filter0_f_1210_120886" x="-217.173" y="-639.854" width="1671.09" height="1671.09" filterUnits="userSpaceOnUse" color-interpolation-filters="sRGB">
<feFlood flood-opacity="0" result="BackgroundImageFix"/>
<feBlend mode="normal" in="SourceGraphic" in2="BackgroundImageFix" result="shape"/>
<feGaussianBlur stdDeviation="210" result="effect1_foregroundBlur_1210_120886"/>
</filter>
<filter id="filter1_f_1210_120886" x="-378.862" y="-1005.19" width="1671.09" height="1671.09" filterUnits="userSpaceOnUse" color-interpolation-filters="sRGB">
<feFlood flood-opacity="0" result="BackgroundImageFix"/>
<feBlend mode="normal" in="SourceGraphic" in2="BackgroundImageFix" result="shape"/>
<feGaussianBlur stdDeviation="210" result="effect1_foregroundBlur_1210_120886"/>
</filter>
<filter id="filter2_f_1210_120886" x="-851.12" y="-13.6226" width="1777.87" height="1320.56" filterUnits="userSpaceOnUse" color-interpolation-filters="sRGB">
<feFlood flood-opacity="0" result="BackgroundImageFix"/>
<feBlend mode="normal" in="SourceGraphic" in2="BackgroundImageFix" result="shape"/>
<feGaussianBlur stdDeviation="210" result="effect1_foregroundBlur_1210_120886"/>
</filter>
<filter id="filter3_f_1210_120886" x="-1055.47" y="-635.896" width="1918.37" height="1697.83" filterUnits="userSpaceOnUse" color-interpolation-filters="sRGB">
<feFlood flood-opacity="0" result="BackgroundImageFix"/>
<feBlend mode="normal" in="SourceGraphic" in2="BackgroundImageFix" result="shape"/>
<feGaussianBlur stdDeviation="210" result="effect1_foregroundBlur_1210_120886"/>
</filter>
<clipPath id="clip0_1210_120886">
<rect width="1440" height="1024" fill="white" transform="matrix(-1 0 0 -1 1360 905)"/>
</clipPath>
</defs>
</svg>
