<svg width="22" height="18" viewBox="0 0 22 18" fill="none" xmlns="http://www.w3.org/2000/svg">
<path d="M1.09983 4.10373C0.443368 3.72567 0 3.01422 0 2.19966C0 0.986408 0.986408 0 2.19966 0C3.01422 0 3.72567 0.443368 4.10373 1.09983H11.2939C11.6719 0.443368 12.3834 0 13.1979 0C14.4112 0 15.3976 0.986408 15.3976 2.19966C15.3976 3.01422 14.9542 3.72567 14.2978 4.10373V7.99438C14.9542 8.37588 15.3976 9.08389 15.3976 9.89845C15.3976 11.1117 14.4112 12.0981 13.1979 12.0981C12.3834 12.0981 11.6719 11.6547 11.2939 10.9983H4.10373C3.72223 11.6547 3.01422 12.0981 2.19966 12.0981C0.986408 12.0981 0 11.1117 0 9.89845C0 9.08389 0.443368 8.37244 1.09983 7.99438V4.10373ZM4.10373 3.29948C3.91126 3.63287 3.63287 3.91126 3.29948 4.10373V7.99438C3.63287 8.18685 3.91126 8.46524 4.10373 8.79863H11.2939C11.4863 8.46524 11.7647 8.18685 12.0981 7.99438V4.10373C11.7647 3.91126 11.4863 3.63287 11.2939 3.29948H4.10373ZM10.7027 16.4974C10.3212 17.1539 9.61319 17.5973 8.79863 17.5973C7.58538 17.5973 6.59897 16.6108 6.59897 15.3976C6.59897 14.583 7.04234 13.8716 7.6988 13.4935V12.0981H9.89845V13.4935C10.2318 13.686 10.5102 13.9644 10.7027 14.2978H17.8928C18.0853 13.9644 18.3637 13.686 18.6971 13.4935V9.60287C18.3637 9.41041 18.0853 9.13201 17.8928 8.79863H16.3118C16.1262 8.26933 15.81 7.80534 15.401 7.43759V6.59897H17.8963C18.2778 5.94251 18.9858 5.49914 19.8003 5.49914C21.0136 5.49914 22 6.48555 22 7.6988C22 8.51336 21.5566 9.22481 20.9002 9.60287V13.4935C21.5566 13.875 22 14.583 22 15.3976C22 16.6108 21.0136 17.5973 19.8003 17.5973C18.9858 17.5973 18.2743 17.1539 17.8963 16.4974H10.7027Z" fill="#475467"/>
</svg>
