<svg width="37" height="37" viewBox="0 0 37 37" fill="none" xmlns="http://www.w3.org/2000/svg">
<path d="M2.33325 1.83337H4.51019C4.92022 1.83337 5.12524 1.83337 5.29022 1.90877C5.43562 1.97522 5.55883 2.08208 5.64517 2.21662C5.74314 2.36928 5.77214 2.57224 5.83012 2.97815L6.61897 8.50004M6.61897 8.50004L8.37212 21.3857C8.59459 23.0209 8.70583 23.8385 9.09675 24.4539C9.44122 24.9962 9.93506 25.4274 10.5188 25.6957C11.1814 26 12.0065 26 13.6568 26H27.9199C29.4908 26 30.2763 26 30.9182 25.7174C31.4842 25.4682 31.9697 25.0664 32.3204 24.5571C32.7181 23.9794 32.8651 23.2078 33.159 21.6646L35.3651 10.0829C35.4686 9.53972 35.5203 9.26815 35.4453 9.05587C35.3795 8.86966 35.2498 8.71285 35.0792 8.6134C34.8847 8.50004 34.6082 8.50004 34.0553 8.50004H6.61897ZM15.6666 33.5C15.6666 34.4205 14.9204 35.1667 13.9999 35.1667C13.0794 35.1667 12.3333 34.4205 12.3333 33.5C12.3333 32.5796 13.0794 31.8334 13.9999 31.8334C14.9204 31.8334 15.6666 32.5796 15.6666 33.5ZM28.9999 33.5C28.9999 34.4205 28.2537 35.1667 27.3333 35.1667C26.4128 35.1667 25.6666 34.4205 25.6666 33.5C25.6666 32.5796 26.4128 31.8334 27.3333 31.8334C28.2537 31.8334 28.9999 32.5796 28.9999 33.5Z" stroke="#475467" stroke-width="3" stroke-linecap="round" stroke-linejoin="round"/>
</svg>
