<svg width="20" height="20" viewBox="0 0 20 20" fill="none" xmlns="http://www.w3.org/2000/svg">
<path d="M10.0001 18.3333C14.6025 18.3333 18.3334 14.6023 18.3334 9.99996C18.3334 5.39759 14.6025 1.66663 10.0001 1.66663C5.39771 1.66663 1.66675 5.39759 1.66675 9.99996C1.66675 14.6023 5.39771 18.3333 10.0001 18.3333Z" stroke="#004EEB" stroke-width="1.66667" stroke-linecap="round" stroke-linejoin="round"/>
<path d="M7.91675 7.47107C7.91675 7.07333 7.91675 6.87446 7.99987 6.76344C8.0723 6.66669 8.18318 6.60616 8.30373 6.59755C8.44207 6.58767 8.60935 6.6952 8.94392 6.91028L12.8777 9.43917C13.1681 9.62581 13.3132 9.71913 13.3634 9.83778C13.4072 9.94146 13.4072 10.0585 13.3634 10.1621C13.3132 10.2808 13.1681 10.3741 12.8777 10.5607L8.94392 13.0896C8.60935 13.3047 8.44207 13.4123 8.30373 13.4024C8.18318 13.3938 8.0723 13.3332 7.99987 13.2365C7.91675 13.1255 7.91675 12.9266 7.91675 12.5288V7.47107Z" stroke="#004EEB" stroke-width="1.66667" stroke-linecap="round" stroke-linejoin="round"/>
</svg>
