<svg width="192" height="107" viewBox="0 0 192 107" fill="none" xmlns="http://www.w3.org/2000/svg">
<rect x="0.802002" width="191.198" height="106.98" rx="6.09441" fill="white"/>
<path d="M30.9727 44.7173V55.4624H34.9036V48.6482H78.5893V90.6956H34.9036V83.8851H30.9727V94.6265H82.5202V44.7173H30.9727Z" fill="#AC1D37"/>
<path d="M12.9907 59.2456H21.2868C26.1814 59.2456 28.5849 62.2357 28.5849 66.2808C28.5849 70.326 25.6824 73.0837 21.5496 73.0837H16.9178V80.1189H12.9907V59.2456ZM16.9178 69.8003H20.8183C23.2789 69.8003 24.4825 68.3339 24.4825 66.2808C24.4825 63.3784 22.9285 62.529 20.6697 62.529H16.9178V69.8003Z" fill="#898B8E"/>
<path d="M30.9041 59.2456H39.2001C44.0947 59.2456 46.4982 62.2357 46.4982 66.2808C46.4982 70.326 43.5957 73.0837 39.4629 73.0837H34.8312V80.1189H30.9041V59.2456ZM34.8312 69.8003H38.7316C41.196 69.8003 42.3959 68.3339 42.3959 66.2808C42.3959 63.3784 40.8418 62.529 38.583 62.529H34.8312V69.8003Z" fill="#898B8E"/>
<path d="M52.2467 59.2456H56.8213L63.7995 80.1189H59.6933L58.4897 76.0737H50.5745L49.3709 80.1189H45.2686L52.2467 59.2456ZM54.5626 63.0584H54.5054L51.6334 72.6152H57.4384L54.5664 63.0584H54.5626Z" fill="#898B8E"/>
<path d="M92.8884 59.7485H95.9814C96.5451 59.7485 97.0479 59.859 97.4821 60.0761C97.9163 60.2932 98.2553 60.6018 98.4953 60.9941C98.7353 61.3864 98.8534 61.8359 98.8534 62.3425C98.8534 62.8491 98.7353 63.2947 98.4953 63.6908C98.2553 64.0832 97.9202 64.3917 97.4821 64.6126C97.0479 64.8335 96.5451 64.9478 95.9814 64.9478H94.2483V68.2197H92.8884V59.7523V59.7485ZM95.9547 63.7251C96.4346 63.7251 96.8041 63.5994 97.0631 63.3518C97.3221 63.1043 97.4555 62.7691 97.4555 62.3539C97.4555 61.9387 97.3259 61.6035 97.0631 61.3483C96.8041 61.0931 96.4308 60.9674 95.9547 60.9674H94.2483V63.7251H95.9547Z" fill="#898B8E"/>
<path d="M103.87 61.9756V63.1335H103.459C102.929 63.1335 102.487 63.2859 102.137 63.5868C101.787 63.8877 101.611 64.3181 101.611 64.8704V68.2147H100.263V61.9185H101.52V62.7945C101.741 62.5165 102.015 62.2994 102.335 62.147C102.655 61.9946 102.994 61.9185 103.356 61.9185C103.543 61.9185 103.714 61.9375 103.87 61.9794V61.9756Z" fill="#898B8E"/>
<path d="M106.197 67.9111C105.687 67.6178 105.287 67.2179 104.99 66.7113C104.697 66.2085 104.548 65.6562 104.548 65.0582C104.548 64.4601 104.697 63.8964 104.99 63.3974C105.283 62.8985 105.687 62.5023 106.197 62.209C106.704 61.9196 107.264 61.771 107.87 61.771C108.475 61.771 109.05 61.9157 109.565 62.209C110.079 62.4985 110.483 62.8985 110.776 63.4012C111.069 63.904 111.218 64.4563 111.218 65.0543C111.218 65.6524 111.069 66.2047 110.776 66.7074C110.483 67.2102 110.079 67.6102 109.565 67.9073C109.05 68.2006 108.487 68.3491 107.87 68.3491C107.253 68.3491 106.704 68.2006 106.197 67.9073V67.9111ZM108.871 66.8636C109.172 66.6808 109.405 66.4332 109.576 66.1171C109.747 65.8009 109.831 65.4543 109.831 65.0734C109.831 64.6925 109.747 64.3306 109.576 64.0107C109.405 63.6907 109.168 63.4393 108.871 63.2603C108.57 63.0775 108.243 62.9899 107.885 62.9899C107.527 62.9899 107.184 63.0813 106.883 63.2603C106.582 63.4431 106.35 63.6907 106.178 64.0107C106.007 64.3306 105.923 64.6849 105.923 65.0734C105.923 65.4619 106.007 65.8123 106.178 66.1285C106.35 66.4446 106.582 66.6884 106.879 66.8674C107.173 67.0426 107.504 67.1341 107.873 67.1341C108.243 67.1341 108.574 67.0426 108.875 66.8636H108.871Z" fill="#898B8E"/>
<path d="M114.645 59.9153C114.44 60.0791 114.337 60.3609 114.337 60.7609V61.915H115.826V63.1339H114.337V68.2113H112.989V63.1339H112.09V61.915H112.989V60.6466C112.989 59.9115 113.19 59.363 113.59 58.9973C113.99 58.6355 114.539 58.4526 115.232 58.4526C115.575 58.4526 115.864 58.4907 116.104 58.5669V59.7096C115.899 59.6829 115.72 59.6715 115.563 59.6715C115.152 59.6715 114.844 59.7515 114.642 59.9153H114.645Z" fill="#898B8E"/>
<path d="M122.557 65.5076H117.86C117.944 66.0142 118.176 66.4103 118.546 66.6998C118.919 66.9893 119.372 67.1341 119.913 67.1341C120.572 67.1341 121.182 66.8903 121.749 66.4027L122.389 67.3321C121.669 68.0139 120.831 68.3529 119.875 68.3529C119.235 68.3529 118.656 68.2082 118.142 67.9225C117.628 67.6368 117.224 67.2445 116.931 66.7417C116.638 66.2428 116.489 65.6828 116.489 65.0696C116.489 64.4563 116.634 63.9078 116.919 63.4012C117.205 62.8985 117.597 62.4985 118.1 62.209C118.599 61.9196 119.152 61.771 119.75 61.771C120.306 61.771 120.805 61.8967 121.243 62.1481C121.685 62.3995 122.027 62.7461 122.283 63.1803C122.534 63.6145 122.66 64.1097 122.66 64.6544C122.66 64.921 122.625 65.2029 122.557 65.5V65.5076ZM118.534 63.4089C118.203 63.6869 117.99 64.0602 117.887 64.5325H121.311C121.304 64.0526 121.144 63.6793 120.831 63.4051C120.519 63.1308 120.142 62.9937 119.696 62.9937C119.251 62.9937 118.866 63.1346 118.534 63.4089Z" fill="#898B8E"/>
<path d="M124.686 68.0188C124.252 67.7941 123.89 67.4932 123.608 67.1237L124.377 66.2667C124.652 66.5485 124.93 66.7657 125.219 66.9142C125.509 67.0628 125.817 67.1389 126.149 67.1389C126.438 67.1389 126.682 67.0818 126.872 66.9637C127.067 66.8495 127.162 66.6781 127.162 66.4571C127.162 66.2743 127.093 66.1372 126.948 66.0381C126.807 65.9391 126.583 65.8286 126.274 65.703L125.634 65.4325C125.078 65.2002 124.667 64.9488 124.396 64.6745C124.126 64.4003 123.993 64.0422 123.993 63.5966C123.993 63.0329 124.202 62.5872 124.621 62.2634C125.04 61.9397 125.57 61.7759 126.209 61.7759C127.116 61.7759 127.844 62.1035 128.392 62.7586L127.661 63.5966C127.463 63.4023 127.238 63.2538 126.979 63.1509C126.724 63.0481 126.457 62.9948 126.183 62.9948C125.909 62.9948 125.707 63.0443 125.554 63.1395C125.402 63.2347 125.322 63.3757 125.322 63.5585C125.322 63.7108 125.383 63.8327 125.509 63.9318C125.634 64.027 125.848 64.1375 126.156 64.2555L126.758 64.4841C127.356 64.7355 127.794 65.0059 128.064 65.2954C128.339 65.5849 128.476 65.9543 128.476 66.4076C128.476 67.0247 128.255 67.5008 127.809 67.8436C127.364 68.1864 126.807 68.3578 126.141 68.3578C125.604 68.3578 125.116 68.2435 124.678 68.0188H124.686Z" fill="#898B8E"/>
<path d="M130.521 68.0188C130.087 67.7941 129.725 67.4932 129.443 67.1237L130.213 66.2667C130.487 66.5485 130.765 66.7657 131.055 66.9142C131.344 67.0628 131.653 67.1389 131.984 67.1389C132.273 67.1389 132.517 67.0818 132.708 66.9637C132.902 66.8495 132.997 66.6781 132.997 66.4571C132.997 66.2743 132.929 66.1372 132.784 66.0381C132.643 65.9391 132.418 65.8286 132.11 65.703L131.47 65.4325C130.914 65.2002 130.502 64.9488 130.232 64.6745C129.961 64.4003 129.828 64.0422 129.828 63.5966C129.828 63.0329 130.038 62.5872 130.457 62.2634C130.876 61.9397 131.405 61.7759 132.045 61.7759C132.951 61.7759 133.679 62.1035 134.227 62.7586L133.496 63.5966C133.298 63.4023 133.073 63.2538 132.814 63.1509C132.559 63.0481 132.293 62.9948 132.018 62.9948C131.744 62.9948 131.542 63.0443 131.39 63.1395C131.237 63.2347 131.157 63.3757 131.157 63.5585C131.157 63.7108 131.218 63.8327 131.344 63.9318C131.47 64.027 131.683 64.1375 131.992 64.2555L132.593 64.4841C133.191 64.7355 133.629 65.0059 133.9 65.2954C134.174 65.5849 134.311 65.9543 134.311 66.4076C134.311 67.0247 134.09 67.5008 133.645 67.8436C133.199 68.1864 132.643 68.3578 131.976 68.3578C131.439 68.3578 130.952 68.2435 130.514 68.0188H130.521Z" fill="#898B8E"/>
<path d="M135.896 60.1978C135.717 60.0264 135.625 59.8169 135.625 59.5693C135.625 59.3217 135.717 59.1084 135.896 58.9332C136.075 58.758 136.292 58.6704 136.551 58.6704C136.81 58.6704 137.012 58.758 137.191 58.9332C137.37 59.1084 137.461 59.3217 137.461 59.5693C137.461 59.8169 137.37 60.0264 137.191 60.1978C137.012 60.3692 136.799 60.453 136.551 60.453C136.304 60.453 136.075 60.3692 135.896 60.1978ZM135.869 61.9157H137.218V68.2119H135.869V61.9157Z" fill="#898B8E"/>
<path d="M140.418 67.9111C139.907 67.6178 139.507 67.2179 139.21 66.7113C138.917 66.2085 138.768 65.6562 138.768 65.0582C138.768 64.4601 138.917 63.8964 139.21 63.3974C139.503 62.8985 139.907 62.5023 140.418 62.209C140.924 61.9196 141.484 61.771 142.09 61.771C142.695 61.771 143.271 61.9157 143.781 62.209C144.295 62.4985 144.699 62.8985 144.992 63.4012C145.286 63.904 145.434 64.4563 145.434 65.0543C145.434 65.6524 145.286 66.2047 144.992 66.7074C144.699 67.2102 144.295 67.6102 143.781 67.9073C143.267 68.2006 142.703 68.3491 142.09 68.3491C141.477 68.3491 140.924 68.2006 140.418 67.9073V67.9111ZM143.092 66.8636C143.392 66.6808 143.625 66.4332 143.796 66.1171C143.968 65.8009 144.051 65.4543 144.051 65.0734C144.051 64.6925 143.968 64.3306 143.796 64.0107C143.625 63.6907 143.389 63.4393 143.092 63.2603C142.791 63.0775 142.463 62.9899 142.105 62.9899C141.747 62.9899 141.404 63.0813 141.103 63.2603C140.802 63.4431 140.57 63.6907 140.399 64.0107C140.227 64.3306 140.143 64.6849 140.143 65.0734C140.143 65.4619 140.227 65.8123 140.399 66.1285C140.57 66.4446 140.802 66.6884 141.096 66.8674C141.389 67.0426 141.72 67.1341 142.09 67.1341C142.459 67.1341 142.791 67.0426 143.092 66.8636Z" fill="#898B8E"/>
<path d="M151.852 62.4596C152.271 62.9167 152.481 63.5223 152.481 64.2765V68.215H151.132V64.4556C151.132 64.0175 151.007 63.6671 150.755 63.3967C150.504 63.1262 150.172 62.9929 149.761 62.9929C149.35 62.9929 148.999 63.13 148.729 63.4043C148.458 63.6785 148.325 64.0289 148.325 64.4556V68.215H146.977V61.9188H148.234V62.5358C148.713 62.033 149.342 61.7778 150.119 61.7778C150.854 61.7778 151.433 62.0064 151.852 62.4635V62.4596Z" fill="#898B8E"/>
<path d="M158.651 62.4528C159.12 62.9061 159.356 63.5574 159.356 64.403V68.212H158.099V67.5073C157.867 67.7816 157.581 67.9911 157.238 68.1358C156.895 68.2806 156.511 68.3529 156.084 68.3529C155.425 68.3529 154.896 68.1853 154.492 67.854C154.088 67.5188 153.89 67.0807 153.89 66.5322C153.89 65.9837 154.1 65.5495 154.519 65.2219C154.938 64.8982 155.501 64.7344 156.214 64.7344H157.996V64.3268C157.996 63.8926 157.878 63.5612 157.642 63.3327C157.406 63.1041 157.074 62.9899 156.648 62.9899C156.297 62.9899 155.985 63.0661 155.711 63.2184C155.437 63.3708 155.166 63.6031 154.903 63.9155L154.122 63.1194C154.439 62.6661 154.823 62.3271 155.277 62.1062C155.73 61.8853 156.229 61.771 156.777 61.771C157.554 61.771 158.179 61.9995 158.651 62.4528ZM157.524 66.936C157.84 66.6389 158 66.2694 158 65.82V65.6981H156.385C156.027 65.6981 155.749 65.7666 155.558 65.8999C155.368 66.0333 155.269 66.2351 155.269 66.5056C155.269 66.776 155.372 66.9969 155.578 67.1493C155.783 67.3016 156.046 67.3778 156.374 67.3778C156.827 67.3778 157.212 67.2293 157.528 66.936H157.524Z" fill="#898B8E"/>
<path d="M161.23 58.5933H162.578V68.2148H161.23V58.5933Z" fill="#898B8E"/>
<path d="M92.8884 72.9624H95.9814C96.5451 72.9624 97.0479 73.0729 97.4821 73.29C97.9202 73.5071 98.2553 73.8156 98.4953 74.2079C98.7353 74.6003 98.8534 75.0497 98.8534 75.5563C98.8534 76.0629 98.7353 76.5086 98.4953 76.9047C98.2553 77.3008 97.9202 77.6056 97.4821 77.8265C97.0479 78.0474 96.5451 78.1617 95.9814 78.1617H94.2483V81.4336H92.8884V72.9662V72.9624ZM95.9547 76.939C96.4346 76.939 96.8041 76.8133 97.0631 76.5657C97.3221 76.3143 97.4555 75.9829 97.4555 75.5677C97.4555 75.1526 97.3259 74.8174 97.0631 74.566C96.8041 74.3108 96.4308 74.1851 95.9547 74.1851H94.2483V76.9428H95.9547V76.939Z" fill="#898B8E"/>
<path d="M105.154 75.6818C105.573 76.1427 105.782 76.7446 105.782 77.4911V81.4296H104.434V77.6739C104.434 77.2359 104.308 76.8817 104.061 76.6112C103.813 76.3408 103.478 76.2075 103.059 76.2075C102.64 76.2075 102.297 76.3446 102.027 76.6189C101.756 76.8931 101.623 77.2435 101.623 77.6739V81.4296H100.274V71.8081H101.623V75.758C101.836 75.5104 102.099 75.32 102.411 75.1867C102.724 75.0534 103.066 74.9886 103.444 74.9886C104.163 74.9886 104.731 75.221 105.15 75.6818H105.154Z" fill="#898B8E"/>
<path d="M108.905 81.128C108.398 80.8347 107.995 80.4347 107.697 79.9281C107.404 79.4216 107.256 78.8731 107.256 78.275C107.256 77.677 107.404 77.1133 107.697 76.6143C107.991 76.1153 108.395 75.7192 108.905 75.4259C109.415 75.1364 109.971 74.9917 110.577 74.9917C111.183 74.9917 111.758 75.1364 112.272 75.4259C112.786 75.7154 113.19 76.1153 113.483 76.6181C113.78 77.1247 113.925 77.6732 113.925 78.2712C113.925 78.8693 113.777 79.4216 113.483 79.9243C113.19 80.4271 112.786 80.8271 112.272 81.1242C111.758 81.4213 111.194 81.566 110.577 81.566C109.96 81.566 109.412 81.4175 108.905 81.1242V81.128ZM111.579 80.0805C111.88 79.8977 112.112 79.6501 112.284 79.3339C112.455 79.0178 112.539 78.6712 112.539 78.2903C112.539 77.9094 112.455 77.5475 112.284 77.2276C112.112 76.9076 111.876 76.6562 111.579 76.4772C111.278 76.2944 110.95 76.2068 110.592 76.2068C110.234 76.2068 109.891 76.2982 109.591 76.4772C109.29 76.6562 109.057 76.9076 108.886 77.2276C108.714 77.5475 108.631 77.9018 108.631 78.2903C108.631 78.6788 108.714 79.0292 108.886 79.3454C109.057 79.6615 109.29 79.9053 109.583 80.0843C109.876 80.2633 110.208 80.3509 110.577 80.3509C110.947 80.3509 111.278 80.2595 111.579 80.0805Z" fill="#898B8E"/>
<path d="M119.209 80.2875V81.4302C118.79 81.5254 118.417 81.5712 118.093 81.5712C117.365 81.5712 116.798 81.3921 116.386 81.0303C115.975 80.6722 115.769 80.1275 115.769 79.3962V76.349H114.745V75.1302H115.769V73.4771H117.129V75.1302H119.003V76.349H117.129V79.2743C117.129 79.6705 117.236 79.9485 117.445 80.1085C117.655 80.2685 117.963 80.3485 118.375 80.3485C118.561 80.3485 118.839 80.3256 119.209 80.2837V80.2875Z" fill="#898B8E"/>
<path d="M121.692 81.128C121.182 80.8347 120.782 80.4347 120.485 79.9281C120.192 79.4216 120.043 78.8731 120.043 78.275C120.043 77.677 120.192 77.1133 120.485 76.6143C120.778 76.1153 121.182 75.7192 121.692 75.4259C122.199 75.1364 122.759 74.9917 123.364 74.9917C123.97 74.9917 124.545 75.1364 125.056 75.4259C125.57 75.7154 125.974 76.1153 126.267 76.6181C126.56 77.1247 126.709 77.6732 126.709 78.2712C126.709 78.8693 126.56 79.4216 126.267 79.9243C125.974 80.4271 125.57 80.8271 125.056 81.1242C124.541 81.4175 123.978 81.566 123.364 81.566C122.751 81.566 122.199 81.4175 121.692 81.1242V81.128ZM124.366 80.0805C124.667 79.8977 124.899 79.6501 125.071 79.3339C125.242 79.0178 125.326 78.6712 125.326 78.2903C125.326 77.9094 125.242 77.5475 125.071 77.2276C124.899 76.9076 124.663 76.6562 124.366 76.4772C124.069 76.2982 123.738 76.2068 123.38 76.2068C123.022 76.2068 122.679 76.2982 122.378 76.4772C122.077 76.66 121.845 76.9076 121.673 77.2276C121.502 77.5475 121.418 77.9018 121.418 78.2903C121.418 78.6788 121.502 79.0292 121.673 79.3454C121.845 79.6615 122.077 79.9053 122.37 80.0843C122.664 80.2633 122.995 80.3509 123.364 80.3509C123.734 80.3509 124.065 80.2595 124.366 80.0805Z" fill="#898B8E"/>
<path d="M134.437 75.1295V80.7744C134.437 81.7648 134.152 82.5304 133.577 83.0712C133.001 83.6121 132.24 83.8788 131.28 83.8788C130.655 83.8788 130.087 83.7683 129.581 83.5436C129.07 83.3226 128.629 83.0332 128.252 82.6827L128.994 81.7457C129.345 82.0314 129.691 82.2561 130.038 82.4161C130.385 82.5761 130.769 82.6561 131.2 82.6561C131.771 82.6561 132.232 82.5037 132.571 82.1952C132.914 81.8905 133.085 81.4372 133.085 80.8468V80.3973C132.845 80.6868 132.54 80.9116 132.167 81.0639C131.794 81.2163 131.39 81.2963 130.956 81.2963C130.373 81.2963 129.851 81.1629 129.383 80.8925C128.914 80.6221 128.552 80.2488 128.286 79.7689C128.019 79.2889 127.89 78.748 127.89 78.1386C127.89 77.5292 128.023 76.9883 128.286 76.5084C128.552 76.0284 128.918 75.6551 129.39 75.3847C129.859 75.1143 130.381 74.981 130.956 74.981C131.436 74.981 131.87 75.0724 132.259 75.2552C132.647 75.438 132.956 75.6932 133.188 76.017V75.1181H134.434L134.437 75.1295ZM132.544 79.5746C132.918 79.2356 133.1 78.7519 133.1 78.1196C133.1 77.4873 132.914 77.0111 132.544 76.6874C132.175 76.3636 131.725 76.2075 131.204 76.2075C130.655 76.2075 130.198 76.3827 129.832 76.7407C129.463 77.0949 129.28 77.5596 129.28 78.1348C129.28 78.71 129.463 79.1861 129.832 79.5479C130.198 79.906 130.659 80.085 131.204 80.085C131.748 80.085 132.171 79.9174 132.544 79.5784V79.5746Z" fill="#898B8E"/>
<path d="M139.991 75.1943V76.3523H139.579C139.05 76.3523 138.608 76.5046 138.258 76.8055C137.907 77.1065 137.732 77.5369 137.732 78.0892V81.4335H136.384V75.1372H137.641V76.0133C137.861 75.7352 138.136 75.5181 138.456 75.3657C138.776 75.2134 139.115 75.1372 139.476 75.1372C139.663 75.1372 139.835 75.1563 139.991 75.1982V75.1943Z" fill="#898B8E"/>
<path d="M145.365 75.6697C145.834 76.123 146.07 76.7743 146.07 77.6199V81.4289H144.813V80.7242C144.58 80.9985 144.295 81.208 143.952 81.3527C143.609 81.4975 143.224 81.5698 142.798 81.5698C142.139 81.5698 141.609 81.4022 141.206 81.0708C140.802 80.7357 140.604 80.2976 140.604 79.7491C140.604 79.2006 140.813 78.7664 141.232 78.4426C141.651 78.1189 142.215 77.9551 142.927 77.9551H144.71V77.5475C144.71 77.1133 144.592 76.7819 144.356 76.5534C144.119 76.3248 143.788 76.2106 143.361 76.2106C143.011 76.2106 142.699 76.2868 142.424 76.4391C142.15 76.5915 141.88 76.8238 141.617 77.1362L140.836 76.3401C141.152 75.8868 141.537 75.5478 141.99 75.3269C142.444 75.106 142.942 74.9917 143.491 74.9917C144.268 74.9917 144.893 75.2164 145.365 75.6697ZM144.238 80.1529C144.554 79.8558 144.714 79.4863 144.714 79.0368V78.915H143.099C142.741 78.915 142.463 78.9835 142.272 79.1168C142.082 79.2502 141.983 79.452 141.983 79.7225C141.983 79.9929 142.085 80.2138 142.291 80.3662C142.497 80.5185 142.76 80.5947 143.087 80.5947C143.541 80.5947 143.925 80.4462 144.241 80.1491L144.238 80.1529Z" fill="#898B8E"/>
<path d="M152.983 75.4191C153.452 75.7048 153.821 76.0971 154.088 76.5999C154.355 77.0989 154.484 77.6588 154.484 78.272C154.484 78.8853 154.351 79.4604 154.088 79.9594C153.821 80.4584 153.456 80.8545 152.983 81.1402C152.515 81.4259 151.982 81.5706 151.395 81.5706C150.968 81.5706 150.572 81.4906 150.207 81.3344C149.841 81.1783 149.536 80.9535 149.289 80.6603V83.7379H147.94V75.1296H149.197V76.0133C149.43 75.6895 149.734 75.4381 150.119 75.2553C150.504 75.0763 150.926 74.9849 151.387 74.9849C151.978 74.9849 152.507 75.1296 152.976 75.4153L152.983 75.4191ZM152.149 80.0851C152.439 79.9099 152.671 79.6661 152.842 79.3576C153.014 79.0491 153.098 78.691 153.098 78.2873C153.098 77.8835 153.014 77.5255 152.846 77.2093C152.679 76.8932 152.45 76.6494 152.153 76.4742C151.856 76.299 151.532 76.2114 151.17 76.2114C150.835 76.2114 150.527 76.2875 150.241 76.4361C149.955 76.5846 149.723 76.817 149.544 77.1255C149.365 77.434 149.273 77.8188 149.273 78.2758C149.273 78.7329 149.365 79.1176 149.544 79.43C149.723 79.7423 149.955 79.9746 150.241 80.127C150.527 80.2794 150.839 80.3517 151.17 80.3517C151.528 80.3517 151.856 80.2641 152.145 80.0889L152.149 80.0851Z" fill="#898B8E"/>
<path d="M160.91 75.6818C161.329 76.1427 161.539 76.7446 161.539 77.4911V81.4296H160.19V77.6739C160.19 77.2359 160.065 76.8817 159.817 76.6112C159.569 76.3408 159.234 76.2075 158.815 76.2075C158.396 76.2075 158.053 76.3446 157.783 76.6189C157.512 76.8931 157.379 77.2435 157.379 77.6739V81.4296H156.031V71.8081H157.379V75.758C157.592 75.5104 157.855 75.32 158.168 75.1867C158.48 75.0534 158.823 74.9886 159.2 74.9886C159.92 74.9886 160.487 75.221 160.906 75.6818H160.91Z" fill="#898B8E"/>
<path d="M169.08 78.7216H164.384C164.468 79.2282 164.7 79.6243 165.07 79.9138C165.439 80.2033 165.896 80.348 166.437 80.348C167.096 80.348 167.705 80.1042 168.273 79.6167L168.913 80.5461C168.193 81.2279 167.355 81.5669 166.399 81.5669C165.759 81.5669 165.18 81.4222 164.666 81.1365C164.152 80.8508 163.748 80.4585 163.455 79.9557C163.161 79.4529 163.013 78.8968 163.013 78.2835C163.013 77.6703 163.157 77.1218 163.443 76.6152C163.729 76.1124 164.121 75.7125 164.624 75.423C165.123 75.1335 165.675 74.9888 166.273 74.9888C166.829 74.9888 167.328 75.1145 167.766 75.3659C168.208 75.6173 168.551 75.9639 168.806 76.3981C169.058 76.8323 169.183 77.3275 169.183 77.8722C169.183 78.1388 169.149 78.4207 169.08 78.7178V78.7216ZM165.058 76.6228C164.727 76.9009 164.513 77.2742 164.411 77.7465H167.835C167.827 77.2665 167.667 76.8933 167.355 76.619C167.043 76.3448 166.666 76.2077 166.22 76.2077C165.774 76.2077 165.39 76.3448 165.058 76.6228Z" fill="#898B8E"/>
<path d="M174.325 75.1943V76.3523H173.914C173.385 76.3523 172.943 76.5046 172.592 76.8055C172.242 77.1065 172.067 77.5369 172.067 78.0892V81.4335H170.718V75.1372H171.975V76.0133C172.196 75.7352 172.47 75.5181 172.79 75.3657C173.11 75.2134 173.449 75.1372 173.811 75.1372C173.998 75.1372 174.169 75.1563 174.325 75.1982V75.1943Z" fill="#898B8E"/>
<path d="M176.021 81.2317C175.587 81.007 175.225 80.7061 174.943 80.3366L175.712 79.4796C175.987 79.7614 176.265 79.9785 176.554 80.1271C176.84 80.2757 177.152 80.3518 177.483 80.3518C177.773 80.3518 178.017 80.2947 178.207 80.1766C178.401 80.0623 178.497 79.8909 178.497 79.67C178.497 79.4872 178.428 79.3501 178.283 79.251C178.142 79.152 177.918 79.0415 177.609 78.9158L176.969 78.6454C176.413 78.4131 176.002 78.1617 175.731 77.8874C175.461 77.6132 175.328 77.2551 175.328 76.8095C175.328 76.2457 175.537 75.8001 175.956 75.4763C176.375 75.1526 176.905 74.9888 177.544 74.9888C178.451 74.9888 179.179 75.3163 179.727 75.9715L178.996 76.8095C178.798 76.6152 178.573 76.4667 178.314 76.3638C178.059 76.261 177.792 76.2077 177.518 76.2077C177.244 76.2077 177.042 76.2572 176.889 76.3524C176.737 76.4476 176.657 76.5885 176.657 76.7714C176.657 76.9237 176.718 77.0456 176.844 77.1447C176.969 77.2437 177.183 77.3503 177.491 77.4684L178.093 77.697C178.691 77.9484 179.129 78.2188 179.399 78.5083C179.67 78.7978 179.811 79.1672 179.811 79.6205C179.811 80.2376 179.59 80.7137 179.144 81.0565C178.699 81.3993 178.142 81.5707 177.476 81.5707C176.939 81.5707 176.451 81.4602 176.013 81.2317H176.021Z" fill="#898B8E"/>
<path d="M94.0502 94.3418C93.5398 94.0486 93.1398 93.6486 92.8427 93.142C92.5494 92.6354 92.4009 92.0869 92.4009 91.4889C92.4009 90.8909 92.5494 90.3272 92.8427 89.8282C93.136 89.3292 93.5398 88.9331 94.0502 88.6398C94.5606 88.3503 95.1167 88.2056 95.7223 88.2056C96.328 88.2056 96.9031 88.3503 97.4174 88.6398C97.9316 88.9293 98.3353 89.3292 98.6286 89.832C98.9219 90.3386 99.0705 90.8871 99.0705 91.4851C99.0705 92.0831 98.9219 92.6354 98.6286 93.1382C98.3353 93.641 97.9316 94.0409 97.4174 94.338C96.9031 94.6313 96.3394 94.7799 95.7223 94.7799C95.1053 94.7799 94.5568 94.6313 94.0502 94.338V94.3418ZM96.7241 93.2944C97.025 93.1115 97.2574 92.864 97.4288 92.5478C97.6002 92.2317 97.684 91.885 97.684 91.5041C97.684 91.1232 97.6002 90.7614 97.4288 90.4414C97.2574 90.1215 97.0212 89.8701 96.7241 89.6911C96.4232 89.5082 96.0956 89.4206 95.7376 89.4206C95.3795 89.4206 95.0367 89.512 94.7358 89.6911C94.4349 89.8739 94.2025 90.1215 94.0311 90.4414C93.8597 90.7614 93.7759 91.1156 93.7759 91.5041C93.7759 91.8927 93.8597 92.2431 94.0311 92.5592C94.2025 92.8754 94.4349 93.1192 94.732 93.2982C95.0253 93.4734 95.3567 93.5648 95.7262 93.5648C96.0956 93.5648 96.427 93.4734 96.7279 93.2944H96.7241Z" fill="#898B8E"/>
<path d="M102.498 86.346C102.293 86.5097 102.19 86.7916 102.19 87.1915V88.3457H103.679V89.5645H102.19V94.6419H100.842V89.5645H99.9426V88.3457H100.842V87.0773C100.842 86.3421 101.043 85.7936 101.443 85.428C101.843 85.0661 102.392 84.8833 103.085 84.8833C103.428 84.8833 103.717 84.9214 103.957 84.9976V86.1403C103.752 86.1136 103.573 86.1022 103.42 86.1022C103.009 86.1022 102.7 86.1822 102.498 86.346Z" fill="#898B8E"/>
<path d="M112.478 93.2327H108.669L108.067 94.642H106.616L110.349 86.0337H110.81L114.543 94.642H113.08L112.478 93.2327ZM110.581 88.5629L109.157 92.0138H111.991L110.581 88.5629Z" fill="#898B8E"/>
<path d="M124.629 88.8912C125.044 89.3483 125.25 89.9539 125.25 90.7043V94.6428H123.89V90.8871C123.89 90.4414 123.772 90.0872 123.536 89.8206C123.3 89.5539 122.984 89.4206 122.58 89.4206C122.176 89.4206 121.837 89.5539 121.578 89.8206C121.323 90.0872 121.193 90.4224 121.193 90.8223V94.6428H119.845V90.8871C119.845 90.4491 119.727 90.0948 119.487 89.8244C119.247 89.5539 118.927 89.4206 118.523 89.4206C118.119 89.4206 117.78 89.5539 117.521 89.8244C117.266 90.0948 117.137 90.4491 117.137 90.8871V94.6428H115.788V88.3465H117.045V88.9369C117.266 88.7045 117.533 88.5255 117.841 88.3998C118.15 88.2703 118.493 88.2094 118.866 88.2094C119.3 88.2094 119.681 88.297 120.009 88.4722C120.332 88.6474 120.592 88.8874 120.778 89.1959C121.011 88.895 121.311 88.6588 121.681 88.476C122.05 88.2932 122.462 88.2056 122.907 88.2056C123.635 88.2056 124.206 88.4341 124.621 88.8912H124.629Z" fill="#898B8E"/>
<path d="M132.796 91.9384H128.099C128.183 92.445 128.415 92.8411 128.785 93.1306C129.154 93.4201 129.611 93.5648 130.152 93.5648C130.811 93.5648 131.421 93.321 131.988 92.8335L132.628 93.7629C131.908 94.4447 131.07 94.7837 130.114 94.7837C129.474 94.7837 128.895 94.6389 128.381 94.3533C127.867 94.0676 127.463 93.6753 127.17 93.1725C126.877 92.6697 126.728 92.1136 126.728 91.5003C126.728 90.8871 126.873 90.3386 127.158 89.832C127.444 89.3292 127.836 88.9293 128.339 88.6398C128.838 88.3503 129.391 88.2056 129.989 88.2056C130.545 88.2056 131.044 88.3313 131.482 88.5827C131.924 88.834 132.266 89.1807 132.522 89.6149C132.773 90.0491 132.899 90.5443 132.899 91.089C132.899 91.3556 132.864 91.6375 132.796 91.9346V91.9384ZM128.773 89.8396C128.442 90.1177 128.229 90.491 128.126 90.9633H131.55C131.543 90.4833 131.383 90.1101 131.07 89.8358C130.758 89.5616 130.381 89.4244 129.935 89.4244C129.49 89.4244 129.105 89.5616 128.773 89.8396Z" fill="#898B8E"/>
<path d="M138.041 88.4063V89.5642H137.629C137.1 89.5642 136.658 89.7166 136.308 90.0175C135.957 90.3184 135.782 90.7488 135.782 91.3011V94.6454H134.434V88.3491H135.691V89.2252C135.912 88.9471 136.186 88.73 136.506 88.5777C136.826 88.4253 137.165 88.3491 137.527 88.3491C137.713 88.3491 137.885 88.3682 138.041 88.4101V88.4063Z" fill="#898B8E"/>
<path d="M139.271 86.6295C139.092 86.458 139 86.2486 139 86.001C139 85.7534 139.092 85.5401 139.271 85.3649C139.45 85.1897 139.667 85.1021 139.926 85.1021C140.185 85.1021 140.387 85.1897 140.566 85.3649C140.745 85.5401 140.836 85.7534 140.836 86.001C140.836 86.2486 140.745 86.458 140.566 86.6295C140.387 86.8009 140.174 86.8847 139.926 86.8847C139.678 86.8847 139.45 86.8009 139.271 86.6295ZM139.244 88.3473H140.593V94.6436H139.244V88.3473Z" fill="#898B8E"/>
<path d="M143.792 94.3495C143.282 94.06 142.882 93.66 142.585 93.1573C142.292 92.6545 142.143 92.0984 142.143 91.4889C142.143 90.8795 142.292 90.3272 142.585 89.8282C142.878 89.3292 143.286 88.9331 143.796 88.6398C144.31 88.3503 144.87 88.2056 145.476 88.2056C146.082 88.2056 146.577 88.3351 147.034 88.5941C147.491 88.8531 147.857 89.2073 148.131 89.6606L147.182 90.3995C146.729 89.7482 146.165 89.4244 145.491 89.4244C145.114 89.4244 144.775 89.5159 144.478 89.6987C144.177 89.8815 143.945 90.1291 143.773 90.4452C143.602 90.7614 143.518 91.1118 143.518 91.4927C143.518 91.8736 143.602 92.2355 143.773 92.5516C143.945 92.8678 144.181 93.1154 144.478 93.2982C144.779 93.481 145.114 93.5724 145.491 93.5724C146.158 93.5724 146.722 93.2525 147.182 92.6088L148.131 93.3363C147.849 93.7857 147.48 94.1438 147.022 94.4028C146.565 94.6618 146.051 94.7913 145.476 94.7913C144.859 94.7913 144.299 94.6466 143.789 94.3571L143.792 94.3495Z" fill="#898B8E"/>
<path d="M153.92 88.8836C154.389 89.3368 154.625 89.9882 154.625 90.8338V94.6428H153.368V93.9381C153.136 94.2123 152.85 94.4218 152.507 94.5666C152.164 94.7113 151.78 94.7837 151.353 94.7837C150.694 94.7837 150.165 94.6161 149.761 94.2847C149.357 93.9495 149.159 93.5115 149.159 92.963C149.159 92.4145 149.368 91.9803 149.787 91.6565C150.206 91.3327 150.77 91.169 151.482 91.169H153.265V90.7614C153.265 90.3272 153.147 89.9958 152.911 89.7672C152.675 89.5387 152.343 89.4244 151.917 89.4244C151.566 89.4244 151.254 89.5006 150.98 89.653C150.705 89.8053 150.435 90.0377 150.172 90.35L149.391 89.5539C149.707 89.1007 150.092 88.7617 150.545 88.5408C150.999 88.3198 151.498 88.2056 152.046 88.2056C152.823 88.2056 153.448 88.4303 153.92 88.8836ZM152.793 93.3667C153.109 93.0696 153.269 92.7002 153.269 92.2507V92.1288H151.654C151.296 92.1288 151.018 92.1974 150.827 92.3307C150.637 92.464 150.538 92.6659 150.538 92.9363C150.538 93.2068 150.641 93.4277 150.846 93.58C151.052 93.7324 151.315 93.8086 151.642 93.8086C152.096 93.8086 152.48 93.66 152.797 93.3629L152.793 93.3667Z" fill="#898B8E"/>
<path d="M42.8266 16.0137C42.8266 18.482 41.1811 19.518 38.9718 19.518H36.6255V23.2965H34.4924V12.6313H39.1547C41.1658 12.6313 42.8266 13.7436 42.8266 16.0137ZM40.6326 16.0594C40.6326 15.13 40.0231 14.7034 39.0785 14.7034H36.6255V17.4459H39.109C40.0993 17.4459 40.6326 16.9888 40.6326 16.0594Z" fill="#898B8E"/>
<path d="M49.7287 15.6931L49.1802 17.75C48.845 17.4453 48.4336 17.232 47.9613 17.232C47.1385 17.232 46.6053 17.5824 46.6053 18.9689V23.2959H44.5027V15.297H46.6053V15.8302C46.9709 15.4493 47.5042 15.1294 48.2508 15.1294C48.9364 15.1294 49.4544 15.4036 49.7287 15.6931Z" fill="#898B8E"/>
<path d="M57.6207 19.304C57.6207 21.757 56.0818 23.4635 53.9945 23.4635C51.9072 23.4635 50.3835 21.757 50.3835 19.304C50.3835 16.8511 51.9072 15.1294 53.9945 15.1294C56.0818 15.1294 57.6207 16.8511 57.6207 19.304ZM55.4876 19.304C55.4876 18.0852 55.0001 17.1558 53.9945 17.1558C52.9889 17.1558 52.5166 18.0699 52.5166 19.304C52.5166 20.5382 52.9889 21.4371 53.9945 21.4371C55.0001 21.4371 55.4876 20.4163 55.4876 19.304Z" fill="#898B8E"/>
<path d="M66.1072 23.2972H64.0046V22.764C63.639 23.1449 62.9686 23.4648 62.1306 23.4648C60.089 23.4648 59.1748 22.0631 59.1748 19.8082V15.2983H61.2774V19.6254C61.2774 21.0575 61.7649 21.4841 62.6334 21.4841C63.5019 21.4841 64.0046 21.0575 64.0046 19.6711V15.2983H66.1072V23.2972Z" fill="#898B8E"/>
<path d="M74.6395 23.296H72.5369V22.7932C72.1408 23.1436 71.6075 23.4636 70.8457 23.4636C69.1393 23.4636 67.7375 22.1838 67.7375 19.1975C67.7375 16.8055 68.865 15.1295 70.8457 15.1295C71.5466 15.1295 72.156 15.4038 72.5369 15.7542V13.2402L74.6395 12.189V23.296ZM72.5369 20.8125V17.7958C72.217 17.354 71.7294 17.1102 71.12 17.1102C70.3125 17.1102 69.8706 17.811 69.8706 19.1518C69.8706 20.7973 70.4191 21.4829 71.2419 21.4829C71.897 21.4829 72.2322 21.2087 72.5369 20.8125Z" fill="#898B8E"/>
<path d="M91.4562 23.2965H89.3231V19.3809C89.3231 18.8019 89.3536 17.4459 89.3536 17.0345C89.2013 17.4307 88.8813 18.1925 88.6071 18.8019L86.4435 23.5403L84.28 18.8019C84.0058 18.1925 83.6858 17.4307 83.5334 17.0345C83.5334 17.4459 83.5639 18.8019 83.5639 19.3809V23.2965H81.4766V12.6313H83.5334L85.7579 17.4611C86.0322 18.0553 86.3521 18.8629 86.4892 19.2438C86.6264 18.8476 86.9311 18.0706 87.2053 17.4611L89.3536 12.6313H91.4562V23.2965Z" fill="#898B8E"/>
<path d="M100.373 19.304C100.373 19.6088 100.358 19.8221 100.343 19.9744H95.5585C95.6347 21.0714 96.4422 21.4828 97.204 21.4828C97.783 21.4828 98.2705 21.2695 98.5752 20.9191L100.068 22.1684C99.4285 22.9911 98.2705 23.4635 97.204 23.4635C94.9033 23.4635 93.4407 21.8332 93.4407 19.304C93.4407 16.7749 94.9795 15.1294 97.0059 15.1294C99.139 15.1294 100.373 17.0187 100.373 19.304ZM98.3315 18.3899C98.2705 17.6738 97.8439 16.9577 96.8993 16.9577C96.1375 16.9577 95.6651 17.5824 95.589 18.3899H98.3315Z" fill="#898B8E"/>
<path d="M113.502 23.2959H111.4V18.9689C111.4 17.5367 110.989 17.1101 110.12 17.1101C109.252 17.1101 108.825 17.5367 108.825 18.9231V23.2959H106.722V18.9689C106.722 17.5367 106.311 17.1101 105.443 17.1101C104.574 17.1101 104.148 17.5367 104.148 18.9231V23.2959H102.045V15.297H104.148V15.8302C104.513 15.4493 105.062 15.1294 105.9 15.1294C106.92 15.1294 107.515 15.4189 108.109 16.1502C108.657 15.5865 109.328 15.1294 110.653 15.1294C112.695 15.1294 113.502 16.5311 113.502 18.786V23.2959Z" fill="#898B8E"/>
<path d="M122.374 19.3956C122.374 21.7876 121.247 23.4636 119.266 23.4636C118.565 23.4636 117.956 23.1893 117.575 22.8389V23.296H115.472V13.2402L117.575 12.189V15.7999C117.971 15.4495 118.504 15.1295 119.266 15.1295C120.972 15.1295 122.374 16.4093 122.374 19.3956ZM120.241 19.4413C120.241 17.7958 119.693 17.1102 118.87 17.1102C118.215 17.1102 117.879 17.3844 117.575 17.7806V20.7973C117.895 21.2391 118.382 21.4829 118.992 21.4829C119.799 21.4829 120.241 20.782 120.241 19.4413Z" fill="#898B8E"/>
<path d="M130.556 19.304C130.556 19.6088 130.54 19.8221 130.525 19.9744H125.741C125.817 21.0714 126.625 21.4828 127.387 21.4828C127.966 21.4828 128.453 21.2695 128.758 20.9191L130.251 22.1684C129.611 22.9911 128.453 23.4635 127.387 23.4635C125.086 23.4635 123.623 21.8332 123.623 19.304C123.623 16.7749 125.162 15.1294 127.189 15.1294C129.322 15.1294 130.556 17.0187 130.556 19.304ZM128.514 18.3899C128.453 17.6738 128.027 16.9577 127.082 16.9577C126.32 16.9577 125.848 17.5824 125.772 18.3899H128.514Z" fill="#898B8E"/>
<path d="M137.458 15.6931L136.909 17.75C136.574 17.4453 136.163 17.232 135.69 17.232C134.868 17.232 134.334 17.5824 134.334 18.9689V23.2959H132.232V15.297H134.334V15.8302C134.7 15.4493 135.233 15.1294 135.98 15.1294C136.665 15.1294 137.183 15.4036 137.458 15.6931Z" fill="#898B8E"/>
<path d="M149.993 19.304C149.993 21.757 148.454 23.4635 146.367 23.4635C144.279 23.4635 142.756 21.757 142.756 19.304C142.756 16.8511 144.279 15.1294 146.367 15.1294C148.454 15.1294 149.993 16.8511 149.993 19.304ZM147.86 19.304C147.86 18.0852 147.372 17.1558 146.367 17.1558C145.361 17.1558 144.889 18.0699 144.889 19.304C144.889 20.5382 145.361 21.4371 146.367 21.4371C147.372 21.4371 147.86 20.4163 147.86 19.304Z" fill="#898B8E"/>
<path d="M155.527 14.1556C155.314 14.0489 155.101 13.988 154.796 13.988C154.171 13.988 154.019 14.186 154.019 14.6279V15.2983H155.375V17.2789H154.019V23.2971H151.916V17.2789H150.957V15.2983H151.916V14.3384C151.916 12.8453 152.739 12.2358 154.202 12.2358C154.72 12.2358 155.162 12.312 155.527 12.4644V14.1556Z" fill="#898B8E"/>
</svg>
