<svg width="389" height="120" viewBox="0 0 389 120" fill="none" xmlns="http://www.w3.org/2000/svg">
<g clip-path="url(#clip0_574_40523)">
<path d="M30.8221 96.9359L27.2228 102.579C40.4604 98.8929 53.0715 93.8508 62.6757 86.9614C63.3283 86.493 63.9845 86.0382 64.6417 85.5923C64.6722 85.5716 64.7019 85.5519 64.7333 85.5312C65.3716 85.0997 66.0134 84.6781 66.6571 84.2655C55.9715 81.4599 45.4837 77.0372 37.2719 70.1298C25.8915 60.5589 13.0188 56.7582 1.73001 55.5078C1.62214 56.9551 1.56641 58.4176 1.56641 59.8937C1.56641 77.4983 9.36283 93.2809 21.6908 103.98L25.7656 96.6653L30.8221 96.9359Z" fill="#3E4794"/>
<path d="M27.2248 102.578L24.75 106.456C30.7719 111.012 37.7063 114.424 45.2285 116.376L36.8937 99.5859C33.7321 100.672 30.4978 101.667 27.2248 102.578Z" fill="#7A80BE"/>
<path d="M80.1118 77.0789C81.2382 76.5854 82.3645 76.117 83.4882 75.6729C85.1737 75.0059 86.8556 74.3929 88.5258 73.8292C89.6396 73.4517 90.7489 73.0984 91.8518 72.7649C93.5059 72.2642 95.1473 71.8111 96.769 71.4003C97.8504 71.1262 98.9228 70.8718 99.9863 70.6344C100.518 70.5149 101.046 70.4007 101.573 70.292C102.626 70.0726 103.667 69.8704 104.697 69.6843C105.742 69.4946 106.776 69.3229 107.794 69.1647H64.7536V65.1968H118.023C118.182 63.4484 118.273 61.6802 118.273 59.8904C118.273 27.6638 92.1476 1.53906 59.92 1.53906C29.1685 1.53906 3.9733 25.3257 1.73047 55.5045C13.0201 56.755 25.8919 60.5556 37.2715 70.1265C45.4832 77.0339 55.971 81.4567 66.6566 84.2622C69.4262 82.485 72.23 80.893 75.0436 79.4673C76.7291 78.6133 78.4209 77.8178 80.1118 77.0789Z" fill="#232A5E"/>
<path d="M64.7539 69.1671H107.795C111.288 68.6295 114.612 68.27 117.704 68.0434C117.835 67.1023 117.936 66.1521 118.023 65.1992H64.7539V69.1671Z" fill="white"/>
<path d="M117.531 69.168H116.227L116.98 72.1102C117.187 71.1375 117.373 70.1577 117.531 69.168Z" fill="#6A73B6"/>
<path d="M107.794 69.168C106.776 69.3262 105.742 69.4979 104.696 69.6876C103.667 69.8736 102.625 70.0759 101.573 70.2952C101.047 70.404 100.517 70.5182 99.9861 70.6377C98.9226 70.875 97.8502 71.1294 96.7688 71.4036C95.1471 71.8144 93.5066 72.2675 91.8517 72.7682C90.7487 73.1017 89.6394 73.455 88.5256 73.8325C86.8554 74.3962 85.1735 75.0092 83.488 75.6762C82.3643 76.1203 81.238 76.5895 80.1116 77.0822C78.4207 77.8211 76.7289 78.6166 75.0408 79.4715C72.2271 80.8972 69.4233 82.4892 66.6537 84.2664C66.011 84.679 65.3692 85.1024 64.73 85.5321C64.6995 85.5528 64.6689 85.5725 64.6383 85.5932C63.9812 86.0373 63.3259 86.494 62.6724 86.9623C56.4922 91.3958 49.0617 95.0617 41.0234 98.0956L49.1498 117.254C52.6394 117.904 56.2378 118.247 59.9163 118.247C85.5295 118.247 107.28 101.743 115.131 78.7901L112.018 69.1689L107.794 69.168Z" fill="#7A80BE"/>
<path d="M116.227 69.168H112.02L115.133 78.7892C115.875 76.6192 116.494 74.389 116.98 72.1102L116.227 69.168Z" fill="white"/>
<path d="M107.797 69.1666H117.535C117.595 68.7945 117.653 68.4187 117.706 68.043C114.614 68.2695 111.29 68.6291 107.797 69.1666Z" fill="white"/>
<path d="M40.7635 97.4698L35.707 97.1992L36.8927 99.5868C38.2879 99.1094 39.6659 98.6087 41.0287 98.0946L40.7635 97.4698Z" fill="white"/>
<path d="M36.8906 99.586L45.2255 116.376C46.5182 116.711 47.827 117.005 49.152 117.253L41.0257 98.0938C39.6638 98.6079 38.2858 99.1077 36.8906 99.586Z" fill="white"/>
<path d="M35.0425 25.5364C35.0425 24.9161 35.545 24.4136 36.1662 24.4136C35.5459 24.4136 35.0425 23.9093 35.0425 23.2891C35.0425 23.9093 34.5382 24.4136 33.918 24.4136C34.5391 24.4136 35.0425 24.9161 35.0425 25.5364Z" fill="white"/>
<path d="M64.8863 16.3203C64.8863 16.9406 64.382 17.4449 63.7617 17.4449C64.382 17.4449 64.8863 17.9483 64.8863 18.5676C64.8863 17.9483 65.3888 17.4449 66.0099 17.4449C65.3888 17.4449 64.8863 16.9415 64.8863 16.3203Z" fill="white"/>
<path d="M29.1832 16.3203C29.1832 17.9393 27.869 19.2535 26.25 19.2535C27.869 19.2535 29.1832 20.5651 29.1832 22.184C29.1832 20.5651 30.4939 19.2535 32.1137 19.2535C30.4947 19.2535 29.1832 17.9393 29.1832 16.3203Z" fill="white"/>
<path d="M33.6676 29.5273C33.6676 31.1472 32.3533 32.4606 30.7344 32.4606C32.3533 32.4606 33.6676 33.7721 33.6676 35.3911C33.6676 33.7721 34.9791 32.4606 36.5981 32.4606C34.9791 32.4597 33.6676 31.1463 33.6676 29.5273Z" fill="white"/>
<path d="M26.3426 25.5352C26.3426 26.5851 25.4914 27.4373 24.4414 27.4373C25.4914 27.4373 26.3426 28.2868 26.3426 29.3358C26.3426 28.2868 27.193 27.4373 28.243 27.4373C27.1921 27.4373 26.3426 26.5851 26.3426 25.5352Z" fill="white"/>
<path d="M54.745 18.5664C54.745 19.6164 53.8928 20.4685 52.8438 20.4685C53.8928 20.4685 54.745 21.318 54.745 22.368C54.745 21.318 55.5954 20.4685 56.6444 20.4685C55.5954 20.4685 54.745 19.6164 54.745 18.5664Z" fill="white"/>
<path d="M76.0835 69.168L67.7891 101.554H69.8135L80.2905 69.168H76.0835Z" fill="white"/>
<path d="M78.082 62.1367V65.1976H112.93V62.988H113.759V62.1367H81.2588H78.082Z" fill="#A8AFD8"/>
<path d="M93.8094 52.3125H92.2695V59.8419H93.8094V52.3125Z" fill="white"/>
<path d="M102.646 39.0156L85.1406 40.3946V52.3153H102.52L102.646 39.0156Z" fill="white"/>
<path d="M97.2155 37.7217L95.7907 37.8368L83.3711 38.8337V52.4965H102.558L102.701 37.2812L97.2155 37.7217ZM102.193 52.1289H83.7388V39.1663L96.3579 38.164L96.989 38.1137L102.329 37.6894L102.193 52.1289Z" fill="white"/>
<path d="M102.036 55.1328L96.9375 55.2236V59.1663H102.036V55.1328Z" fill="#6A73B6"/>
<path d="M102.035 55.1328V59.1663H112.356V55.3144L102.035 55.1328Z" fill="#A8AFD8"/>
<path d="M99.4872 59.168H81.2578V62.138H113.758V59.168H99.4872Z" fill="#6A73B6"/>
<path d="M61.2043 86.401C60.1085 85.9704 51.6828 84.5483 49.7708 83.4201C48.2111 84.6004 46.9239 85.4202 46.9239 85.4202C47.6097 84.4701 48.2893 83.2538 48.8718 82.105C48.6615 81.2959 48.6408 80.4986 46.718 79.9071C46.718 79.9071 45.9953 73.9697 45.1979 70.6805C43.4243 71.6109 41.9339 72.2923 41.9339 72.2923C42.8175 71.5686 44.192 70.124 45.3498 68.8547C48.3424 65.1521 54.687 57.1147 54.9468 55.164C54.9971 54.2265 56.4049 52.2551 57.0926 51.6339C57.1492 50.5948 56.7941 47.8728 55.4178 47.6058C54.2789 47.3847 42.2153 49.6976 37.1723 50.3889C36.9772 50.415 35.031 50.1246 34.4889 50.219C34.8 49.8397 36.3416 49.5179 36.3551 49.5592C36.3551 49.5592 35.8364 47.8009 36.0297 46.9137C36.2482 45.9185 34.4467 43.1993 34.2336 42.8397C34.0224 42.481 32.7243 41.4832 32.461 40.6202C32.1985 39.7582 30.7359 39.6404 29.4307 40.1888C28.1281 40.7362 28.4445 41.2935 27.5465 42.2114C27.5465 42.2114 27.738 41.5255 27.1708 41.3034C26.6017 41.0796 26.0282 41.7053 25.1877 42.2392C24.3472 42.7741 24.1414 43.7287 23.3629 43.8411C22.5844 43.9535 22.6437 44.3059 22.0397 45.47C21.627 46.27 21.2531 47.7955 21.1596 48.8805C21.1479 49.0118 21.2189 49.134 21.3358 49.196C21.7925 49.4343 22.908 50.0231 22.9431 50.095C22.8289 50.1192 21.2171 49.8792 20.8791 50.0725C20.765 50.1381 20.6202 50.1606 20.4728 50.2154C19.5667 50.5525 13.6347 48.0715 11.0421 46.6961C10.0425 46.6422 9.07438 46.6691 7.45991 45.8107C6.68593 45.8448 5.31506 46.8921 5.14156 48.698C4.96627 50.504 9.60296 57.7062 10.0749 58.2321C10.5495 58.7607 10.9028 59.3971 10.8776 60.5558C10.8552 61.7127 12.1523 62.7097 12.6935 62.7384C13.2319 62.7672 13.3686 64.5507 13.4693 64.8284C13.5493 65.0496 15.5683 67.2475 16.7225 68.5401C17.2645 69.146 23.1292 68.1644 23.1552 68.2489C23.0761 68.8565 17.9486 69.6854 17.1567 70.5241C16.1732 71.5668 15.3327 73.237 15.5754 75.7172C15.8748 78.7718 16.166 88.7274 16.166 88.7274C16.166 88.7274 15.5179 96.7773 17.7149 98.7388C19.6116 100.435 38.2582 100.649 44.0275 100.207C44.0275 100.207 44.1659 100.156 44.4113 100.07C44.6819 95.9 45.5898 91.3936 45.5898 91.3936C45.3579 93.2059 45.8379 96.6784 46.3117 99.4085C48.9375 98.515 53.3179 97.1045 56.6737 96.4258C61.8011 95.3849 63.0758 91.7433 63.0758 91.7433C63.0758 91.7433 63.7797 87.4087 61.2043 86.401ZM35.5011 57.6235C35.6836 56.1394 36.2526 55.1398 36.2526 55.1398C38.2006 53.3904 48.0826 54.4853 48.0826 54.4853C45.179 54.8449 42.2935 58.7076 40.5657 59.2326C38.838 59.7585 35.3636 60.19 35.3636 60.19C35.3636 60.19 35.3187 59.1067 35.5011 57.6235ZM20.4665 57.5381C18.2624 56.3902 17.3356 53.5082 14.5183 53.2017C14.5183 53.2017 20.2175 53.6475 21.5785 56.0099C22.286 57.2235 25.5068 58.6321 25.5068 58.6321C25.5068 58.6321 22.6707 58.6861 20.4665 57.5381ZM40.8012 76.0435L18.4592 77.4467L18.6525 75.4187L41.0062 73.8951L40.8012 76.0435Z" fill="white"/>
<path d="M60.0018 120C26.9167 120 0 93.0842 0 59.9991C0 26.9149 26.9167 0 60.0018 0C93.0869 0 120.005 26.9149 120.005 59.9991C120.004 93.0842 93.0869 120 60.0018 120ZM60.0018 3.29638C28.7352 3.29638 3.29728 28.7334 3.29728 59.9991C3.29728 91.2657 28.7343 116.703 60.0018 116.703C91.2693 116.703 116.706 91.2657 116.706 59.9991C116.706 28.7343 91.2684 3.29638 60.0018 3.29638Z" fill="#232A5E"/>
<path d="M148.735 29.94C148.315 29.6047 147.831 29.3215 147.286 29.0878C146.741 28.8532 146.181 28.6438 145.605 28.4577C144.949 28.2545 144.373 28.0487 143.875 27.8383C143.377 27.6289 142.991 27.3646 142.719 27.0446C142.447 26.7254 142.31 26.293 142.31 25.7474C142.31 25.3438 142.42 24.9851 142.637 24.6732C142.855 24.3621 143.175 24.1212 143.595 23.9495C144.014 23.7778 144.552 23.7005 145.206 23.7158C145.783 23.732 146.304 23.8093 146.771 23.9495C147.238 24.0898 147.67 24.2687 148.068 24.4871C148.464 24.7046 148.857 24.9384 149.248 25.1874V22.6641C148.764 22.4303 148.317 22.2326 147.904 22.069C147.492 21.9054 147.056 21.7849 146.596 21.7076C146.136 21.6294 145.596 21.5898 144.973 21.5898C144.023 21.5898 143.209 21.7193 142.532 21.9755C141.854 22.2326 141.31 22.5751 140.896 23.0039C140.483 23.4327 140.175 23.9118 139.974 24.4413C139.772 24.9707 139.671 25.4921 139.671 26.0063C139.671 26.738 139.787 27.3529 140.021 27.8518C140.254 28.3507 140.566 28.7588 140.955 29.077C141.344 29.3962 141.781 29.6613 142.263 29.8717C142.746 30.0811 143.237 30.2798 143.735 30.4677C144.389 30.7014 145.004 30.9351 145.58 31.1679C146.157 31.4008 146.62 31.6857 146.971 32.0201C147.322 32.3545 147.497 32.795 147.497 33.3407C147.497 34.0409 147.259 34.5902 146.784 34.9875C146.309 35.3839 145.588 35.5826 144.624 35.5826C143.627 35.5826 142.696 35.4271 141.832 35.1152C140.969 34.8032 140.232 34.4068 139.625 33.9241V36.4932C140.139 36.7584 140.636 36.984 141.121 37.1701C141.604 37.3571 142.14 37.4928 142.733 37.5791C143.324 37.6645 144.008 37.7086 144.788 37.7086C146.05 37.7086 147.074 37.4856 147.86 37.0425C148.646 36.5993 149.223 36.0222 149.589 35.3138C149.954 34.6055 150.137 33.8459 150.137 33.0368C150.137 32.3051 150.008 31.6893 149.751 31.1913C149.494 30.6915 149.155 30.2753 148.735 29.94Z" fill="#6A73B6"/>
<path d="M161.418 24.0429H166.464V37.4514H169.033V24.0429H174.079V21.8711H161.418V24.0429Z" fill="#6A73B6"/>
<path d="M196.317 31.3081C196.317 32.7724 195.986 33.8574 195.324 34.5658C194.662 35.275 193.709 35.6292 192.464 35.6292C191.186 35.6292 190.228 35.275 189.59 34.5658C188.951 33.8574 188.632 32.7724 188.632 31.3081V21.8711H185.992V31.3305C185.992 33.4646 186.552 35.0719 187.674 36.1542C188.796 37.2365 190.415 37.7777 192.533 37.7777C193.825 37.7777 194.939 37.5403 195.873 37.0648C196.808 36.5911 197.527 35.871 198.033 34.9047C198.539 33.9401 198.793 32.7491 198.793 31.3305V21.8711H196.316L196.317 31.3081Z" fill="#6A73B6"/>
<path d="M217.529 21.8711H212.062V37.4514H217.529C220.052 37.4514 221.928 36.7942 223.159 35.4773C224.39 34.1622 225.004 32.2187 225.004 29.6495C225.004 27.0804 224.39 25.1405 223.159 23.8335C221.928 22.5246 220.051 21.8711 217.529 21.8711ZM221.126 33.9356C220.302 34.831 219.017 35.2786 217.273 35.2786H214.633V24.0204H217.273C219.017 24.0204 220.302 24.4717 221.126 25.3751C221.952 26.2785 222.365 27.7034 222.365 29.6495C222.365 31.6119 221.952 33.0403 221.126 33.9356Z" fill="#6A73B6"/>
<path d="M240.257 21.8711H237.664V37.4514H240.257V21.8711Z" fill="#6A73B6"/>
<path d="M266.572 25.1766C266.004 23.9856 265.183 23.0938 264.108 22.5014C263.033 21.909 261.718 21.6133 260.159 21.6133C257.808 21.6133 256.013 22.2911 254.775 23.6467C253.536 25.0022 252.918 27.0105 252.918 29.6731C252.918 31.4799 253.198 32.9749 253.759 34.1579C254.319 35.3408 255.141 36.2299 256.224 36.8205C257.306 37.4129 258.619 37.7086 260.16 37.7086C262.528 37.7086 264.33 37.0308 265.569 35.6761C266.806 34.3206 267.426 32.3204 267.426 29.6722C267.426 27.8671 267.14 26.3677 266.572 25.1766ZM264.261 33.0135C263.925 33.8702 263.418 34.4967 262.742 34.8941C262.065 35.2905 261.204 35.4892 260.16 35.4892C259.131 35.4892 258.276 35.2905 257.591 34.8941C256.906 34.4976 256.395 33.8702 256.06 33.0135C255.724 32.1568 255.558 31.044 255.558 29.6731C255.558 28.3022 255.724 27.1929 256.06 26.3453C256.395 25.4958 256.905 24.8683 257.591 24.4638C258.276 24.0593 259.131 23.857 260.16 23.857C261.203 23.857 262.065 24.0557 262.742 24.4521C263.418 24.8485 263.925 25.4724 264.261 26.321C264.595 27.1696 264.762 28.2797 264.762 29.6488C264.762 31.035 264.594 32.1568 264.261 33.0135Z" fill="#6A73B6"/>
<path d="M154.411 59.3859L146.562 48.4531H139.625V76.4989H146.142V57.5665L154.174 68.5101L162.415 57.5584V76.4989H169.227V48.4531H162.457L154.411 59.3859Z" fill="#232A5E"/>
<path d="M175.195 76.4989H194.411V71.2419H182.007V65.104H192.771V59.8066H182.007V53.7092H194.411V48.4531H175.195V76.4989Z" fill="#232A5E"/>
<path d="M198.152 53.7092H206.015V76.4989H212.827V53.7092H220.815V48.4531H198.152V53.7092Z" fill="#232A5E"/>
<path d="M245.627 64.0738C246.608 63.2199 247.35 62.196 247.856 61.004C248.36 59.8138 248.612 58.6011 248.612 57.3678C248.612 54.3681 247.714 52.1333 245.92 50.6609C244.126 49.1894 241.646 48.4531 238.478 48.4531H224.812V76.4989H231.625V66.8282H235.83L241.381 76.4989H250.042L242.874 65.5166C243.942 65.2164 244.863 64.739 245.627 64.0738ZM240.202 60.8575C239.502 61.502 238.548 61.8247 237.344 61.8247H231.625V53.7092H237.638C238.786 53.7092 239.677 54.0463 240.306 54.7187C240.938 55.392 241.253 56.3736 241.253 57.6618C241.254 59.1486 240.902 60.2129 240.202 60.8575Z" fill="#232A5E"/>
<path d="M273.147 49.483C271.087 48.4321 268.669 47.9062 265.894 47.9062C261.577 47.9062 258.214 49.1396 255.803 51.6062C253.391 54.0729 252.188 57.7028 252.188 62.4959C252.188 65.8031 252.754 68.5367 253.891 70.695C255.026 72.8543 256.616 74.458 258.663 75.5088C260.708 76.5606 263.12 77.0855 265.895 77.0855C270.24 77.0855 273.612 75.8531 276.008 73.3864C278.405 70.9198 279.604 67.2746 279.604 62.4536C279.604 59.1177 279.043 56.385 277.921 54.2545C276.798 52.1249 275.208 50.5338 273.147 49.483ZM271.803 67.7313C271.283 69.0617 270.527 70.0226 269.532 70.6105C268.536 71.1984 267.325 71.4933 265.895 71.4933C264.466 71.4933 263.261 71.2074 262.28 70.6312C261.297 70.0568 260.548 69.1174 260.031 67.8149C259.512 66.5105 259.253 64.7531 259.253 62.5372C259.253 60.2953 259.512 58.5145 260.031 57.1976C260.548 55.8798 261.298 54.9278 262.28 54.3381C263.261 53.7493 264.467 53.4553 265.895 53.4553C267.325 53.4553 268.536 53.743 269.532 54.3174C270.527 54.8918 271.284 55.8375 271.803 57.1553C272.321 58.4732 272.581 60.2396 272.581 62.4536C272.581 64.6416 272.32 66.4008 271.803 67.7313Z" fill="#232A5E"/>
<path d="M295.663 48.4531H284.395V76.4989H295.663C300.429 76.4989 303.932 75.3159 306.175 72.9454C308.418 70.5767 309.538 67.0951 309.538 62.4971C309.538 57.8712 308.417 54.3762 306.175 52.0057C303.932 49.6388 300.429 48.4531 295.663 48.4531ZM300.604 69.1411C299.301 70.5425 297.388 71.2428 294.864 71.2428H291.207V53.7092H294.864C297.388 53.7092 299.301 54.4031 300.604 55.7902C301.907 57.1781 302.559 59.4138 302.559 62.4971C302.559 65.5256 301.907 67.7397 300.604 69.1411Z" fill="#232A5E"/>
<path d="M314.289 76.4989H333.504V71.2419H321.101V65.104H331.865V59.8066H321.101V53.7092H333.504V48.4531H314.289V76.4989Z" fill="#232A5E"/>
<path d="M356.423 62.4975C355.693 61.8808 354.847 61.3693 353.879 60.963C352.912 60.5567 351.853 60.1854 350.704 59.8483C349.667 59.5121 348.728 59.1966 347.887 58.9026C347.045 58.6087 346.388 58.2374 345.91 57.788C345.434 57.3403 345.196 56.7236 345.196 55.938C345.196 55.2647 345.392 54.7118 345.785 54.2767C346.177 53.8417 346.723 53.527 347.424 53.3302C348.124 53.1351 348.896 53.0506 349.738 53.0785C350.691 53.1063 351.602 53.2753 352.471 53.5837C353.339 53.8929 354.174 54.2767 354.973 54.7397C355.772 55.2026 356.493 55.6997 357.139 56.2319V49.6742C356.297 49.2526 355.471 48.9101 354.658 48.644C353.844 48.378 352.997 48.1757 352.113 48.0337C351.23 47.8943 350.214 47.8242 349.065 47.8242C347.215 47.8242 345.602 48.0696 344.229 48.5595C342.855 49.0504 341.727 49.7156 340.844 50.557C339.961 51.3984 339.309 52.3512 338.889 53.4165C338.468 54.4826 338.258 55.5892 338.258 56.738C338.258 57.9992 338.439 59.0653 338.804 59.9337C339.168 60.803 339.658 61.5392 340.276 62.1415C340.892 62.7447 341.594 63.2418 342.378 63.6337C343.163 64.0265 343.962 64.3484 344.776 64.6019C346.065 65.0495 347.228 65.4495 348.265 65.7992C349.301 66.1507 350.136 66.5561 350.767 67.0173C351.398 67.4811 351.713 68.0897 351.713 68.8466C351.713 69.8561 351.37 70.6076 350.683 71.0975C349.996 71.5874 349.007 71.8329 347.718 71.8329C346.261 71.8329 344.718 71.5659 343.092 71.0337C341.466 70.5015 340.008 69.7168 338.72 68.6794V75.1544C339.645 75.6021 340.597 75.967 341.579 76.2466C342.56 76.5262 343.625 76.7365 344.776 76.8785C345.925 77.017 347.214 77.0871 348.644 77.0871C350.801 77.0871 352.625 76.6889 354.11 75.8897C355.596 75.0906 356.731 73.9975 357.516 72.6104C358.3 71.2216 358.694 69.6871 358.694 68.0052C358.694 66.7449 358.496 65.6662 358.105 64.7673C357.712 63.8719 357.152 63.1141 356.423 62.4975Z" fill="#232A5E"/>
<path d="M379.799 76.4989H388.335L376.922 60.3028L387.453 48.4531H378.874L370.296 60.1905V48.4531H363.484V76.4989H370.296V67.7586L372.254 65.5553L379.799 76.4989Z" fill="#232A5E"/>
<path d="M144.292 96.8467C143.265 96.8467 142.404 96.6534 141.71 96.2659C141.016 95.8794 140.493 95.3005 140.146 94.5292C139.799 93.7606 139.625 92.8015 139.625 91.6535C139.625 90.5056 139.798 89.55 140.146 88.785C140.494 88.0201 141.015 87.4456 141.71 87.0627C142.404 86.6798 143.265 86.4883 144.292 86.4883C144.845 86.4883 145.389 86.5449 145.923 86.6555C146.456 86.7661 146.97 86.9378 147.463 87.1679V88.3005C146.99 88.0902 146.496 87.9068 145.983 87.7513C145.47 87.5958 144.947 87.5158 144.413 87.5158C143.568 87.5158 142.87 87.665 142.321 87.9616C141.772 88.2583 141.367 88.7113 141.106 89.3208C140.843 89.9303 140.713 90.7079 140.713 91.6544C140.713 92.601 140.844 93.3804 141.106 93.9953C141.367 94.6101 141.773 95.0641 142.321 95.3616C142.869 95.6592 143.567 95.8075 144.413 95.8075C144.815 95.8075 145.208 95.7778 145.591 95.7158C145.974 95.6565 146.351 95.5648 146.724 95.4452V92.5767H144.293V91.5178H147.812V96.0637C147.258 96.3253 146.689 96.5221 146.105 96.6534C145.519 96.7819 144.915 96.8467 144.292 96.8467Z" fill="#6A73B6"/>
<path d="M154.605 96.6975V86.625H160.963V87.6525H155.692V91.125H160.328V92.1822H155.692V95.6709H160.963V96.6984L154.605 96.6975Z" fill="#6A73B6"/>
<path d="M170.188 96.6984V87.6525H166.625V86.625H174.825V87.6525H171.276V96.6984H170.188Z" fill="#6A73B6"/>
<path d="M189.246 96.6975V86.625H190.333V96.6975H189.246Z" fill="#6A73B6"/>
<path d="M199.712 96.6984V87.6525H196.148V86.625H204.348V87.6525H200.8V96.6984H199.712Z" fill="#6A73B6"/>
<path d="M218.77 96.6975V86.625H221.926C223.496 86.625 224.676 87.0448 225.467 87.8853C226.257 88.7258 226.652 89.9816 226.652 91.6527C226.652 93.3238 226.258 94.5814 225.467 95.4273C224.676 96.2732 223.496 96.6966 221.926 96.6966L218.77 96.6975ZM219.857 95.67H221.85C223.139 95.67 224.075 95.3473 224.659 94.7028C225.243 94.0583 225.536 93.0416 225.536 91.6527C225.536 90.2639 225.244 89.2454 224.659 88.6027C224.075 87.9581 223.139 87.6354 221.85 87.6354H219.857V95.67Z" fill="#6A73B6"/>
<path d="M237.207 96.8467C236.211 96.8467 235.376 96.6534 234.708 96.2659C234.038 95.8794 233.535 95.3023 233.197 94.5382C232.86 93.7723 232.691 92.8159 232.691 91.6679C232.691 89.9582 233.071 88.6655 233.832 87.7944C234.592 86.9234 235.717 86.4883 237.207 86.4883C238.214 86.4883 239.051 86.6834 239.721 87.0708C240.391 87.4573 240.893 88.0344 241.231 88.7985C241.568 89.5644 241.737 90.5209 241.737 91.667C241.737 93.3786 241.358 94.6712 240.597 95.5423C239.837 96.4107 238.707 96.8467 237.207 96.8467ZM237.207 95.821C238.001 95.821 238.651 95.6754 239.155 95.3823C239.658 95.091 240.028 94.638 240.264 94.0231C240.5 93.4082 240.619 92.6235 240.619 91.667C240.619 90.7115 240.501 89.9285 240.264 89.3199C240.027 88.7113 239.657 88.2574 239.155 87.9607C238.651 87.6641 238.001 87.5149 237.207 87.5149C236.421 87.5149 235.777 87.6641 235.274 87.9607C234.771 88.2574 234.4 88.7104 234.164 89.3199C233.927 89.9294 233.809 90.7124 233.809 91.667C233.809 92.6235 233.927 93.4091 234.164 94.0231C234.401 94.6371 234.771 95.091 235.274 95.3823C235.777 95.6754 236.422 95.821 237.207 95.821Z" fill="#6A73B6"/>
<path d="M248.156 96.6975V86.625H249.395L255.677 95.4876L255.404 95.911V86.625H256.492V96.6975H255.269L248.745 87.5015L249.244 87.0331V96.6984L248.156 96.6975Z" fill="#6A73B6"/>
<path d="M263.285 96.6975V86.625H269.642V87.6525H264.373V91.125H269.009V92.1822H264.373V95.6709H269.642V96.6984L263.285 96.6975Z" fill="#6A73B6"/>
<path d="M276.121 98.3899L277.239 95.4297H278.477L277.209 98.3899H276.121Z" fill="#6A73B6"/>
<path d="M292.867 96.6975L296.884 86.625H297.971L301.973 96.6975H300.811L297.323 87.6363L297.549 87.6066L294.046 96.6975H292.867ZM294.634 93.5549L295.103 92.5139H300.041L300.116 93.5549H294.634Z" fill="#6A73B6"/>
<path d="M307.789 96.6975V86.625H309.028L315.31 95.4876L315.037 95.911V86.625H316.125V96.6975H314.901L308.378 87.5015L308.877 87.0331V96.6984L307.789 96.6975Z" fill="#6A73B6"/>
<path d="M325.577 96.6984V92.077L321.816 86.6259H323.13L326.316 91.3363L325.969 91.2464L329.095 86.625H330.409L326.483 92.3332L326.664 91.6383V96.6984H325.577Z" fill="#6A73B6"/>
<path d="M338.76 96.6984V87.6525H335.195V86.625H343.395V87.6525H339.846V96.6984H338.76Z" fill="#6A73B6"/>
<path d="M349.211 96.6975V86.625H350.298V96.6975H349.211Z" fill="#6A73B6"/>
<path d="M357.094 96.6975V86.625H358.271L362.001 92.3467L361.261 92.5139L365.202 86.625H366.381V96.6975H365.293V87.7118H365.777L361.623 93.5405L357.788 87.8323L358.181 87.274V96.6966L357.094 96.6975Z" fill="#6A73B6"/>
<path d="M373.176 96.6975V86.625H379.533V87.6525H374.263V91.125H378.899V92.1822H374.263V95.6709H379.533V96.6984L373.176 96.6975Z" fill="#6A73B6"/>
<path d="M387.129 96.6975V95.4876H388.337V96.6975H387.129ZM387.295 94.1589L387.189 86.625H388.277L388.171 94.1589H387.295Z" fill="#6A73B6"/>
</g>
<defs>
<clipPath id="clip0_574_40523">
<rect width="388.338" height="120" fill="white"/>
</clipPath>
</defs>
</svg>
