<svg width="154" height="10" viewBox="0 0 154 10" fill="none" xmlns="http://www.w3.org/2000/svg">
<path d="M153.304 3.20389C153.229 3.01189 153.078 2.88389 152.852 2.81989C151.796 2.49989 150.664 2.49989 149.608 2.37189C149.005 2.30789 148.477 2.30789 147.874 2.17989C147.496 2.11589 147.044 2.05189 146.591 2.05189C146.214 2.05189 145.837 1.92389 145.46 1.92389C145.384 1.92389 145.234 1.85989 145.158 1.92389C144.63 2.05189 144.178 1.92389 143.725 1.85989C143.272 1.79589 142.895 1.79589 142.518 1.73189C142.066 1.92389 141.688 1.60389 141.311 1.66789C140.859 1.73189 140.331 1.53989 139.878 1.60389C139.35 1.66789 138.822 1.41189 138.294 1.60389C138.219 1.60389 137.992 1.53989 137.842 1.53989C137.54 1.53989 137.163 1.47589 136.861 1.41189C136.408 1.34789 135.88 1.21989 135.428 1.34789C134.9 1.47589 134.447 1.28389 133.995 1.21989L133.24 1.28389C133.165 1.28389 133.014 1.34789 132.939 1.28389C132.335 1.09189 131.807 1.21989 131.204 1.21989C130.978 1.15589 130.676 1.2199 130.45 1.1559C129.318 0.835896 128.187 1.02789 127.055 1.02789C126.452 1.02789 125.848 0.963895 125.245 0.963895C124.264 0.963895 123.284 0.835889 122.303 0.835889C121.474 0.835889 120.644 0.83589 119.739 0.707891C119.211 0.64389 118.683 0.643895 118.155 0.643895C118.004 0.643895 117.853 0.707895 117.702 0.643895C116.948 0.579895 116.194 0.643892 115.364 0.579892C113.931 0.451892 112.422 0.707891 110.989 0.387891C110.838 0.387891 110.687 0.451894 110.536 0.451894C109.933 0.451894 109.405 0.515889 108.802 0.515889C108.5 0.515889 108.123 0.323889 107.746 0.515889C107.368 0.323889 106.991 0.387889 106.539 0.515889C106.312 0.579889 106.086 0.579889 105.86 0.515889C105.256 0.323889 104.728 0.323894 104.125 0.451894C103.823 0.515894 103.446 0.323889 103.069 0.515889C102.541 0.323889 101.862 0.515894 101.259 0.451894C100.655 0.387894 100.052 0.323889 99.4484 0.515889C98.9204 0.323889 98.2415 0.387891 97.6381 0.387891C97.4118 0.451891 97.1855 0.451894 96.9592 0.451894C96.8084 0.451894 96.5821 0.579889 96.4312 0.515889C96.1295 0.387889 95.7524 0.451894 95.3753 0.451894C95.0735 0.451894 94.6964 0.387891 94.3192 0.387891C93.7158 0.387891 93.1878 0.451891 92.5844 0.387891C92.0564 0.323891 91.5284 0.515891 91.0004 0.387891C90.4724 0.259891 89.869 0.515889 89.341 0.515889C87.5307 0.515889 85.7958 0.515893 84.061 0.579892C83.6084 0.387892 83.1558 0.579892 82.7032 0.579892C82.2507 0.579892 81.7981 0.451892 81.3455 0.579892C81.1192 0.643892 80.8175 0.643895 80.5158 0.643895C79.5352 0.643895 78.4792 0.707895 77.4987 0.643895C76.9707 0.835895 76.3672 0.771894 75.7638 0.771894C74.557 0.771894 73.2747 0.707889 71.9924 0.835889C71.2381 0.899889 70.5592 0.963895 69.805 0.963895H68.0701C67.4667 0.963895 66.8632 0.89989 66.2598 1.02789C65.6564 1.15589 65.1284 0.96389 64.6004 1.02789C63.9215 1.09189 63.2427 1.0279 62.6392 1.1559C62.0358 1.2839 61.357 1.02789 60.7535 1.34789H60.5272C59.773 1.09189 59.0187 1.21989 58.3398 1.21989C57.5855 1.21989 56.8312 1.21989 56.1524 1.41189C55.9261 1.47589 55.7752 1.47589 55.549 1.41189C55.3981 1.34789 55.1718 1.34789 54.9455 1.41189C54.3421 1.41189 53.7387 1.28389 53.1352 1.53989C52.5318 1.41189 51.9284 1.47589 51.325 1.53989C50.7215 1.60389 50.1935 1.60389 49.5901 1.60389C48.9867 1.60389 48.3832 1.60389 47.7798 1.73189C47.1764 1.60389 46.6484 1.92389 46.1204 1.66789C45.517 1.85989 44.989 1.6679 44.3855 1.7959C43.6312 1.9239 42.877 1.98789 42.1227 1.92389C41.5947 1.85989 41.1421 1.98789 40.6895 2.05189C40.237 2.11589 39.8598 2.1159 39.4827 2.1159C39.0301 2.1159 38.5775 1.9879 38.125 2.1159C37.2952 2.3719 36.3901 2.11589 35.485 2.37189C34.6552 2.17989 33.8255 2.49989 32.9958 2.49989C32.6187 2.49989 32.1661 2.43589 31.789 2.56389C31.261 2.75589 30.6575 2.69189 30.0541 2.69189C29.7524 2.62789 29.3752 2.62789 28.9981 2.75589C28.621 2.88389 28.1684 3.01189 27.7158 2.88389C27.4895 2.81989 27.2632 2.8839 26.9615 2.9479C26.509 2.9479 26.0564 3.01189 25.5284 3.01189C25.0758 3.01189 24.6232 3.33189 24.0952 3.13989C23.9444 3.07589 23.7935 3.20389 23.7935 3.33189C23.7181 3.52389 23.6427 3.71589 23.4164 3.39589C23.341 3.26789 23.1147 3.2679 22.8884 3.2679C22.5867 3.2679 22.3604 3.39589 22.0587 3.33189C21.8324 3.26789 21.5307 3.52389 21.229 3.39589C21.0781 3.33189 21.0781 3.5239 21.0027 3.5879C21.0027 3.7799 20.9272 3.84389 20.701 3.71589C20.0975 3.52389 19.5695 3.4599 19.0415 3.9079C18.8907 4.0359 18.8907 3.97189 18.8152 3.84389C18.8152 3.71589 18.8907 3.5879 18.589 3.5879C17.9855 3.7159 17.3821 3.9079 16.7787 3.9079C16.0998 3.9079 15.4964 4.03589 14.893 4.09989C13.6107 4.22789 12.3284 4.22789 10.9707 4.48389C10.2164 4.61189 9.38667 4.67589 8.63238 4.86789C8.4061 4.93189 8.17981 4.93189 8.02895 4.93189C7.72724 4.93189 7.35009 5.1239 7.04838 5.0599C6.67124 4.9959 6.36952 5.12389 5.99238 5.25189C5.7661 5.31589 5.53981 5.3159 5.31352 5.3799C4.40838 5.3799 3.57867 5.5719 2.82438 5.8919C2.67352 5.9559 2.44724 5.95589 2.22095 6.01989C1.99467 6.14789 1.84381 6.14789 1.5421 6.08389C1.0141 5.95589 0.486095 5.95589 0.0335239 6.27589C0.0335239 6.33989 -0.0419048 6.40389 0.0335239 6.46789C0.0335239 6.53189 0.108952 6.53189 0.184381 6.59589C0.335238 6.59589 0.410666 6.5959 0.561524 6.5319C0.712381 6.4679 0.863238 6.40389 1.0141 6.46789C1.76838 6.78789 2.52267 6.6599 3.27695 6.5319C3.6541 6.4679 3.95581 6.59589 4.25752 6.33989C4.48381 6.14789 4.78552 6.14789 5.01181 6.14789C5.38895 6.14789 5.69067 6.08389 5.99238 6.08389C6.59581 6.08389 7.04838 5.89189 7.50095 5.50789C7.65181 5.31589 7.95352 5.31589 8.17981 5.44389C8.63238 5.82789 9.08495 5.76389 9.68838 5.76389C10.141 5.76389 10.5935 5.63589 11.1215 5.63589C11.2724 5.63589 11.4232 5.69989 11.5741 5.57189C11.9512 5.25189 12.6301 5.37989 13.0827 5.18789C13.2335 5.12389 13.3844 5.18789 13.5352 5.18789C13.7615 5.25189 13.9878 5.25189 14.1387 5.25189C15.2701 5.25189 16.4015 5.05989 17.533 4.93189L17.7592 4.80389C17.9101 4.54789 18.061 4.67589 18.3627 4.67589C18.6644 4.67589 19.117 4.73989 19.4187 4.67589C20.0221 4.54789 20.6255 4.35589 21.3044 4.48389C21.8324 4.22789 22.3604 4.35589 22.8884 4.29189H25.0004C25.2267 4.29189 25.5284 4.35589 25.7547 4.09989C25.7547 3.97189 25.8301 3.97189 25.9055 4.03589C26.1318 4.41989 26.5844 4.29189 26.8861 4.22789C27.4895 4.09989 28.0175 4.03589 28.621 3.77989C28.7718 3.71589 28.8472 3.84389 28.9227 3.9079C29.0735 4.0359 29.149 4.03589 29.2244 4.03589C29.8278 3.84389 30.4312 3.90789 31.0347 3.84389C31.7135 3.77989 32.317 3.84389 32.9958 3.84389C33.2975 3.84389 33.5992 3.90789 33.8255 3.84389C34.5798 3.65189 35.2587 3.65189 36.013 3.65189C36.6164 3.65189 37.069 3.71589 37.6724 3.45989C37.8232 3.39589 38.0495 3.45989 38.2004 3.45989C39.5581 3.45989 40.9158 3.5239 42.1981 3.2679H42.5752C43.1032 3.2679 43.5558 3.26789 44.0838 3.20389C44.6118 3.13989 45.0644 3.2679 45.5924 3.2679C45.8941 3.2039 46.1958 3.26789 46.4221 3.13989C46.7992 2.94789 47.101 3.26789 47.4027 3.13989C47.9307 2.88389 48.3832 3.01189 48.9112 3.01189C49.5901 3.01189 50.269 3.07589 50.8724 3.01189C51.7775 2.88389 52.6827 2.81989 53.5124 2.81989C53.7387 2.81989 53.965 2.88389 54.1158 2.81989C54.493 2.69189 54.7947 2.69189 55.0964 2.75589C55.3981 2.81989 55.6998 2.62789 56.077 2.75589C56.3787 2.88389 56.7558 2.69189 57.133 2.75589C57.4347 2.81989 57.7364 2.88389 58.1135 2.75589C58.4152 2.62789 58.7924 2.75589 59.1695 2.69189C59.5467 2.62789 59.9238 2.56389 60.3764 2.56389C60.829 2.56389 61.2061 2.6279 61.6587 2.6279C62.1112 2.6279 62.4884 2.49989 62.8655 2.56389C63.3181 2.62789 63.7707 2.6279 64.2232 2.6279C64.9021 2.6279 65.6564 2.75589 66.2598 2.49989C66.4107 2.43589 66.5615 2.49989 66.7124 2.49989C67.3912 2.62789 67.9947 2.69189 68.6735 2.49989C69.2015 2.37189 69.7295 2.17989 70.2575 2.43589C71.5398 2.43589 72.8975 2.37189 74.2552 2.37189C74.7078 2.24389 75.2358 2.30789 75.6884 2.30789C75.9901 2.30789 76.2164 2.43589 76.5181 2.24389C77.2724 2.37189 77.9512 2.17989 78.7055 2.17989C79.6861 2.17989 80.7421 2.3079 81.7981 2.1159H82.0244C82.5524 2.3079 83.005 2.1799 83.533 2.1159C83.6838 2.0519 83.7592 2.1159 83.9101 2.1159C84.7398 2.3079 85.5695 2.3719 86.4747 2.1159C86.701 2.0519 86.9272 2.0519 87.1535 2.1159C87.5307 2.2439 87.9078 2.2439 88.285 2.1159C88.5867 1.9879 88.8884 1.9879 89.1901 2.1159C89.341 2.1799 89.5673 2.17989 89.7181 2.17989H92.2072C92.509 2.24389 92.8861 2.24389 93.1878 2.17989C93.9421 2.05189 94.621 2.17989 95.3753 2.17989C95.677 2.17989 96.0541 2.24389 96.4312 2.05189C96.8084 1.85989 97.1101 1.7959 97.4873 2.1159C97.6381 2.1799 97.8644 2.17989 98.0907 2.17989C98.7695 2.17989 99.4484 2.2439 100.127 2.1159C100.731 2.3079 101.41 2.17989 102.013 2.17989C102.616 2.17989 103.22 2.24389 103.823 2.17989C104.427 2.11589 105.03 2.17989 105.634 2.17989C106.916 2.17989 108.198 2.11589 109.405 2.30789C109.48 2.37189 109.631 2.37189 109.707 2.30789C110.159 2.17989 110.612 2.30789 111.14 2.37189C112.045 2.49989 113.026 2.43589 114.006 2.17989C114.232 2.11589 114.459 2.11589 114.685 2.17989C115.364 2.37189 116.043 2.43589 116.722 2.43589C117.476 2.43589 118.155 2.49989 118.834 2.49989C119.286 2.49989 119.739 2.56389 120.116 2.56389C120.644 2.56389 121.096 2.62789 121.624 2.49989C122.077 2.37189 122.53 2.6279 123.058 2.6279H123.51C124.264 2.4999 124.868 2.69189 125.547 2.69189C125.622 2.69189 125.622 2.75589 125.698 2.75589V2.81989C125.773 2.94789 125.698 3.01189 125.622 3.01189C125.471 3.01189 125.32 3.07589 125.245 3.01189C124.943 2.75589 124.415 2.88389 123.963 3.01189C123.736 3.07589 123.51 3.07589 123.284 3.07589H120.191C119.89 3.07589 119.588 3.13989 119.362 3.20389C118.984 3.33189 118.758 2.94789 118.381 3.07589C118.155 3.13989 117.928 3.07589 117.702 3.13989C117.476 3.20389 117.325 3.20389 117.099 3.20389C116.797 3.20389 116.571 3.26789 116.269 3.13989C115.967 3.01189 115.666 3.26789 115.364 3.13989H112.799C112.498 3.13989 112.271 3.26789 112.045 3.20389C111.442 3.01189 110.838 3.39589 110.31 3.13989C109.631 3.33189 109.028 3.2679 108.349 3.2679H106.539C105.935 3.2679 105.332 3.33189 104.728 3.33189C104.05 3.33189 103.446 3.52389 102.767 3.33189C102.692 3.26789 102.541 3.33189 102.39 3.39589C102.088 3.39589 101.711 3.45989 101.334 3.45989C99.9764 3.45989 98.5432 3.4599 97.1855 3.5879C96.3558 3.6519 95.4507 3.65189 94.621 3.65189C93.9421 3.65189 93.1878 3.77989 92.509 4.09989C92.4335 4.16389 92.2827 4.16389 92.2072 4.22789C92.0564 3.84389 91.6793 4.09989 91.453 4.03589C90.925 3.90789 90.397 3.90789 89.7935 4.03589C89.6427 4.03589 89.4918 4.09989 89.341 4.03589C89.0392 3.90789 88.7375 4.03589 88.5112 4.03589C87.9078 4.03589 87.3044 4.16389 86.701 4.09989C86.2484 4.03589 85.7958 4.16389 85.4187 4.35589C85.1924 4.41989 85.0415 4.41989 84.8152 4.35589C84.589 4.35589 84.3627 4.4199 84.061 4.4199C83.9101 4.4199 83.6838 4.48389 83.4575 4.48389C83.005 4.35589 82.5524 4.54789 82.0998 4.61189C81.7981 4.67589 81.5718 4.73989 81.3455 4.67589C81.1192 4.61189 80.9684 4.73989 81.0438 4.93189C81.1192 5.63589 81.7227 5.95589 82.4015 5.57189C82.6278 5.44389 82.7787 5.44389 82.9295 5.50789C83.3821 5.57189 83.6838 5.76389 84.1364 5.57189C84.2872 5.50789 84.5135 5.50789 84.7398 5.50789C85.2678 5.50789 85.7204 5.50789 86.173 5.44389C86.701 5.37989 87.1535 5.31589 87.6815 5.31589H89.1147C89.341 5.31589 89.6427 5.31589 89.9444 5.25189C90.397 5.12389 90.925 4.99589 91.453 5.12389C91.6793 5.18789 91.9055 5.1239 92.0564 5.0599C92.3581 4.9319 92.6598 5.1239 92.8861 5.0599C93.2633 4.8679 93.4895 5.05989 93.8667 5.12389C94.3192 5.18789 94.8472 5.1879 95.2998 5.0599C95.3753 4.9959 95.5261 4.93189 95.6015 4.99589C95.9787 5.12389 96.205 4.93189 96.4312 4.86789C96.733 4.80389 97.1101 4.93189 97.261 4.61189C97.3364 4.54789 97.4118 4.54789 97.4873 4.54789C97.8644 4.54789 98.1661 4.80389 98.5432 4.61189H98.6187C98.845 4.99589 99.2975 4.86789 99.5993 4.93189C99.9764 4.93189 100.278 4.86789 100.58 4.93189C100.957 4.93189 101.334 4.93189 101.485 4.67589C101.56 4.54789 101.711 4.61189 101.787 4.67589C102.013 4.86789 102.239 4.80389 102.466 4.80389C102.692 4.80389 102.918 4.7399 103.22 4.7399C103.597 4.7399 104.05 4.80389 104.427 4.67589C104.879 4.54789 105.256 4.7399 105.709 4.7399H106.086C106.84 4.7399 107.519 4.73989 108.274 4.61189C109.028 4.48389 109.782 4.73989 110.536 4.54789C110.763 4.48389 111.064 4.48389 111.291 4.61189C111.592 4.73989 111.894 4.67589 112.196 4.61189C113.403 4.35589 114.61 4.54789 115.741 4.48389C116.571 4.41989 117.476 4.48389 118.306 4.48389C118.758 4.54789 119.06 4.29189 119.211 3.97189C119.739 4.48389 119.739 4.54789 120.342 4.48389C120.87 4.41989 121.474 4.48389 122.002 4.35589H122.53C122.907 4.54789 123.359 4.48389 123.812 4.48389C124.642 4.48389 125.471 4.41989 126.301 4.54789C126.754 4.61189 127.206 4.4199 127.734 4.4199C127.81 4.4199 127.885 4.29189 127.96 4.22789C128.187 3.84389 128.187 4.09989 128.187 4.22789C128.262 4.41989 128.413 4.48389 128.564 4.48389C128.866 4.48389 129.243 4.35589 129.469 4.48389C129.771 4.67589 130.223 4.3559 130.6 4.4199C130.978 4.4839 131.355 4.54789 131.732 4.67589H132.109C132.863 4.67589 133.542 4.67589 134.296 4.67589H135.352C135.579 4.67589 135.73 4.61189 135.956 4.67589C136.635 4.73989 137.314 4.67589 137.992 4.61189C138.445 4.54789 138.898 4.54789 139.35 4.67589C139.576 4.73989 139.878 4.61189 140.18 4.61189C140.255 4.61189 140.331 4.54789 140.482 4.61189C141.01 4.80389 141.538 4.73989 142.066 4.61189L142.971 4.4199C143.348 4.3559 143.499 4.80389 143.876 4.67589C144.102 4.61189 144.253 4.6759 144.479 4.7399H145.686C146.063 4.7399 146.365 4.54789 146.742 4.67589C147.119 4.80389 147.572 4.80389 147.949 4.80389H148.326C148.477 4.80389 148.628 4.8039 148.703 4.7399C149.005 4.4839 149.307 4.67589 149.684 4.67589H152.776C153.003 4.67589 153.229 4.54789 153.304 4.29189C153.38 3.97189 153.455 3.58789 153.304 3.20389ZM80.2895 4.61189C79.9124 4.61189 79.6107 4.54789 79.309 4.80389C79.2335 4.86789 79.0827 4.86789 79.0827 4.80389C78.781 4.67589 78.4038 4.7399 78.1021 4.7399C76.5181 4.7399 75.0095 5.05989 73.4255 4.93189C73.4255 4.93189 73.3501 4.93189 73.3501 4.99589C72.973 5.18789 72.5204 5.12389 72.1432 5.12389C71.917 5.12389 71.6907 5.12389 71.5398 5.18789C71.0872 5.37989 70.5592 5.37989 70.1067 5.31589C69.6541 5.25189 69.3524 5.50789 68.8998 5.63589C68.8244 5.63589 68.749 5.76389 68.749 5.82789C68.6735 5.89189 68.6735 6.01989 68.6735 6.01989C68.5981 6.08389 68.5227 6.14789 68.4472 6.14789C68.2964 6.08389 68.2964 5.9559 68.2964 5.8919C68.2964 5.8279 68.3718 5.7639 68.4472 5.69989C68.5227 5.50789 68.4472 5.44389 68.221 5.44389C67.9947 5.50789 67.693 5.57189 67.4667 5.57189C66.8632 5.44389 66.1844 5.57189 65.581 5.57189C65.2038 5.57189 64.9021 5.57189 64.6004 5.63589C64.2987 5.69989 63.997 5.89189 63.6952 5.82789H62.7147C62.2621 5.89189 61.8095 5.82789 61.357 5.95589C61.0552 6.01989 60.7535 6.14789 60.4518 6.08389C59.9992 6.01989 59.6975 6.0839 59.3204 6.2119C58.9432 6.3399 58.6415 6.40389 58.189 6.27589C57.9627 6.21189 57.5855 6.21189 57.5101 6.33989C57.2084 6.59589 56.9067 6.46789 56.605 6.46789H55.6244C55.2472 6.46789 54.9455 6.59589 54.5684 6.59589C54.1158 6.59589 53.6632 6.59589 53.3615 6.72389C52.9844 6.85189 52.6072 6.65989 52.2301 6.78789C51.5512 6.97989 50.797 6.97989 50.1181 7.04389C49.213 7.10789 48.4587 7.1719 47.8552 7.6839C47.8552 7.7479 47.7044 7.6839 47.629 7.6839C47.629 7.6199 47.629 7.55589 47.7044 7.49189C47.7044 7.29989 47.629 7.23589 47.4781 7.29989L46.7992 7.49189C46.7238 7.49189 46.6484 7.6199 46.7238 7.6839C46.7238 7.7479 46.7992 7.74789 46.8747 7.74789C47.0255 7.68389 47.1764 7.61989 47.2518 7.74789C47.2518 7.81189 47.1764 7.9399 47.101 8.0039C47.0255 8.0679 46.8747 8.13189 47.0255 8.25989C47.101 8.32389 47.1764 8.38789 47.3272 8.38789C47.629 8.38789 48.0061 8.25989 48.3832 8.25989C48.7604 8.25989 49.0621 8.19589 49.213 7.93989C49.2884 7.81189 49.5901 7.81189 49.6655 7.93989C49.8918 8.25989 50.1935 8.25989 50.4952 8.06789C50.8724 7.81189 51.2495 7.61989 51.7021 7.81189C51.853 7.87589 52.0792 7.81189 52.3055 7.74789C52.5318 7.68389 52.6072 7.55589 52.6072 7.29989C52.6072 7.23589 52.7581 7.10789 52.8335 7.10789C52.9844 7.10789 53.0598 7.23589 53.1352 7.29989C53.1352 7.36389 53.1352 7.42789 53.0598 7.49189C53.0598 7.74789 53.1352 7.81189 53.3615 7.81189C53.8141 7.81189 53.8895 7.81189 53.8895 7.49189C53.8895 7.29989 53.965 7.17189 54.1158 7.23589C54.3421 7.29989 54.493 7.36389 54.6438 7.49189C54.7947 7.55589 54.9455 7.61989 55.0964 7.61989C55.6244 7.61989 56.077 7.61989 56.5295 7.55589C57.5101 7.42789 58.4152 7.1719 59.3204 7.1719C59.5467 7.1719 59.773 6.97989 59.9992 7.10789C60.4518 7.36389 60.829 7.04389 61.2061 7.04389C61.357 7.04389 61.5832 6.97989 61.7341 7.04389C62.1112 7.17189 62.413 7.04389 62.7147 7.04389C63.2427 7.04389 63.6952 6.65989 64.2232 6.91589C65.053 6.78789 65.9581 6.78789 66.7878 6.78789C67.165 6.78789 67.5421 6.65989 67.7684 6.40389C67.9947 6.14789 67.9192 6.33989 68.0701 6.46789C68.1455 6.53189 68.2964 6.59589 68.3718 6.59589L69.1261 6.40389H70.1821C70.5592 6.40389 71.0118 6.27589 71.389 6.40389C71.5398 6.40389 71.6907 6.40389 71.8415 6.33989C72.5958 6.27589 73.2747 6.01989 74.029 6.08389L74.1798 5.95589C74.2552 5.89189 74.2552 5.82789 74.3307 5.95589C74.4815 6.01989 74.557 6.14789 74.7832 6.14789C75.1604 6.14789 75.5375 6.01989 75.9147 6.08389C75.9901 6.14789 76.0655 6.01989 75.9901 5.95589C75.9901 5.89189 75.9901 5.76389 76.0655 5.82789C76.669 6.01989 77.2724 5.8919 77.8758 5.8919H79.837C80.1387 5.8919 80.1387 5.76389 80.1387 5.50789C80.0632 5.31589 80.0632 5.25189 80.365 5.25189C80.5158 5.25189 80.5158 5.1879 80.5912 5.0599C80.6667 4.9319 80.9684 4.80389 80.7421 4.61189C80.5912 4.48389 80.4404 4.61189 80.2895 4.61189ZM46.1958 7.6839H45.4415C45.0644 7.6199 44.6872 7.87589 44.3101 7.81189C43.6312 7.68389 43.1787 7.93989 42.6507 8.06789C42.4244 8.13189 42.4244 8.32389 42.4244 8.51589V8.6439C42.9524 8.7079 43.5558 8.70789 44.0838 8.70789C44.3101 8.70789 44.5364 8.64389 44.6118 8.51589C44.7627 8.32389 44.9135 8.1319 45.0644 8.0039C45.2907 7.8119 45.5924 8.1319 45.8941 8.0039C45.9695 7.9399 46.1204 8.0039 46.1958 8.0039C46.2712 8.0039 46.3467 7.87589 46.3467 7.81189C46.2712 7.81189 46.2712 7.6839 46.1958 7.6839ZM42.0472 8.13189C41.8964 8.06789 41.7455 8.06789 41.5947 8.06789C41.2175 8.06789 40.8404 8.0679 40.5387 8.3239C40.3878 8.4519 40.0861 8.51589 39.8598 8.38789C39.5581 8.25989 39.2564 8.32389 38.9547 8.51589C38.653 8.70789 38.653 8.7719 38.2004 9.1559C38.125 9.2199 38.125 9.21989 38.2004 9.28389C38.4267 9.28389 38.653 9.2839 38.8038 9.1559C39.1055 8.8999 39.4827 8.83589 39.9352 8.89989C40.6895 9.02789 41.5192 8.83589 42.2735 8.83589C42.349 8.83589 42.349 8.70789 42.4244 8.70789L42.1981 8.51589C42.1227 8.38789 42.1981 8.19589 42.0472 8.13189Z" fill="#004EEB"/>
</svg>
