<svg width="424" height="33" viewBox="0 0 424 33" fill="none" xmlns="http://www.w3.org/2000/svg">
<rect x="0.5" y="0.599609" width="45" height="31" rx="5.5" fill="white"/>
<path fill-rule="evenodd" clip-rule="evenodd" d="M14.3337 21.2437H11.5874L9.52796 13.1559C9.43022 12.7839 9.22267 12.455 8.91737 12.3C8.15547 11.9104 7.31591 11.6004 6.40002 11.444V11.1326H10.8241C11.4347 11.1326 11.8927 11.6004 11.969 12.1436L13.0375 17.9776L15.7825 11.1326H18.4525L14.3337 21.2437ZM19.979 21.2437H17.3853L19.521 11.1326H22.1147L19.979 21.2437ZM25.4703 13.9337C25.5466 13.3891 26.0046 13.0777 26.5388 13.0777C27.3784 12.9996 28.2929 13.1559 29.0562 13.5441L29.5141 11.3672C28.7509 11.0558 27.9113 10.8994 27.1494 10.8994C24.6321 10.8994 22.8003 12.3 22.8003 14.2437C22.8003 15.7225 24.0978 16.4989 25.0137 16.9666C26.0046 17.433 26.3862 17.7444 26.3099 18.2108C26.3099 18.9104 25.5466 19.2218 24.7847 19.2218C23.8688 19.2218 22.9529 18.9886 22.1147 18.599L21.6568 20.7774C22.5727 21.1656 23.5635 21.3219 24.4794 21.3219C27.3021 21.3988 29.0562 19.9996 29.0562 17.8994C29.0562 15.2547 25.4703 15.0997 25.4703 13.9337ZM38.1334 21.2437L36.074 11.1326H33.8619C33.404 11.1326 32.946 11.444 32.7934 11.9104L28.9798 21.2437H31.6498L32.1828 19.7664H35.4634L35.7687 21.2437H38.1334ZM34.2435 13.8555L35.0054 17.6662H32.8697L34.2435 13.8555Z" fill="#172B85"/>
<rect x="0.5" y="0.599609" width="45" height="31" rx="5.5" stroke="#F2F4F7"/>
<rect x="54.5" y="0.599609" width="45" height="31" rx="5.5" fill="white"/>
<path fill-rule="evenodd" clip-rule="evenodd" d="M76.9053 22.5388C75.3266 23.8695 73.2787 24.6728 71.0409 24.6728C66.0478 24.6728 62 20.6732 62 15.7395C62 10.8057 66.0478 6.80615 71.0409 6.80615C73.2787 6.80615 75.3266 7.60948 76.9053 8.94021C78.484 7.60948 80.5319 6.80615 82.7697 6.80615C87.7628 6.80615 91.8106 10.8057 91.8106 15.7395C91.8106 20.6732 87.7628 24.6728 82.7697 24.6728C80.5319 24.6728 78.484 23.8695 76.9053 22.5388Z" fill="#ED0006"/>
<path fill-rule="evenodd" clip-rule="evenodd" d="M76.9053 22.5388C78.8492 20.9002 80.0818 18.4621 80.0818 15.7395C80.0818 13.0169 78.8492 10.5787 76.9053 8.9402C78.484 7.60948 80.5319 6.80615 82.7697 6.80615C87.7628 6.80615 91.8106 10.8057 91.8106 15.7395C91.8106 20.6732 87.7628 24.6728 82.7697 24.6728C80.5319 24.6728 78.484 23.8695 76.9053 22.5388Z" fill="#F9A000"/>
<path fill-rule="evenodd" clip-rule="evenodd" d="M76.9053 22.5389C78.8492 20.9004 80.0818 18.4623 80.0818 15.7397C80.0818 13.0171 78.8492 10.579 76.9053 8.94043C74.9614 10.579 73.7288 13.0171 73.7288 15.7397C73.7288 18.4623 74.9614 20.9004 76.9053 22.5389Z" fill="#FF5E00"/>
<rect x="54.5" y="0.599609" width="45" height="31" rx="5.5" stroke="#F2F4F7"/>
<rect x="108.5" y="0.599609" width="45" height="31" rx="3.5" fill="white"/>
<path fill-rule="evenodd" clip-rule="evenodd" d="M127.486 24.6975L127.78 22.7653L127.124 22.7495H123.994L126.169 8.49137C126.176 8.44819 126.198 8.40811 126.23 8.3796C126.262 8.35109 126.303 8.33545 126.346 8.33545H131.625C133.377 8.33545 134.587 8.7123 135.218 9.45622C135.514 9.80521 135.702 10.17 135.794 10.5713C135.889 10.9925 135.891 11.4956 135.798 12.1093L135.791 12.154V12.5473L136.087 12.7206C136.336 12.8573 136.534 13.0137 136.686 13.1928C136.939 13.4913 137.103 13.8705 137.172 14.3201C137.244 14.7824 137.22 15.3328 137.103 15.9558C136.968 16.6724 136.75 17.2966 136.455 17.8072C136.184 18.2777 135.838 18.6681 135.428 18.9705C135.036 19.2579 134.571 19.476 134.045 19.6157C133.535 19.7528 132.953 19.8221 132.316 19.8221H131.905C131.611 19.8221 131.326 19.9314 131.102 20.1274C130.877 20.3275 130.729 20.6009 130.683 20.8998L130.652 21.0738L130.132 24.4795L130.109 24.6045C130.102 24.644 130.092 24.6638 130.076 24.6771C130.062 24.6893 130.042 24.6975 130.022 24.6975H127.486Z" fill="#28356A"/>
<path fill-rule="evenodd" clip-rule="evenodd" d="M136.368 12.1992C136.352 12.3033 136.334 12.4097 136.314 12.519C135.618 16.2132 133.236 17.4894 130.194 17.4894H128.645C128.273 17.4894 127.96 17.7685 127.902 18.1478L126.885 24.8188C126.847 25.0679 127.033 25.2923 127.276 25.2923H130.023C130.348 25.2923 130.624 25.0481 130.675 24.7165L130.702 24.5723L131.219 21.18L131.253 20.994C131.303 20.6613 131.58 20.4169 131.905 20.4169H132.316C134.978 20.4169 137.061 19.3002 137.67 16.0684C137.924 14.7184 137.793 13.5911 137.119 12.7983C136.916 12.5593 136.663 12.3608 136.368 12.1992Z" fill="#298FC2"/>
<path fill-rule="evenodd" clip-rule="evenodd" d="M135.639 11.8994C135.532 11.8673 135.423 11.8383 135.31 11.812C135.197 11.7864 135.081 11.7638 134.962 11.7439C134.544 11.6742 134.087 11.6411 133.597 11.6411H129.459C129.357 11.6411 129.26 11.6649 129.174 11.7079C128.983 11.8027 128.841 11.9894 128.807 12.218L127.927 17.9801L127.901 18.1481C127.959 17.7688 128.273 17.4897 128.645 17.4897H130.194C133.235 17.4897 135.617 16.2128 136.313 12.5193C136.334 12.41 136.351 12.3036 136.367 12.1995C136.191 12.1028 136 12.0202 135.795 11.9499C135.744 11.9324 135.692 11.9156 135.639 11.8994Z" fill="#22284F"/>
<path fill-rule="evenodd" clip-rule="evenodd" d="M128.807 12.2179C128.842 11.9894 128.983 11.8026 129.174 11.7085C129.261 11.6653 129.358 11.6415 129.46 11.6415H133.597C134.087 11.6415 134.545 11.6747 134.962 11.7445C135.081 11.7642 135.197 11.787 135.311 11.8126C135.423 11.8386 135.533 11.8678 135.639 11.8997C135.692 11.916 135.744 11.933 135.796 11.9498C136.001 12.0201 136.192 12.1034 136.368 12.1994C136.575 10.8342 136.366 9.90471 135.652 9.06303C134.865 8.13631 133.444 7.73975 131.626 7.73975H126.347C125.975 7.73975 125.659 8.01884 125.601 8.39878L123.402 22.8036C123.359 23.0885 123.572 23.3456 123.85 23.3456H127.109L128.807 12.2179Z" fill="#28356A"/>
<rect x="108.5" y="0.599609" width="45" height="31" rx="3.5" stroke="#F2F4F7"/>
<rect x="162.5" y="0.599609" width="45" height="31" rx="3.5" fill="#1F72CD"/>
<path fill-rule="evenodd" clip-rule="evenodd" d="M170.127 11.4331L165.886 21.0954H170.963L171.593 19.5549H173.032L173.661 21.0954H179.25V19.9196L179.748 21.0954H182.639L183.137 19.8948V21.0954H194.761L196.175 19.5949L197.498 21.0954L203.468 21.1079L199.213 16.2912L203.468 11.4331H197.591L196.215 12.9059L194.933 11.4331H182.288L181.202 13.927L180.091 11.4331H175.024V12.5689L174.46 11.4331H170.127ZM171.11 12.8052H173.585L176.398 19.3572V12.8052H179.11L181.283 17.503L183.285 12.8052H185.983V19.7385H184.341L184.328 14.3056L181.935 19.7385H180.466L178.06 14.3056V19.7385H174.683L174.042 18.1842H170.584L169.945 19.7372H168.135L171.11 12.8052ZM194.16 12.8052H187.485V19.7344H194.056L196.175 17.438L198.216 19.7344H200.35L197.248 16.2899L200.35 12.8052H198.309L196.201 15.0753L194.16 12.8052ZM172.314 13.9783L171.174 16.7472H173.452L172.314 13.9783ZM189.133 15.5064V14.2407V14.2395H193.298L195.115 16.2637L193.218 18.2989H189.133V16.9171H192.775V15.5064H189.133Z" fill="white"/>
<rect x="162.5" y="0.599609" width="45" height="31" rx="3.5" stroke="#F2F4F7"/>
<rect x="216.5" y="0.599609" width="45" height="31" rx="3.5" fill="white"/>
<path d="M245.309 16.0384C246.018 16.0538 246.73 16.0071 247.435 16.0627C248.15 16.196 248.322 17.2776 247.687 17.6319C247.254 17.8652 246.74 17.7188 246.27 17.7599H245.309V16.0384ZM247.845 14.0899C248.002 14.6454 247.467 15.1441 246.932 15.0676H245.309C245.321 14.5438 245.287 13.9752 245.326 13.4789C245.976 13.4973 246.632 13.4416 247.278 13.508C247.556 13.5778 247.788 13.8061 247.845 14.0899ZM251.75 5.85209C251.78 6.91294 251.755 8.02987 251.763 9.11224C251.761 13.5128 251.767 17.9132 251.76 22.314C251.731 23.9632 250.27 25.3962 248.632 25.4291C246.993 25.4358 245.353 25.4301 243.713 25.432V18.7793C245.5 18.7701 247.287 18.798 249.073 18.7653C249.901 18.7133 250.809 18.1667 250.847 17.2551C250.945 16.3396 250.081 15.7063 249.262 15.6063C248.947 15.5981 248.956 15.5145 249.262 15.478C250.044 15.309 250.657 14.5 250.427 13.6898C250.231 12.8377 249.29 12.5079 248.506 12.5095C246.909 12.4987 245.311 12.508 243.714 12.5048C243.724 11.2629 243.692 10.0195 243.731 8.77848C243.857 7.15905 245.356 5.82354 246.971 5.85251C248.564 5.85227 250.157 5.85227 251.75 5.85221V5.85209Z" fill="url(#paint0_linear_1210_121240)"/>
<path d="M225.662 8.94602C225.703 7.29943 227.171 5.87815 228.806 5.85409C230.44 5.84905 232.073 5.85336 233.706 5.8519C233.702 11.3611 233.715 16.8708 233.7 22.3797C233.637 24.0062 232.185 25.4004 230.567 25.4292C228.931 25.4352 227.294 25.4301 225.658 25.4317V18.5547C227.247 18.9303 228.914 19.0901 230.536 18.841C231.505 18.6851 232.566 18.209 232.894 17.2034C233.135 16.3432 232.999 15.4379 233.035 14.555V12.5046H230.229C230.216 13.8607 230.255 15.2191 230.209 16.5735C230.133 17.4061 229.309 17.935 228.523 17.9067C227.55 17.9171 225.62 17.201 225.62 17.201C225.615 14.6604 225.648 11.4785 225.662 8.94627V8.94602Z" fill="url(#paint1_linear_1210_121240)"/>
<path d="M234.753 13.332C234.605 13.3633 234.723 12.8288 234.686 12.626C234.696 11.344 234.665 10.0605 234.703 8.77941C234.829 7.15313 236.339 5.81429 237.96 5.85235H242.735C242.73 11.3615 242.744 16.8713 242.728 22.3801C242.665 24.0067 241.213 25.4008 239.595 25.4297C237.959 25.4359 236.322 25.4306 234.686 25.4322V17.8976C235.803 18.8146 237.322 18.9574 238.715 18.9599C239.765 18.9595 240.808 18.7977 241.828 18.5556V17.1752C240.679 17.7478 239.328 18.1115 238.055 17.7825C237.166 17.5614 236.521 16.7028 236.536 15.786C236.433 14.8325 236.992 13.8259 237.929 13.5425C239.092 13.1783 240.36 13.4568 241.45 13.9303C241.684 14.0526 241.921 14.2044 241.828 13.8139V12.7289C240.004 12.295 238.063 12.1353 236.231 12.6074C235.701 12.757 235.184 12.9839 234.753 13.3321V13.332Z" fill="url(#paint2_linear_1210_121240)"/>
<rect x="216.5" y="0.599609" width="45" height="31" rx="3.5" stroke="#F2F4F7"/>
<rect x="270.5" y="0.599609" width="45" height="31" rx="3.5" fill="white"/>
<path d="M295 31.0996L314 25.3496V28.0996C314 29.7565 312.657 31.0996 311 31.0996H295Z" fill="#FD6020"/>
<path fill-rule="evenodd" clip-rule="evenodd" d="M309.192 12.2474C310.585 12.2474 311.352 12.8921 311.352 14.1099C311.422 15.0412 310.794 15.8292 309.958 15.9725L311.84 18.623H310.376L308.773 16.0441H308.634V18.623H307.449V12.2474H309.192ZM308.634 15.1845H308.982C309.749 15.1845 310.097 14.8263 310.097 14.1816C310.097 13.6085 309.749 13.2503 308.982 13.2503H308.634V15.1845ZM303.338 18.623H306.683V17.5485H304.523V15.8292H306.613V14.7547H304.523V13.3219H306.683V12.2474H303.338V18.623ZM299.854 16.5456L298.251 12.2474H296.996L299.575 18.7663H300.202L302.78 12.2474H301.526L299.854 16.5456ZM285.707 15.471C285.707 17.2619 287.101 18.7663 288.843 18.7663C289.401 18.7663 289.888 18.623 290.376 18.4081V16.9754C290.028 17.4052 289.54 17.6917 288.983 17.6917C287.868 17.6917 286.962 16.8321 286.962 15.6859V15.5427C286.892 14.3965 287.798 13.3936 288.913 13.3219C289.47 13.3219 290.028 13.6085 290.376 14.0383V12.6056C289.958 12.319 289.401 12.2474 288.913 12.2474C287.101 12.1041 285.707 13.6085 285.707 15.471ZM283.547 14.683C282.85 14.3965 282.641 14.2532 282.641 13.895C282.711 13.4652 283.059 13.107 283.477 13.1787C283.826 13.1787 284.174 13.3936 284.453 13.6801L285.08 12.8205C284.592 12.3907 283.965 12.1041 283.338 12.1041C282.362 12.0325 281.526 12.8205 281.456 13.8234V13.895C281.456 14.7547 281.805 15.2561 282.92 15.6143C283.199 15.6859 283.477 15.8292 283.756 15.9725C283.965 16.1157 284.105 16.3307 284.105 16.6172C284.105 17.1187 283.686 17.5485 283.268 17.5485H283.199C282.641 17.5485 282.153 17.1903 281.944 16.6888L281.178 17.4768C281.596 18.2648 282.432 18.6946 283.268 18.6946C284.383 18.7663 285.289 17.9066 285.359 16.7605V16.5456C285.289 15.6859 284.941 15.2561 283.547 14.683ZM279.505 18.623H280.69V12.2474H279.505V18.623ZM274 12.2474H275.742H276.091C277.763 12.3191 279.087 13.7518 279.017 15.471C279.017 16.4023 278.599 17.2619 277.902 17.9067C277.275 18.4081 276.509 18.6947 275.742 18.623H274V12.2474ZM275.533 17.5485C276.091 17.6201 276.718 17.4052 277.136 17.047C277.554 16.6172 277.763 16.0441 277.763 15.3994C277.763 14.8263 277.554 14.2532 277.136 13.8234C276.718 13.4652 276.091 13.2503 275.533 13.3219H275.185V17.5485H275.533Z" fill="black"/>
<path fill-rule="evenodd" clip-rule="evenodd" d="M293.93 12.0996C292.188 12.0996 290.725 13.5323 290.725 15.3949C290.725 17.1858 292.118 18.6901 293.93 18.7618C295.742 18.8334 297.136 17.329 297.206 15.4665C297.136 13.604 295.742 12.0996 293.93 12.0996V12.0996Z" fill="#FD6020"/>
<rect x="270.5" y="0.599609" width="45" height="31" rx="3.5" stroke="#F2F4F7"/>
<rect x="324.5" y="0.599609" width="45" height="31" rx="3.5" fill="white"/>
<path fill-rule="evenodd" clip-rule="evenodd" d="M345.118 25.8328H348.579C353.983 25.8328 358.288 21.5462 358.457 16.2508V16.1668C358.373 10.7874 353.983 6.41665 348.579 6.5007H344.696C339.546 6.66881 335.493 11.0396 335.662 16.2508C335.662 21.4621 339.883 25.7488 345.118 25.8328ZM337.351 16.1667C337.351 11.796 340.981 8.18172 345.371 8.18172C349.761 8.18172 353.392 11.796 353.392 16.1667C353.392 20.5375 349.761 24.1518 345.371 24.1518C340.981 24.1518 337.351 20.5375 337.351 16.1667ZM346.638 21.5461V10.8714C349.592 11.6279 351.45 14.5697 350.69 17.5116C350.183 19.5289 348.664 21.0418 346.638 21.5461ZM340.137 14.8219C339.377 17.7637 341.15 20.7896 344.105 21.5461V10.8714C342.163 11.3757 340.643 12.8887 340.137 14.8219Z" fill="#0079BE"/>
<rect x="324.5" y="0.599609" width="45" height="31" rx="3.5" stroke="#F2F4F7"/>
<rect x="378.5" y="0.599609" width="45" height="31" rx="3.5" fill="white"/>
<path d="M392.025 6.76709H399.169C400.166 6.76709 400.786 7.60386 400.554 8.63387L397.228 23.3344C396.993 24.3608 395.994 25.1983 394.996 25.1983H387.853C386.857 25.1983 386.235 24.3608 386.468 23.3344L389.795 8.63387C390.028 7.60386 391.026 6.76709 392.025 6.76709Z" fill="#E21836"/>
<path d="M398.574 6.76611H406.79C407.787 6.76611 407.337 7.60288 407.102 8.63289L403.777 23.3334C403.544 24.3598 403.616 25.1973 402.617 25.1973H394.401C393.402 25.1973 392.784 24.3598 393.019 23.3334L396.344 8.63289C396.58 7.60288 397.576 6.76611 398.574 6.76611Z" fill="#00447C"/>
<path d="M406.464 6.76611H413.608C414.607 6.76611 415.227 7.60288 414.992 8.63289L411.667 23.3334C411.432 24.3598 410.433 25.1973 409.434 25.1973H402.293C401.294 25.1973 400.675 24.3598 400.909 23.3334L404.235 8.63289C404.467 7.60288 405.465 6.76611 406.464 6.76611Z" fill="#007B84"/>
<path d="M393.89 11.4771C393.155 11.4848 392.938 11.4771 392.869 11.4603C392.842 11.5906 392.347 13.9448 392.345 13.9467C392.238 14.423 392.161 14.7625 391.897 14.9818C391.747 15.1092 391.572 15.1707 391.37 15.1707C391.044 15.1707 390.854 15.0042 390.822 14.6883L390.816 14.5799C390.816 14.5799 390.915 13.9419 390.915 13.9383C390.915 13.9383 391.436 11.793 391.529 11.5094C391.534 11.4933 391.535 11.4848 391.536 11.4771C390.524 11.4863 390.344 11.4771 390.332 11.4603C390.325 11.4834 390.3 11.6164 390.3 11.6164L389.769 14.0344L389.723 14.2395L389.635 14.9103C389.635 15.1092 389.673 15.2716 389.748 15.4089C389.99 15.8444 390.681 15.9096 391.071 15.9096C391.575 15.9096 392.047 15.7995 392.366 15.5986C392.919 15.2618 393.064 14.7353 393.193 14.2674L393.253 14.0274C393.253 14.0274 393.789 11.7993 393.88 11.5094C393.884 11.4933 393.885 11.4848 393.89 11.4771ZM395.714 13.2746C395.584 13.2746 395.348 13.3069 395.136 13.4139C395.059 13.4546 394.986 13.5015 394.91 13.5483L394.979 13.2907L394.941 13.2474C394.491 13.3411 394.391 13.3537 393.975 13.4139L393.94 13.4377C393.892 13.8495 393.849 14.1591 393.67 14.9684C393.602 15.2667 393.532 15.5678 393.461 15.8654L393.48 15.9032C393.906 15.8801 394.035 15.8801 394.405 15.8864L394.435 15.8529C394.482 15.6049 394.488 15.5469 394.592 15.0448C394.641 14.8067 394.743 14.2836 394.793 14.0974C394.886 14.0533 394.977 14.0099 395.064 14.0099C395.272 14.0099 395.246 14.1962 395.238 14.2704C395.229 14.395 395.154 14.8019 395.076 15.1512L395.025 15.3768C394.989 15.5433 394.949 15.7052 394.913 15.8702L394.929 15.9032C395.348 15.8801 395.476 15.8801 395.835 15.8864L395.877 15.8529C395.942 15.4657 395.961 15.3621 396.076 14.7983L396.133 14.5393C396.246 14.0323 396.302 13.7753 396.217 13.5659C396.127 13.3313 395.912 13.2746 395.714 13.2746ZM397.751 13.8054C397.528 13.8495 397.386 13.8789 397.244 13.8979C397.104 13.921 396.967 13.942 396.752 13.9728L396.735 13.9887L396.719 14.0015C396.697 14.1668 396.681 14.3096 396.651 14.4776C396.626 14.6513 396.587 14.8486 396.524 15.1322C396.475 15.3493 396.45 15.425 396.422 15.5013C396.395 15.5777 396.365 15.6519 396.31 15.8654L396.322 15.8851L396.333 15.9032C396.535 15.8934 396.667 15.8864 396.802 15.8851C396.937 15.8801 397.078 15.8851 397.294 15.8864L397.313 15.8704L397.334 15.8528C397.365 15.6603 397.37 15.6085 397.389 15.5146C397.408 15.4138 397.441 15.2744 397.521 14.9019C397.559 14.7269 397.601 14.5525 397.641 14.374C397.682 14.1961 397.724 14.021 397.765 13.8461L397.759 13.8249L397.751 13.8054ZM397.756 13.0897C397.553 12.9666 397.197 13.0057 396.958 13.1758C396.719 13.3425 396.692 13.5791 396.894 13.7039C397.093 13.8236 397.45 13.7879 397.688 13.6164C397.926 13.4461 397.956 13.2116 397.756 13.0897ZM398.981 15.9418C399.392 15.9418 399.812 15.8255 400.128 15.4802C400.372 15.2002 400.483 14.7836 400.522 14.6121C400.648 14.0435 400.55 13.778 400.427 13.6163C400.24 13.3698 399.909 13.2908 399.566 13.2908C399.36 13.2908 398.869 13.3117 398.486 13.6758C398.21 13.9384 398.083 14.2948 398.006 14.6365C397.928 14.9846 397.839 15.6113 398.399 15.8445C398.572 15.9208 398.821 15.9418 398.981 15.9418ZM398.949 14.6624C399.044 14.2319 399.156 13.8705 399.44 13.8705C399.664 13.8705 399.68 14.1394 399.581 14.5714C399.563 14.6673 399.481 15.0238 399.371 15.1757C399.294 15.2877 399.203 15.3556 399.102 15.3556C399.073 15.3556 398.894 15.3556 398.892 15.0833C398.89 14.9489 398.917 14.8116 398.949 14.6624ZM401.547 15.8864L401.579 15.8529C401.625 15.605 401.632 15.5467 401.733 15.0448C401.783 14.8068 401.887 14.2837 401.936 14.0974C402.029 14.0532 402.119 14.0098 402.208 14.0098C402.414 14.0098 402.389 14.196 402.381 14.2703C402.374 14.395 402.298 14.8018 402.219 15.1511L402.17 15.3766C402.133 15.5433 402.092 15.705 402.056 15.8703L402.072 15.9033C402.493 15.8802 402.616 15.8802 402.976 15.8864L403.02 15.8529C403.083 15.4655 403.1 15.3619 403.219 14.7983L403.275 14.5391C403.388 14.0322 403.445 13.7753 403.361 13.566C403.269 13.3313 403.052 13.2747 402.857 13.2747C402.727 13.2747 402.49 13.3067 402.279 13.4139C402.204 13.4546 402.128 13.5014 402.054 13.5484L402.119 13.2908L402.084 13.2472C401.634 13.3412 401.532 13.3537 401.117 13.4139L401.085 13.4378C401.034 13.8495 400.993 14.1589 400.815 14.9685C400.747 15.2667 400.676 15.5679 400.605 15.8655L400.624 15.9033C401.051 15.8802 401.178 15.8802 401.547 15.8864ZM404.641 15.9032C404.667 15.7702 404.824 14.9818 404.826 14.9818C404.826 14.9818 404.96 14.4034 404.968 14.3824C404.968 14.3824 405.01 14.3221 405.052 14.2983H405.114C405.699 14.2983 406.36 14.2983 406.877 13.9063C407.23 13.6374 407.47 13.2403 407.578 12.7578C407.606 12.6395 407.626 12.4987 407.626 12.358C407.626 12.1732 407.59 11.9904 407.486 11.8475C407.222 11.4673 406.696 11.4603 406.09 11.4574C406.088 11.4574 405.79 11.4603 405.79 11.4603C405.014 11.4702 404.702 11.4673 404.574 11.4512C404.563 11.5094 404.543 11.613 404.543 11.613C404.543 11.613 404.265 12.9406 404.265 12.9428C404.265 12.9428 403.599 15.7653 403.567 15.8984C404.246 15.8899 404.524 15.8899 404.641 15.9032ZM405.156 13.5449C405.156 13.5449 405.452 12.22 405.451 12.225L405.46 12.1571L405.465 12.1053L405.583 12.1178C405.583 12.1178 406.193 12.1718 406.207 12.1732C406.448 12.2691 406.547 12.5163 406.478 12.839C406.415 13.1339 406.229 13.3818 405.99 13.5015C405.794 13.603 405.553 13.6114 405.305 13.6114H405.144L405.156 13.5449ZM406.998 14.687C406.92 15.0301 406.83 15.6568 407.387 15.8801C407.565 15.9579 407.724 15.981 407.886 15.9726C408.057 15.9631 408.215 15.8749 408.362 15.748C408.349 15.8002 408.335 15.8523 408.322 15.9047L408.347 15.9382C408.748 15.9208 408.872 15.9208 409.306 15.9242L409.346 15.8934C409.409 15.5098 409.469 15.1373 409.634 14.4034C409.714 14.0519 409.794 13.7038 409.876 13.3537L409.864 13.3151C409.415 13.4006 409.295 13.4189 408.864 13.4818L408.832 13.5093C408.827 13.5449 408.823 13.5792 408.819 13.6134C408.751 13.5019 408.654 13.4067 408.504 13.3474C408.313 13.2698 407.862 13.3698 407.475 13.7326C407.203 13.9917 407.073 14.3466 406.998 14.687ZM407.94 14.708C408.036 14.2851 408.146 13.9273 408.432 13.9273C408.612 13.9273 408.707 14.0988 408.688 14.3914C408.673 14.4644 408.656 14.5413 408.636 14.6282C408.608 14.7539 408.577 14.8784 408.547 15.0032C408.516 15.0885 408.48 15.169 408.441 15.2226C408.368 15.3298 408.193 15.3963 408.092 15.3963C408.064 15.3963 407.887 15.3963 407.881 15.1289C407.88 14.9957 407.907 14.8585 407.94 14.708ZM412.856 13.3117L412.821 13.271C412.378 13.3635 412.297 13.3782 411.89 13.4349L411.86 13.4657C411.858 13.4707 411.857 13.4784 411.855 13.4854L411.854 13.4784C411.55 14.1989 411.559 14.0434 411.312 14.6106C411.311 14.5848 411.311 14.5687 411.31 14.5412L411.248 13.3117L411.209 13.271C410.744 13.3635 410.733 13.3782 410.304 13.4349L410.271 13.4657C410.266 13.4804 410.266 13.4965 410.263 13.5141L410.266 13.5204C410.32 13.8025 410.307 13.7396 410.361 14.1849C410.386 14.4034 410.419 14.6232 410.444 14.839C410.487 15.2002 410.51 15.378 410.562 15.9292C410.272 16.4215 410.204 16.6077 409.925 17.0397L409.927 17.044L409.73 17.3638C409.708 17.3975 409.687 17.4206 409.659 17.4305C409.627 17.4465 409.587 17.4493 409.53 17.4493H409.421L409.26 18.0032L409.814 18.0131C410.14 18.0116 410.345 17.8548 410.455 17.644L410.804 17.0284H410.799L410.835 16.985C411.07 16.4648 412.856 13.3117 412.856 13.3117ZM406.998 20.5864H406.763L407.634 17.6195H407.923L408.015 17.3139L408.024 17.6538C408.013 17.8638 408.174 18.0501 408.596 18.0193H409.083L409.251 17.448H409.068C408.962 17.448 408.913 17.4205 408.919 17.3618L408.91 17.016H408.007V17.0178C407.715 17.024 406.843 17.0466 406.667 17.095C406.453 17.1517 406.228 17.3184 406.228 17.3184L406.316 17.0124H405.471L405.295 17.6195L404.412 20.6318H404.241L404.073 21.1989H405.756L405.699 21.388H406.528L406.583 21.1989H406.816L406.998 20.5864ZM406.308 18.2224C406.173 18.2609 405.921 18.3778 405.921 18.3778L406.145 17.6195H406.816L406.654 18.172C406.654 18.172 406.447 18.1845 406.308 18.2224ZM406.321 19.3056C406.321 19.3056 406.11 19.3329 405.971 19.3651C405.835 19.4078 405.578 19.5422 405.578 19.5422L405.809 18.7531H406.484L406.321 19.3056ZM405.945 20.5934H405.271L405.467 19.9275H406.138L405.945 20.5934ZM407.566 18.7531H408.537L408.398 19.2181H407.414L407.266 19.7265H408.127L407.475 20.671C407.43 20.7404 407.389 20.7649 407.343 20.7845C407.298 20.8083 407.238 20.8363 407.169 20.8363H406.93L406.766 21.3931H407.39C407.715 21.3931 407.906 21.241 408.048 21.0415L408.495 20.412L408.591 21.0512C408.611 21.171 408.695 21.241 408.751 21.2683C408.814 21.3006 408.879 21.356 408.97 21.3642C409.068 21.3685 409.138 21.3719 409.185 21.3719H409.492L409.676 20.7488H409.555C409.486 20.7488 409.366 20.7368 409.346 20.7144C409.326 20.6871 409.326 20.6452 409.315 20.5814L409.217 19.9407H408.819L408.993 19.7265H409.975L410.126 19.2181H409.217L409.359 18.7531H410.265L410.433 18.1797H407.732L407.566 18.7531ZM399.368 20.7229L399.595 19.947H400.526L400.696 19.37H399.764L399.907 18.8925H400.817L400.986 18.3337H398.707L398.542 18.8925H399.06L398.922 19.37H398.403L398.23 19.9569H398.748L398.446 20.9833C398.405 21.1192 398.465 21.171 398.503 21.2341C398.542 21.2956 398.581 21.3363 398.67 21.3594C398.761 21.3804 398.824 21.3929 398.909 21.3929H399.958L400.145 20.7537L399.68 20.8195C399.59 20.8195 399.341 20.8084 399.368 20.7229ZM399.475 17.0089L399.239 17.4479C399.189 17.5438 399.143 17.6033 399.102 17.6307C399.066 17.6539 398.995 17.6635 398.892 17.6635H398.768L398.604 18.2251H399.013C399.209 18.2251 399.36 18.1509 399.432 18.1138C399.51 18.0712 399.53 18.0955 399.59 18.036L399.728 17.9129H401.005L401.174 17.3281H400.24L400.403 17.0089H399.475ZM401.36 20.7341C401.338 20.7019 401.354 20.6451 401.387 20.5267L401.736 19.3377H402.978C403.159 19.335 403.289 19.3329 403.374 19.3266C403.465 19.3168 403.565 19.2832 403.673 19.223C403.784 19.1599 403.842 19.0934 403.89 19.017C403.944 18.9409 404.03 18.7742 404.104 18.5171L404.543 17.0124L403.255 17.0201C403.255 17.0201 402.858 17.0804 402.683 17.1469C402.507 17.2211 402.255 17.4283 402.255 17.4283L402.372 17.0158H401.576L400.462 20.8195C400.422 20.9672 400.396 21.0744 400.39 21.1387C400.387 21.2081 400.474 21.2768 400.531 21.3286C400.598 21.3804 400.696 21.3719 400.791 21.3804C400.89 21.3881 401.032 21.3929 401.227 21.3929H401.838L402.026 20.7404L401.479 20.7937C401.42 20.7937 401.378 20.7614 401.36 20.7341ZM401.961 18.5347H403.265L403.182 18.8021C403.171 18.8084 403.143 18.7889 403.01 18.805H401.881L401.961 18.5347ZM402.223 17.6377H403.538L403.443 17.9598C403.443 17.9598 402.823 17.9535 402.724 17.9723C402.287 18.0501 402.032 18.2903 402.032 18.2903L402.223 17.6377ZM403.212 19.6977C403.201 19.7377 403.184 19.7621 403.16 19.7804C403.133 19.7979 403.091 19.8042 403.027 19.8042H402.841L402.852 19.4785H402.079L402.048 21.0708C402.047 21.1857 402.057 21.2523 402.139 21.3055C402.221 21.372 402.472 21.3804 402.811 21.3804H403.295L403.47 20.7844L403.048 20.8082L402.908 20.8167C402.889 20.8082 402.871 20.8005 402.85 20.7796C402.833 20.7614 402.803 20.7726 402.808 20.6577L402.811 20.2495L403.253 20.2307C403.492 20.2307 403.594 20.1507 403.681 20.0745C403.764 20.0016 403.791 19.9177 403.823 19.8042L403.897 19.4428H403.289L403.212 19.6977Z" fill="#FEFEFE"/>
<rect x="378.5" y="0.599609" width="45" height="31" rx="3.5" stroke="#F2F4F7"/>
<defs>
<linearGradient id="paint0_linear_1210_121240" x1="243.658" y1="15.2234" x2="251.712" y2="15.2234" gradientUnits="userSpaceOnUse">
<stop stop-color="#58B03A"/>
<stop offset="1" stop-color="#55B330"/>
</linearGradient>
<linearGradient id="paint1_linear_1210_121240" x1="225.486" y1="15.8293" x2="233.575" y2="15.8293" gradientUnits="userSpaceOnUse">
<stop stop-color="#0F6EB6"/>
<stop offset="1" stop-color="#006DBA"/>
</linearGradient>
<linearGradient id="paint2_linear_1210_121240" x1="234.674" y1="15.4133" x2="242.733" y2="15.4133" gradientUnits="userSpaceOnUse">
<stop stop-color="#DE0D3D"/>
<stop offset="1" stop-color="#E30138"/>
</linearGradient>
</defs>
</svg>
