<svg width="206" height="210" viewBox="0 0 206 210" fill="none" xmlns="http://www.w3.org/2000/svg">
<path d="M38.3061 136.808C59.462 136.808 76.6122 119.658 76.6122 98.5016C76.6122 77.3457 59.462 60.1954 38.3061 60.1954C17.1502 60.1954 0 77.3457 0 98.5016C0 119.658 17.1502 136.808 38.3061 136.808Z" fill="#E8EBEC"/>
<path d="M89.6092 65.6678C107.743 65.6678 122.443 50.9675 122.443 32.8339C122.443 14.7002 107.743 0 89.6092 0C71.4756 0 56.7754 14.7002 56.7754 32.8339C56.7754 50.9675 71.4756 65.6678 89.6092 65.6678Z" fill="#E8EBEC"/>
<path d="M150.489 210C180.711 210 205.212 185.5 205.212 155.277C205.212 125.054 180.711 100.554 150.489 100.554C120.266 100.554 95.7656 125.054 95.7656 155.277C95.7656 185.5 120.266 210 150.489 210Z" fill="#E8EBEC"/>
<path d="M151.172 18.4691H41.7265C38.7042 18.4691 36.2542 20.9192 36.2542 23.9415V188.111C36.2542 191.133 38.7042 193.583 41.7265 193.583H151.172C154.195 193.583 156.645 191.133 156.645 188.111V23.9415C156.645 20.9192 154.195 18.4691 151.172 18.4691Z" fill="#BDC3D8"/>
<path d="M41.7265 18.4691H148.436V179.902C148.436 182.912 145.974 185.375 142.964 185.375H36.2542V23.9415C36.2542 20.9317 38.7167 18.4691 41.7265 18.4691Z" fill="white"/>
<path d="M151.173 195.635H41.7266C37.5676 195.635 34.2021 192.27 34.2021 188.111V23.9414C34.2021 19.7825 37.5676 16.417 41.7266 16.417H151.173C155.332 16.417 158.697 19.7825 158.697 23.9414V188.111C158.697 192.27 155.332 195.635 151.173 195.635ZM41.7266 20.5212C39.8386 20.5212 38.3064 22.0535 38.3064 23.9414V188.111C38.3064 189.999 39.8386 191.531 41.7266 191.531H151.173C153.061 191.531 154.593 189.999 154.593 188.111V23.9414C154.593 22.0535 153.061 20.5212 151.173 20.5212H41.7266Z" fill="#21365F"/>
<path d="M112.866 193.583H41.7265C38.7167 193.583 36.2542 191.121 36.2542 188.111V23.9415C36.2542 20.9317 38.7167 18.4691 41.7265 18.4691H134.756C137.765 18.4691 140.228 20.9317 140.228 23.9415V166.222L112.866 193.583Z" fill="#BDC3D8"/>
<path d="M121.075 185.375H36.2542V23.9415C36.2542 20.9317 38.7167 18.4691 41.7265 18.4691H132.019V174.43L121.075 185.375Z" fill="white"/>
<path d="M112.866 195.635H41.7266C37.5676 195.635 34.2021 192.27 34.2021 188.111V23.9414C34.2021 19.7825 37.5676 16.417 41.7266 16.417H134.756C138.915 16.417 142.28 19.7825 142.28 23.9414V166.222C142.28 166.769 142.061 167.289 141.678 167.672L114.317 195.033C113.934 195.416 113.414 195.635 112.866 195.635ZM41.7266 20.5212C39.8386 20.5212 38.3064 22.0535 38.3064 23.9414V188.111C38.3064 189.999 39.8386 191.531 41.7266 191.531H112.018L138.176 165.373V23.9414C138.176 22.0535 136.644 20.5212 134.756 20.5212H41.7266Z" fill="#21365F"/>
<path d="M36.2541 50.6188H30.7818C25.118 50.6188 20.5212 46.0221 20.5212 40.3582C20.5212 34.6944 25.118 30.0977 30.7818 30.0977H41.7264C47.3902 30.0977 51.987 34.6944 51.987 40.3582C51.987 41.4801 51.0567 42.4104 49.9349 42.4104C48.813 42.4104 47.8828 41.4801 47.8828 40.3582C47.8828 36.9654 45.1192 34.2019 41.7264 34.2019H30.7818C27.389 34.2019 24.6255 36.9654 24.6255 40.3582C24.6255 43.7511 27.389 46.5146 30.7818 46.5146H36.2541C37.3759 46.5146 38.3062 47.4449 38.3062 48.5667C38.3062 49.6885 37.3759 50.6188 36.2541 50.6188Z" fill="#21365F"/>
<path d="M36.2541 83.4527H30.7818C25.118 83.4527 20.5212 78.8559 20.5212 73.1921C20.5212 67.5283 25.118 62.9315 30.7818 62.9315H41.7264C47.3902 62.9315 51.987 67.5283 51.987 73.1921C51.987 74.3139 51.0567 75.2442 49.9349 75.2442C48.813 75.2442 47.8828 74.3139 47.8828 73.1921C47.8828 69.7993 45.1192 67.0358 41.7264 67.0358H30.7818C27.389 67.0358 24.6255 69.7993 24.6255 73.1921C24.6255 76.5849 27.389 79.3485 30.7818 79.3485H36.2541C37.3759 79.3485 38.3062 80.2788 38.3062 81.4006C38.3062 82.5224 37.3759 83.4527 36.2541 83.4527Z" fill="#21365F"/>
<path d="M36.2541 116.287H30.7818C25.118 116.287 20.5212 111.69 20.5212 106.026C20.5212 100.362 25.118 95.7655 30.7818 95.7655H41.7264C47.3902 95.7655 51.987 100.362 51.987 106.026C51.987 107.148 51.0567 108.078 49.9349 108.078C48.813 108.078 47.8828 107.148 47.8828 106.026C47.8828 102.633 45.1192 99.8697 41.7264 99.8697H30.7818C27.389 99.8697 24.6255 102.633 24.6255 106.026C24.6255 109.419 27.389 112.182 30.7818 112.182H36.2541C37.3759 112.182 38.3062 113.113 38.3062 114.235C38.3062 115.356 37.3759 116.287 36.2541 116.287Z" fill="#21365F"/>
<path d="M36.2541 149.121H30.7818C25.118 149.121 20.5212 144.524 20.5212 138.86C20.5212 133.196 25.118 128.599 30.7818 128.599H41.7264C47.3902 128.599 51.987 133.196 51.987 138.86C51.987 139.982 51.0567 140.912 49.9349 140.912C48.813 140.912 47.8828 139.982 47.8828 138.86C47.8828 135.467 45.1192 132.704 41.7264 132.704H30.7818C27.389 132.704 24.6255 135.467 24.6255 138.86C24.6255 142.253 27.389 145.016 30.7818 145.016H36.2541C37.3759 145.016 38.3062 145.947 38.3062 147.068C38.3062 148.19 37.3759 149.121 36.2541 149.121Z" fill="#21365F"/>
<path d="M36.2541 181.954H30.7818C25.118 181.954 20.5212 177.358 20.5212 171.694C20.5212 166.03 25.118 161.433 30.7818 161.433H41.7264C47.3902 161.433 51.987 166.03 51.987 171.694C51.987 172.816 51.0567 173.746 49.9349 173.746C48.813 173.746 47.8828 172.816 47.8828 171.694C47.8828 168.301 45.1192 165.537 41.7264 165.537H30.7818C27.389 165.537 24.6255 168.301 24.6255 171.694C24.6255 175.087 27.389 177.85 30.7818 177.85H36.2541C37.3759 177.85 38.3062 178.78 38.3062 179.902C38.3062 181.024 37.3759 181.954 36.2541 181.954Z" fill="#21365F"/>
<path d="M112.866 166.222V193.583L140.228 166.222H112.866Z" fill="#BDC3D8"/>
<path d="M112.866 166.222V193.583L126.547 166.222H112.866Z" fill="white"/>
<path d="M112.867 195.635C112.593 195.635 112.347 195.58 112.073 195.471C111.307 195.143 110.814 194.404 110.814 193.583V166.222C110.814 165.1 111.745 164.169 112.867 164.169H140.228C141.049 164.169 141.815 164.662 142.116 165.428C142.444 166.194 142.253 167.07 141.678 167.672L114.317 195.033C113.934 195.416 113.414 195.635 112.867 195.635ZM114.919 168.274V188.631L135.276 168.274H114.919Z" fill="#21365F"/>
<path d="M101.264 117.409L170.927 47.7736L180.613 57.4596L114.836 123.237L101.264 117.409Z" fill="#BDC3D8"/>
<path d="M101.264 117.408L167.041 51.6312L170.899 55.4892C171.967 56.5563 171.967 58.2801 170.899 59.3472L109.391 120.856L101.264 117.381V117.408Z" fill="white"/>
<path d="M114.837 125.289C114.563 125.289 114.289 125.234 114.043 125.124L100.499 119.324C99.8698 119.05 99.432 118.503 99.2952 117.819C99.1584 117.162 99.3772 116.451 99.8697 115.986L169.532 46.3231C170.326 45.5297 171.639 45.5297 172.432 46.3231L182.118 56.0091C182.912 56.8026 182.912 58.116 182.118 58.9095L116.341 124.687C115.958 125.07 115.438 125.289 114.891 125.289H114.837ZM104.877 116.752L114.371 120.801L177.713 57.4593L170.955 50.701L104.904 116.752H104.877Z" fill="#21365F"/>
<path d="M120.636 136.78L114.836 123.237L180.613 57.4594L190.271 67.118L120.636 136.78Z" fill="#BDC3D8"/>
<path d="M118.31 131.336L114.836 123.209L176.755 61.2899L180.613 65.1479C181.68 66.215 181.68 67.9388 180.613 69.0059L118.31 131.308V131.336Z" fill="white"/>
<path d="M120.637 138.833C120.637 138.833 120.391 138.833 120.254 138.805C119.597 138.668 119.023 138.231 118.749 137.601L112.949 124.057C112.62 123.291 112.784 122.388 113.386 121.786L179.163 56.0092C179.93 55.243 181.298 55.243 182.064 56.0092L191.75 65.6952C192.133 66.0782 192.351 66.5981 192.351 67.1453C192.351 67.6926 192.133 68.2124 191.75 68.5955L122.115 138.231C121.731 138.614 121.212 138.833 120.664 138.833H120.637ZM117.271 123.702L121.321 133.169L187.372 67.118L180.586 60.3323L117.244 123.674L117.271 123.702Z" fill="#21365F"/>
<path d="M192.215 71.1129C191.695 71.1129 191.175 70.9214 190.765 70.5109L167.535 47.281C166.742 46.4875 166.742 45.1741 167.535 44.3806C168.329 43.5872 169.642 43.5872 170.435 44.3806L193.665 67.6106C194.459 68.4041 194.459 69.7175 193.665 70.5109C193.255 70.9214 192.735 71.1129 192.215 71.1129Z" fill="#21365F"/>
<path d="M101.266 117.409L114.837 123.237L120.638 136.781L97.4077 140.639L101.266 117.409Z" fill="#BDC3D8"/>
<path d="M99.979 125.152L106.984 128.162C108.27 128.709 109.309 129.749 109.856 131.034L112.866 138.039L97.3796 140.611L99.9516 125.124L99.979 125.152Z" fill="white"/>
<path d="M97.4069 142.691C96.8597 142.691 96.3397 142.472 95.9566 142.089C95.4915 141.624 95.2726 140.967 95.382 140.31L99.2401 117.08C99.3495 116.451 99.7326 115.931 100.28 115.603C100.827 115.302 101.511 115.274 102.058 115.521L115.602 121.321C116.095 121.54 116.478 121.923 116.669 122.388L122.47 135.932C122.716 136.507 122.689 137.164 122.388 137.738C122.087 138.286 121.54 138.669 120.91 138.778L97.6804 142.663C97.6804 142.663 97.4616 142.663 97.3521 142.663L97.4069 142.691ZM102.879 120.336L99.9241 138.149L117.736 135.166L113.277 124.796L102.879 120.336Z" fill="#21365F"/>
<path d="M184.351 42.0405L195.957 53.651C198.085 55.7796 198.084 59.2622 195.956 61.39L190.15 67.1933L170.806 47.8424L176.612 42.0391C178.74 39.9113 182.223 39.9119 184.351 42.0405Z" fill="#BDC3D8"/>
<path d="M176.866 41.8634L190.412 55.4043C191.476 56.4683 191.477 58.2095 190.413 59.2738L186.544 63.144L171.063 47.6687L176.866 41.8634Z" fill="white"/>
<path d="M190.272 69.1702C189.752 69.1702 189.232 68.9787 188.822 68.5682L169.477 49.2236C168.684 48.4301 168.684 47.1168 169.477 46.3233L175.278 40.5226C178.124 37.677 183.076 37.677 185.922 40.5226L197.523 52.1239C200.451 55.0516 200.451 59.8399 197.523 62.7676L191.722 68.5682C191.312 68.9787 190.792 69.1702 190.272 69.1702ZM173.828 47.7734L190.272 64.2177L194.623 59.8672C195.963 58.5265 195.963 56.365 194.623 55.0243L183.021 43.4229C181.735 42.137 179.492 42.137 178.178 43.4229L173.828 47.7734Z" fill="#21365F"/>
<path d="M123.81 44.189H114.836C113.714 44.189 112.784 43.2587 112.784 42.1368C112.784 41.015 113.714 40.0847 114.836 40.0847H123.81C124.932 40.0847 125.862 41.015 125.862 42.1368C125.862 43.2587 124.932 44.189 123.81 44.189Z" fill="#21365F"/>
<path d="M97.4072 142.691H80.9903C69.307 142.691 59.7852 133.169 59.7852 121.485C59.7852 109.802 69.307 100.28 80.9903 100.28H91.9349C98.3375 100.28 103.564 95.0541 103.564 88.6515C103.564 82.2489 98.3375 77.0228 91.9349 77.0228H87.8307C77.6522 77.0228 69.3617 68.7323 69.3617 58.5538C69.3617 48.3753 77.6522 40.0847 87.8307 40.0847H103.865C104.986 40.0847 105.917 41.015 105.917 42.1368C105.917 43.2587 104.986 44.189 103.865 44.189H87.8307C79.9232 44.189 73.4659 50.6463 73.4659 58.5538C73.4659 66.4613 79.9232 72.9186 87.8307 72.9186H91.9349C100.609 72.9186 107.668 79.9779 107.668 88.6515C107.668 97.3251 100.609 104.384 91.9349 104.384H80.9903C71.5506 104.384 63.8894 112.046 63.8894 121.485C63.8894 130.925 71.5506 138.586 80.9903 138.586H97.4072C98.5291 138.586 99.4593 139.517 99.4593 140.638C99.4593 141.76 98.5291 142.691 97.4072 142.691Z" fill="#21365F"/>
<path d="M178.534 190.163H167.589C166.467 190.163 165.537 189.233 165.537 188.111C165.537 186.989 166.467 186.059 167.589 186.059H178.534C179.655 186.059 180.586 186.989 180.586 188.111C180.586 189.233 179.655 190.163 178.534 190.163Z" fill="#21365F"/>
<path d="M173.061 195.635C171.94 195.635 171.009 194.705 171.009 193.583V182.638C171.009 181.517 171.94 180.586 173.061 180.586C174.183 180.586 175.114 181.517 175.114 182.638V193.583C175.114 194.705 174.183 195.635 173.061 195.635Z" fill="#21365F"/>
<path d="M173.061 173.746C174.195 173.746 175.114 172.827 175.114 171.694C175.114 170.56 174.195 169.642 173.061 169.642C171.928 169.642 171.009 170.56 171.009 171.694C171.009 172.827 171.928 173.746 173.061 173.746Z" fill="#21365F"/>
<path d="M173.061 165.537C174.195 165.537 175.114 164.619 175.114 163.485C175.114 162.352 174.195 161.433 173.061 161.433C171.928 161.433 171.009 162.352 171.009 163.485C171.009 164.619 171.928 165.537 173.061 165.537Z" fill="#21365F"/>
<path d="M173.061 154.593C174.195 154.593 175.114 153.674 175.114 152.541C175.114 151.407 174.195 150.489 173.061 150.489C171.928 150.489 171.009 151.407 171.009 152.541C171.009 153.674 171.928 154.593 173.061 154.593Z" fill="#21365F"/>
<path d="M173.061 138.176C174.195 138.176 175.114 137.257 175.114 136.124C175.114 134.99 174.195 134.072 173.061 134.072C171.928 134.072 171.009 134.99 171.009 136.124C171.009 137.257 171.928 138.176 173.061 138.176Z" fill="#21365F"/>
<path d="M197.687 92.3452H186.742C185.62 92.3452 184.69 91.4149 184.69 90.2931C184.69 89.1713 185.62 88.241 186.742 88.241H197.687C198.809 88.241 199.739 89.1713 199.739 90.2931C199.739 91.4149 198.809 92.3452 197.687 92.3452Z" fill="#21365F"/>
<path d="M192.214 97.8177C191.093 97.8177 190.162 96.8874 190.162 95.7655V84.8209C190.162 83.6991 191.093 82.7688 192.214 82.7688C193.336 82.7688 194.267 83.6991 194.267 84.8209V95.7655C194.267 96.8874 193.336 97.8177 192.214 97.8177Z" fill="#21365F"/>
<path d="M192.214 108.762C193.348 108.762 194.267 107.843 194.267 106.71C194.267 105.577 193.348 104.658 192.214 104.658C191.081 104.658 190.162 105.577 190.162 106.71C190.162 107.843 191.081 108.762 192.214 108.762Z" fill="#21365F"/>
<path d="M192.214 116.971C193.348 116.971 194.267 116.052 194.267 114.919C194.267 113.785 193.348 112.866 192.214 112.866C191.081 112.866 190.162 113.785 190.162 114.919C190.162 116.052 191.081 116.971 192.214 116.971Z" fill="#21365F"/>
<path d="M192.214 127.915C193.348 127.915 194.267 126.997 194.267 125.863C194.267 124.73 193.348 123.811 192.214 123.811C191.081 123.811 190.162 124.73 190.162 125.863C190.162 126.997 191.081 127.915 192.214 127.915Z" fill="#21365F"/>
<path d="M192.214 144.332C193.348 144.332 194.267 143.413 194.267 142.28C194.267 141.147 193.348 140.228 192.214 140.228C191.081 140.228 190.162 141.147 190.162 142.28C190.162 143.413 191.081 144.332 192.214 144.332Z" fill="#21365F"/>
</svg>
