<svg width="30" height="37" viewBox="0 0 30 37" fill="none" xmlns="http://www.w3.org/2000/svg">
<path d="M18.3334 16.8333H8.33341M11.6667 23.4999H8.33341M21.6667 10.1666H8.33341M28.3334 9.83325V27.1666C28.3334 29.9668 28.3334 31.367 27.7884 32.4365C27.3091 33.3773 26.5442 34.1423 25.6034 34.6216C24.5338 35.1666 23.1337 35.1666 20.3334 35.1666H9.66675C6.86649 35.1666 5.46635 35.1666 4.3968 34.6216C3.45599 34.1423 2.69108 33.3773 2.21172 32.4365C1.66675 31.367 1.66675 29.9668 1.66675 27.1666V9.83325C1.66675 7.03299 1.66675 5.63286 2.21172 4.5633C2.69108 3.62249 3.45599 2.85759 4.3968 2.37822C5.46635 1.83325 6.86649 1.83325 9.66675 1.83325H20.3334C23.1337 1.83325 24.5338 1.83325 25.6034 2.37822C26.5442 2.85759 27.3091 3.62249 27.7884 4.5633C28.3334 5.63286 28.3334 7.03299 28.3334 9.83325Z" stroke="#C661F8" stroke-width="3" stroke-linecap="round" stroke-linejoin="round"/>
</svg>
