<svg width="37" height="37" viewBox="0 0 37 37" fill="none" xmlns="http://www.w3.org/2000/svg">
<path d="M2.33325 1.83331H4.51019C4.92022 1.83331 5.12524 1.83331 5.29022 1.90871C5.43562 1.97516 5.55883 2.08202 5.64517 2.21656C5.74314 2.36922 5.77214 2.57218 5.83012 2.97808L6.61897 8.49998M6.61897 8.49998L8.37212 21.3856C8.59459 23.0209 8.70583 23.8385 9.09675 24.4539C9.44122 24.9962 9.93506 25.4274 10.5188 25.6956C11.1814 26 12.0065 26 13.6568 26H27.9199C29.4908 26 30.2763 26 30.9182 25.7173C31.4842 25.4681 31.9697 25.0664 32.3204 24.557C32.7181 23.9793 32.8651 23.2078 33.159 21.6646L35.3651 10.0828C35.4686 9.53966 35.5203 9.26809 35.4453 9.05581C35.3795 8.8696 35.2498 8.71279 35.0792 8.61334C34.8847 8.49998 34.6082 8.49998 34.0553 8.49998H6.61897ZM15.6666 33.5C15.6666 34.4205 14.9204 35.1666 13.9999 35.1666C13.0794 35.1666 12.3333 34.4205 12.3333 33.5C12.3333 32.5795 13.0794 31.8333 13.9999 31.8333C14.9204 31.8333 15.6666 32.5795 15.6666 33.5ZM28.9999 33.5C28.9999 34.4205 28.2537 35.1666 27.3333 35.1666C26.4128 35.1666 25.6666 34.4205 25.6666 33.5C25.6666 32.5795 26.4128 31.8333 27.3333 31.8333C28.2537 31.8333 28.9999 32.5795 28.9999 33.5Z" stroke="#5DA2FC" stroke-width="3" stroke-linecap="round" stroke-linejoin="round"/>
</svg>
