<svg width="139" height="39" viewBox="0 0 139 39" fill="none" xmlns="http://www.w3.org/2000/svg">
<path fill-rule="evenodd" clip-rule="evenodd" d="M5.57563 0H132.886C135.966 0 138.462 2.49601 138.462 5.57559V32.5243C138.462 35.6038 135.966 38.0999 132.886 38.0999H5.57563C2.49603 38.0999 0 35.6038 0 32.5243V5.57559C0 2.49601 2.49603 0 5.57563 0Z" fill="#32364E"/>
<path fill-rule="evenodd" clip-rule="evenodd" d="M66.3528 24.7413H64.9942L66.0462 22.1431L63.9525 16.8602H65.3882L66.7041 20.4556L68.0302 16.8602H69.4659L66.3528 24.7413ZM61.135 22.4721C60.6638 22.4721 60.1815 22.2974 59.7429 21.9573V22.341H58.3406V14.46H59.7429V17.2338C60.1815 16.9048 60.6638 16.7292 61.135 16.7292C62.6041 16.7292 63.6124 17.9131 63.6124 19.6006C63.6124 21.2882 62.6041 22.4721 61.135 22.4721ZM60.8395 17.9345C60.4557 17.9345 60.0719 18.099 59.7429 18.4279V20.7734C60.0719 21.1023 60.4557 21.2668 60.8395 21.2668C61.6284 21.2668 62.1767 20.5875 62.1767 19.6006C62.1767 18.6147 61.6284 17.9345 60.8395 17.9345ZM52.6619 21.9573C52.2344 22.2974 51.7521 22.4721 51.2698 22.4721C49.8118 22.4721 48.7933 21.2882 48.7933 19.6006C48.7933 17.9131 49.8118 16.7292 51.2698 16.7292C51.7521 16.7292 52.2344 16.9048 52.6619 17.2338V14.46H54.0762V22.341H52.6619V21.9573ZM52.6619 18.4279C52.3441 18.099 51.9603 17.9345 51.5765 17.9345C50.7764 17.9345 50.229 18.6147 50.229 19.6006C50.229 20.5875 50.7764 21.2668 51.5765 21.2668C51.9603 21.2668 52.3441 21.1023 52.6619 20.7734V18.4279ZM44.3096 19.9844C44.3969 20.8171 45.0548 21.3876 45.9757 21.3876C46.4794 21.3876 47.0388 21.2008 47.6085 20.8719V22.0446C46.984 22.3299 46.3595 22.4721 45.7453 22.4721C44.0903 22.4721 42.9287 21.2668 42.9287 19.557C42.9287 17.9019 44.0689 16.7292 45.6356 16.7292C47.0714 16.7292 48.0471 17.8583 48.0471 19.4696C48.0471 19.6229 48.0471 19.7977 48.0248 19.9844H44.3096ZM45.5808 17.8146C44.9015 17.8146 44.3755 18.3183 44.3096 19.0747H46.6987C46.655 18.3294 46.2053 17.8146 45.5808 17.8146ZM40.6157 18.6797V22.341H39.2125V16.8602H40.6157V17.4085C41.0097 16.9699 41.492 16.7292 41.9632 16.7292C42.1174 16.7292 42.2707 16.7404 42.4241 16.784V18.0339C42.2707 17.9893 42.0951 17.9679 41.9306 17.9679C41.4706 17.9679 40.9772 18.2198 40.6157 18.6797ZM34.3561 19.9844C34.4444 20.8171 35.1014 21.3876 36.0223 21.3876C36.5269 21.3876 37.0854 21.2008 37.656 20.8719V22.0446C37.0306 22.3299 36.4061 22.4721 35.7919 22.4721C34.1368 22.4721 32.9752 21.2668 32.9752 19.557C32.9752 17.9019 34.1154 16.7292 35.6822 16.7292C37.1189 16.7292 38.0937 17.8583 38.0937 19.4696C38.0937 19.6229 38.0937 19.7977 38.0723 19.9844H34.3561ZM35.6274 17.8146C34.9481 17.8146 34.4221 18.3183 34.3561 19.0747H36.7462C36.7016 18.3294 36.2528 17.8146 35.6274 17.8146ZM29.4561 22.341L28.3382 18.6147L27.2314 22.341H25.9704L24.0858 16.8602H25.4881L26.5958 20.5875L27.7025 16.8602H28.9738L30.0805 20.5875L31.1882 16.8602H32.5905L30.7162 22.341H29.4561ZM20.8845 22.4721C19.2294 22.4721 18.0567 21.278 18.0567 19.6006C18.0567 17.9131 19.2294 16.7292 20.8845 16.7292C22.5395 16.7292 23.7011 17.9131 23.7011 19.6006C23.7011 21.278 22.5395 22.4721 20.8845 22.4721ZM20.8845 17.9019C20.0621 17.9019 19.4924 18.5924 19.4924 19.6006C19.4924 20.6089 20.0621 21.2993 20.8845 21.2993C21.6957 21.2993 22.2654 20.6089 22.2654 19.6006C22.2654 18.5924 21.6957 17.9019 20.8845 17.9019ZM14.7243 19.6341H13.4633V22.341H12.061V14.8001H14.7243C16.2586 14.8001 17.3542 15.7972 17.3542 17.2227C17.3542 18.6472 16.2586 19.6341 14.7243 19.6341ZM14.5264 15.9403H13.4633V18.4939H14.5264C15.3376 18.4939 15.9073 17.9791 15.9073 17.2227C15.9073 16.4551 15.3376 15.9403 14.5264 15.9403ZM127.15 20.3208H120.412C120.566 21.934 121.748 22.4089 123.089 22.4089C124.456 22.4089 125.532 22.1217 126.47 21.6478V24.4207C125.534 24.9383 124.3 25.3128 122.655 25.3128C119.303 25.3128 116.954 23.2136 116.954 19.0626C116.954 15.5574 118.946 12.7733 122.221 12.7733C125.49 12.7733 127.196 15.5565 127.196 19.0812C127.196 19.4139 127.165 20.135 127.15 20.3208ZM122.198 15.5797C121.338 15.5797 120.382 16.2293 120.382 17.7802H123.94C123.94 16.2311 123.044 15.5797 122.198 15.5797ZM111.495 25.3128C110.291 25.3128 109.555 24.8045 109.06 24.4421L109.053 28.3367L105.612 29.0689L105.61 13.0029H108.641L108.82 13.8531C109.296 13.408 110.167 12.7733 111.516 12.7733C113.933 12.7733 116.21 14.9506 116.21 18.9576C116.21 23.3316 113.958 25.3128 111.495 25.3128ZM110.694 15.8223C109.903 15.8223 109.409 16.1113 109.05 16.5043L109.071 21.619C109.404 21.9805 109.886 22.2723 110.694 22.2723C111.966 22.2723 112.819 20.8867 112.819 19.0338C112.819 17.2329 111.953 15.8223 110.694 15.8223ZM100.749 13.0029H104.204V25.0666H100.749V13.0029ZM100.749 9.15106L104.204 8.41602V11.2196L100.749 11.9537V9.15106ZM97.1796 16.8881V25.0666H93.7394V13.0029H96.7149L96.9315 14.0204C97.7362 12.5392 99.3457 12.8393 99.8038 13.0038V16.167C99.3662 16.0258 97.9927 15.8195 97.1796 16.8881ZM89.9155 20.8338C89.9155 22.8624 92.0872 22.2314 92.5286 22.0548V24.8566C92.0695 25.1084 91.2378 25.3128 90.1125 25.3128C88.0699 25.3128 86.5376 23.8084 86.5376 21.7705L86.5524 10.728L89.9127 10.0144L89.9155 13.0029H92.5295V15.9375H89.9155V20.8338ZM85.7393 21.4211C85.7393 23.8985 83.7674 25.3128 80.9052 25.3128C79.7186 25.3128 78.4213 25.0824 77.1417 24.5313V21.2454C78.2968 21.8736 79.7687 22.3448 80.9089 22.3448C81.6765 22.3448 82.2294 22.1385 82.2294 21.5029C82.2294 19.8599 76.9967 20.4788 76.9967 16.6679C76.9967 14.2314 78.858 12.7733 81.6496 12.7733C82.7898 12.7733 83.93 12.949 85.0702 13.4034V16.6447C84.0229 16.0797 82.6941 15.7591 81.6468 15.7591C80.9257 15.7591 80.4778 15.9672 80.4778 16.5053C80.4778 18.0534 85.7393 17.3174 85.7393 21.4211Z" fill="white"/>
</svg>
