<?xml version="1.0" encoding="UTF-8" standalone="no"?>
<svg
   width="388.33701"
   height="120"
   viewBox="0 0 388.33701 120"
   fill="none"
   version="1.1"
   id="svg127"
   sodipodi:docname="031d99ec01c277222bc232be8c46269d.svg"
   xmlns:inkscape="http://www.inkscape.org/namespaces/inkscape"
   xmlns:sodipodi="http://sodipodi.sourceforge.net/DTD/sodipodi-0.dtd"
   xmlns="http://www.w3.org/2000/svg"
   xmlns:svg="http://www.w3.org/2000/svg">
  <sodipodi:namedview
     id="namedview129"
     pagecolor="#ffffff"
     bordercolor="#666666"
     borderopacity="1.0"
     inkscape:pageshadow="2"
     inkscape:pageopacity="0.0"
     inkscape:pagecheckerboard="0" />
  <g
     clip-path="url(#clip0_574_40523)"
     id="g120">
    <path
       d="m 30.8221,96.9359 -3.5993,5.6431 c 13.2376,-3.6861 25.8487,-8.7282 35.4529,-15.6176 0.6526,-0.4684 1.3088,-0.9232 1.966,-1.3691 0.0305,-0.0207 0.0602,-0.0404 0.0916,-0.0611 0.6383,-0.4315 1.2801,-0.8531 1.9238,-1.2657 C 55.9715,81.4599 45.4837,77.0372 37.2719,70.1298 25.8915,60.5589 13.0188,56.7582 1.73001,55.5078 c -0.10787,1.4473 -0.1636,2.9098 -0.1636,4.3859 0,17.6046 7.79642,33.3872 20.12439,44.0863 l 4.0748,-7.3147 z"
       fill="#3e4794"
       id="path2" />
    <path
       d="m 27.2248,102.578 -2.4748,3.878 c 6.0219,4.556 12.9563,7.968 20.4785,9.92 L 36.8937,99.5859 c -3.1616,1.0861 -6.3959,2.0811 -9.6689,2.9921 z"
       fill="#7a80be"
       id="path4" />
    <path
       d="m 80.1118,77.0789 c 1.1264,-0.4935 2.2527,-0.9619 3.3764,-1.406 1.6855,-0.667 3.3674,-1.28 5.0376,-1.8437 1.1138,-0.3775 2.2231,-0.7308 3.326,-1.0643 1.6541,-0.5007 3.2955,-0.9538 4.9172,-1.3646 1.0814,-0.2741 2.1538,-0.5285 3.2173,-0.7659 0.5317,-0.1195 1.0597,-0.2337 1.5867,-0.3424 1.053,-0.2194 2.094,-0.4216 3.124,-0.6077 1.045,-0.1897 2.079,-0.3614 3.097,-0.5196 H 64.7536 v -3.9679 h 53.2694 c 0.159,-1.7484 0.25,-3.5166 0.25,-5.3064 0,-32.2266 -26.1254,-58.35134 -58.353,-58.35134 -30.7515,0 -55.9467,23.78664 -58.18953,53.96544 11.28963,1.2505 24.16143,5.0511 35.54103,14.622 8.2117,6.9074 18.6995,11.3302 29.3851,14.1357 2.7696,-1.7772 5.5734,-3.3692 8.387,-4.7949 1.6855,-0.854 3.3773,-1.6495 5.0682,-2.3884 z"
       fill="#232a5e"
       id="path6" />
    <path
       d="m 64.7539,69.1671 h 43.0411 c 3.493,-0.5376 6.817,-0.8971 9.909,-1.1237 0.131,-0.9411 0.232,-1.8913 0.319,-2.8442 H 64.7539 Z"
       fill="#ffffff"
       id="path8" />
    <path
       d="m 117.531,69.168 h -1.304 l 0.753,2.9422 c 0.207,-0.9727 0.393,-1.9525 0.551,-2.9422 z"
       fill="#6a73b6"
       id="path10" />
    <path
       d="m 107.794,69.168 c -1.018,0.1582 -2.052,0.3299 -3.098,0.5196 -1.029,0.186 -2.071,0.3883 -3.123,0.6076 -0.526,0.1088 -1.056,0.223 -1.5869,0.3425 -1.0635,0.2373 -2.1359,0.4917 -3.2173,0.7659 -1.6217,0.4108 -3.2622,0.8639 -4.9171,1.3646 -1.103,0.3335 -2.2123,0.6868 -3.3261,1.0643 -1.6702,0.5637 -3.3521,1.1767 -5.0376,1.8437 -1.1237,0.4441 -2.25,0.9133 -3.3764,1.406 -1.6909,0.7389 -3.3827,1.5344 -5.0708,2.3893 -2.8137,1.4257 -5.6175,3.0177 -8.3871,4.7949 -0.6427,0.4126 -1.2845,0.836 -1.9237,1.2657 -0.0305,0.0207 -0.0611,0.0404 -0.0917,0.0611 -0.6571,0.4441 -1.3124,0.9008 -1.9659,1.3691 -6.1802,4.4335 -13.6107,8.0994 -21.649,11.1333 l 8.1264,19.1584 c 3.4896,0.65 7.088,0.993 10.7665,0.993 25.6132,0 47.3637,-16.504 55.2147,-39.4569 l -3.113,-9.6212 z"
       fill="#7a80be"
       id="path12" />
    <path
       d="m 116.227,69.168 h -4.207 l 3.113,9.6212 c 0.742,-2.17 1.361,-4.4002 1.847,-6.679 z"
       fill="#ffffff"
       id="path14" />
    <path
       d="m 107.797,69.1666 h 9.738 c 0.06,-0.3721 0.118,-0.7479 0.171,-1.1236 -3.092,0.2265 -6.416,0.5861 -9.909,1.1236 z"
       fill="#ffffff"
       id="path16" />
    <path
       d="m 40.7635,97.4698 -5.0565,-0.2706 1.1857,2.3876 c 1.3952,-0.4774 2.7732,-0.9781 4.136,-1.4922 z"
       fill="#ffffff"
       id="path18" />
    <path
       d="m 36.8906,99.586 8.3349,16.79 c 1.2927,0.335 2.6015,0.629 3.9265,0.877 L 41.0257,98.0938 c -1.3619,0.5141 -2.7399,1.0139 -4.1351,1.4922 z"
       fill="#ffffff"
       id="path20" />
    <path
       d="m 35.0425,25.5364 c 0,-0.6203 0.5025,-1.1228 1.1237,-1.1228 -0.6203,0 -1.1237,-0.5043 -1.1237,-1.1245 0,0.6202 -0.5043,1.1245 -1.1245,1.1245 0.6211,0 1.1245,0.5025 1.1245,1.1228 z"
       fill="#ffffff"
       id="path22" />
    <path
       d="m 64.8863,16.3203 c 0,0.6203 -0.5043,1.1246 -1.1246,1.1246 0.6203,0 1.1246,0.5034 1.1246,1.1227 0,-0.6193 0.5025,-1.1227 1.1236,-1.1227 -0.6211,0 -1.1236,-0.5034 -1.1236,-1.1246 z"
       fill="#ffffff"
       id="path24" />
    <path
       d="m 29.1832,16.3203 c 0,1.619 -1.3142,2.9332 -2.9332,2.9332 1.619,0 2.9332,1.3116 2.9332,2.9305 0,-1.6189 1.3107,-2.9305 2.9305,-2.9305 -1.619,0 -2.9305,-1.3142 -2.9305,-2.9332 z"
       fill="#ffffff"
       id="path26" />
    <path
       d="m 33.6676,29.5273 c 0,1.6199 -1.3143,2.9333 -2.9332,2.9333 1.6189,0 2.9332,1.3115 2.9332,2.9305 0,-1.619 1.3115,-2.9305 2.9305,-2.9305 -1.619,-9e-4 -2.9305,-1.3143 -2.9305,-2.9333 z"
       fill="#ffffff"
       id="path28" />
    <path
       d="m 26.3426,25.5352 c 0,1.0499 -0.8512,1.9021 -1.9012,1.9021 1.05,0 1.9012,0.8495 1.9012,1.8985 0,-1.049 0.8504,-1.8985 1.9004,-1.8985 -1.0509,0 -1.9004,-0.8522 -1.9004,-1.9021 z"
       fill="#ffffff"
       id="path30" />
    <path
       d="m 54.745,18.5664 c 0,1.05 -0.8522,1.9021 -1.9012,1.9021 1.049,0 1.9012,0.8495 1.9012,1.8995 0,-1.05 0.8504,-1.8995 1.8994,-1.8995 -1.049,0 -1.8994,-0.8521 -1.8994,-1.9021 z"
       fill="#ffffff"
       id="path32" />
    <path
       d="m 76.0835,69.168 -8.2944,32.386 h 2.0244 l 10.477,-32.386 z"
       fill="#ffffff"
       id="path34" />
    <path
       d="m 78.082,62.1367 v 3.0609 H 112.93 V 62.988 h 0.829 V 62.1367 H 81.2588 Z"
       fill="#a8afd8"
       id="path36" />
    <path
       d="m 93.8094,52.3125 h -1.5399 v 7.5294 h 1.5399 z"
       fill="#ffffff"
       id="path38" />
    <path
       d="m 102.646,39.0156 -17.5054,1.379 V 52.3153 H 102.52 Z"
       fill="#ffffff"
       id="path40" />
    <path
       d="m 97.2155,37.7217 -1.4248,0.1151 -12.4196,0.9969 v 13.6628 h 19.1869 l 0.143,-15.2153 z m 4.9775,14.4072 H 83.7388 V 39.1663 l 12.6191,-1.0023 0.6311,-0.0503 5.34,-0.4243 z"
       fill="#ffffff"
       id="path42" />
    <path
       d="m 102.036,55.1328 -5.0985,0.0908 v 3.9427 h 5.0985 z"
       fill="#6a73b6"
       id="path44" />
    <path
       d="m 102.035,55.1328 v 4.0335 h 10.321 v -3.8519 z"
       fill="#a8afd8"
       id="path46" />
    <path
       d="M 99.4872,59.168 H 81.2578 v 2.97 h 32.5002 v -2.97 z"
       fill="#6a73b6"
       id="path48" />
    <path
       d="m 61.2043,86.401 c -1.0958,-0.4306 -9.5215,-1.8527 -11.4335,-2.9809 -1.5597,1.1803 -2.8469,2.0001 -2.8469,2.0001 0.6858,-0.9501 1.3654,-2.1664 1.9479,-3.3152 -0.2103,-0.8091 -0.231,-1.6064 -2.1538,-2.1979 0,0 -0.7227,-5.9374 -1.5201,-9.2266 -1.7736,0.9304 -3.264,1.6118 -3.264,1.6118 0.8836,-0.7237 2.2581,-2.1683 3.4159,-3.4376 2.9926,-3.7026 9.3372,-11.74 9.597,-13.6907 0.0503,-0.9375 1.4581,-2.9089 2.1458,-3.5301 0.0566,-1.0391 -0.2985,-3.7611 -1.6748,-4.0281 -1.1389,-0.2211 -13.2025,2.0918 -18.2455,2.7831 -0.1951,0.0261 -2.1413,-0.2643 -2.6834,-0.1699 0.3111,-0.3793 1.8527,-0.7011 1.8662,-0.6598 0,0 -0.5187,-1.7583 -0.3254,-2.6455 0.2185,-0.9952 -1.583,-3.7144 -1.7961,-4.074 -0.2112,-0.3587 -1.5093,-1.3565 -1.7726,-2.2195 -0.2625,-0.862 -1.7251,-0.9798 -3.0303,-0.4314 -1.3026,0.5474 -0.9862,1.1047 -1.8842,2.0226 0,0 0.1915,-0.6859 -0.3757,-0.908 -0.5691,-0.2238 -1.1426,0.4019 -1.9831,0.9358 -0.8405,0.5349 -1.0463,1.4895 -1.8248,1.6019 -0.7785,0.1124 -0.7192,0.4648 -1.3232,1.6289 -0.4127,0.8 -0.7866,2.3255 -0.8801,3.4105 -0.0117,0.1313 0.0593,0.2535 0.1762,0.3155 0.4567,0.2383 1.5722,0.8271 1.6073,0.899 -0.1142,0.0242 -1.726,-0.2158 -2.064,-0.0225 -0.1141,0.0656 -0.2589,0.0881 -0.4063,0.1429 -0.9061,0.3371 -6.8381,-2.1439 -9.4307,-3.5193 -0.9996,-0.0539 -1.96772,-0.027 -3.58219,-0.8854 -0.77398,0.0341 -2.14485,1.0814 -2.31835,2.8873 -0.17529,1.806 4.4614,9.0082 4.93334,9.5341 0.4746,0.5286 0.8279,1.165 0.8027,2.3237 -0.0224,1.1569 1.2747,2.1539 1.8159,2.1826 0.5384,0.0288 0.6751,1.8123 0.7758,2.09 0.08,0.2212 2.099,2.4191 3.2532,3.7117 0.542,0.6059 6.4067,-0.3757 6.4327,-0.2912 -0.0791,0.6076 -5.2066,1.4365 -5.9985,2.2752 -0.9835,1.0427 -1.824,2.7129 -1.5813,5.1931 0.2994,3.0546 0.5906,13.0102 0.5906,13.0102 0,0 -0.6481,8.0499 1.5489,10.0114 1.8967,1.6962 20.5433,1.9102 26.3126,1.4682 0,0 0.1384,-0.051 0.3838,-0.137 0.2706,-4.17 1.1785,-8.6764 1.1785,-8.6764 -0.2319,1.8123 0.2481,5.2848 0.7219,8.0149 2.6258,-0.8935 7.0062,-2.304 10.362,-2.9827 5.1274,-1.0409 6.4021,-4.6825 6.4021,-4.6825 0,0 0.7039,-4.3346 -1.8715,-5.3423 z M 35.5011,57.6235 c 0.1825,-1.4841 0.7515,-2.4837 0.7515,-2.4837 1.948,-1.7494 11.83,-0.6545 11.83,-0.6545 -2.9036,0.3596 -5.7891,4.2223 -7.5169,4.7473 -1.7277,0.5259 -5.2021,0.9574 -5.2021,0.9574 0,0 -0.0449,-1.0833 0.1375,-2.5665 z M 20.4665,57.5381 c -2.2041,-1.1479 -3.1309,-4.0299 -5.9482,-4.3364 0,0 5.6992,0.4458 7.0602,2.8082 0.7075,1.2136 3.9283,2.6222 3.9283,2.6222 0,0 -2.8361,0.054 -5.0403,-1.094 z m 20.3347,18.5054 -22.342,1.4032 0.1933,-2.028 22.3537,-1.5236 z"
       fill="#ffffff"
       id="path50" />
    <path
       d="M 60.0018,120 C 26.9167,120 0,93.0842 0,59.9991 0,26.9149 26.9167,0 60.0018,0 93.0869,0 120.005,26.9149 120.005,59.9991 120.004,93.0842 93.0869,120 60.0018,120 Z m 0,-116.70362 c -31.2666,0 -56.70452,25.43702 -56.70452,56.70272 0,31.2666 25.43702,56.7039 56.70452,56.7039 31.2675,0 56.7042,-25.4373 56.7042,-56.7039 0,-31.2648 -25.4376,-56.70272 -56.7042,-56.70272 z"
       fill="#232a5e"
       id="path52" />
    <path
       d="m 148.735,29.94 c -0.42,-0.3353 -0.904,-0.6185 -1.449,-0.8522 -0.545,-0.2346 -1.105,-0.444 -1.681,-0.6301 -0.656,-0.2032 -1.232,-0.409 -1.73,-0.6194 -0.498,-0.2094 -0.884,-0.4737 -1.156,-0.7937 -0.272,-0.3192 -0.409,-0.7516 -0.409,-1.2972 0,-0.4036 0.11,-0.7623 0.327,-1.0742 0.218,-0.3111 0.538,-0.552 0.958,-0.7237 0.419,-0.1717 0.957,-0.249 1.611,-0.2337 0.577,0.0162 1.098,0.0935 1.565,0.2337 0.467,0.1403 0.899,0.3192 1.297,0.5376 0.396,0.2175 0.789,0.4513 1.18,0.7003 v -2.5233 c -0.484,-0.2338 -0.931,-0.4315 -1.344,-0.5951 -0.412,-0.1636 -0.848,-0.2841 -1.308,-0.3614 -0.46,-0.0782 -1,-0.1178 -1.623,-0.1178 -0.95,0 -1.764,0.1295 -2.441,0.3857 -0.678,0.2571 -1.222,0.5996 -1.636,1.0284 -0.413,0.4288 -0.721,0.9079 -0.922,1.4374 -0.202,0.5294 -0.303,1.0508 -0.303,1.565 0,0.7317 0.116,1.3466 0.35,1.8455 0.233,0.4989 0.545,0.907 0.934,1.2252 0.389,0.3192 0.826,0.5843 1.308,0.7947 0.483,0.2094 0.974,0.4081 1.472,0.596 0.654,0.2337 1.269,0.4674 1.845,0.7002 0.577,0.2329 1.04,0.5178 1.391,0.8522 0.351,0.3344 0.526,0.7749 0.526,1.3206 0,0.7002 -0.238,1.2495 -0.713,1.6468 -0.475,0.3964 -1.196,0.5951 -2.16,0.5951 -0.997,0 -1.928,-0.1555 -2.792,-0.4674 -0.863,-0.312 -1.6,-0.7084 -2.207,-1.1911 v 2.5691 c 0.514,0.2652 1.011,0.4908 1.496,0.6769 0.483,0.187 1.019,0.3227 1.612,0.409 0.591,0.0854 1.275,0.1295 2.055,0.1295 1.262,0 2.286,-0.223 3.072,-0.6661 0.786,-0.4432 1.363,-1.0203 1.729,-1.7287 0.365,-0.7083 0.548,-1.4679 0.548,-2.277 0,-0.7317 -0.129,-1.3475 -0.386,-1.8455 -0.257,-0.4998 -0.596,-0.916 -1.016,-1.2513 z"
       fill="#6a73b6"
       id="path54" />
    <path
       d="m 161.418,24.0429 h 5.046 v 13.4085 h 2.569 V 24.0429 h 5.046 v -2.1718 h -12.661 z"
       fill="#6a73b6"
       id="path56" />
    <path
       d="m 196.317,31.3081 c 0,1.4643 -0.331,2.5493 -0.993,3.2577 -0.662,0.7092 -1.615,1.0634 -2.86,1.0634 -1.278,0 -2.236,-0.3542 -2.874,-1.0634 -0.639,-0.7084 -0.958,-1.7934 -0.958,-3.2577 v -9.437 h -2.64 v 9.4594 c 0,2.1341 0.56,3.7414 1.682,4.8237 1.122,1.0823 2.741,1.6235 4.859,1.6235 1.292,0 2.406,-0.2374 3.34,-0.7129 0.935,-0.4737 1.654,-1.1938 2.16,-2.1601 0.506,-0.9646 0.76,-2.1556 0.76,-3.5742 v -9.4594 h -2.477 z"
       fill="#6a73b6"
       id="path58" />
    <path
       d="m 217.529,21.8711 h -5.467 v 15.5803 h 5.467 c 2.523,0 4.399,-0.6572 5.63,-1.9741 1.231,-1.3151 1.845,-3.2586 1.845,-5.8278 0,-2.5691 -0.614,-4.509 -1.845,-5.816 -1.231,-1.3089 -3.108,-1.9624 -5.63,-1.9624 z m 3.597,12.0645 c -0.824,0.8954 -2.109,1.343 -3.853,1.343 h -2.64 V 24.0204 h 2.64 c 1.744,0 3.029,0.4513 3.853,1.3547 0.826,0.9034 1.239,2.3283 1.239,4.2744 0,1.9624 -0.413,3.3908 -1.239,4.2861 z"
       fill="#6a73b6"
       id="path60" />
    <path
       d="m 240.257,21.8711 h -2.593 v 15.5803 h 2.593 z"
       fill="#6a73b6"
       id="path62" />
    <path
       d="m 266.572,25.1766 c -0.568,-1.191 -1.389,-2.0828 -2.464,-2.6752 -1.075,-0.5924 -2.39,-0.8881 -3.949,-0.8881 -2.351,0 -4.146,0.6778 -5.384,2.0334 -1.239,1.3555 -1.857,3.3638 -1.857,6.0264 0,1.8068 0.28,3.3018 0.841,4.4848 0.56,1.1829 1.382,2.072 2.465,2.6626 1.082,0.5924 2.395,0.8881 3.936,0.8881 2.368,0 4.17,-0.6778 5.409,-2.0325 1.237,-1.3555 1.857,-3.3557 1.857,-6.0039 0,-1.8051 -0.286,-3.3045 -0.854,-4.4956 z m -2.311,7.8369 c -0.336,0.8567 -0.843,1.4832 -1.519,1.8806 -0.677,0.3964 -1.538,0.5951 -2.582,0.5951 -1.029,0 -1.884,-0.1987 -2.569,-0.5951 -0.685,-0.3965 -1.196,-1.0239 -1.531,-1.8806 -0.336,-0.8567 -0.502,-1.9695 -0.502,-3.3404 0,-1.3709 0.166,-2.4802 0.502,-3.3278 0.335,-0.8495 0.845,-1.477 1.531,-1.8815 0.685,-0.4045 1.54,-0.6068 2.569,-0.6068 1.043,0 1.905,0.1987 2.582,0.5951 0.676,0.3964 1.183,1.0203 1.519,1.8689 0.334,0.8486 0.501,1.9587 0.501,3.3278 0,1.3862 -0.168,2.508 -0.501,3.3647 z"
       fill="#6a73b6"
       id="path64" />
    <path
       d="m 154.411,59.3859 -7.849,-10.9328 h -6.937 v 28.0458 h 6.517 V 57.5665 l 8.032,10.9436 8.241,-10.9517 v 18.9405 h 6.812 V 48.4531 h -6.77 z"
       fill="#232a5e"
       id="path66" />
    <path
       d="m 175.195,76.4989 h 19.216 v -5.257 H 182.007 V 65.104 h 10.764 v -5.2974 h -10.764 v -6.0974 h 12.404 v -5.2561 h -19.216 z"
       fill="#232a5e"
       id="path68" />
    <path
       d="m 198.152,53.7092 h 7.863 v 22.7897 h 6.812 V 53.7092 h 7.988 v -5.2561 h -22.663 z"
       fill="#232a5e"
       id="path70" />
    <path
       d="m 245.627,64.0738 c 0.981,-0.8539 1.723,-1.8778 2.229,-3.0698 0.504,-1.1902 0.756,-2.4029 0.756,-3.6362 0,-2.9997 -0.898,-5.2345 -2.692,-6.7069 -1.794,-1.4715 -4.274,-2.2078 -7.442,-2.2078 h -13.666 v 28.0458 h 6.813 v -9.6707 h 4.205 l 5.551,9.6707 h 8.661 l -7.168,-10.9823 c 1.068,-0.3002 1.989,-0.7776 2.753,-1.4428 z m -5.425,-3.2163 c -0.7,0.6445 -1.654,0.9672 -2.858,0.9672 h -5.719 v -8.1155 h 6.013 c 1.148,0 2.039,0.3371 2.668,1.0095 0.632,0.6733 0.947,1.6549 0.947,2.9431 0.001,1.4868 -0.351,2.5511 -1.051,3.1957 z"
       fill="#232a5e"
       id="path72" />
    <path
       d="m 273.147,49.483 c -2.06,-1.0509 -4.478,-1.5768 -7.253,-1.5768 -4.317,0 -7.68,1.2334 -10.091,3.7 -2.412,2.4667 -3.615,6.0966 -3.615,10.8897 0,3.3072 0.566,6.0408 1.703,8.1991 1.135,2.1593 2.725,3.763 4.772,4.8138 2.045,1.0518 4.457,1.5767 7.232,1.5767 4.345,0 7.717,-1.2324 10.113,-3.6991 2.397,-2.4666 3.596,-6.1118 3.596,-10.9328 0,-3.3359 -0.561,-6.0686 -1.683,-8.1991 -1.123,-2.1296 -2.713,-3.7207 -4.774,-4.7715 z m -1.344,18.2483 c -0.52,1.3304 -1.276,2.2913 -2.271,2.8792 -0.996,0.5879 -2.207,0.8828 -3.637,0.8828 -1.429,0 -2.634,-0.2859 -3.615,-0.8621 -0.983,-0.5744 -1.732,-1.5138 -2.249,-2.8163 -0.519,-1.3044 -0.778,-3.0618 -0.778,-5.2777 0,-2.2419 0.259,-4.0227 0.778,-5.3396 0.517,-1.3178 1.267,-2.2698 2.249,-2.8595 0.981,-0.5888 2.187,-0.8828 3.615,-0.8828 1.43,0 2.641,0.2877 3.637,0.8621 0.995,0.5744 1.752,1.5201 2.271,2.8379 0.518,1.3179 0.778,3.0843 0.778,5.2983 0,2.188 -0.261,3.9472 -0.778,5.2777 z"
       fill="#232a5e"
       id="path74" />
    <path
       d="m 295.663,48.4531 h -11.268 v 28.0458 h 11.268 c 4.766,0 8.269,-1.183 10.512,-3.5535 2.243,-2.3687 3.363,-5.8503 3.363,-10.4483 0,-4.6259 -1.121,-8.1209 -3.363,-10.4914 -2.243,-2.3669 -5.746,-3.5526 -10.512,-3.5526 z m 4.941,20.688 c -1.303,1.4014 -3.216,2.1017 -5.74,2.1017 h -3.657 V 53.7092 h 3.657 c 2.524,0 4.437,0.6939 5.74,2.081 1.303,1.3879 1.955,3.6236 1.955,6.7069 0,3.0285 -0.652,5.2426 -1.955,6.644 z"
       fill="#232a5e"
       id="path76" />
    <path
       d="m 314.289,76.4989 h 19.215 v -5.257 H 321.101 V 65.104 h 10.764 v -5.2974 h -10.764 v -6.0974 h 12.403 v -5.2561 h -19.215 z"
       fill="#232a5e"
       id="path78" />
    <path
       d="m 356.423,62.4975 c -0.73,-0.6167 -1.576,-1.1282 -2.544,-1.5345 -0.967,-0.4063 -2.026,-0.7776 -3.175,-1.1147 -1.037,-0.3362 -1.976,-0.6517 -2.817,-0.9457 -0.842,-0.2939 -1.499,-0.6652 -1.977,-1.1146 -0.476,-0.4477 -0.714,-1.0644 -0.714,-1.85 0,-0.6733 0.196,-1.2262 0.589,-1.6613 0.392,-0.435 0.938,-0.7497 1.639,-0.9465 0.7,-0.1951 1.472,-0.2796 2.314,-0.2517 0.953,0.0278 1.864,0.1968 2.733,0.5052 0.868,0.3092 1.703,0.693 2.502,1.156 0.799,0.4629 1.52,0.96 2.166,1.4922 v -6.5577 c -0.842,-0.4216 -1.668,-0.7641 -2.481,-1.0302 -0.814,-0.266 -1.661,-0.4683 -2.545,-0.6103 -0.883,-0.1394 -1.899,-0.2095 -3.048,-0.2095 -1.85,0 -3.463,0.2454 -4.836,0.7353 -1.374,0.4909 -2.502,1.1561 -3.385,1.9975 -0.883,0.8414 -1.535,1.7942 -1.955,2.8595 -0.421,1.0661 -0.631,2.1727 -0.631,3.3215 0,1.2612 0.181,2.3273 0.546,3.1957 0.364,0.8693 0.854,1.6055 1.472,2.2078 0.616,0.6032 1.318,1.1003 2.102,1.4922 0.785,0.3928 1.584,0.7147 2.398,0.9682 1.289,0.4476 2.452,0.8476 3.489,1.1973 1.036,0.3515 1.871,0.7569 2.502,1.2181 0.631,0.4638 0.946,1.0724 0.946,1.8293 0,1.0095 -0.343,1.761 -1.03,2.2509 -0.687,0.4899 -1.676,0.7354 -2.965,0.7354 -1.457,0 -3,-0.267 -4.626,-0.7992 -1.626,-0.5322 -3.084,-1.3169 -4.372,-2.3543 v 6.475 c 0.925,0.4477 1.877,0.8126 2.859,1.0922 0.981,0.2796 2.046,0.4899 3.197,0.6319 1.149,0.1385 2.438,0.2086 3.868,0.2086 2.157,0 3.981,-0.3982 5.466,-1.1974 1.486,-0.7991 2.621,-1.8922 3.406,-3.2793 0.784,-1.3888 1.178,-2.9233 1.178,-4.6052 0,-1.2603 -0.198,-2.339 -0.589,-3.2379 -0.393,-0.8954 -0.953,-1.6532 -1.682,-2.2698 z"
       fill="#232a5e"
       id="path80" />
    <path
       d="m 379.799,76.4989 h 8.536 L 376.922,60.3028 387.453,48.4531 h -8.579 l -8.578,11.7374 V 48.4531 h -6.812 v 28.0458 h 6.812 v -8.7403 l 1.958,-2.2033 z"
       fill="#232a5e"
       id="path82" />
    <path
       d="m 144.292,96.8467 c -1.027,0 -1.888,-0.1933 -2.582,-0.5808 -0.694,-0.3865 -1.217,-0.9654 -1.564,-1.7367 -0.347,-0.7686 -0.521,-1.7277 -0.521,-2.8757 0,-1.1479 0.173,-2.1035 0.521,-2.8685 0.348,-0.7649 0.869,-1.3394 1.564,-1.7223 0.694,-0.3829 1.555,-0.5744 2.582,-0.5744 0.553,0 1.097,0.0566 1.631,0.1672 0.533,0.1106 1.047,0.2823 1.54,0.5124 v 1.1326 c -0.473,-0.2103 -0.967,-0.3937 -1.48,-0.5492 -0.513,-0.1555 -1.036,-0.2355 -1.57,-0.2355 -0.845,0 -1.543,0.1492 -2.092,0.4458 -0.549,0.2967 -0.954,0.7497 -1.215,1.3592 -0.263,0.6095 -0.393,1.3871 -0.393,2.3336 0,0.9466 0.131,1.726 0.393,2.3409 0.261,0.6148 0.667,1.0688 1.215,1.3663 0.548,0.2976 1.246,0.4459 2.092,0.4459 0.402,0 0.795,-0.0297 1.178,-0.0917 0.383,-0.0593 0.76,-0.151 1.133,-0.2706 v -2.8685 h -2.431 v -1.0589 h 3.519 v 4.5459 c -0.554,0.2616 -1.123,0.4584 -1.707,0.5897 -0.586,0.1285 -1.19,0.1933 -1.813,0.1933 z"
       fill="#6a73b6"
       id="path84" />
    <path
       d="M 154.605,96.6975 V 86.625 h 6.358 v 1.0275 h -5.271 v 3.4725 h 4.636 v 1.0572 h -4.636 v 3.4887 h 5.271 v 1.0275 z"
       fill="#6a73b6"
       id="path86" />
    <path
       d="m 170.188,96.6984 v -9.0459 h -3.563 V 86.625 h 8.2 v 1.0275 h -3.549 v 9.0459 z"
       fill="#6a73b6"
       id="path88" />
    <path
       d="M 189.246,96.6975 V 86.625 h 1.087 v 10.0725 z"
       fill="#6a73b6"
       id="path90" />
    <path
       d="m 199.712,96.6984 v -9.0459 h -3.564 V 86.625 h 8.2 v 1.0275 H 200.8 v 9.0459 z"
       fill="#6a73b6"
       id="path92" />
    <path
       d="M 218.77,96.6975 V 86.625 h 3.156 c 1.57,0 2.75,0.4198 3.541,1.2603 0.79,0.8405 1.185,2.0963 1.185,3.7674 0,1.6711 -0.394,2.9287 -1.185,3.7746 -0.791,0.8459 -1.971,1.2693 -3.541,1.2693 z m 1.087,-1.0275 h 1.993 c 1.289,0 2.225,-0.3227 2.809,-0.9672 0.584,-0.6445 0.877,-1.6612 0.877,-3.0501 0,-1.3888 -0.292,-2.4073 -0.877,-3.05 -0.584,-0.6446 -1.52,-0.9673 -2.809,-0.9673 h -1.993 z"
       fill="#6a73b6"
       id="path94" />
    <path
       d="m 237.207,96.8467 c -0.996,0 -1.831,-0.1933 -2.499,-0.5808 -0.67,-0.3865 -1.173,-0.9636 -1.511,-1.7277 -0.337,-0.7659 -0.506,-1.7223 -0.506,-2.8703 0,-1.7097 0.38,-3.0024 1.141,-3.8735 0.76,-0.871 1.885,-1.3061 3.375,-1.3061 1.007,0 1.844,0.1951 2.514,0.5825 0.67,0.3865 1.172,0.9636 1.51,1.7277 0.337,0.7659 0.506,1.7224 0.506,2.8685 0,1.7116 -0.379,3.0042 -1.14,3.8753 -0.76,0.8684 -1.89,1.3044 -3.39,1.3044 z m 0,-1.0257 c 0.794,0 1.444,-0.1456 1.948,-0.4387 0.503,-0.2913 0.873,-0.7443 1.109,-1.3592 0.236,-0.6149 0.355,-1.3996 0.355,-2.3561 0,-0.9555 -0.118,-1.7385 -0.355,-2.3471 -0.237,-0.6086 -0.607,-1.0625 -1.109,-1.3592 -0.504,-0.2966 -1.154,-0.4458 -1.948,-0.4458 -0.786,0 -1.43,0.1492 -1.933,0.4458 -0.503,0.2967 -0.874,0.7497 -1.11,1.3592 -0.237,0.6095 -0.355,1.3925 -0.355,2.3471 0,0.9565 0.118,1.7421 0.355,2.3561 0.237,0.614 0.607,1.0679 1.11,1.3592 0.503,0.2931 1.148,0.4387 1.933,0.4387 z"
       fill="#6a73b6"
       id="path96" />
    <path
       d="M 248.156,96.6975 V 86.625 h 1.239 l 6.282,8.8626 -0.273,0.4234 v -9.286 h 1.088 v 10.0725 h -1.223 l -6.524,-9.196 0.499,-0.4684 v 9.6653 z"
       fill="#6a73b6"
       id="path98" />
    <path
       d="M 263.285,96.6975 V 86.625 h 6.357 v 1.0275 h -5.269 v 3.4725 h 4.636 v 1.0572 h -4.636 v 3.4887 h 5.269 v 1.0275 z"
       fill="#6a73b6"
       id="path100" />
    <path
       d="m 276.121,98.3899 1.118,-2.9602 h 1.238 l -1.268,2.9602 z"
       fill="#6a73b6"
       id="path102" />
    <path
       d="m 292.867,96.6975 4.017,-10.0725 h 1.087 l 4.002,10.0725 h -1.162 l -3.488,-9.0612 0.226,-0.0297 -3.503,9.0909 z m 1.767,-3.1426 0.469,-1.041 h 4.938 l 0.075,1.041 z"
       fill="#6a73b6"
       id="path104" />
    <path
       d="M 307.789,96.6975 V 86.625 h 1.239 l 6.282,8.8626 -0.273,0.4234 v -9.286 h 1.088 v 10.0725 h -1.224 l -6.523,-9.196 0.499,-0.4684 v 9.6653 z"
       fill="#6a73b6"
       id="path106" />
    <path
       d="M 325.577,96.6984 V 92.077 l -3.761,-5.4511 h 1.314 l 3.186,4.7104 -0.347,-0.0899 3.126,-4.6214 h 1.314 l -3.926,5.7082 0.181,-0.6949 v 5.0601 z"
       fill="#6a73b6"
       id="path108" />
    <path
       d="m 338.76,96.6984 v -9.0459 h -3.565 V 86.625 h 8.2 v 1.0275 h -3.549 v 9.0459 z"
       fill="#6a73b6"
       id="path110" />
    <path
       d="M 349.211,96.6975 V 86.625 h 1.087 v 10.0725 z"
       fill="#6a73b6"
       id="path112" />
    <path
       d="M 357.094,96.6975 V 86.625 h 1.177 l 3.73,5.7217 -0.74,0.1672 3.941,-5.8889 h 1.179 v 10.0725 h -1.088 v -8.9857 h 0.484 l -4.154,5.8287 -3.835,-5.7082 0.393,-0.5583 v 9.4226 z"
       fill="#6a73b6"
       id="path114" />
    <path
       d="M 373.176,96.6975 V 86.625 h 6.357 v 1.0275 h -5.27 v 3.4725 h 4.636 v 1.0572 h -4.636 v 3.4887 h 5.27 v 1.0275 z"
       fill="#6a73b6"
       id="path116" />
    <path
       d="m 387.129,96.6975 v -1.2099 h 1.208 v 1.2099 z m 0.166,-2.5386 -0.106,-7.5339 h 1.088 l -0.106,7.5339 z"
       fill="#6a73b6"
       id="path118" />
  </g>
  <defs
     id="defs125">
    <clipPath
       id="clip0_574_40523">
      <rect
         width="388.33801"
         height="120"
         fill="#ffffff"
         id="rect122"
         x="0"
         y="0" />
    </clipPath>
  </defs>
</svg>
