<svg width="19" height="20" viewBox="0 0 19 20" fill="none" xmlns="http://www.w3.org/2000/svg">
<path d="M9.50008 18.3334C14.1025 18.3334 17.8334 14.6024 17.8334 10C17.8334 5.39765 14.1025 1.66669 9.50008 1.66669C4.89771 1.66669 1.16675 5.39765 1.16675 10C1.16675 14.6024 4.89771 18.3334 9.50008 18.3334Z" stroke="#004EEB" stroke-width="1.66667" stroke-linecap="round" stroke-linejoin="round"/>
<path d="M7.41675 7.47113C7.41675 7.07339 7.41675 6.87452 7.49987 6.7635C7.5723 6.66675 7.68318 6.60622 7.80373 6.59761C7.94207 6.58773 8.10935 6.69527 8.44392 6.91035L12.3777 9.43923C12.6681 9.62587 12.8132 9.71919 12.8634 9.83785C12.9072 9.94152 12.9072 10.0585 12.8634 10.1622C12.8132 10.2809 12.6681 10.3742 12.3777 10.5608L8.44392 13.0897C8.10935 13.3048 7.94207 13.4123 7.80373 13.4024C7.68318 13.3938 7.5723 13.3333 7.49987 13.2365C7.41675 13.1255 7.41675 12.9266 7.41675 12.5289V7.47113Z" stroke="#004EEB" stroke-width="1.66667" stroke-linecap="round" stroke-linejoin="round"/>
</svg>
