<svg width="22" height="20" viewBox="0 0 22 20" fill="none" xmlns="http://www.w3.org/2000/svg">
<path d="M11 2.0625C6.44102 2.0625 2.68125 5.47422 2.13125 9.88281C2.53516 9.71953 2.97344 9.625 3.4375 9.625C4.57617 9.625 5.5 10.5488 5.5 11.6875V17.1875C5.5 18.3262 4.57617 19.25 3.4375 19.25C1.53828 19.25 0 17.7117 0 15.8125V15.125V13.0625V11C0 4.92422 4.92422 0 11 0C17.0758 0 22 4.92422 22 11V13.0625V15.125V15.8125C22 17.7117 20.4617 19.25 18.5625 19.25C17.4238 19.25 16.5 18.3262 16.5 17.1875V11.6875C16.5 10.5488 17.4238 9.625 18.5625 9.625C19.0266 9.625 19.4648 9.71523 19.8687 9.88281C19.3188 5.47422 15.559 2.0625 11 2.0625Z" fill="#155EEF"/>
</svg>
