<svg width="22" height="20" viewBox="0 0 22 20" fill="none" xmlns="http://www.w3.org/2000/svg">
<path d="M5.80937 3.66953L4.68789 6.875H17.3121L16.1906 3.66953C15.9973 3.11953 15.4773 2.75 14.893 2.75H7.10703C6.52266 2.75 6.00273 3.11953 5.80937 3.66953ZM1.70156 7.08125L3.21406 2.76289C3.79414 1.10859 5.35391 0 7.10703 0H14.893C16.6461 0 18.2059 1.10859 18.7859 2.76289L20.2984 7.08125C21.2953 7.49375 22 8.47773 22 9.625V15.8125V17.875C22 18.6355 21.3855 19.25 20.625 19.25H19.25C18.4895 19.25 17.875 18.6355 17.875 17.875V15.8125H4.125V17.875C4.125 18.6355 3.51055 19.25 2.75 19.25H1.375C0.614453 19.25 0 18.6355 0 17.875V15.8125V9.625C0 8.47773 0.704687 7.49375 1.70156 7.08125ZM5.5 11C5.5 10.6353 5.35513 10.2856 5.09727 10.0277C4.83941 9.76987 4.48967 9.625 4.125 9.625C3.76033 9.625 3.41059 9.76987 3.15273 10.0277C2.89487 10.2856 2.75 10.6353 2.75 11C2.75 11.3647 2.89487 11.7144 3.15273 11.9723C3.41059 12.2301 3.76033 12.375 4.125 12.375C4.48967 12.375 4.83941 12.2301 5.09727 11.9723C5.35513 11.7144 5.5 11.3647 5.5 11ZM17.875 12.375C18.2397 12.375 18.5894 12.2301 18.8473 11.9723C19.1051 11.7144 19.25 11.3647 19.25 11C19.25 10.6353 19.1051 10.2856 18.8473 10.0277C18.5894 9.76987 18.2397 9.625 17.875 9.625C17.5103 9.625 17.1606 9.76987 16.9027 10.0277C16.6449 10.2856 16.5 10.6353 16.5 11C16.5 11.3647 16.6449 11.7144 16.9027 11.9723C17.1606 12.2301 17.5103 12.375 17.875 12.375Z" fill="#155EEF"/>
</svg>
