<svg width="11" height="22" viewBox="0 0 11 22" fill="none" xmlns="http://www.w3.org/2000/svg">
<path d="M2.75 0C2.17852 0 1.71875 0.459766 1.71875 1.03125C1.71875 1.60273 2.17852 2.0625 2.75 2.0625C2.93906 2.0625 3.09375 2.21719 3.09375 2.40625V5.19492C3.09375 5.71914 2.78438 6.1875 2.35469 6.48828C0.932422 7.48086 0 9.13086 0 11V19.25C0 20.7668 1.2332 22 2.75 22H8.25C9.7668 22 11 20.7668 11 19.25V11C11 9.13086 10.0676 7.48086 8.64531 6.48828C8.21562 6.1875 7.90625 5.71914 7.90625 5.19492V2.40625C7.90625 2.21719 8.06094 2.0625 8.25 2.0625C8.82148 2.0625 9.28125 1.60273 9.28125 1.03125C9.28125 0.459766 8.82148 0 8.25 0H7.90625H3.09375H2.75ZM5.5 16.4141C4.36133 16.4141 3.4375 15.5504 3.4375 14.4805C3.4375 13.7586 4.38711 12.4137 4.99727 11.6273C5.25508 11.2922 5.74922 11.2922 6.00703 11.6273C6.61289 12.4137 7.5625 13.7586 7.5625 14.4805C7.5625 15.5504 6.63867 16.4141 5.5 16.4141Z" fill="#155EEF"/>
</svg>
