<svg width="22" height="21" viewBox="0 0 22 21" fill="none" xmlns="http://www.w3.org/2000/svg">
<path d="M9.49154 1.72684L7.96691 2.29706C7.84559 2.34154 7.76471 2.45882 7.76471 2.58824C7.76471 2.71765 7.84559 2.83493 7.96691 2.87941L9.49154 3.44963L10.0618 4.97426C10.1063 5.09559 10.2235 5.17647 10.3529 5.17647C10.4824 5.17647 10.5996 5.09559 10.6441 4.97426L11.2143 3.44963L12.739 2.87941C12.8603 2.83493 12.9412 2.71765 12.9412 2.58824C12.9412 2.45882 12.8603 2.34154 12.739 2.29706L11.2143 1.72684L10.6441 0.202206C10.5996 0.0808823 10.4824 0 10.3529 0C10.2235 0 10.1063 0.0808823 10.0618 0.202206L9.49154 1.72684ZM1.86434 15.9904C1.10809 16.7467 1.10809 17.9761 1.86434 18.7364L3.2636 20.1357C4.01985 20.8919 5.24927 20.8919 6.00956 20.1357L21.4298 4.7114C22.186 3.95515 22.186 2.72573 21.4298 1.96544L20.0305 0.570221C19.2743 -0.186029 18.0449 -0.186029 17.2846 0.570221L1.86434 15.9904ZM19.5978 3.34044L15.3515 7.58676L14.4092 6.64448L18.6555 2.39816L19.5978 3.34044ZM0.303309 4.73971C0.121324 4.80846 0 4.98235 0 5.17647C0 5.37059 0.121324 5.54449 0.303309 5.61323L2.58824 6.47059L3.44559 8.75551C3.51434 8.9375 3.68824 9.05882 3.88235 9.05882C4.07647 9.05882 4.25037 8.9375 4.31912 8.75551L5.17647 6.47059L7.4614 5.61323C7.64338 5.54449 7.76471 5.37059 7.76471 5.17647C7.76471 4.98235 7.64338 4.80846 7.4614 4.73971L5.17647 3.88235L4.31912 1.59743C4.25037 1.41544 4.07647 1.29412 3.88235 1.29412C3.68824 1.29412 3.51434 1.41544 3.44559 1.59743L2.58824 3.88235L0.303309 4.73971ZM14.5386 15.0926C14.3566 15.1614 14.2353 15.3353 14.2353 15.5294C14.2353 15.7235 14.3566 15.8974 14.5386 15.9662L16.8235 16.8235L17.6809 19.1085C17.7496 19.2904 17.9235 19.4118 18.1176 19.4118C18.3118 19.4118 18.4857 19.2904 18.5544 19.1085L19.4118 16.8235L21.6967 15.9662C21.8787 15.8974 22 15.7235 22 15.5294C22 15.3353 21.8787 15.1614 21.6967 15.0926L19.4118 14.2353L18.5544 11.9504C18.4857 11.7684 18.3118 11.6471 18.1176 11.6471C17.9235 11.6471 17.7496 11.7684 17.6809 11.9504L16.8235 14.2353L14.5386 15.0926Z" fill="#155EEF"/>
</svg>
