<svg width="22" height="18" viewBox="0 0 22 18" fill="none" xmlns="http://www.w3.org/2000/svg">
<path d="M4.52908 1.83301C4.08992 1.83301 3.71186 2.1347 3.61257 2.5624L2.17671 8.71828C2.95956 8.48151 4.02118 8.24857 5.18209 8.24857C6.41555 8.24857 7.54209 8.51206 8.34404 8.7641C8.74883 8.89012 9.08106 9.01996 9.31401 9.11543C9.43239 9.16508 9.52404 9.20708 9.59278 9.23763C9.62715 9.25291 9.65388 9.26436 9.67297 9.27582L9.69589 9.28728L9.70352 9.29109H9.70734C9.70734 9.29109 9.70734 9.29109 9.46676 9.77608L9.70734 9.29109C9.92883 9.40184 10.1045 9.56987 10.2229 9.77608H11.7733C11.8917 9.57368 12.0673 9.40184 12.2888 9.29109L12.5294 9.77608C12.2888 9.29109 12.2888 9.29109 12.2888 9.29109H12.2927L12.3003 9.28728L12.3232 9.27582C12.3423 9.26818 12.369 9.25291 12.4034 9.23763C12.4721 9.20708 12.5638 9.16508 12.6822 9.11543C12.9151 9.01614 13.2474 8.89012 13.6521 8.7641C14.4541 8.51206 15.5768 8.24857 16.8141 8.24857C17.975 8.24857 19.0366 8.48151 19.8195 8.71828L18.3836 2.5624C18.2843 2.1347 17.9024 1.83301 17.4671 1.83301C17.3487 1.83301 17.2303 1.85593 17.1158 1.90175L15.9205 2.3791C15.4508 2.56622 14.9162 2.33709 14.729 1.86738C14.5419 1.39767 14.771 0.863045 15.2408 0.675924L16.436 0.198577C16.7645 0.0687381 17.112 0 17.4671 0C18.7579 0 19.8768 0.889776 20.1708 2.14615L21.8472 9.32546C21.9122 9.60424 21.958 9.88682 21.9809 10.1694C21.9924 10.242 22 10.3145 22 10.3871V10.6429V12.2201V12.8311C22 15.1949 20.0868 17.1081 17.723 17.1081H16.0274C13.7591 17.1081 11.884 15.3362 11.758 13.0679L11.7084 12.2201H10.2878L10.242 13.0679C10.116 15.3362 8.24093 17.1081 5.96876 17.1081H4.27704C1.91321 17.1081 0 15.1949 0 12.8311V12.2201V10.6429V10.3871C0 10.3145 0.00763756 10.242 0.0190939 10.1694C0.0420066 9.88682 0.087832 9.60424 0.152751 9.32546L1.8292 2.14615C2.11942 0.889776 3.23833 0 4.52908 0C4.8804 0 5.23173 0.0687381 5.56015 0.198577L6.75542 0.675924C7.22513 0.863045 7.45426 1.39767 7.26714 1.86738C7.08002 2.33709 6.54539 2.56622 6.07568 2.3791L4.8804 1.90175C4.76966 1.85593 4.65128 1.83301 4.52908 1.83301ZM2.44402 11.2043V12.8311C2.44402 13.8431 3.26506 14.6641 4.27704 14.6641H5.96876C6.94255 14.6641 7.74449 13.9042 7.79795 12.9342L7.89342 11.1928C7.80559 11.1623 7.7063 11.1279 7.60701 11.0974C6.95018 10.8912 6.08332 10.6964 5.17827 10.6964C4.27322 10.6964 3.41399 10.8912 2.7648 11.0974C2.64642 11.1356 2.53949 11.1699 2.4402 11.2081L2.44402 11.2043ZM19.5522 12.8311V11.2043C19.4529 11.1699 19.3421 11.1317 19.2276 11.0936C18.5784 10.8873 17.7191 10.6926 16.8141 10.6926C15.909 10.6926 15.0422 10.8873 14.3854 11.0936C14.2822 11.1241 14.1868 11.1585 14.0989 11.189L14.1944 12.9304C14.2479 13.9004 15.0536 14.6603 16.0236 14.6603H17.7191C18.7311 14.6603 19.5522 13.8393 19.5522 12.8273V12.8311Z" fill="#155EEF"/>
</svg>
