<svg width="22" height="22" viewBox="0 0 22 22" fill="none" xmlns="http://www.w3.org/2000/svg">
<path d="M7.30459 0.0048571C6.3235 -0.0639913 5.50162 0.60728 5.26065 1.49801L4.75289 3.40855C4.77441 3.40855 4.80023 3.40855 4.82174 3.40855C12.4252 3.40855 18.5914 9.57479 18.5914 17.1782C18.5914 17.1997 18.5914 17.2256 18.5914 17.2471L20.502 16.7393C21.397 16.5027 22.064 15.6765 21.9951 14.6954C21.4529 6.82945 15.1705 0.547038 7.30459 0.0048571ZM17.2058 17.6171C17.2101 17.4708 17.2145 17.3245 17.2145 17.1782C17.2145 10.3321 11.6679 4.78552 4.82174 4.78552C4.67544 4.78552 4.52914 4.78982 4.38283 4.79412L0.0238688 21.1327C-0.0406766 21.3694 0.0281718 21.6233 0.200293 21.7954C0.372414 21.9675 0.626292 22.0363 0.862959 21.9718L17.2058 17.6171ZM7.57568 8.91642C7.94087 8.91642 8.29111 9.06149 8.54934 9.31973C8.80757 9.57796 8.95265 9.92819 8.95265 10.2934C8.95265 10.6586 8.80757 11.0088 8.54934 11.2671C8.29111 11.5253 7.94087 11.6704 7.57568 11.6704C7.21048 11.6704 6.86025 11.5253 6.60202 11.2671C6.34378 11.0088 6.19871 10.6586 6.19871 10.2934C6.19871 9.92819 6.34378 9.57796 6.60202 9.31973C6.86025 9.06149 7.21048 8.91642 7.57568 8.91642ZM10.3296 14.4243C10.3296 14.0591 10.4747 13.7089 10.7329 13.4506C10.9912 13.1924 11.3414 13.0473 11.7066 13.0473C12.0718 13.0473 12.422 13.1924 12.6802 13.4506C12.9385 13.7089 13.0835 14.0591 13.0835 14.4243C13.0835 14.7895 12.9385 15.1397 12.6802 15.398C12.422 15.6562 12.0718 15.8013 11.7066 15.8013C11.3414 15.8013 10.9912 15.6562 10.7329 15.398C10.4747 15.1397 10.3296 14.7895 10.3296 14.4243ZM4.13326 16.4897C4.13326 16.1246 4.27833 15.7743 4.53656 15.5161C4.79479 15.2579 5.14503 15.1128 5.51023 15.1128C5.87542 15.1128 6.22566 15.2579 6.48389 15.5161C6.74212 15.7743 6.88719 16.1246 6.88719 16.4897C6.88719 16.8549 6.74212 17.2052 6.48389 17.4634C6.22566 17.7216 5.87542 17.8667 5.51023 17.8667C5.14503 17.8667 4.79479 17.7216 4.53656 17.4634C4.27833 17.2052 4.13326 16.8549 4.13326 16.4897Z" fill="#155EEF"/>
</svg>
