<svg width="22" height="18" viewBox="0 0 22 18" fill="none" xmlns="http://www.w3.org/2000/svg">
<path d="M14.3 0C12.1103 0 8.8 1.1 8.8 1.1V5.5C10.45 5.5 11.4125 6.05 12.375 6.6C13.3375 7.15 14.3 7.7 15.95 7.7C17.8888 7.7 22 7.15 22 4.4C22 1.65 17.6 0 14.3 0ZM4.4 3.3C4.4 4.51344 5.38656 5.5 6.6 5.5H7.7V1.1H6.6C5.38656 1.1 4.4 2.08656 4.4 3.3ZM9.9 17.6C13.2 17.6 17.6 15.95 17.6 13.2C17.6 10.45 13.4888 9.9 11.55 9.9C9.9 9.9 8.9375 10.45 7.975 11C7.0125 11.55 6.05 12.1 4.4 12.1V16.5C4.4 16.5 7.71031 17.6 9.9 17.6ZM0 14.3C0 15.5134 0.986563 16.5 2.2 16.5H3.3V12.1H2.2C0.986563 12.1 0 13.0866 0 14.3Z" fill="#155EEF"/>
</svg>
