<svg width="22" height="16" viewBox="0 0 22 16" fill="none" xmlns="http://www.w3.org/2000/svg">
<path d="M2.2 4.4C2.2 1.96969 4.16969 0 6.6 0H15.4C17.8303 0 19.8 1.96969 19.8 4.4V5.555C18.5453 5.80938 17.6 6.91969 17.6 8.25V9.9H4.4V8.25C4.4 6.91969 3.45469 5.80938 2.2 5.555V4.4ZM18.7 8.25C18.7 7.53156 19.1606 6.91969 19.8 6.69281C19.9719 6.63094 20.1575 6.6 20.35 6.6C21.2609 6.6 22 7.33906 22 8.25V14.3C22 14.9084 21.5084 15.4 20.9 15.4H19.8C19.1916 15.4 18.7 14.9084 18.7 14.3H3.3C3.3 14.9084 2.80844 15.4 2.2 15.4H1.1C0.491562 15.4 0 14.9084 0 14.3V8.25C0 7.33906 0.739062 6.6 1.65 6.6C1.8425 6.6 2.02813 6.63438 2.2 6.69281C2.83938 6.91969 3.3 7.53156 3.3 8.25V9.9V11H4.4H17.6H18.7V9.9V8.25Z" fill="#155EEF"/>
</svg>
