<svg width="22" height="18" viewBox="0 0 22 18" fill="none" xmlns="http://www.w3.org/2000/svg">
<path d="M7.28082 0C7.54894 0 7.77238 0.195937 7.85488 0.45375C8.27769 1.78406 9.52551 2.75 11.0002 2.75C12.4749 2.75 13.7227 1.78406 14.1455 0.45375C14.228 0.195937 14.4514 0 14.7196 0H15.1527C15.9261 0 16.6721 0.271562 17.2668 0.766562L21.6049 4.37937C21.8318 4.56844 21.9727 4.84344 21.9968 5.13906C22.0208 5.43469 21.9246 5.72688 21.7286 5.95031L19.8036 8.15031C19.4118 8.60063 18.7311 8.65219 18.2705 8.27063L16.5002 6.79594V15.4C16.5002 16.6134 15.5136 17.6 14.3002 17.6H7.70019C6.48675 17.6 5.50019 16.6134 5.50019 15.4V6.79594L3.72988 8.27063C3.27269 8.65219 2.59207 8.60063 2.19676 8.15031L0.271755 5.95031C0.0758178 5.72688 -0.0204322 5.43469 0.00363027 5.13906C0.0276928 4.84344 0.16863 4.56844 0.395505 4.37937L4.73363 0.766562C5.32832 0.271562 6.07425 0 6.84769 0H7.28082Z" fill="#475467"/>
</svg>
