<svg width="22" height="18" viewBox="0 0 22 18" fill="none" xmlns="http://www.w3.org/2000/svg">
<path d="M2.2 2.2H9.9V2.53688C9.9 3.8775 9.08531 5.08063 7.84094 5.57562C5.76125 6.41094 4.4 8.42188 4.4 10.6631V13.2H2.2V2.2ZM12.1 2.2H19.8V13.2H17.4728L17.3456 13.0453L14.7606 9.94469C14.4478 9.57 13.9838 9.35 13.4922 9.35H11.0481L9.63875 7.18094C9.62844 7.16375 9.61812 7.14656 9.60437 7.13281C11.1409 6.13594 12.0966 4.41719 12.0966 2.54031V2.20344L12.1 2.2ZM14.6094 13.2H13.035L14.5028 15.4H20.35C21.2609 15.4 22 14.6609 22 13.75V1.65C22 0.739062 21.2609 0 20.35 0H1.65C0.739062 0 0 0.739062 0 1.65V13.75C0 14.6609 0.739062 15.4 1.65 15.4H10.5944L11.7356 17.1119C12.0725 17.6172 12.7566 17.7547 13.2619 17.4178C13.7672 17.0809 13.9047 16.3969 13.5678 15.8916L10.6734 11.55H13.2378L14.6128 13.2H14.6094ZM9.12656 13.2H6.6V10.6631C6.6 10.3125 6.655 9.97219 6.76156 9.64906L9.12656 13.2ZM6.6 4.4C6.6 3.96239 6.42616 3.54271 6.11673 3.23327C5.80729 2.92384 5.38761 2.75 4.95 2.75C4.51239 2.75 4.09271 2.92384 3.78327 3.23327C3.47384 3.54271 3.3 3.96239 3.3 4.4C3.3 4.83761 3.47384 5.25729 3.78327 5.56673C4.09271 5.87616 4.51239 6.05 4.95 6.05C5.38761 6.05 5.80729 5.87616 6.11673 5.56673C6.42616 5.25729 6.6 4.83761 6.6 4.4Z" fill="#155EEF"/>
</svg>
