<svg width="22" height="20" viewBox="0 0 22 20" fill="none" xmlns="http://www.w3.org/2000/svg">
<path d="M5.01517 0.421096C5.20853 0.158985 5.5179 0 5.84447 0H16.157C16.4836 0 16.793 0.154688 16.9863 0.421096L21.7988 6.95238C22.091 7.34769 22.061 7.8934 21.7344 8.25863L11.7656 19.2587C11.5722 19.4735 11.2929 19.5981 11.0007 19.5981C10.7086 19.5981 10.4336 19.4735 10.2359 19.2587L0.267095 8.25863C-0.063766 7.8934 -0.0895474 7.34769 0.202642 6.95238L5.01517 0.421096ZM6.66947 2.13126C6.52767 2.23868 6.489 2.43204 6.57924 2.58243L9.04566 6.69027L2.72062 7.21879C2.54445 7.23168 2.40695 7.38207 2.40695 7.56254C2.40695 7.74301 2.54445 7.8891 2.72062 7.90629L10.9707 8.59379C10.9879 8.59379 11.0093 8.59379 11.0265 8.59379L19.2766 7.90629C19.4527 7.8934 19.5902 7.74301 19.5902 7.56254C19.5902 7.38207 19.4527 7.23597 19.2766 7.21879L12.9558 6.69456L15.4222 2.58673C15.5125 2.43634 15.4738 2.23868 15.332 2.13556C15.1902 2.03243 14.9926 2.04962 14.8722 2.17853L11.0007 6.368L7.12924 2.17423C7.00893 2.04532 6.81127 2.02813 6.66947 2.13126Z" fill="#155EEF"/>
</svg>
