<svg width="20" height="22" viewBox="0 0 20 22" fill="none" xmlns="http://www.w3.org/2000/svg">
<path d="M15.9285 4.1293C14.8715 1.69727 12.448 0 9.625 0C6.80195 0 4.37852 1.69727 3.32148 4.1293C2.6168 4.18945 2.0625 4.77812 2.0625 5.5V8.25C2.0625 8.97188 2.6168 9.56055 3.32148 9.6207C4.37852 12.0527 6.80195 13.75 9.625 13.75C12.448 13.75 14.8715 12.0527 15.9285 9.6207C16.6332 9.56055 17.1875 8.97188 17.1875 8.25V5.5C17.1875 4.77812 16.6332 4.18945 15.9285 4.1293ZM14.4375 6.1875V6.875C14.4375 9.15234 12.5898 11 10.3125 11H8.9375C6.66016 11 4.8125 9.15234 4.8125 6.875V6.1875C4.8125 5.04883 5.73633 4.125 6.875 4.125H12.375C13.5137 4.125 14.4375 5.04883 14.4375 6.1875ZM8.13398 6.99102L7.87617 6.08008C7.8375 5.93828 7.70859 5.84375 7.5625 5.84375C7.41641 5.84375 7.2875 5.93828 7.24883 6.08008L6.99102 6.99102L6.08008 7.24883C5.93828 7.2875 5.84375 7.41641 5.84375 7.5625C5.84375 7.70859 5.93828 7.8375 6.08008 7.87617L6.99102 8.13398L7.24883 9.04492C7.2875 9.18672 7.41641 9.28125 7.5625 9.28125C7.70859 9.28125 7.8375 9.18672 7.87617 9.04492L8.13398 8.13398L9.04492 7.87617C9.18672 7.8375 9.28125 7.70859 9.28125 7.5625C9.28125 7.41641 9.18672 7.2875 9.04492 7.24883L8.13398 6.99102ZM4.84258 13.5996C2.00664 14.7211 0 17.4883 0 20.7238C0 21.4285 0.571484 22 1.27617 22H5.5V19.25C5.5 18.4895 6.11445 17.875 6.875 17.875H12.375C13.1355 17.875 13.75 18.4895 13.75 19.25V22H17.9738C18.6785 22 19.25 21.4285 19.25 20.7238C19.25 17.4883 17.2434 14.7211 14.4074 13.5996C13.0582 14.5578 11.4082 15.125 9.625 15.125C7.8418 15.125 6.1918 14.5578 4.84258 13.5996ZM7.5625 19.25C7.18437 19.25 6.875 19.5594 6.875 19.9375V22H8.25V19.9375C8.25 19.5594 7.94063 19.25 7.5625 19.25ZM11.6875 20.625C11.8698 20.625 12.0447 20.5526 12.1736 20.4236C12.3026 20.2947 12.375 20.1198 12.375 19.9375C12.375 19.7552 12.3026 19.5803 12.1736 19.4514C12.0447 19.3224 11.8698 19.25 11.6875 19.25C11.5052 19.25 11.3303 19.3224 11.2014 19.4514C11.0724 19.5803 11 19.7552 11 19.9375C11 20.1198 11.0724 20.2947 11.2014 20.4236C11.3303 20.5526 11.5052 20.625 11.6875 20.625Z" fill="#155EEF"/>
</svg>
