<svg width="24" height="24" viewBox="0 0 24 24" fill="none" xmlns="http://www.w3.org/2000/svg">
<path d="M2.09983 7.10373C1.44337 6.72567 1 6.01422 1 5.19966C1 3.98641 1.98641 3 3.19966 3C4.01422 3 4.72567 3.44337 5.10373 4.09983H12.2939C12.6719 3.44337 13.3834 3 14.1979 3C15.4112 3 16.3976 3.98641 16.3976 5.19966C16.3976 6.01422 15.9542 6.72567 15.2978 7.10373V10.9944C15.9542 11.3759 16.3976 12.0839 16.3976 12.8985C16.3976 14.1117 15.4112 15.0981 14.1979 15.0981C13.3834 15.0981 12.6719 14.6547 12.2939 13.9983H5.10373C4.72223 14.6547 4.01422 15.0981 3.19966 15.0981C1.98641 15.0981 1 14.1117 1 12.8985C1 12.0839 1.44337 11.3724 2.09983 10.9944V7.10373ZM5.10373 6.29948C4.91126 6.63287 4.63287 6.91126 4.29948 7.10373V10.9944C4.63287 11.1868 4.91126 11.4652 5.10373 11.7986H12.2939C12.4863 11.4652 12.7647 11.1868 13.0981 10.9944V7.10373C12.7647 6.91126 12.4863 6.63287 12.2939 6.29948H5.10373ZM11.7027 19.4974C11.3212 20.1539 10.6132 20.5973 9.79863 20.5973C8.58538 20.5973 7.59897 19.6108 7.59897 18.3976C7.59897 17.583 8.04234 16.8716 8.6988 16.4935V15.0981H10.8985V16.4935C11.2318 16.686 11.5102 16.9644 11.7027 17.2978H18.8928C19.0853 16.9644 19.3637 16.686 19.6971 16.4935V12.6029C19.3637 12.4104 19.0853 12.132 18.8928 11.7986H17.3118C17.1262 11.2693 16.81 10.8053 16.401 10.4376V9.59897H18.8963C19.2778 8.94251 19.9858 8.49914 20.8003 8.49914C22.0136 8.49914 23 9.48555 23 10.6988C23 11.5134 22.5566 12.2248 21.9002 12.6029V16.4935C22.5566 16.875 23 17.583 23 18.3976C23 19.6108 22.0136 20.5973 20.8003 20.5973C19.9858 20.5973 19.2743 20.1539 18.8963 19.4974H11.7027Z" fill="#155EEF"/>
</svg>
