<svg width="22" height="22" viewBox="0 0 22 22" fill="none" xmlns="http://www.w3.org/2000/svg">
<path d="M1.22222 5.13047C0.492708 4.65781 0 3.76836 0 2.75C0 1.2332 1.09618 0 2.44444 0C3.34965 0 4.14028 0.554297 4.56042 1.375H17.4396C17.8597 0.554297 18.6503 0 19.5556 0C20.9038 0 22 1.2332 22 2.75C22 3.76836 21.5073 4.65781 20.7778 5.13047V16.8695C21.5073 17.3465 22 18.2316 22 19.25C22 20.7668 20.9038 22 19.5556 22C18.6503 22 17.8597 21.4457 17.4396 20.625H4.56042C4.13646 21.4457 3.34965 22 2.44444 22C1.09618 22 0 20.7668 0 19.25C0 18.2316 0.492708 17.3422 1.22222 16.8695V5.13047ZM17.4396 4.125H4.56042C4.34653 4.5418 4.03715 4.88984 3.66667 5.13047V16.8695C4.03715 17.1102 4.34653 17.4582 4.56042 17.875H17.4396C17.6535 17.4582 17.9628 17.1102 18.3333 16.8695V5.13047C17.9628 4.88984 17.6535 4.5418 17.4396 4.125ZM4.88889 6.875C4.88889 6.11445 5.43507 5.5 6.11111 5.5H11C11.676 5.5 12.2222 6.11445 12.2222 6.875V11C12.2222 11.7605 11.676 12.375 11 12.375H6.11111C5.43507 12.375 4.88889 11.7605 4.88889 11V6.875ZM9.77778 13.75H11C12.3483 13.75 13.4444 12.5168 13.4444 11V9.625H15.8889C16.5649 9.625 17.1111 10.2395 17.1111 11V15.125C17.1111 15.8855 16.5649 16.5 15.8889 16.5H11C10.324 16.5 9.77778 15.8855 9.77778 15.125V13.75Z" fill="#155EEF"/>
</svg>
