<svg width="138" height="36" viewBox="0 0 138 36" fill="none" xmlns="http://www.w3.org/2000/svg">
<g clip-path="url(#clip0_1899_201707)">
<path d="M21.077 3.09139L17.9114 2.24316L15.2438 12.1992L12.8353 3.21082L9.66966 4.05905L12.2718 13.7703L5.79043 7.28893L3.47304 9.60633L10.5823 16.7157L1.72884 14.3434L0.880615 17.5089L10.5541 20.101C10.4434 19.6233 10.3848 19.1255 10.3848 18.6141C10.3848 14.9941 13.3194 12.0595 16.9394 12.0595C20.5594 12.0595 23.494 14.9941 23.494 18.6141C23.494 19.1222 23.4361 19.6169 23.3267 20.0918L32.1182 22.4474L32.9664 19.2818L23.2544 16.6795L32.1085 14.3071L31.2602 11.1415L21.5486 13.7436L28.03 7.26232L25.7126 4.94492L18.7019 11.9556L21.077 3.09139Z" fill="#FF4405"/>
<path d="M23.3175 20.1287C23.0461 21.2761 22.4731 22.3069 21.6869 23.1328L28.0559 29.5019L30.3733 27.1845L23.3175 20.1287Z" fill="#FF4405"/>
<path d="M21.6226 23.1994C20.8269 24.0121 19.8214 24.6185 18.6937 24.9311L21.0113 33.5803L24.1769 32.732L21.6226 23.1994Z" fill="#FF4405"/>
<path d="M18.5755 24.9627C18.0523 25.0972 17.504 25.1687 16.9388 25.1687C16.3334 25.1687 15.7471 25.0866 15.1906 24.9329L12.8709 33.59L16.0365 34.4382L18.5755 24.9627Z" fill="#FF4405"/>
<path d="M15.0786 24.901C13.9682 24.5729 12.9806 23.9587 12.2011 23.1437L5.81644 29.5284L8.13384 31.8458L15.0786 24.901Z" fill="#FF4405"/>
<path d="M12.1485 23.0873C11.3824 22.2671 10.8244 21.2501 10.5588 20.1203L1.73865 22.4837L2.58687 25.6493L12.1485 23.0873Z" fill="#FF4405"/>
</g>
<path d="M52.015 9.68164V21.0891L44.7025 9.68164H41.7775V25.4316H44.7025V14.1141L52.015 25.4316H54.94V9.68164H52.015Z" fill="#101828"/>
<path d="M56.258 12.6291H59.273V9.68164H56.258V12.6291ZM56.303 25.4316V14.1816H59.228V25.4316H56.303Z" fill="#101828"/>
<path d="M71.8131 19.8066C71.8131 15.9141 69.0456 14.0691 66.1206 14.0466C63.1731 14.0241 60.4506 15.9141 60.4506 19.8066C60.4506 23.6991 63.1731 25.5891 66.1206 25.5666C68.7981 25.5441 70.6431 24.3066 71.4981 22.2591L69.2256 21.3141C68.5281 22.7091 67.4256 23.2041 66.1206 23.2266C64.9956 23.2491 63.7131 22.7091 63.4431 20.7066H71.7456C71.7906 20.4141 71.8131 20.1216 71.8131 19.8066ZM66.1206 16.3641C67.2456 16.3866 68.3931 16.9941 68.7531 18.6141H63.4881C63.8706 16.9716 65.0181 16.3416 66.1206 16.3641Z" fill="#101828"/>
<path d="M78.5729 16.2741V14.0466H76.7279V11.0316L73.8029 11.9316V14.0466H71.9579V16.2741H73.8029V22.1016C73.8029 24.3066 73.9829 25.4316 77.4029 25.4316H78.1904V22.8666H77.4029C76.8629 22.8666 76.7279 22.7766 76.7279 22.1016V16.2741H78.5729Z" fill="#101828"/>
<path d="M82.9193 22.9791L89.1293 16.6341V14.1816H79.8143V16.6341H85.8443L79.6343 22.9791V25.4316H89.1968V22.9791H82.9193Z" fill="#101828"/>
<path d="M90.2455 22.2591L93.193 21.8091C93.3955 22.9341 94.723 23.3616 95.533 23.3616C96.3655 23.3616 97.8055 23.1816 97.8055 21.8316C97.8055 19.1991 90.583 22.4841 90.583 17.4441C90.583 14.2041 94.3405 14.0241 95.533 14.0241C96.658 14.0241 99.9205 14.2041 100.596 16.8141L97.8055 17.3991C97.558 16.2066 96.298 15.9816 95.623 15.9816C94.948 15.9816 93.508 16.1391 93.508 17.4441C93.508 20.0541 100.731 16.7241 100.731 21.8316C100.731 25.2741 96.7705 25.5666 95.533 25.5666C94.408 25.5666 90.8305 25.2741 90.2455 22.2591Z" fill="#101828"/>
<path d="M104.53 19.8066C104.53 22.5516 105.993 23.3841 107.523 23.3616C108.895 23.3391 109.84 22.7766 110.403 21.2016L112.81 22.3716C111.933 24.6666 109.795 25.5441 107.523 25.5666C104.575 25.5891 101.605 23.6991 101.605 19.8066C101.605 15.9141 104.575 14.0241 107.523 14.0466C109.795 14.0691 111.933 14.9466 112.81 17.2416L110.403 18.4116C109.84 16.8366 108.895 16.2741 107.523 16.2516C105.993 16.2291 104.53 17.0616 104.53 19.8066Z" fill="#101828"/>
<path d="M120.663 14.0016C119.155 14.0016 117.783 14.7891 116.905 16.4766V9.68164H113.98V25.4316H116.905V21.4491C116.905 16.2966 119.043 15.8691 119.83 15.8691C121.09 15.8691 121.27 17.1741 121.27 19.0866V25.4316H124.195V19.0866C124.195 16.7016 123.813 14.0016 120.663 14.0016Z" fill="#101828"/>
<path d="M136.545 19.8066C136.545 15.9141 133.777 14.0691 130.852 14.0466C127.905 14.0241 125.182 15.9141 125.182 19.8066C125.182 23.6991 127.905 25.5891 130.852 25.5666C133.53 25.5441 135.375 24.3066 136.23 22.2591L133.957 21.3141C133.26 22.7091 132.157 23.2041 130.852 23.2266C129.727 23.2491 128.445 22.7091 128.175 20.7066H136.477C136.522 20.4141 136.545 20.1216 136.545 19.8066ZM130.852 16.3641C131.977 16.3866 133.125 16.9941 133.485 18.6141H128.22C128.602 16.9716 129.75 16.3416 130.852 16.3641Z" fill="#101828"/>
<defs>
<clipPath id="clip0_1899_201707">
<rect width="33" height="33" fill="white" transform="translate(0.625 1.5)"/>
</clipPath>
</defs>
</svg>
