<svg width="41" height="41" viewBox="0 0 41 41" fill="none" xmlns="http://www.w3.org/2000/svg">
<g filter="url(#filter0_d_1105_112243)">
<path d="M3.35986 14.9444C3.35986 10.5885 3.35986 8.4105 4.20759 6.74674C4.95327 5.28326 6.14312 4.09341 7.6066 3.34773C9.27036 2.5 11.4483 2.5 15.8043 2.5H25.9154C30.2714 2.5 32.4494 2.5 34.1131 3.34773C35.5766 4.09341 36.7665 5.28326 37.5121 6.74674C38.3599 8.4105 38.3599 10.5885 38.3599 14.9444V25.0556C38.3599 29.4115 38.3599 31.5895 37.5121 33.2533C36.7665 34.7167 35.5766 35.9066 34.1131 36.6523C32.4494 37.5 30.2714 37.5 25.9154 37.5H15.8043C11.4483 37.5 9.27036 37.5 7.6066 36.6523C6.14312 35.9066 4.95327 34.7167 4.20759 33.2533C3.35986 31.5895 3.35986 29.4115 3.35986 25.0556V14.9444Z" fill="white"/>
<path d="M20.8625 15.5636L16.5364 7.92896C16.68 7.78271 16.8453 7.68679 17.0105 7.62231C15.7348 8.04218 15.1494 9.47476 15.1494 9.47476L7.2463 23.4184C7.1351 23.8556 7.1042 24.2503 7.1181 24.5978H15.7441L20.8625 15.5636Z" fill="#34A853"/>
<path d="M20.8623 15.5636L25.9807 24.5978H34.6067C34.6206 24.2503 34.5897 23.8556 34.4785 23.4184L26.5754 9.47476C26.5754 9.47476 25.9885 8.04218 24.7143 7.62231C24.878 7.68679 25.0448 7.78271 25.1884 7.92896L20.8623 15.5636Z" fill="#FBBC05"/>
<path d="M20.8622 15.564L25.1883 7.92939C25.0447 7.78314 24.8779 7.68722 24.7142 7.62274C24.5258 7.56141 24.3234 7.52053 24.1041 7.50952H23.8755H17.8489H17.6204C17.4026 7.51896 17.1987 7.55984 17.0103 7.62274C16.8466 7.68722 16.6798 7.78314 16.5361 7.92939L20.8622 15.564Z" fill="#188038"/>
<path d="M15.7454 24.5979L11.4687 32.1461C11.4687 32.1461 11.3266 32.0769 11.1335 31.9338C11.7405 32.4008 12.3305 32.4999 12.3305 32.4999H29.1268C30.0535 32.4999 30.2466 32.1461 30.2466 32.1461C30.2497 32.1445 30.2512 32.1429 30.2543 32.1413L25.9807 24.5979H15.7454Z" fill="#4285F4"/>
<path d="M15.7458 24.5979H7.11987C7.16312 25.6232 7.60793 26.2223 7.60793 26.2223L7.93227 26.7853C7.95544 26.8183 7.96934 26.8372 7.96934 26.8372L8.67517 28.0763L10.2598 30.8346C10.3061 30.9462 10.3602 31.0484 10.4174 31.1459C10.439 31.179 10.4591 31.2151 10.4822 31.2466C10.4884 31.256 10.4946 31.2654 10.5008 31.2749C10.6969 31.5516 10.9162 31.7655 11.1355 31.9338C11.3286 32.0784 11.4707 32.1461 11.4707 32.1461L15.7458 24.5979Z" fill="#1967D2"/>
<path d="M25.9807 24.5979H34.6067C34.5634 25.6232 34.1186 26.2223 34.1186 26.2223L33.7943 26.7853C33.7711 26.8183 33.7572 26.8372 33.7572 26.8372L33.0514 28.0763L31.4667 30.8346C31.4204 30.9462 31.3663 31.0484 31.3092 31.1459C31.2876 31.179 31.2675 31.2151 31.2443 31.2466C31.2381 31.256 31.232 31.2654 31.2258 31.2749C31.0296 31.5516 30.8103 31.7655 30.591 31.9338C30.3979 32.0784 30.2559 32.1461 30.2559 32.1461L25.9807 24.5979Z" fill="#EA4335"/>
</g>
<defs>
<filter id="filter0_d_1105_112243" x="-1.14014" y="-1" width="44" height="44" filterUnits="userSpaceOnUse" color-interpolation-filters="sRGB">
<feFlood flood-opacity="0" result="BackgroundImageFix"/>
<feColorMatrix in="SourceAlpha" type="matrix" values="0 0 0 0 0 0 0 0 0 0 0 0 0 0 0 0 0 0 127 0" result="hardAlpha"/>
<feOffset dy="1"/>
<feGaussianBlur stdDeviation="1"/>
<feColorMatrix type="matrix" values="0 0 0 0 0.0627451 0 0 0 0 0.0941176 0 0 0 0 0.156863 0 0 0 0.05 0"/>
<feBlend mode="normal" in2="BackgroundImageFix" result="effect1_dropShadow_1105_112243"/>
<feBlend mode="normal" in="SourceGraphic" in2="effect1_dropShadow_1105_112243" result="shape"/>
</filter>
</defs>
</svg>
