<svg width="47" height="23" viewBox="0 0 47 23" fill="none" xmlns="http://www.w3.org/2000/svg">
<path d="M27.051 11.1065C27.051 4.50354 31.737 0.563043 37.8075 0.563043C43.239 0.563043 46.86 3.33204 46.86 7.16604C46.86 10.787 43.7715 13.13 40.3635 13.13C38.4465 13.13 37.062 12.8105 36.1035 12.065C35.784 11.7455 35.571 11.852 35.571 12.1715C35.571 13.556 36.1035 14.621 36.9555 15.5795C37.701 16.325 39.0855 16.8575 40.3635 16.8575C41.748 16.8575 42.9195 16.538 43.9845 16.0055C45.0495 15.473 45.9015 15.686 46.434 16.538C47.073 17.4965 46.221 18.7745 45.4755 19.6265C44.091 21.1175 41.4285 22.1825 38.0205 22.1825C31.098 21.9695 27.051 17.2835 27.051 11.1065ZM12.8865 15.473C13.5255 15.473 13.9515 15.7925 14.3775 16.538L16.2945 19.6265C17.04 20.798 17.679 21.65 19.0635 21.65C20.448 21.65 21.1935 21.1175 21.8325 19.52C22.6845 17.603 23.643 15.1535 24.3885 11.9585C25.347 8.33754 25.773 6.20754 25.773 4.39704C25.773 2.58654 25.2405 1.52154 23.217 1.20204C20.5545 0.669543 16.827 0.456543 12.8865 0.456543C8.946 0.456543 5.2185 0.669543 2.556 1.09554C0.5325 1.52154 0 2.58654 0 4.39704C0 6.20754 0.426 8.33754 1.278 11.9585C2.13 15.1535 2.982 17.4965 3.834 19.52C4.5795 21.1175 5.2185 21.65 6.603 21.65C7.9875 21.65 8.6265 20.798 9.372 19.6265L11.289 16.538C11.8215 15.899 12.2475 15.473 12.8865 15.473Z" fill="black"/>
</svg>
