<svg width="33" height="32" viewBox="0 0 33 32" fill="none" xmlns="http://www.w3.org/2000/svg">
<path d="M8.92084 21.7652C10.0465 23.2822 10.7077 25.0887 10.7077 26.9713C10.7077 31.8485 5.78389 31.8485 5.78389 31.8485C5.78389 31.8485 0.860107 31.8485 0.860107 26.9713V5.02876C0.860107 0.151611 5.78389 0.151611 5.78389 0.151611C5.78389 0.151611 10.7077 0.151611 10.7077 5.02876C10.7077 6.91138 10.0465 8.71784 8.92084 10.2349C7.72142 11.8495 7.01407 13.8418 7.01407 16.0015C7.01407 18.1614 7.72142 20.1537 8.92084 21.7682V21.7652ZM26.7062 15.9985C26.7062 18.1553 25.9988 20.1506 24.7993 21.7652C23.6737 23.2822 23.0125 25.0887 23.0125 26.9713C23.0125 31.8485 27.9363 31.8485 27.9363 31.8485C27.9363 31.8485 32.8601 31.8485 32.8601 26.9713V5.02876C32.8601 0.151611 27.9363 0.151611 27.9363 0.151611C27.9363 0.151611 23.0125 0.151611 23.0125 5.02876C23.0125 6.91138 23.6737 8.71784 24.7993 10.2349C25.9988 11.8495 26.7062 13.8418 26.7062 16.0015V15.9985ZM16.8586 9.90289C13.4601 9.90289 10.7046 12.6323 10.7046 15.9985C10.7046 19.3647 13.4601 22.0942 16.8586 22.0942C20.2569 22.0942 23.0125 19.3647 23.0125 15.9985C23.0125 12.6323 20.2569 9.90289 16.8586 9.90289Z" fill="#FD6720"/>
</svg>
